<svg width="86" height="86" viewBox="0 0 86 86" fill="none" xmlns="http://www.w3.org/2000/svg">
<g id="3d-briefcase 1" clip-path="url(#clip0_30_534)">
<g id="Group">
<g id="Group_2">
<g id="Group_3">
<path id="Vector" d="M61.1816 11.2128C60.8071 9.49443 59.6397 8.19604 58.1951 7.91217C46.5465 5.62107 34.8256 5.62107 23.177 7.91217C21.7325 8.19604 20.5668 9.49443 20.1905 11.2128C19.0651 16.3576 18.5024 21.516 18.5024 26.6743H25.9384C25.9384 22.9622 26.3113 19.2501 27.0588 15.5463C27.309 14.3084 28.0851 13.3745 29.0458 13.1713C36.7909 11.5218 44.583 11.5218 52.3263 13.1713C53.2871 13.3745 54.0631 14.3084 54.3134 15.5463C55.0608 19.2501 55.4354 22.9622 55.4354 26.6743H62.8697C62.8697 21.516 62.307 16.3576 61.1816 11.2128Z" fill="url(#paint0_linear_30_534)"/>
</g>
<g id="Group_4">
<path id="Vector_2" d="M58.1951 7.9122C52.9746 6.88541 47.7398 6.32036 42.5034 6.21387V11.9655C45.7817 12.074 49.0582 12.4751 52.3262 13.1713C53.287 13.3745 54.063 14.3084 54.3133 15.5464C55.0608 19.2501 55.4353 22.9622 55.4353 26.6743H62.8696C62.8696 21.516 62.3069 16.3577 61.1815 11.2128C60.807 9.49446 59.6396 8.19607 58.1951 7.9122Z" fill="url(#paint1_linear_30_534)"/>
<path id="Vector_3" d="M58.1951 7.9122C52.9746 6.88541 47.7398 6.32036 42.5034 6.21387V11.9655C45.7817 12.074 49.0582 12.4751 52.3262 13.1713C53.287 13.3745 54.063 14.3084 54.3133 15.5464C55.0608 19.2501 55.4353 22.9622 55.4353 26.6743H62.8696C62.8696 21.516 62.3069 16.3577 61.1815 11.2128C60.807 9.49446 59.6396 8.19607 58.1951 7.9122Z" fill="url(#paint2_linear_30_534)"/>
</g>
</g>
<path id="Vector_4" d="M54.313 15.5463C55.0605 19.25 55.4351 22.9621 55.4351 26.6743H62.8693C62.8693 22.4426 62.4899 18.2108 61.7325 13.9866H53.5981C53.9373 14.3983 54.1894 14.9349 54.313 15.5463Z" fill="url(#paint3_linear_30_534)"/>
<path id="Vector_5" d="M27.0588 15.5463C27.1824 14.9349 27.4345 14.3983 27.7736 13.9866H19.6393C18.8819 18.2108 18.5024 22.4426 18.5024 26.6743H25.9384C25.9384 22.9621 26.3113 19.25 27.0588 15.5463Z" fill="url(#paint4_linear_30_534)"/>
<g id="Group_5">
<g id="Group_6">
<g id="Group_7">
<g id="Group_8">
<path id="Vector_6" d="M27.3416 27.3532C23.6184 27.896 19.8724 27.896 16.1492 27.3532C15.6874 27.2859 15.3144 26.9785 15.1943 26.5715C14.475 24.134 14.4749 21.6831 15.1943 19.2454C15.3144 18.8384 15.6874 18.5309 16.1492 18.4637C19.8724 17.921 23.6184 17.921 27.3416 18.4637C27.8034 18.531 28.1764 18.8384 28.2965 19.2454C29.0159 21.6831 29.0158 24.134 28.2965 26.5715C28.1764 26.9785 27.8034 27.2859 27.3416 27.3532Z" fill="url(#paint5_linear_30_534)"/>
</g>
<g id="Group_9">
<path id="Vector_7" d="M27.3416 27.3532C23.6184 27.896 19.8724 27.896 16.1492 27.3532C15.6874 27.2859 15.3144 26.9785 15.1943 26.5715C14.475 24.134 14.4749 21.6831 15.1943 19.2454C15.3144 18.8384 15.6874 18.5309 16.1492 18.4637C19.8724 17.921 23.6184 17.921 27.3416 18.4637C27.8034 18.531 28.1764 18.8384 28.2965 19.2454C29.0159 21.6831 29.0158 24.134 28.2965 26.5715C28.1764 26.9785 27.8034 27.2859 27.3416 27.3532Z" fill="url(#paint6_linear_30_534)"/>
</g>
<path id="Vector_8" d="M28.2968 19.2451C28.1767 18.8381 27.8036 18.5306 27.3419 18.4634C25.1294 18.1409 22.9087 18.0101 20.6895 18.0709C22.2045 18.1124 23.7189 18.2432 25.2297 18.4634C25.6914 18.5308 26.0645 18.8381 26.1846 19.2451C26.904 21.6829 26.9038 24.1337 26.1846 26.5713C26.0645 26.9782 25.6914 27.2858 25.2297 27.353C23.7191 27.5732 22.2047 27.704 20.6895 27.7455C22.9085 27.8063 25.1292 27.6755 27.3417 27.353C27.8034 27.2856 28.1765 26.9782 28.2966 26.5713C29.0162 24.1337 29.0162 21.6829 28.2968 19.2451Z" fill="url(#paint7_linear_30_534)"/>
<path id="Vector_9" d="M27.3415 18.4635C26.5579 18.3493 25.7735 18.2596 24.9883 18.1936V18.4294C25.0686 18.4407 25.149 18.4519 25.2293 18.4637C25.6911 18.5311 26.0641 18.8384 26.1842 19.2454C26.9036 21.6832 26.9035 24.134 26.1842 26.5715C26.0641 26.9785 25.6911 27.2861 25.2293 27.3533C25.149 27.365 25.0686 27.3763 24.9883 27.3875V27.6234C25.7734 27.5572 26.5579 27.4677 27.3415 27.3534C27.8033 27.2861 28.1763 26.9787 28.2964 26.5717C29.0157 24.1342 29.0158 21.6833 28.2964 19.2456C28.1763 18.8383 27.8033 18.5309 27.3415 18.4635Z" fill="url(#paint8_linear_30_534)"/>
<path id="Vector_10" d="M15.1941 26.5715C15.3142 26.9785 15.6873 27.286 16.149 27.3532C19.8722 27.8959 23.6183 27.8959 27.3415 27.3532C27.8032 27.2859 28.1763 26.9785 28.2964 26.5715C28.656 25.3527 28.8359 24.1306 28.8359 22.9084H14.6548C14.6548 24.1304 14.8345 25.3526 15.1941 26.5715Z" fill="url(#paint9_linear_30_534)"/>
</g>
</g>
<g id="Group_10">
<g id="Group_11">
<g id="Group_12">
<path id="Vector_11" d="M65.2234 27.3535C61.5003 27.8962 57.7542 27.8962 54.031 27.3535C53.5693 27.2861 53.1962 26.9788 53.0761 26.5718C52.3569 24.1342 52.3567 21.6834 53.0761 19.2456C53.1962 18.8387 53.5693 18.5311 54.031 18.4639C57.7542 17.9212 61.5003 17.9212 65.2234 18.4639C65.6852 18.5313 66.0583 18.8387 66.1783 19.2456C66.8978 21.6834 66.8976 24.1342 66.1783 26.5718C66.0581 26.9788 65.685 27.2861 65.2234 27.3535Z" fill="url(#paint10_linear_30_534)"/>
</g>
<g id="Group_13">
<path id="Vector_12" d="M65.2234 27.3535C61.5003 27.8962 57.7542 27.8962 54.031 27.3535C53.5693 27.2861 53.1962 26.9788 53.0761 26.5718C52.3569 24.1342 52.3567 21.6834 53.0761 19.2456C53.1962 18.8387 53.5693 18.5311 54.031 18.4639C57.7542 17.9212 61.5003 17.9212 65.2234 18.4639C65.6852 18.5313 66.0583 18.8387 66.1783 19.2456C66.8978 21.6834 66.8976 24.1342 66.1783 26.5718C66.0581 26.9788 65.685 27.2861 65.2234 27.3535Z" fill="url(#paint11_linear_30_534)"/>
</g>
<path id="Vector_13" d="M66.1786 19.2451C66.0585 18.8381 65.6854 18.5306 65.2237 18.4634C63.0112 18.1409 60.7905 18.0101 58.5713 18.0709C60.0864 18.1124 61.6008 18.2432 63.1115 18.4634C63.5732 18.5308 63.9463 18.8381 64.0664 19.2451C64.7858 21.6829 64.7856 24.1337 64.0664 26.5713C63.9463 26.9782 63.5732 27.2858 63.1115 27.353C61.6009 27.5732 60.0865 27.704 58.5713 27.7455C60.7903 27.8063 63.011 27.6755 65.2235 27.353C65.6853 27.2856 66.0583 26.9782 66.1784 26.5713C66.8978 24.1337 66.8978 21.6829 66.1786 19.2451Z" fill="url(#paint12_linear_30_534)"/>
<path id="Vector_14" d="M65.2234 18.4635C64.4398 18.3493 63.6554 18.2596 62.8701 18.1936V18.4294C62.9504 18.4407 63.0309 18.4519 63.1112 18.4637C63.5729 18.5311 63.946 18.8384 64.0661 19.2454C64.7855 21.6832 64.7853 24.134 64.0661 26.5715C63.946 26.9785 63.5729 27.2861 63.1112 27.3533C63.0309 27.365 62.9504 27.3763 62.8701 27.3875V27.6234C63.6552 27.5572 64.4398 27.4677 65.2234 27.3534C65.6851 27.2861 66.0582 26.9787 66.1783 26.5717C66.8975 24.1342 66.8977 21.6833 66.1783 19.2456C66.058 18.8383 65.6849 18.5309 65.2234 18.4635Z" fill="url(#paint13_linear_30_534)"/>
<path id="Vector_15" d="M53.0761 26.5715C53.1962 26.9785 53.5693 27.286 54.031 27.3532C57.7542 27.8959 61.5003 27.8959 65.2235 27.3532C65.6852 27.2859 66.0583 26.9785 66.1784 26.5715C66.538 25.3527 66.7179 24.1306 66.7179 22.9084H52.5366C52.5366 24.1304 52.7163 25.3526 53.0761 26.5715Z" fill="url(#paint14_linear_30_534)"/>
</g>
</g>
</g>
<g id="Group_14">
<g id="Group_15">
<g id="Group_16">
<path id="Vector_16" d="M78.8902 81.3178H69.8799V22.3958H78.8902C82.8172 22.3958 86.0007 25.5793 86.0007 29.5062V74.2072C86.0007 78.1343 82.8172 81.3178 78.8902 81.3178Z" fill="url(#paint15_linear_30_534)"/>
<path id="Vector_17" d="M69.8799 46.3391V81.3178H78.8902C82.8172 81.3178 86.0007 78.1342 86.0007 74.2073V46.3391H69.8799Z" fill="url(#paint16_linear_30_534)"/>
<path id="Vector_18" d="M78.8902 22.3958H69.8799V81.3177H78.8902C82.8172 81.3177 86.0007 78.1342 86.0007 74.2072V29.5064C86.0007 25.5793 82.8172 22.3958 78.8902 22.3958Z" fill="url(#paint17_linear_30_534)"/>
<path id="Vector_19" d="M78.8902 22.3958H69.8799V81.3177H78.8902C82.8172 81.3177 86.0007 78.1342 86.0007 74.2072V29.5064C86.0007 25.5793 82.8172 22.3958 78.8902 22.3958Z" fill="url(#paint18_linear_30_534)"/>
</g>
<g id="Group_17">
<g id="Group_18">
<path id="Vector_20" d="M72.7487 81.3179H8.62413C4.69718 81.3179 1.51367 78.1344 1.51367 74.2075V29.5064C1.51367 25.5795 4.69718 22.396 8.62413 22.396H72.7489C76.6758 22.396 79.8593 25.5795 79.8593 29.5064V74.2075C79.8593 78.1344 76.6758 81.3179 72.7487 81.3179Z" fill="url(#paint19_linear_30_534)"/>
<path id="Vector_21" d="M1.51318 46.3391V74.2071C1.51318 78.1341 4.6967 81.3176 8.62364 81.3176H72.7484C76.6753 81.3176 79.8588 78.1341 79.8588 74.2071V46.3391H1.51318Z" fill="url(#paint20_linear_30_534)"/>
<path id="Vector_22" d="M1.51318 46.3391V74.2071C1.51318 78.1341 4.6967 81.3176 8.62364 81.3176H72.7484C76.6753 81.3176 79.8588 78.1341 79.8588 74.2071V46.3391H1.51318Z" fill="url(#paint21_linear_30_534)"/>
</g>
</g>
</g>
<path id="Vector_23" d="M75.7242 58.1408H5.4677C2.4483 58.1408 0.000488281 55.6932 0.000488281 52.6738V27.7885C0.000488281 23.7279 3.29234 20.436 7.35298 20.436H78.6482C82.7088 20.436 86.0007 23.7279 86.0007 27.7885V31.4049C86.0007 30.8367 85.7994 30.2867 85.4326 29.8527C83.9862 28.1414 81.1915 29.1642 81.1915 31.4049V52.6736C81.1914 55.6932 78.7436 58.1408 75.7242 58.1408Z" fill="url(#paint22_linear_30_534)"/>
<path id="Vector_24" d="M78.648 20.4363H64.7954V58.1409H75.7241C78.7435 58.1409 81.1913 55.6931 81.1913 52.6737V31.405C81.1913 29.1643 83.986 28.1415 85.4324 29.8528C85.7992 30.2868 86.0005 30.8367 86.0005 31.405V27.7886C86.0005 23.728 82.7086 20.4363 78.648 20.4363Z" fill="url(#paint23_linear_30_534)"/>
</g>
<path id="Vector_25" d="M24.2178 53.8728L10.4946 62.048L29.7643 81.3177H51.6628L24.2178 53.8728Z" fill="url(#paint24_linear_30_534)"/>
<path id="Vector_26" d="M79.859 74.2071V68.243L65.4888 53.8728L51.7832 62.0504L71.0506 81.3176H72.7487C76.6755 81.3177 79.859 78.1342 79.859 74.2071Z" fill="url(#paint25_linear_30_534)"/>
<g id="Group_19">
<g id="Group_20">
<g id="Group_21">
<g id="Group_22">
<path id="Vector_27" d="M23.3931 62.3478C19.3368 62.8905 15.2557 62.8905 11.1994 62.3478C10.6964 62.2804 10.29 61.9731 10.159 61.5661C9.37546 59.1285 9.37529 56.6777 10.159 54.2398C10.2899 53.8328 10.6964 53.5252 11.1994 53.4581C15.2557 52.9153 19.3368 52.9153 23.3931 53.4581C23.8962 53.5254 24.3025 53.8328 24.4335 54.2398C25.2173 56.6775 25.2171 59.1283 24.4335 61.5659C24.3025 61.9731 23.896 62.2804 23.3931 62.3478Z" fill="url(#paint26_linear_30_534)"/>
</g>
<path id="Vector_28" d="M18.4415 55.5646L18.1261 55.6295C16.5094 55.9622 14.8418 55.9622 13.2249 55.6295L12.9095 55.5646C12.2213 55.423 11.7487 56.2389 12.2139 56.7654L15.1273 60.0628C15.4184 60.3924 15.9324 60.3924 16.2237 60.0628L19.1371 56.7654C19.6022 56.2387 19.1297 55.4229 18.4415 55.5646Z" fill="url(#paint27_linear_30_534)"/>
<path id="Vector_29" d="M24.4334 54.2398C24.3026 53.8328 23.8961 53.5252 23.393 53.458C20.9825 53.1355 18.5633 53.0047 16.1455 53.0655C17.7961 53.107 19.4461 53.2378 21.0919 53.458C21.5949 53.5254 22.0012 53.8328 22.1322 54.2398C22.916 56.6775 22.9158 59.1283 22.1322 61.5659C22.0014 61.9729 21.5949 62.2804 21.0919 62.3476C19.4461 62.5678 17.7963 62.6987 16.1457 62.7402C18.5632 62.801 20.9827 62.6701 23.393 62.3476C23.8961 62.2803 24.3024 61.9729 24.4334 61.5659C25.2172 59.1283 25.2172 56.6775 24.4334 54.2398Z" fill="url(#paint28_linear_30_534)"/>
<path id="Vector_30" d="M23.3933 53.4582C22.5397 53.3439 21.6849 53.2542 20.8296 53.1882V53.4241C20.9171 53.4353 21.0046 53.4466 21.0921 53.4583C21.5952 53.5257 22.0015 53.8331 22.1325 54.2401C22.9163 56.6778 22.9161 59.1286 22.1325 61.5662C22.0017 61.9732 21.5952 62.2807 21.0921 62.3479C21.0046 62.3597 20.9171 62.3709 20.8296 62.3822V62.618C21.6849 62.5518 22.5397 62.4623 23.3933 62.3481C23.8964 62.2807 24.3027 61.9733 24.4337 61.5663C25.2173 59.1288 25.2174 56.678 24.4337 54.2402C24.3027 53.8329 23.8962 53.5255 23.3933 53.4582Z" fill="url(#paint29_linear_30_534)"/>
<path id="Vector_31" d="M10.159 61.5661C10.2899 61.9731 10.6963 62.2807 11.1994 62.3479C15.2557 62.8906 19.3368 62.8906 23.3931 62.3479C23.8962 62.2805 24.3025 61.9731 24.4335 61.5661C24.8254 60.3474 25.0212 59.1252 25.0212 57.9031H9.57129C9.57129 59.125 9.76731 60.3472 10.159 61.5661Z" fill="url(#paint30_linear_30_534)"/>
</g>
</g>
<g id="Group_23">
<g id="Group_24">
<g id="Group_25">
<path id="Vector_32" d="M64.6636 62.3478C60.6074 62.8905 56.5262 62.8905 52.4699 62.3478C51.9669 62.2804 51.5606 61.9731 51.4295 61.5661C50.646 59.1285 50.6458 56.6777 51.4295 54.2398C51.5604 53.8328 51.9669 53.5252 52.4699 53.4581C56.526 52.9153 60.6074 52.9153 64.6636 53.4581C65.1667 53.5254 65.573 53.8328 65.704 54.2398C66.4878 56.6775 66.4876 59.1283 65.704 61.5659C65.573 61.9731 65.1665 62.2804 64.6636 62.3478Z" fill="url(#paint31_linear_30_534)"/>
</g>
<path id="Vector_33" d="M59.712 55.5646L59.3966 55.6295C57.7799 55.9622 56.1123 55.9622 54.4954 55.6295L54.18 55.5646C53.4918 55.423 53.0192 56.2389 53.4844 56.7654L56.3979 60.0628C56.6889 60.3924 57.2029 60.3924 57.4942 60.0628L60.4076 56.7654C60.8727 56.2387 60.4002 55.4229 59.712 55.5646Z" fill="url(#paint32_linear_30_534)"/>
<path id="Vector_34" d="M65.7039 54.2398C65.5731 53.8328 65.1666 53.5252 64.6635 53.458C62.253 53.1355 59.8338 53.0047 57.416 53.0655C59.0666 53.107 60.7166 53.2378 62.3624 53.458C62.8654 53.5254 63.2717 53.8328 63.4028 54.2398C64.1865 56.6775 64.1863 59.1283 63.4028 61.5659C63.2719 61.9729 62.8654 62.2804 62.3624 62.3476C60.7166 62.5678 59.0668 62.6987 57.416 62.7402C59.8336 62.801 62.253 62.6701 64.6634 62.3476C65.1664 62.2803 65.5727 61.9729 65.7038 61.5659C66.4877 59.1283 66.4877 56.6775 65.7039 54.2398Z" fill="url(#paint33_linear_30_534)"/>
<path id="Vector_35" d="M64.6638 53.4582C63.8102 53.3439 62.9554 53.2542 62.1001 53.1882V53.4241C62.1876 53.4353 62.2751 53.4466 62.3626 53.4583C62.8657 53.5257 63.272 53.8331 63.403 54.2401C64.1868 56.6778 64.1866 59.1286 63.403 61.5662C63.2722 61.9732 62.8657 62.2807 62.3626 62.3479C62.2751 62.3597 62.1876 62.3709 62.1001 62.3822V62.618C62.9554 62.5518 63.8102 62.4623 64.6638 62.3481C65.1669 62.2807 65.5732 61.9733 65.7042 61.5663C66.4878 59.1288 66.4879 56.678 65.7042 54.2402C65.5732 53.8329 65.1667 53.5255 64.6638 53.4582Z" fill="url(#paint34_linear_30_534)"/>
<path id="Vector_36" d="M51.4294 61.5661C51.5602 61.9731 51.9667 62.2807 52.4698 62.3479C56.526 62.8906 60.6072 62.8906 64.6634 62.3479C65.1665 62.2805 65.5728 61.9731 65.7038 61.5661C66.0957 60.3474 66.2916 59.1252 66.2916 57.9031H50.8418C50.8416 59.125 51.0377 60.3472 51.4294 61.5661Z" fill="url(#paint35_linear_30_534)"/>
</g>
</g>
</g>
<g id="Group_26">
<path id="Vector_37" d="M29.1372 14.0901C36.8293 13.0945 44.5422 13.0945 52.2344 14.0901C53.0576 14.1966 53.7866 13.5561 53.7866 12.7262V6.8414C53.7866 6.14887 53.2717 5.56669 52.5853 5.47514C44.6598 4.41812 36.7117 4.41812 28.7863 5.47514C28.0998 5.56669 27.585 6.1487 27.585 6.8414V12.7262C27.5848 13.5561 28.3139 14.1966 29.1372 14.0901Z" fill="url(#paint36_linear_30_534)"/>
<path id="Vector_38" d="M29.1372 14.0901C36.8293 13.0945 44.5422 13.0945 52.2344 14.0901C53.0576 14.1966 53.7866 13.5561 53.7866 12.7262V6.8414C53.7866 6.14887 53.2717 5.56669 52.5853 5.47514C44.6598 4.41812 36.7117 4.41812 28.7863 5.47514C28.0998 5.56669 27.585 6.1487 27.585 6.8414V12.7262C27.5848 13.5561 28.3139 14.1966 29.1372 14.0901Z" fill="url(#paint37_linear_30_534)"/>
<path id="Vector_39" d="M52.5852 5.47519C49.513 5.06551 46.4377 4.81658 43.3613 4.72437V13.3848C46.3204 13.4734 49.2789 13.7075 52.2343 14.09C53.0575 14.1965 53.7865 13.556 53.7865 12.7261V6.84144C53.7865 6.14891 53.2717 5.56673 52.5852 5.47519Z" fill="url(#paint38_linear_30_534)"/>
</g>
</g>
</g>
<defs>
<linearGradient id="paint0_linear_30_534" x1="38.3221" y1="7.15732" x2="41.0761" y2="27.0342" gradientUnits="userSpaceOnUse">
<stop stop-color="#EAF9FA"/>
<stop offset="1" stop-color="#B3DAFE"/>
</linearGradient>
<linearGradient id="paint1_linear_30_534" x1="56.7312" y1="15.9255" x2="61.4011" y2="15.3268" gradientUnits="userSpaceOnUse">
<stop stop-color="#7BACDF" stop-opacity="0"/>
<stop offset="1" stop-color="#7BACDF"/>
</linearGradient>
<linearGradient id="paint2_linear_30_534" x1="57.1276" y1="17.384" x2="50.3024" y2="15.109" gradientUnits="userSpaceOnUse">
<stop stop-color="#7BACDF" stop-opacity="0"/>
<stop offset="1" stop-color="#7BACDF"/>
</linearGradient>
<linearGradient id="paint3_linear_30_534" x1="58.2337" y1="15.3517" x2="58.2337" y2="18.6452" gradientUnits="userSpaceOnUse">
<stop stop-color="#7BACDF" stop-opacity="0"/>
<stop offset="1" stop-color="#7BACDF"/>
</linearGradient>
<linearGradient id="paint4_linear_30_534" x1="23.138" y1="15.3517" x2="23.138" y2="18.6452" gradientUnits="userSpaceOnUse">
<stop stop-color="#7BACDF" stop-opacity="0"/>
<stop offset="1" stop-color="#7BACDF"/>
</linearGradient>
<linearGradient id="paint5_linear_30_534" x1="19.2801" y1="18.8046" x2="24.1996" y2="26.9935" gradientUnits="userSpaceOnUse">
<stop stop-color="#FEF0AE"/>
<stop offset="1" stop-color="#FBC56D"/>
</linearGradient>
<linearGradient id="paint6_linear_30_534" x1="21.7454" y1="18.5848" x2="21.7454" y2="20.7433" gradientUnits="userSpaceOnUse">
<stop stop-color="#DC8758" stop-opacity="0"/>
<stop offset="0.2153" stop-color="#DD8654" stop-opacity="0.215"/>
<stop offset="0.4291" stop-color="#E28448" stop-opacity="0.429"/>
<stop offset="0.6424" stop-color="#EA8034" stop-opacity="0.642"/>
<stop offset="0.8543" stop-color="#F47B18" stop-opacity="0.854"/>
<stop offset="1" stop-color="#FE7701"/>
</linearGradient>
<linearGradient id="paint7_linear_30_534" x1="16.098" y1="15.4417" x2="31.2607" y2="29.8151" gradientUnits="userSpaceOnUse">
<stop stop-color="#DC8758" stop-opacity="0"/>
<stop offset="0.2153" stop-color="#DD8654" stop-opacity="0.215"/>
<stop offset="0.4291" stop-color="#E28448" stop-opacity="0.429"/>
<stop offset="0.6424" stop-color="#EA8034" stop-opacity="0.642"/>
<stop offset="0.8543" stop-color="#F47B18" stop-opacity="0.854"/>
<stop offset="1" stop-color="#FE7701"/>
</linearGradient>
<linearGradient id="paint8_linear_30_534" x1="26.9465" y1="22.9083" x2="28.5753" y2="22.9083" gradientUnits="userSpaceOnUse">
<stop stop-color="#DC8758" stop-opacity="0"/>
<stop offset="0.2153" stop-color="#DD8654" stop-opacity="0.215"/>
<stop offset="0.4291" stop-color="#E28448" stop-opacity="0.429"/>
<stop offset="0.6424" stop-color="#EA8034" stop-opacity="0.642"/>
<stop offset="0.8543" stop-color="#F47B18" stop-opacity="0.854"/>
<stop offset="1" stop-color="#FE7701"/>
</linearGradient>
<linearGradient id="paint9_linear_30_534" x1="21.7452" y1="24.9904" x2="21.7452" y2="27.8236" gradientUnits="userSpaceOnUse">
<stop stop-color="#DC8758" stop-opacity="0"/>
<stop offset="0.2153" stop-color="#DD8654" stop-opacity="0.215"/>
<stop offset="0.4291" stop-color="#E28448" stop-opacity="0.429"/>
<stop offset="0.6424" stop-color="#EA8034" stop-opacity="0.642"/>
<stop offset="0.8543" stop-color="#F47B18" stop-opacity="0.854"/>
<stop offset="1" stop-color="#FE7701"/>
</linearGradient>
<linearGradient id="paint10_linear_30_534" x1="57.1618" y1="18.8049" x2="62.0814" y2="26.9937" gradientUnits="userSpaceOnUse">
<stop stop-color="#FEF0AE"/>
<stop offset="1" stop-color="#FBC56D"/>
</linearGradient>
<linearGradient id="paint11_linear_30_534" x1="59.6272" y1="18.585" x2="59.6272" y2="20.7436" gradientUnits="userSpaceOnUse">
<stop stop-color="#DC8758" stop-opacity="0"/>
<stop offset="0.2153" stop-color="#DD8654" stop-opacity="0.215"/>
<stop offset="0.4291" stop-color="#E28448" stop-opacity="0.429"/>
<stop offset="0.6424" stop-color="#EA8034" stop-opacity="0.642"/>
<stop offset="0.8543" stop-color="#F47B18" stop-opacity="0.854"/>
<stop offset="1" stop-color="#FE7701"/>
</linearGradient>
<linearGradient id="paint12_linear_30_534" x1="53.9797" y1="15.4416" x2="69.1424" y2="29.8151" gradientUnits="userSpaceOnUse">
<stop stop-color="#DC8758" stop-opacity="0"/>
<stop offset="0.2153" stop-color="#DD8654" stop-opacity="0.215"/>
<stop offset="0.4291" stop-color="#E28448" stop-opacity="0.429"/>
<stop offset="0.6424" stop-color="#EA8034" stop-opacity="0.642"/>
<stop offset="0.8543" stop-color="#F47B18" stop-opacity="0.854"/>
<stop offset="1" stop-color="#FE7701"/>
</linearGradient>
<linearGradient id="paint13_linear_30_534" x1="64.8281" y1="22.9083" x2="66.4569" y2="22.9083" gradientUnits="userSpaceOnUse">
<stop stop-color="#DC8758" stop-opacity="0"/>
<stop offset="0.2153" stop-color="#DD8654" stop-opacity="0.215"/>
<stop offset="0.4291" stop-color="#E28448" stop-opacity="0.429"/>
<stop offset="0.6424" stop-color="#EA8034" stop-opacity="0.642"/>
<stop offset="0.8543" stop-color="#F47B18" stop-opacity="0.854"/>
<stop offset="1" stop-color="#FE7701"/>
</linearGradient>
<linearGradient id="paint14_linear_30_534" x1="59.6273" y1="24.9904" x2="59.6273" y2="27.8236" gradientUnits="userSpaceOnUse">
<stop stop-color="#DC8758" stop-opacity="0"/>
<stop offset="0.2153" stop-color="#DD8654" stop-opacity="0.215"/>
<stop offset="0.4291" stop-color="#E28448" stop-opacity="0.429"/>
<stop offset="0.6424" stop-color="#EA8034" stop-opacity="0.642"/>
<stop offset="0.8543" stop-color="#F47B18" stop-opacity="0.854"/>
<stop offset="1" stop-color="#FE7701"/>
</linearGradient>
<linearGradient id="paint15_linear_30_534" x1="70.6117" y1="26.5132" x2="83.8891" y2="78.048" gradientUnits="userSpaceOnUse">
<stop stop-color="#C86D36"/>
<stop offset="0.201" stop-color="#C46B35"/>
<stop offset="0.4143" stop-color="#B76233"/>
<stop offset="0.6334" stop-color="#A2552F"/>
<stop offset="0.8549" stop-color="#85422A"/>
<stop offset="1" stop-color="#6D3326"/>
</linearGradient>
<linearGradient id="paint16_linear_30_534" x1="77.9404" y1="75.6876" x2="77.9404" y2="80.8476" gradientUnits="userSpaceOnUse">
<stop stop-color="#3A0F13" stop-opacity="0"/>
<stop offset="0.2722" stop-color="#3E1215" stop-opacity="0.272"/>
<stop offset="0.5611" stop-color="#4B1B19" stop-opacity="0.561"/>
<stop offset="0.8568" stop-color="#602A21" stop-opacity="0.857"/>
<stop offset="1" stop-color="#6D3326"/>
</linearGradient>
<linearGradient id="paint17_linear_30_534" x1="30.7225" y1="13.4128" x2="108.677" y2="80.047" gradientUnits="userSpaceOnUse">
<stop stop-color="#3A0F13" stop-opacity="0"/>
<stop offset="0.2722" stop-color="#3E1215" stop-opacity="0.272"/>
<stop offset="0.5611" stop-color="#4B1B19" stop-opacity="0.561"/>
<stop offset="0.8568" stop-color="#602A21" stop-opacity="0.857"/>
<stop offset="1" stop-color="#6D3326"/>
</linearGradient>
<linearGradient id="paint18_linear_30_534" x1="68.4792" y1="50.7269" x2="86.4937" y2="53.9945" gradientUnits="userSpaceOnUse">
<stop stop-color="#3A0F13" stop-opacity="0"/>
<stop offset="0.2722" stop-color="#3E1215" stop-opacity="0.272"/>
<stop offset="0.5611" stop-color="#4B1B19" stop-opacity="0.561"/>
<stop offset="0.8568" stop-color="#602A21" stop-opacity="0.857"/>
<stop offset="1" stop-color="#6D3326"/>
</linearGradient>
<linearGradient id="paint19_linear_30_534" x1="32.8007" y1="21.2499" x2="49.1956" y2="84.8841" gradientUnits="userSpaceOnUse">
<stop stop-color="#C86D36"/>
<stop offset="0.201" stop-color="#C46B35"/>
<stop offset="0.4143" stop-color="#B76233"/>
<stop offset="0.6334" stop-color="#A2552F"/>
<stop offset="0.8549" stop-color="#85422A"/>
<stop offset="1" stop-color="#6D3326"/>
</linearGradient>
<linearGradient id="paint20_linear_30_534" x1="40.686" y1="75.6876" x2="40.686" y2="80.8476" gradientUnits="userSpaceOnUse">
<stop stop-color="#3A0F13" stop-opacity="0"/>
<stop offset="0.2722" stop-color="#3E1215" stop-opacity="0.272"/>
<stop offset="0.5611" stop-color="#4B1B19" stop-opacity="0.561"/>
<stop offset="0.8568" stop-color="#602A21" stop-opacity="0.857"/>
<stop offset="1" stop-color="#6D3326"/>
</linearGradient>
<linearGradient id="paint21_linear_30_534" x1="40.686" y1="69.3266" x2="40.686" y2="55.1672" gradientUnits="userSpaceOnUse">
<stop stop-color="#3A0F13" stop-opacity="0"/>
<stop offset="0.2722" stop-color="#3E1215" stop-opacity="0.272"/>
<stop offset="0.5611" stop-color="#4B1B19" stop-opacity="0.561"/>
<stop offset="0.8568" stop-color="#602A21" stop-opacity="0.857"/>
<stop offset="1" stop-color="#6D3326"/>
</linearGradient>
<linearGradient id="paint22_linear_30_534" x1="39.6003" y1="13.6298" x2="46.3871" y2="66.6049" gradientUnits="userSpaceOnUse">
<stop stop-color="#C86D36"/>
<stop offset="0.201" stop-color="#C46B35"/>
<stop offset="0.4143" stop-color="#B76233"/>
<stop offset="0.6334" stop-color="#A2552F"/>
<stop offset="0.8549" stop-color="#85422A"/>
<stop offset="1" stop-color="#6D3326"/>
</linearGradient>
<linearGradient id="paint23_linear_30_534" x1="77.1695" y1="39.2886" x2="86.7346" y2="39.2886" gradientUnits="userSpaceOnUse">
<stop stop-color="#3A0F13" stop-opacity="0"/>
<stop offset="0.2722" stop-color="#3E1215" stop-opacity="0.272"/>
<stop offset="0.5611" stop-color="#4B1B19" stop-opacity="0.561"/>
<stop offset="0.8568" stop-color="#602A21" stop-opacity="0.857"/>
<stop offset="1" stop-color="#6D3326"/>
</linearGradient>
<linearGradient id="paint24_linear_30_534" x1="26.2607" y1="64.2573" x2="19.4754" y2="53.8001" gradientUnits="userSpaceOnUse">
<stop stop-color="#3A0F13" stop-opacity="0"/>
<stop offset="0.2722" stop-color="#3E1215" stop-opacity="0.272"/>
<stop offset="0.5611" stop-color="#4B1B19" stop-opacity="0.561"/>
<stop offset="0.8568" stop-color="#602A21" stop-opacity="0.857"/>
<stop offset="1" stop-color="#6D3326"/>
</linearGradient>
<linearGradient id="paint25_linear_30_534" x1="67.328" y1="67.5928" x2="59.066" y2="54.182" gradientUnits="userSpaceOnUse">
<stop stop-color="#3A0F13" stop-opacity="0"/>
<stop offset="0.2722" stop-color="#3E1215" stop-opacity="0.272"/>
<stop offset="0.5611" stop-color="#4B1B19" stop-opacity="0.561"/>
<stop offset="0.8568" stop-color="#602A21" stop-opacity="0.857"/>
<stop offset="1" stop-color="#6D3326"/>
</linearGradient>
<linearGradient id="paint26_linear_30_534" x1="14.7293" y1="53.6299" x2="19.8517" y2="62.1567" gradientUnits="userSpaceOnUse">
<stop stop-color="#FEF0AE"/>
<stop offset="1" stop-color="#FBC56D"/>
</linearGradient>
<linearGradient id="paint27_linear_30_534" x1="15.6756" y1="59.0879" x2="15.6756" y2="55.1956" gradientUnits="userSpaceOnUse">
<stop stop-color="#FEF0AE"/>
<stop offset="1" stop-color="#FBC56D"/>
</linearGradient>
<linearGradient id="paint28_linear_30_534" x1="11.5537" y1="50.1249" x2="27.349" y2="65.0979" gradientUnits="userSpaceOnUse">
<stop stop-color="#DC8758" stop-opacity="0"/>
<stop offset="0.2153" stop-color="#DD8654" stop-opacity="0.215"/>
<stop offset="0.4291" stop-color="#E28448" stop-opacity="0.429"/>
<stop offset="0.6424" stop-color="#EA8034" stop-opacity="0.642"/>
<stop offset="0.8543" stop-color="#F47B18" stop-opacity="0.854"/>
<stop offset="1" stop-color="#FE7701"/>
</linearGradient>
<linearGradient id="paint29_linear_30_534" x1="22.9628" y1="57.9029" x2="24.7372" y2="57.9029" gradientUnits="userSpaceOnUse">
<stop stop-color="#DC8758" stop-opacity="0"/>
<stop offset="0.2153" stop-color="#DD8654" stop-opacity="0.215"/>
<stop offset="0.4291" stop-color="#E28448" stop-opacity="0.429"/>
<stop offset="0.6424" stop-color="#EA8034" stop-opacity="0.642"/>
<stop offset="0.8543" stop-color="#F47B18" stop-opacity="0.854"/>
<stop offset="1" stop-color="#FE7701"/>
</linearGradient>
<linearGradient id="paint30_linear_30_534" x1="17.2962" y1="59.985" x2="17.2962" y2="62.8182" gradientUnits="userSpaceOnUse">
<stop stop-color="#DC8758" stop-opacity="0"/>
<stop offset="0.2153" stop-color="#DD8654" stop-opacity="0.215"/>
<stop offset="0.4291" stop-color="#E28448" stop-opacity="0.429"/>
<stop offset="0.6424" stop-color="#EA8034" stop-opacity="0.642"/>
<stop offset="0.8543" stop-color="#F47B18" stop-opacity="0.854"/>
<stop offset="1" stop-color="#FE7701"/>
</linearGradient>
<linearGradient id="paint31_linear_30_534" x1="55.9998" y1="53.6299" x2="61.1222" y2="62.1567" gradientUnits="userSpaceOnUse">
<stop stop-color="#FEF0AE"/>
<stop offset="1" stop-color="#FBC56D"/>
</linearGradient>
<linearGradient id="paint32_linear_30_534" x1="56.9461" y1="59.0879" x2="56.9461" y2="55.1956" gradientUnits="userSpaceOnUse">
<stop stop-color="#FEF0AE"/>
<stop offset="1" stop-color="#FBC56D"/>
</linearGradient>
<linearGradient id="paint33_linear_30_534" x1="52.8243" y1="50.1249" x2="68.6195" y2="65.0979" gradientUnits="userSpaceOnUse">
<stop stop-color="#DC8758" stop-opacity="0"/>
<stop offset="0.2153" stop-color="#DD8654" stop-opacity="0.215"/>
<stop offset="0.4291" stop-color="#E28448" stop-opacity="0.429"/>
<stop offset="0.6424" stop-color="#EA8034" stop-opacity="0.642"/>
<stop offset="0.8543" stop-color="#F47B18" stop-opacity="0.854"/>
<stop offset="1" stop-color="#FE7701"/>
</linearGradient>
<linearGradient id="paint34_linear_30_534" x1="64.2333" y1="57.9029" x2="66.0077" y2="57.9029" gradientUnits="userSpaceOnUse">
<stop stop-color="#DC8758" stop-opacity="0"/>
<stop offset="0.2153" stop-color="#DD8654" stop-opacity="0.215"/>
<stop offset="0.4291" stop-color="#E28448" stop-opacity="0.429"/>
<stop offset="0.6424" stop-color="#EA8034" stop-opacity="0.642"/>
<stop offset="0.8543" stop-color="#F47B18" stop-opacity="0.854"/>
<stop offset="1" stop-color="#FE7701"/>
</linearGradient>
<linearGradient id="paint35_linear_30_534" x1="58.5665" y1="59.985" x2="58.5665" y2="62.8182" gradientUnits="userSpaceOnUse">
<stop stop-color="#DC8758" stop-opacity="0"/>
<stop offset="0.2153" stop-color="#DD8654" stop-opacity="0.215"/>
<stop offset="0.4291" stop-color="#E28448" stop-opacity="0.429"/>
<stop offset="0.6424" stop-color="#EA8034" stop-opacity="0.642"/>
<stop offset="0.8543" stop-color="#F47B18" stop-opacity="0.854"/>
<stop offset="1" stop-color="#FE7701"/>
</linearGradient>
<linearGradient id="paint36_linear_30_534" x1="40.6857" y1="7.37353" x2="40.6857" y2="11.9238" gradientUnits="userSpaceOnUse">
<stop stop-color="#5A5A5A"/>
<stop offset="1" stop-color="#444444"/>
</linearGradient>
<linearGradient id="paint37_linear_30_534" x1="40.6857" y1="8.45121" x2="40.6857" y2="13.3621" gradientUnits="userSpaceOnUse">
<stop stop-color="#433F43" stop-opacity="0"/>
<stop offset="1" stop-color="#1A1A1A"/>
</linearGradient>
<linearGradient id="paint38_linear_30_534" x1="47.5967" y1="9.32469" x2="51.6679" y2="10.4024" gradientUnits="userSpaceOnUse">
<stop stop-color="#433F43" stop-opacity="0"/>
<stop offset="1" stop-color="#1A1A1A"/>
</linearGradient>
<clipPath id="clip0_30_534">
<rect width="86" height="86" fill="white" transform="translate(0.000488281)"/>
</clipPath>
</defs>
</svg>
