<svg width="22" height="23" viewBox="0 0 22 23" fill="none" xmlns="http://www.w3.org/2000/svg">
<g id="attach-file 1">
<g id="Layer 2">
<path id="Vector" d="M6.11535 20.4427C5.12012 20.443 4.14716 20.134 3.31959 19.5549C2.49203 18.9757 1.84704 18.1524 1.46626 17.1891C1.08547 16.2258 0.985997 15.1658 1.18042 14.1433C1.37484 13.1208 1.85442 12.1816 2.55847 11.4447L9.98285 3.66588C10.106 3.5369 10.2729 3.46445 10.447 3.46445C10.6211 3.46445 10.7881 3.5369 10.9112 3.66588C11.0343 3.79485 11.1035 3.96977 11.1035 4.15217C11.1035 4.33456 11.0343 4.50949 10.9112 4.63846L3.48597 12.4164C3.1265 12.7748 2.83912 13.2049 2.64078 13.6814C2.44244 14.158 2.33715 14.6713 2.3311 15.1911C2.32506 15.7109 2.41839 16.2268 2.60559 16.7082C2.79279 17.1897 3.07008 17.627 3.42112 17.9945C3.77216 18.3619 4.18985 18.652 4.64957 18.8478C5.1093 19.0435 5.60177 19.1408 6.09797 19.1341C6.59416 19.1273 7.08405 19.0166 7.53876 18.8084C7.99347 18.6002 8.40381 18.2988 8.7456 17.9219L18.3356 7.87521C18.7751 7.3998 19.0185 6.76245 19.0134 6.10068C19.0084 5.4389 18.7552 4.80574 18.3085 4.33778C17.8618 3.86982 17.2574 3.60457 16.6257 3.59925C15.994 3.59394 15.3857 3.84899 14.9319 4.30938L7.1986 12.4164C6.99346 12.6313 6.87821 12.9228 6.87821 13.2267C6.87821 13.5306 6.99346 13.8221 7.1986 14.037C7.40375 14.252 7.68198 14.3727 7.9721 14.3727C8.26222 14.3727 8.54046 14.252 8.7456 14.037L13.6937 8.85238C13.7542 8.78668 13.8266 8.73427 13.9067 8.6982C13.9867 8.66213 14.0728 8.64313 14.16 8.64229C14.2471 8.64145 14.3335 8.65881 14.4142 8.69334C14.4949 8.72786 14.5681 8.77888 14.6298 8.8434C14.6914 8.90792 14.7402 8.98465 14.7732 9.06913C14.8063 9.1536 14.8229 9.24412 14.8222 9.33541C14.8215 9.42669 14.8034 9.51692 14.7691 9.60081C14.7347 9.68471 14.6848 9.76059 14.6221 9.82404L9.6731 15.0096C9.22185 15.4825 8.60978 15.7482 7.97153 15.7483C7.33329 15.7484 6.72115 15.4828 6.26979 15.0101C5.81842 14.5373 5.5648 13.8961 5.56472 13.2275C5.56464 12.5589 5.8181 11.9176 6.26935 11.4447L14.0044 3.34688C14.7017 2.61619 15.6476 2.20565 16.6339 2.20557C17.6201 2.20548 18.5661 2.61586 19.2635 3.34642C19.961 4.07698 20.3529 5.06788 20.353 6.10114C20.3531 7.13439 19.9613 8.12536 19.264 8.85604L9.67397 18.899C9.20766 19.39 8.65305 19.7792 8.04222 20.0442C7.43139 20.3092 6.77647 20.4446 6.11535 20.4427Z" fill="#38B9FC"/>
</g>
</g>
</svg>
