<svg width="1920" height="964" viewBox="0 0 1920 964" fill="none" xmlns="http://www.w3.org/2000/svg">
<mask id="mask0_15_4" style="mask-type:alpha" maskUnits="userSpaceOnUse" x="0" y="0" width="1920" height="964">
<path d="M0 307.145L1920 0.487062V657.223L0 963.88V307.145Z" fill="black"/>
</mask>
<g mask="url(#mask0_15_4)">
<path d="M-78.3579 784.668C-79.5362 783.521 -80.9625 782.947 -82.6369 782.947H-82.6834C-82.947 782.947 -83.1873 782.97 -83.4043 783.016C-84.7376 783.123 -85.9159 783.674 -86.9391 784.668C-88.1019 785.83 -88.6833 787.244 -88.6833 788.911C-88.6833 790.562 -88.1019 791.969 -86.9391 793.131C-85.9159 794.141 -84.7376 794.714 -83.4043 794.852C-83.1873 794.867 -82.947 794.875 -82.6834 794.875H-82.6369C-80.9625 794.875 -79.5362 794.294 -78.3579 793.131C-77.1797 791.969 -76.5905 790.562 -76.5905 788.911C-76.5905 787.244 -77.1797 785.83 -78.3579 784.668ZM-83.4043 786.388C-83.1873 786.312 -82.947 786.273 -82.6834 786.273C-81.9393 786.273 -81.3114 786.526 -80.7997 787.03C-80.2726 787.55 -80.0091 788.177 -80.0091 788.911C-80.0091 789.645 -80.2726 790.264 -80.7997 790.769C-81.3114 791.304 -81.9393 791.572 -82.6834 791.572C-82.947 791.572 -83.1873 791.549 -83.4043 791.503C-83.8539 791.365 -84.257 791.121 -84.6136 790.769C-85.1252 790.264 -85.381 789.645 -85.381 788.911C-85.381 788.177 -85.1252 787.55 -84.6136 787.03C-84.257 786.694 -83.8539 786.48 -83.4043 786.388ZM-133.357 756.455C-135.682 756.455 -137.69 757.258 -139.38 758.864C-140.729 760.24 -141.512 761.83 -141.729 763.635C-141.791 764.017 -141.822 764.407 -141.822 764.804C-141.822 767.083 -141.008 769.04 -139.38 770.676C-137.69 772.328 -135.682 773.153 -133.357 773.153C-131.822 773.153 -130.427 772.802 -129.171 772.098L-120.892 779.599V801.045L-83.4043 839.647L-83.102 839.9L-45.3586 801.045V779.599L-37.0331 772.098C-35.7928 772.802 -34.3975 773.153 -32.8472 773.153C-30.5216 773.153 -28.5139 772.328 -26.824 770.676C-25.1961 769.04 -24.3822 767.083 -24.3822 764.804C-24.3822 764.407 -24.421 764.017 -24.4985 763.635C-24.7155 761.83 -25.4907 760.24 -26.824 758.864C-28.5139 757.258 -30.5216 756.455 -32.8472 756.455C-35.1882 756.455 -37.1727 757.258 -38.8005 758.864C-40.4904 760.531 -41.3354 762.511 -41.3354 764.804C-41.3354 765.844 -41.1493 766.831 -40.7772 767.763C-40.5447 768.39 -40.2191 768.994 -39.8005 769.575L-48.5445 777.649V799.439L-82.8462 835.175H-83.4043L-117.706 799.439V777.649L-126.404 769.575C-126.016 768.994 -125.69 768.39 -125.427 767.763C-125.07 766.831 -124.892 765.844 -124.892 764.804C-124.892 762.511 -125.729 760.531 -127.403 758.864C-129.062 757.258 -131.047 756.455 -133.357 756.455ZM-138.799 764.804C-138.799 764.407 -138.737 764.017 -138.613 763.635C-138.458 762.687 -137.992 761.823 -137.217 761.043C-136.163 760.018 -134.899 759.506 -133.427 759.506C-131.969 759.506 -130.721 760.018 -129.683 761.043C-128.892 761.823 -128.388 762.687 -128.171 763.635C-128.093 764.017 -128.055 764.407 -128.055 764.804C-128.055 766.257 -128.597 767.488 -129.683 768.497C-130.721 769.537 -131.969 770.057 -133.427 770.057C-134.899 770.057 -136.163 769.537 -137.217 768.497C-138.272 767.488 -138.799 766.257 -138.799 764.804ZM-38.1494 764.804C-38.1494 764.407 -38.1184 764.017 -38.0564 763.635C-37.8393 762.687 -37.3432 761.823 -36.568 761.043C-35.5293 760.018 -34.2813 759.506 -32.8239 759.506C-31.3511 759.506 -30.072 760.018 -28.9868 761.043C-28.2426 761.823 -27.7775 762.687 -27.5915 763.635C-27.4984 764.017 -27.4519 764.407 -27.4519 764.804C-27.4519 766.257 -27.9635 767.488 -28.9868 768.497C-30.072 769.537 -31.3511 770.057 -32.8239 770.057C-34.2813 770.057 -35.5293 769.537 -36.568 768.497C-37.6223 767.488 -38.1494 766.257 -38.1494 764.804ZM-83.4043 512.89V486.237C-103.197 486.369 -120.126 493.349 -134.194 507.178C-148.349 521.185 -155.426 538.074 -155.426 557.846V584.361C-159.411 585.874 -163.046 588.229 -166.333 591.425C-172.472 597.496 -175.542 604.813 -175.542 613.376V699.641C-175.542 708.189 -172.472 715.483 -166.333 721.523C-160.194 727.593 -152.783 730.629 -144.101 730.629H-83.4043V698.563H-102.869L-91.6832 661.268C-94.1793 660.182 -96.4738 658.615 -98.5668 656.566C-102.923 652.254 -105.102 647.055 -105.102 640.969C-105.102 634.852 -102.923 629.623 -98.5668 625.28C-94.3343 621.151 -89.2802 619.01 -83.4043 618.858V582.411H-128.38V557.685C-128.38 545.299 -123.946 534.741 -115.078 526.009C-106.303 517.355 -95.7452 512.981 -83.4043 512.89ZM-22.2892 438.666C-22.2892 441.051 -21.4365 443.078 -19.7311 444.744C-19.6846 444.79 -19.6459 444.821 -19.6149 444.836C-18.297 446.151 -16.7389 446.939 -14.9405 447.199V484.058L-83.102 415.225L-151.287 484.058V447.199C-149.504 446.939 -147.953 446.151 -146.636 444.836C-146.574 444.821 -146.535 444.79 -146.519 444.744C-144.783 443.078 -143.915 441.051 -143.915 438.666C-143.915 436.265 -144.783 434.209 -146.519 432.496C-148.194 430.86 -150.248 430.042 -152.682 430.042C-155.116 430.042 -157.194 430.86 -158.915 432.496C-160.573 434.209 -161.403 436.265 -161.403 438.666C-161.403 441.051 -160.573 443.078 -158.915 444.744C-158.868 444.79 -158.829 444.821 -158.798 444.836C-157.573 445.998 -156.163 446.755 -154.566 447.107V491.879L-83.102 420.317L-11.6615 491.879V447.107C-10.0492 446.755 -8.63834 445.998 -7.42906 444.836C-7.38255 444.821 -7.35154 444.79 -7.33604 444.744C-5.64615 443.078 -4.8012 441.051 -4.8012 438.666C-4.8012 436.265 -5.64615 434.209 -7.33604 432.496C-9.04143 430.86 -11.1034 430.042 -13.522 430.042C-15.987 430.042 -18.0567 430.86 -19.7311 432.496C-21.4365 434.209 -22.2892 436.265 -22.2892 438.666ZM-16.801 435.409C-15.9173 434.537 -14.8243 434.102 -13.522 434.102C-12.2507 434.102 -11.1732 434.537 -10.2895 435.409C-9.37475 436.296 -8.91738 437.382 -8.91738 438.666C-8.91738 439.935 -9.37475 441.013 -10.2895 441.9C-11.1732 442.772 -12.2507 443.208 -13.522 443.208C-14.0336 443.208 -14.5064 443.162 -14.9405 443.07C-15.6537 442.81 -16.2738 442.42 -16.801 441.9C-17.7002 441.013 -18.1498 439.935 -18.1498 438.666C-18.1498 437.382 -17.7002 436.296 -16.801 435.409ZM-155.961 435.409C-155.046 434.537 -153.953 434.102 -152.682 434.102C-151.38 434.102 -150.287 434.537 -149.403 435.409C-148.519 436.296 -148.078 437.382 -148.078 438.666C-148.078 439.935 -148.519 441.013 -149.403 441.9C-149.93 442.42 -150.558 442.81 -151.287 443.07C-151.705 443.162 -152.17 443.208 -152.682 443.208C-153.953 443.208 -155.046 442.772 -155.961 441.9C-156.845 441.013 -157.287 439.935 -157.287 438.666C-157.287 437.382 -156.845 436.296 -155.961 435.409ZM-209.774 734.895C-211.464 736.562 -212.309 738.58 -212.309 740.95C-212.309 743.29 -211.464 745.293 -209.774 746.96C-208.115 748.611 -206.084 749.437 -203.681 749.437C-201.278 749.437 -199.239 748.611 -197.565 746.96C-197.317 746.715 -197.084 746.486 -196.867 746.271L-143.124 798.476V834.739C-142.101 835.977 -141.07 835.977 -140.031 834.739V797.489L-195.472 743.657C-195.177 742.8 -195.03 741.898 -195.03 740.95C-195.03 738.58 -195.875 736.562 -197.565 734.895C-199.239 733.243 -201.278 732.418 -203.681 732.418C-206.084 732.418 -208.115 733.243 -209.774 734.895ZM-209.216 740.95C-209.216 739.436 -208.673 738.144 -207.588 737.074C-206.534 736.003 -205.231 735.468 -203.681 735.468C-202.146 735.468 -200.836 736.003 -199.751 737.074C-198.697 738.144 -198.17 739.436 -198.17 740.95C-198.17 742.464 -198.697 743.741 -199.751 744.781C-200.836 745.851 -202.146 746.386 -203.681 746.386C-205.231 746.386 -206.534 745.851 -207.588 744.781C-208.673 743.741 -209.216 742.464 -209.216 740.95ZM46.1048 740.95C46.1048 738.58 45.2599 736.562 43.57 734.895C41.8801 733.243 39.8491 732.418 37.4771 732.418C35.074 732.418 33.0275 733.243 31.3376 734.895C29.6633 736.562 28.826 738.58 28.826 740.95C28.826 741.898 28.9734 742.8 29.2679 743.657L-26.2194 797.489V834.739C-25.1651 835.977 -24.1186 835.977 -23.0799 834.739V798.476L30.6633 746.271C30.8493 746.486 31.0741 746.715 31.3376 746.96C33.0275 748.611 35.074 749.437 37.4771 749.437C39.8491 749.437 41.8801 748.611 43.57 746.96C45.2599 745.293 46.1048 743.29 46.1048 740.95ZM41.3607 737.074C42.446 738.144 42.9886 739.436 42.9886 740.95C42.9886 742.464 42.446 743.741 41.3607 744.781C40.3065 745.851 39.0119 746.386 37.4771 746.386C35.9422 746.386 34.6321 745.851 33.5469 744.781C32.4616 743.741 31.919 742.464 31.919 740.95C31.919 739.436 32.4616 738.144 33.5469 737.074C34.6321 736.003 35.9422 735.468 37.4771 735.468C39.0119 735.468 40.3065 736.003 41.3607 737.074ZM89.2901 604.339C90.5303 605.577 91.9567 606.372 93.569 606.724V648.263C91.9567 648.568 90.5303 649.333 89.2901 650.556C87.5537 652.269 86.6854 654.325 86.6854 656.726C86.6854 658.622 87.228 660.289 88.3133 661.726C88.4063 661.925 88.5226 662.093 88.6621 662.231C88.8637 662.445 89.073 662.659 89.2901 662.873C90.9955 664.555 93.0574 665.396 95.476 665.396C97.9255 665.396 100.003 664.555 101.708 662.873C103.414 661.161 104.266 659.112 104.266 656.726C104.266 654.325 103.414 652.269 101.708 650.556C100.313 649.18 98.693 648.377 96.8481 648.148V606.839C98.693 606.548 100.313 605.715 101.708 604.339C103.414 602.657 104.266 600.608 104.266 598.192C104.266 595.791 103.414 593.749 101.708 592.067C100.003 590.37 97.9255 589.521 95.476 589.521C93.0574 589.521 90.9955 590.37 89.2901 592.067C87.5537 593.749 86.6854 595.791 86.6854 598.192C86.6854 600.608 87.5537 602.657 89.2901 604.339ZM93.569 603.375C92.8559 603.1 92.2047 602.664 91.6156 602.068C90.5148 600.997 89.9644 599.705 89.9644 598.192C89.9644 596.678 90.5148 595.37 91.6156 594.269C92.7008 593.229 94.0109 592.71 95.5457 592.71C97.0961 592.71 98.4217 593.229 99.5224 594.269C100.608 595.37 101.15 596.678 101.15 598.192C101.15 599.705 100.608 600.997 99.5224 602.068C98.7317 602.848 97.8403 603.36 96.8481 603.605C96.445 603.666 96.0108 603.696 95.5457 603.696C94.8326 603.696 94.1737 603.589 93.569 603.375ZM95.5457 651.198C96.0108 651.198 96.445 651.26 96.8481 651.382C97.8403 651.596 98.7317 652.07 99.5224 652.804C100.608 653.89 101.15 655.197 101.15 656.726C101.15 658.24 100.608 659.532 99.5224 660.603C98.4217 661.688 97.0961 662.231 95.5457 662.231C94.0109 662.231 92.7008 661.688 91.6156 660.603C90.5148 659.532 89.9644 658.24 89.9644 656.726C89.9644 655.197 90.5148 653.89 91.6156 652.804C92.7008 651.734 94.0109 651.198 95.5457 651.198ZM94.3365 461.626C92.6001 459.959 90.5148 459.126 88.0807 459.126C85.6622 459.126 83.608 459.959 81.9181 461.626C80.2127 463.308 79.36 465.349 79.36 467.75C79.36 470.166 80.2127 472.192 81.9181 473.828C83.608 475.525 85.6622 476.374 88.0807 476.374C90.5148 476.374 92.6001 475.525 94.3365 473.828C96.0108 472.192 96.8481 470.166 96.8481 467.75C96.8481 465.349 96.0108 463.308 94.3365 461.626ZM88.0807 463.185C89.383 463.185 90.4761 463.637 91.3598 464.539C92.259 465.41 92.7086 466.481 92.7086 467.75C92.7086 469.019 92.259 470.097 91.3598 470.984C90.4761 471.856 89.383 472.291 88.0807 472.291C86.7939 472.291 85.701 471.856 84.8018 470.984C83.9181 470.097 83.4762 469.019 83.4762 467.75C83.4762 466.481 83.9181 465.41 84.8018 464.539C85.701 463.637 86.7939 463.185 88.0807 463.185ZM119.196 493.668L117.243 491.352L42.477 565.3C42.1514 564.016 41.4847 562.892 40.477 561.928C38.8646 560.338 36.9189 559.543 34.6399 559.543C32.3299 559.543 30.3687 560.338 28.7563 561.928C27.175 563.519 26.3842 565.438 26.3842 567.686C26.3842 568.557 26.5005 569.391 26.7331 570.186C27.1207 571.409 27.7951 572.495 28.7563 573.443C30.0276 574.681 31.4927 575.438 33.1516 575.713V701.292C33.1206 704.305 34.2136 705.283 36.4306 704.228L64.4533 676.245L81.267 693.012L83.6855 690.42L64.4765 671.039V582.113L124.15 521.972L121.987 519.541L60.8487 581.149V672.644L62.1278 673.929L36.7096 699.457V575.622C38.105 575.255 39.3607 574.528 40.477 573.443C41.4382 572.495 42.1049 571.409 42.477 570.186C42.5545 569.91 42.632 569.643 42.7095 569.383L119.196 493.668ZM38.9654 567.686C38.9654 568.19 38.8879 568.649 38.7329 569.062C38.7174 569.215 38.6476 569.375 38.5236 569.543C38.4461 569.758 38.322 569.972 38.1515 570.186C38.0429 570.339 37.9034 570.514 37.7329 570.713C36.8647 571.539 35.8337 571.952 34.6399 571.952C33.4151 571.952 32.3919 571.539 31.5702 570.713C31.3686 570.514 31.1981 570.339 31.0586 570.186C30.5315 569.467 30.2679 568.634 30.2679 567.686C30.2679 566.478 30.702 565.461 31.5702 564.635C32.3919 563.794 33.4151 563.373 34.6399 563.373C35.8337 563.373 36.8647 563.794 37.7329 564.635C38.5546 565.461 38.9654 566.478 38.9654 567.686ZM14.0822 478.163L10.6869 475.961V505.206L39.5003 534.519C41.4848 536.17 43.4924 536.17 45.5234 534.519L75.3601 504.357C76.5693 503.011 76.7011 501.375 75.7554 499.449L56.8255 479.861C56.9806 479.723 57.1046 479.608 57.1977 479.516C58.593 478.14 59.2906 476.458 59.2906 474.47C59.2906 473.568 59.1433 472.72 58.8487 471.924C58.7867 471.741 58.717 471.565 58.6395 471.397C58.2829 470.663 57.8023 469.998 57.1977 469.401C55.7713 468.01 54.0504 467.314 52.0349 467.314C50.0505 467.314 48.3606 468.01 46.9653 469.401C46.3606 469.998 45.8568 470.663 45.4537 471.397C45.0196 472.33 44.8025 473.354 44.8025 474.47C44.8025 476.458 45.5235 478.14 46.9653 479.516C47.6785 480.205 48.4536 480.747 49.2908 481.145C50.1435 481.451 51.0582 481.604 52.0349 481.604C52.8256 481.604 53.562 481.497 54.2442 481.283L72.802 500.481C73.3136 501.306 73.3523 502.056 72.9182 502.729L43.849 531.377C42.7948 532.263 41.8103 532.263 40.8956 531.377L14.0822 503.829V478.163ZM19.5937 459.447C17.1751 459.447 15.1209 460.28 13.431 461.947C11.7256 463.629 10.8729 465.663 10.8729 468.048C10.8729 470.449 11.7256 472.483 13.431 474.149C15.1209 475.847 17.1751 476.695 19.5937 476.695C22.0278 476.695 24.1052 475.847 25.8261 474.149C27.516 472.483 28.3609 470.449 28.3609 468.048C28.3609 465.663 27.516 463.629 25.8261 461.947C24.1052 460.28 22.0278 459.447 19.5937 459.447ZM16.3147 464.86C17.2294 463.958 18.3224 463.507 19.5937 463.507C20.896 463.507 21.989 463.958 22.8727 464.86C23.7719 465.731 24.2215 466.794 24.2215 468.048C24.2215 469.333 23.7719 470.418 22.8727 471.305C21.989 472.177 20.896 472.612 19.5937 472.612C18.3224 472.612 17.2294 472.177 16.3147 471.305C15.431 470.418 14.9891 469.333 14.9891 468.048C14.9891 466.794 15.431 465.731 16.3147 464.86Z" fill="#F2F5F4" fill-opacity="0.2"/>
</g>
</svg>
