<svg width="73" height="73" viewBox="0 0 73 73" fill="none" xmlns="http://www.w3.org/2000/svg">
<g id="ds_&#208;&#178;&#208;&#190;&#208;&#187;&#208;&#189;&#208;&#176; 2">
<g id="Group">
<g id="Layer0_0_FILL">
<path id="Vector" d="M37.0282 53.2882C36.9049 53.1681 36.7557 53.1082 36.5805 53.1082H36.5756C36.548 53.1082 36.5229 53.1105 36.5002 53.1154C36.3607 53.1266 36.2374 53.1842 36.1303 53.2882C36.0086 53.4097 35.9478 53.5578 35.9478 53.7322C35.9478 53.9049 36.0086 54.0521 36.1303 54.1737C36.2374 54.2793 36.3607 54.3393 36.5002 54.3537C36.5229 54.3553 36.548 54.3562 36.5756 54.3562H36.5805C36.7557 54.3562 36.9049 54.2953 37.0282 54.1737C37.1515 54.0521 37.2131 53.9049 37.2131 53.7322C37.2131 53.5578 37.1515 53.4097 37.0282 53.2882ZM36.5002 53.4682C36.5229 53.4601 36.548 53.4562 36.5756 53.4562C36.6535 53.4562 36.7192 53.4826 36.7727 53.5354C36.8279 53.5898 36.8554 53.6553 36.8554 53.7322C36.8554 53.8089 36.8279 53.8737 36.7727 53.9265C36.7192 53.9825 36.6535 54.0105 36.5756 54.0105C36.548 54.0105 36.5229 54.0082 36.5002 54.0033C36.4531 53.989 36.411 53.9633 36.3736 53.9265C36.3201 53.8737 36.2933 53.8089 36.2933 53.7322C36.2933 53.6553 36.3201 53.5898 36.3736 53.5354C36.411 53.5002 36.4531 53.4777 36.5002 53.4682ZM31.2734 50.3362C31.03 50.3362 30.82 50.4202 30.6431 50.5882C30.502 50.7322 30.4201 50.8986 30.3974 51.0874C30.3909 51.1273 30.3876 51.1681 30.3876 51.2097C30.3876 51.4481 30.4728 51.653 30.6431 51.8242C30.82 51.9969 31.03 52.0834 31.2734 52.0834C31.434 52.0834 31.58 52.0465 31.7114 51.9729L32.5776 52.7577V55.0017L36.5002 59.0409L36.5318 59.0674L40.4811 55.0017V52.7577L41.3522 51.9729C41.482 52.0465 41.628 52.0834 41.7902 52.0834C42.0336 52.0834 42.2437 51.9969 42.4205 51.8242C42.5908 51.653 42.676 51.4481 42.676 51.2097C42.676 51.1681 42.6719 51.1273 42.6638 51.0874C42.6411 50.8986 42.56 50.7322 42.4205 50.5882C42.2437 50.4202 42.0336 50.3362 41.7902 50.3362C41.5453 50.3362 41.3376 50.4202 41.1673 50.5882C40.9905 50.7626 40.9021 50.9697 40.9021 51.2097C40.9021 51.3185 40.9215 51.4217 40.9605 51.5194C40.9848 51.5849 41.0189 51.6481 41.0627 51.709L40.1477 52.5537V54.8337L36.5586 58.5729H36.5002L32.911 54.8337V52.5537L32.0009 51.709C32.0415 51.6481 32.0756 51.5849 32.1031 51.5194C32.1405 51.4217 32.1591 51.3185 32.1591 51.2097C32.1591 50.9697 32.0715 50.7626 31.8963 50.5882C31.7227 50.4202 31.5151 50.3362 31.2734 50.3362ZM30.704 51.2097C30.704 51.1681 30.7105 51.1273 30.7234 51.0874C30.7397 50.9882 30.7883 50.8978 30.8694 50.8162C30.9798 50.709 31.112 50.6553 31.2661 50.6553C31.4186 50.6553 31.5492 50.709 31.6578 50.8162C31.7406 50.8978 31.7933 50.9882 31.816 51.0874C31.8241 51.1273 31.8282 51.1681 31.8282 51.2097C31.8282 51.3617 31.7714 51.4906 31.6578 51.5961C31.5492 51.7049 31.4186 51.7593 31.2661 51.7593C31.112 51.7593 30.9798 51.7049 30.8694 51.5961C30.7591 51.4906 30.704 51.3617 30.704 51.2097ZM41.2354 51.2097C41.2354 51.1681 41.2387 51.1273 41.2452 51.0874C41.2679 50.9882 41.3198 50.8978 41.4009 50.8162C41.5096 50.709 41.6402 50.6553 41.7927 50.6553C41.9468 50.6553 42.0806 50.709 42.1942 50.8162C42.272 50.8978 42.3207 50.9882 42.3402 51.0874C42.3499 51.1273 42.3548 51.1681 42.3548 51.2097C42.3548 51.3617 42.3012 51.4906 42.1942 51.5961C42.0806 51.7049 41.9468 51.7593 41.7927 51.7593C41.6402 51.7593 41.5096 51.7049 41.4009 51.5961C41.2906 51.4906 41.2354 51.3617 41.2354 51.2097ZM36.5002 24.8505V22.0617C34.4292 22.0755 32.6577 22.8059 31.1858 24.2529C29.7047 25.7185 28.9641 27.4857 28.9641 29.5545V32.3289C28.5472 32.4873 28.1668 32.7337 27.8229 33.0681C27.1805 33.7034 26.8593 34.4689 26.8593 35.3649V44.3913C26.8593 45.2857 27.1805 46.0489 27.8229 46.681C28.4653 47.3161 29.2407 47.6337 30.1492 47.6337H36.5002V44.2785H34.4635L35.6339 40.3762C35.3727 40.2626 35.1326 40.0985 34.9136 39.8841C34.4578 39.4329 34.2299 38.889 34.2299 38.2521C34.2299 37.6122 34.4578 37.0649 34.9136 36.6105C35.3565 36.1785 35.8854 35.9545 36.5002 35.9385V32.1249H31.7941V29.5377C31.7941 28.2417 32.2581 27.1369 33.186 26.2233C34.1042 25.3177 35.2089 24.8601 36.5002 24.8505ZM42.895 17.0841C42.895 17.3337 42.9842 17.5457 43.1626 17.7201C43.1675 17.7249 43.1716 17.7281 43.1748 17.7297C43.3127 17.8673 43.4757 17.9497 43.6639 17.9769V21.8337L36.5318 14.6313L29.3973 21.8337V17.9769C29.5838 17.9497 29.7461 17.8673 29.8839 17.7297C29.8904 17.7281 29.8945 17.7249 29.8961 17.7201C30.0778 17.5457 30.1686 17.3337 30.1686 17.0841C30.1686 16.8329 30.0778 16.6177 29.8961 16.4385C29.7209 16.2673 29.506 16.1817 29.2513 16.1817C28.9966 16.1817 28.7792 16.2673 28.5991 16.4385C28.4256 16.6177 28.3388 16.8329 28.3388 17.0841C28.3388 17.3337 28.4256 17.5457 28.5991 17.7201C28.604 17.7249 28.6081 17.7281 28.6113 17.7297C28.7395 17.8513 28.8871 17.9305 29.0542 17.9673V22.6521L36.5318 15.1641L44.007 22.6521V17.9673C44.1757 17.9305 44.3233 17.8513 44.4499 17.7297C44.4547 17.7281 44.458 17.7249 44.4596 17.7201C44.6364 17.5457 44.7248 17.3337 44.7248 17.0841C44.7248 16.8329 44.6364 16.6177 44.4596 16.4385C44.2812 16.2673 44.0654 16.1817 43.8123 16.1817C43.5544 16.1817 43.3378 16.2673 43.1626 16.4385C42.9842 16.6177 42.895 16.8329 42.895 17.0841ZM43.4692 16.7433C43.5617 16.6521 43.6761 16.6065 43.8123 16.6065C43.9454 16.6065 44.0581 16.6521 44.1506 16.7433C44.2463 16.8361 44.2941 16.9497 44.2941 17.0841C44.2941 17.2169 44.2463 17.3297 44.1506 17.4225C44.0581 17.5137 43.9454 17.5593 43.8123 17.5593C43.7588 17.5593 43.7093 17.5545 43.6639 17.5449C43.5893 17.5177 43.5244 17.4769 43.4692 17.4225C43.3752 17.3297 43.3281 17.2169 43.3281 17.0841C43.3281 16.9497 43.3752 16.8361 43.4692 16.7433ZM28.9082 16.7433C29.0039 16.6521 29.1183 16.6065 29.2513 16.6065C29.3875 16.6065 29.5019 16.6521 29.5944 16.7433C29.6868 16.8361 29.7331 16.9497 29.7331 17.0841C29.7331 17.2169 29.6868 17.3297 29.5944 17.4225C29.5392 17.4769 29.4735 17.5177 29.3973 17.5449C29.3535 17.5545 29.3048 17.5593 29.2513 17.5593C29.1183 17.5593 29.0039 17.5137 28.9082 17.4225C28.8157 17.3297 28.7695 17.2169 28.7695 17.0841C28.7695 16.9497 28.8157 16.8361 28.9082 16.7433ZM23.2774 48.0802C23.1006 48.2546 23.0122 48.4657 23.0122 48.7137C23.0122 48.9585 23.1006 49.1681 23.2774 49.3425C23.451 49.5153 23.6635 49.6017 23.915 49.6017C24.1664 49.6017 24.3797 49.5153 24.5549 49.3425C24.5809 49.3169 24.6052 49.2929 24.6279 49.2705L30.2514 54.7329V58.5274C30.3584 58.657 30.4663 58.657 30.575 58.5274V54.6297L24.7739 48.9969C24.8048 48.9073 24.8202 48.8129 24.8202 48.7137C24.8202 48.4657 24.7318 48.2546 24.5549 48.0802C24.3797 47.9073 24.1664 47.8209 23.915 47.8209C23.6635 47.8209 23.451 47.9073 23.2774 48.0802ZM23.3358 48.7137C23.3358 48.5553 23.3926 48.4202 23.5062 48.3082C23.6165 48.1961 23.7528 48.1401 23.915 48.1401C24.0756 48.1401 24.2127 48.1961 24.3262 48.3082C24.4365 48.4202 24.4917 48.5553 24.4917 48.7137C24.4917 48.8721 24.4365 49.0057 24.3262 49.1145C24.2127 49.2265 24.0756 49.2826 23.915 49.2826C23.7528 49.2826 23.6165 49.2265 23.5062 49.1145C23.3926 49.0057 23.3358 48.8721 23.3358 48.7137ZM50.0514 48.7137C50.0514 48.4657 49.963 48.2546 49.7862 48.0802C49.6094 47.9073 49.3968 47.8209 49.1486 47.8209C48.8972 47.8209 48.6831 47.9073 48.5062 48.0802C48.331 48.2546 48.2434 48.4657 48.2434 48.7137C48.2434 48.8129 48.2589 48.9073 48.2897 48.9969L42.4837 54.6297V58.5274C42.5941 58.657 42.7036 58.657 42.8122 58.5274V54.7329L48.4357 49.2705C48.4551 49.2929 48.4787 49.3169 48.5062 49.3425C48.6831 49.5153 48.8972 49.6017 49.1486 49.6017C49.3968 49.6017 49.6094 49.5153 49.7862 49.3425C49.963 49.1681 50.0514 48.9585 50.0514 48.7137ZM49.555 48.3082C49.6686 48.4202 49.7253 48.5553 49.7253 48.7137C49.7253 48.8721 49.6686 49.0057 49.555 49.1145C49.4447 49.2265 49.3092 49.2826 49.1486 49.2826C48.988 49.2826 48.851 49.2265 48.7374 49.1145C48.6238 49.0057 48.5671 48.8721 48.5671 48.7137C48.5671 48.5553 48.6238 48.4202 48.7374 48.3082C48.851 48.1961 48.988 48.1401 49.1486 48.1401C49.3092 48.1401 49.4447 48.1961 49.555 48.3082ZM54.5701 34.4193C54.6999 34.5489 54.8491 34.6321 55.0178 34.6689V39.0153C54.8491 39.0473 54.6999 39.1273 54.5701 39.2553C54.3884 39.4345 54.2976 39.6497 54.2976 39.9009C54.2976 40.0993 54.3544 40.2738 54.4679 40.4242C54.4776 40.445 54.4898 40.4625 54.5044 40.4769C54.5255 40.4993 54.5474 40.5217 54.5701 40.5441C54.7486 40.7201 54.9643 40.8081 55.2174 40.8081C55.4737 40.8081 55.6911 40.7201 55.8695 40.5441C56.048 40.365 56.1372 40.1505 56.1372 39.9009C56.1372 39.6497 56.048 39.4345 55.8695 39.2553C55.7235 39.1113 55.554 39.0273 55.3609 39.0033V34.6809C55.554 34.6505 55.7235 34.5633 55.8695 34.4193C56.048 34.2433 56.1372 34.0289 56.1372 33.7761C56.1372 33.525 56.048 33.3113 55.8695 33.1353C55.6911 32.9577 55.4737 32.8689 55.2174 32.8689C54.9643 32.8689 54.7486 32.9577 54.5701 33.1353C54.3884 33.3113 54.2976 33.525 54.2976 33.7761C54.2976 34.0289 54.3884 34.2433 54.5701 34.4193ZM55.0178 34.3185C54.9432 34.2897 54.8751 34.2441 54.8134 34.1817C54.6983 34.0697 54.6407 33.9345 54.6407 33.7761C54.6407 33.6178 54.6983 33.4809 54.8134 33.3657C54.927 33.2569 55.0641 33.2025 55.2247 33.2025C55.3869 33.2025 55.5256 33.2569 55.6408 33.3657C55.7543 33.4809 55.8111 33.6178 55.8111 33.7761C55.8111 33.9345 55.7543 34.0697 55.6408 34.1817C55.558 34.2633 55.4648 34.3169 55.3609 34.3425C55.3188 34.3489 55.2733 34.3521 55.2247 34.3521C55.1501 34.3521 55.0811 34.3409 55.0178 34.3185ZM55.2247 39.3225C55.2733 39.3225 55.3188 39.3289 55.3609 39.3417C55.4648 39.3641 55.558 39.4137 55.6408 39.4905C55.7543 39.6041 55.8111 39.7409 55.8111 39.9009C55.8111 40.0593 55.7543 40.1945 55.6408 40.3065C55.5256 40.4201 55.3869 40.4769 55.2247 40.4769C55.0641 40.4769 54.927 40.4201 54.8134 40.3065C54.6983 40.1945 54.6407 40.0593 54.6407 39.9009C54.6407 39.7409 54.6983 39.6041 54.8134 39.4905C54.927 39.3785 55.0641 39.3225 55.2247 39.3225ZM55.0981 19.4865C54.9165 19.3121 54.6983 19.2249 54.4436 19.2249C54.1905 19.2249 53.9756 19.3121 53.7987 19.4865C53.6203 19.6625 53.5311 19.8761 53.5311 20.1273C53.5311 20.3801 53.6203 20.5921 53.7987 20.7633C53.9756 20.9409 54.1905 21.0297 54.4436 21.0297C54.6983 21.0297 54.9165 20.9409 55.0981 20.7633C55.2733 20.5921 55.3609 20.3801 55.3609 20.1273C55.3609 19.8761 55.2733 19.6625 55.0981 19.4865ZM54.4436 19.6497C54.5798 19.6497 54.6942 19.6969 54.7867 19.7913C54.8808 19.8825 54.9278 19.9945 54.9278 20.1273C54.9278 20.2601 54.8808 20.3729 54.7867 20.4657C54.6942 20.5569 54.5798 20.6025 54.4436 20.6025C54.3089 20.6025 54.1946 20.5569 54.1005 20.4657C54.008 20.3729 53.9618 20.2601 53.9618 20.1273C53.9618 19.9945 54.008 19.8825 54.1005 19.7913C54.1946 19.6969 54.3089 19.6497 54.4436 19.6497ZM57.6994 22.8393L57.495 22.5969L49.6718 30.3345C49.6377 30.2001 49.568 30.0825 49.4625 29.9817C49.2938 29.8153 49.0902 29.7321 48.8518 29.7321C48.6101 29.7321 48.4049 29.8153 48.2361 29.9817C48.0707 30.1481 47.9879 30.3489 47.9879 30.5841C47.9879 30.6754 48.0001 30.7625 48.0244 30.8457C48.065 30.9737 48.1356 31.0873 48.2361 31.1865C48.3692 31.3161 48.5225 31.3953 48.696 31.4242V44.5641C48.6928 44.8793 48.8072 44.9817 49.0391 44.8713L51.9713 41.9433L53.7306 43.6977L53.9837 43.4265L51.9737 41.3985V32.0937L58.2177 25.8009L57.9914 25.5465L51.5941 31.9929V41.5665L51.728 41.7009L49.0683 44.3722V31.4145C49.2143 31.3761 49.3457 31.3001 49.4625 31.1865C49.5631 31.0873 49.6329 30.9737 49.6718 30.8457C49.6799 30.8169 49.688 30.7889 49.6961 30.7617L57.6994 22.8393ZM49.3044 30.5841C49.3044 30.6369 49.2963 30.6849 49.28 30.7281C49.2784 30.7442 49.2711 30.7609 49.2581 30.7785C49.25 30.8009 49.2371 30.8233 49.2192 30.8457C49.2079 30.8617 49.1933 30.8801 49.1754 30.9009C49.0846 30.9873 48.9767 31.0305 48.8518 31.0305C48.7236 31.0305 48.6166 30.9873 48.5306 30.9009C48.5095 30.8801 48.4916 30.8617 48.477 30.8457C48.4219 30.7705 48.3943 30.6833 48.3943 30.5841C48.3943 30.4577 48.4397 30.3513 48.5306 30.2649C48.6166 30.1769 48.7236 30.1329 48.8518 30.1329C48.9767 30.1329 49.0846 30.1769 49.1754 30.2649C49.2614 30.3513 49.3044 30.4577 49.3044 30.5841ZM46.7007 21.2169L46.3454 20.9865V24.0465L49.3603 27.1137C49.568 27.2865 49.7781 27.2865 49.9906 27.1137L53.1125 23.9577C53.2391 23.8169 53.2529 23.6457 53.1539 23.4441L51.1732 21.3945C51.1894 21.3801 51.2024 21.3681 51.2121 21.3585C51.3581 21.2145 51.4311 21.0385 51.4311 20.8305C51.4311 20.7361 51.4157 20.6473 51.3849 20.5641C51.3784 20.5449 51.3711 20.5265 51.363 20.5089C51.3257 20.4321 51.2754 20.3625 51.2121 20.3001C51.0629 20.1545 50.8828 20.0817 50.6719 20.0817C50.4643 20.0817 50.2874 20.1545 50.1414 20.3001C50.0782 20.3625 50.0255 20.4321 49.9833 20.5089C49.9379 20.6065 49.9151 20.7137 49.9151 20.8305C49.9151 21.0385 49.9906 21.2145 50.1414 21.3585C50.2161 21.4305 50.2972 21.4873 50.3848 21.5289C50.474 21.5609 50.5697 21.5769 50.6719 21.5769C50.7546 21.5769 50.8317 21.5657 50.9031 21.5433L52.8449 23.5521C52.8984 23.6385 52.9025 23.7169 52.857 23.7873L49.8154 26.7849C49.7051 26.8777 49.6021 26.8777 49.5063 26.7849L46.7007 23.9025V21.2169ZM47.2774 19.2585C47.0243 19.2585 46.8094 19.3457 46.6326 19.5201C46.4541 19.6961 46.3649 19.9089 46.3649 20.1585C46.3649 20.4097 46.4541 20.6225 46.6326 20.7969C46.8094 20.9745 47.0243 21.0633 47.2774 21.0633C47.5321 21.0633 47.7495 20.9745 47.9295 20.7969C48.1064 20.6225 48.1948 20.4097 48.1948 20.1585C48.1948 19.9089 48.1064 19.6961 47.9295 19.5201C47.7495 19.3457 47.5321 19.2585 47.2774 19.2585ZM46.9343 19.8249C47.03 19.7305 47.1444 19.6833 47.2774 19.6833C47.4137 19.6833 47.528 19.7305 47.6205 19.8249C47.7146 19.9161 47.7616 20.0273 47.7616 20.1585C47.7616 20.2929 47.7146 20.4065 47.6205 20.4993C47.528 20.5905 47.4137 20.6361 47.2774 20.6361C47.1444 20.6361 47.03 20.5905 46.9343 20.4993C46.8418 20.4065 46.7956 20.2929 46.7956 20.1585C46.7956 20.0273 46.8418 19.9161 46.9343 19.8249Z" fill="#F2F5F4"/>
<path id="Vector_2" d="M36.5758 53.456C36.5482 53.456 36.523 53.46 36.5003 53.468C36.4533 53.4776 36.4111 53.5 36.3738 53.5352C36.3203 53.5896 36.2935 53.6552 36.2935 53.732C36.2935 53.8088 36.3203 53.8736 36.3738 53.9264C36.4111 53.9632 36.4533 53.9888 36.5003 54.0032C36.523 54.008 36.5482 54.0104 36.5758 54.0104C36.6536 54.0104 36.7193 53.9824 36.7729 53.9264C36.828 53.8736 36.8556 53.8088 36.8556 53.732C36.8556 53.6552 36.828 53.5896 36.7729 53.5352C36.7193 53.4824 36.6536 53.456 36.5758 53.456ZM30.7236 51.0872C30.7106 51.1272 30.7041 51.168 30.7041 51.2096C30.7041 51.3616 30.7593 51.4904 30.8696 51.596C30.9799 51.7048 31.1121 51.7592 31.2662 51.7592C31.4187 51.7592 31.5493 51.7048 31.658 51.596C31.7715 51.4904 31.8283 51.3616 31.8283 51.2096C31.8283 51.168 31.8243 51.1272 31.8162 51.0872C31.7934 50.988 31.7407 50.8976 31.658 50.816C31.5493 50.7088 31.4187 50.6552 31.2662 50.6552C31.1121 50.6552 30.9799 50.7088 30.8696 50.816C30.7885 50.8976 30.7398 50.988 30.7236 51.0872ZM36.5003 35.9384C35.8855 35.9544 35.3567 36.1784 34.9138 36.6104C34.4579 37.0648 34.23 37.612 34.23 38.252C34.23 38.8888 34.4579 39.4328 34.9138 39.884C35.1328 40.0984 35.3729 40.2624 35.6341 40.376L34.4636 44.2784H36.5003V35.9384ZM36.5003 24.8504C35.209 24.86 34.1043 25.3176 33.1861 26.2232C32.2582 27.1368 31.7943 28.2416 31.7943 29.5376V32.1248H36.5003V24.8504ZM29.2514 16.6064C29.1184 16.6064 29.004 16.652 28.9083 16.7432C28.8159 16.836 28.7696 16.9496 28.7696 17.084C28.7696 17.2168 28.8159 17.3296 28.9083 17.4224C29.004 17.5136 29.1184 17.5592 29.2514 17.5592C29.305 17.5592 29.3536 17.5544 29.3974 17.5448C29.4737 17.5176 29.5394 17.4768 29.5945 17.4224C29.687 17.3296 29.7332 17.2168 29.7332 17.084C29.7332 16.9496 29.687 16.836 29.5945 16.7432C29.5021 16.652 29.3877 16.6064 29.2514 16.6064ZM36.532 8.63118C36.5238 8.62318 36.5157 8.61518 36.5076 8.60718C32.6759 12.0648 27.8441 14.6032 22.0123 16.2224C19.1539 17.0688 16.1406 17.616 12.9724 17.864C12.7129 32.7456 15.2119 43.5904 20.4695 50.3984C24.9566 56.7408 30.3002 61.38 36.5003 64.316V59.0408L32.5778 55.0016V52.7576L31.7115 51.9728C31.5801 52.0464 31.4341 52.0832 31.2735 52.0832C31.0302 52.0832 30.8201 51.9968 30.6433 51.824C30.473 51.6528 30.3878 51.448 30.3878 51.2096C30.3878 51.168 30.391 51.1272 30.3975 51.0872C30.4202 50.8984 30.5022 50.732 30.6433 50.588C30.8201 50.42 31.0302 50.336 31.2735 50.336C31.5152 50.336 31.7229 50.42 31.8965 50.588C32.0717 50.7624 32.1593 50.9696 32.1593 51.2096C32.1593 51.3184 32.1406 51.4216 32.1033 51.5192C32.0757 51.5848 32.0416 51.648 32.0011 51.7088L32.9112 52.5536V54.8336L36.5003 58.5728V54.3536C36.3608 54.3392 36.2375 54.2792 36.1305 54.1736C36.0088 54.052 35.948 53.9048 35.948 53.732C35.948 53.5576 36.0088 53.4096 36.1305 53.288C36.2375 53.184 36.3608 53.1264 36.5003 53.1152V47.6336H30.1493C29.2409 47.6336 28.4655 47.316 27.8231 46.6808C27.1807 46.0488 26.8595 45.2856 26.8595 44.3912V35.3648C26.8595 34.4688 27.1807 33.7032 27.8231 33.068C28.167 32.7336 28.5474 32.4872 28.9643 32.3288V29.5544C28.9643 27.4856 29.7048 25.7184 31.1859 24.2528C32.6579 22.8057 34.4294 22.0753 36.5003 22.0616C36.5109 22.0616 36.5214 22.0616 36.532 22.0616V15.164L29.0543 22.652V17.9672C28.8872 17.9304 28.7396 17.8512 28.6115 17.7296C28.6082 17.728 28.6042 17.7248 28.5993 17.72C28.4257 17.5456 28.3389 17.3336 28.3389 17.084C28.3389 16.8328 28.4257 16.6176 28.5993 16.4384C28.7794 16.2672 28.9967 16.1816 29.2514 16.1816C29.5061 16.1816 29.7211 16.2672 29.8963 16.4384C30.0779 16.6176 30.1688 16.8328 30.1688 17.084C30.1688 17.3336 30.0779 17.5456 29.8963 17.72C29.8946 17.7248 29.8906 17.728 29.8841 17.7296C29.7462 17.8672 29.584 17.9496 29.3974 17.9768V21.8336L36.532 14.6312V8.63118ZM15.362 22.8392L15.5639 22.5968L23.3871 30.3344C23.4244 30.2 23.4958 30.0824 23.6012 29.9816C23.7699 29.8152 23.9735 29.732 24.212 29.732C24.4505 29.732 24.654 29.8152 24.8228 29.9816C24.9915 30.148 25.0758 30.3488 25.0758 30.584C25.0758 30.6752 25.0637 30.7624 25.0393 30.8456C24.9955 30.9736 24.9233 31.0872 24.8228 31.1864C24.693 31.316 24.5397 31.3952 24.3629 31.424V44.564C24.3677 44.8792 24.2534 44.9816 24.0198 44.8712L21.0925 41.9432L19.3307 43.6976L19.0777 43.4264L21.0852 41.3984V32.0936L14.8461 25.8008L15.07 25.5464L21.4672 31.9928V41.5664L21.3334 41.7008L23.993 44.372V31.4144C23.847 31.376 23.7164 31.3 23.6012 31.1864C23.5006 31.0872 23.4293 30.9736 23.3871 30.8456C23.379 30.8168 23.3709 30.7888 23.3628 30.7616L15.362 22.8392ZM25.7839 19.2584C26.0386 19.2584 26.2544 19.3456 26.4312 19.52C26.6096 19.696 26.6989 19.9088 26.6989 20.1584C26.6989 20.4096 26.6096 20.6224 26.4312 20.7968C26.2544 20.9744 26.0386 21.0632 25.7839 21.0632C25.5276 21.0632 25.3102 20.9744 25.1318 20.7968C24.9566 20.6224 24.869 20.4096 24.869 20.1584C24.869 19.9088 24.9566 19.696 25.1318 19.52C25.3102 19.3456 25.5276 19.2584 25.7839 19.2584ZM26.3631 21.2168L26.7159 20.9864V24.0464L23.7034 27.1136C23.4925 27.2864 23.2825 27.2864 23.0732 27.1136L19.9464 23.9576C19.8231 23.8168 19.8101 23.6456 19.9074 23.444L21.8882 21.3944C21.8736 21.38 21.8614 21.368 21.8517 21.3584C21.7057 21.2144 21.6327 21.0384 21.6327 20.8304C21.6327 20.736 21.6464 20.6472 21.674 20.564C21.6805 20.5448 21.6878 20.5264 21.6959 20.5088C21.7332 20.432 21.7851 20.3624 21.8517 20.3C21.9993 20.1544 22.1777 20.0816 22.387 20.0816C22.5979 20.0816 22.7763 20.1544 22.9223 20.3C22.9856 20.3624 23.0367 20.432 23.0756 20.5088C23.121 20.6064 23.1438 20.7136 23.1438 20.8304C23.1438 21.0384 23.0699 21.2144 22.9223 21.3584C22.8461 21.4304 22.7633 21.4872 22.6741 21.5288C22.5881 21.5608 22.4924 21.5768 22.387 21.5768C22.3059 21.5768 22.2288 21.5656 22.1558 21.5432L20.2165 23.552C20.1645 23.6384 20.1613 23.7168 20.2067 23.7872L23.246 26.7848C23.3546 26.8776 23.4577 26.8776 23.555 26.7848L26.3631 23.9024V21.2168ZM19.2626 19.4864C19.441 19.6624 19.5303 19.876 19.5303 20.1272C19.5303 20.38 19.441 20.592 19.2626 20.7632C19.0874 20.9408 18.8724 21.0296 18.6178 21.0296C18.3614 21.0296 18.1441 20.9408 17.9656 20.7632C17.7888 20.592 17.7004 20.38 17.7004 20.1272C17.7004 19.876 17.7888 19.6624 17.9656 19.4864C18.1441 19.312 18.3614 19.2248 18.6178 19.2248C18.8724 19.2248 19.0874 19.312 19.2626 19.4864ZM17.8415 32.8688C18.0946 32.8688 18.312 32.9576 18.4937 33.1352C18.6721 33.3112 18.7613 33.5248 18.7613 33.776C18.7613 34.0288 18.6721 34.2432 18.4937 34.4192C18.3623 34.5488 18.213 34.632 18.0459 34.6688V39.0152C18.213 39.0472 18.3623 39.1272 18.4937 39.2552C18.6721 39.4344 18.7613 39.6496 18.7613 39.9008C18.7613 40.0992 18.7062 40.2736 18.5959 40.424C18.5829 40.4448 18.5691 40.4624 18.5545 40.4768C18.5366 40.4992 18.5164 40.5216 18.4937 40.544C18.312 40.72 18.0946 40.808 17.8415 40.808C17.5868 40.808 17.3703 40.72 17.1918 40.544C17.0118 40.3648 16.9217 40.1504 16.9217 39.9008C16.9217 39.6496 17.0118 39.4344 17.1918 39.2552C17.3378 39.1112 17.5073 39.0272 17.7004 39.0032V34.6808C17.5073 34.6504 17.3378 34.5632 17.1918 34.4192C17.0118 34.2432 16.9217 34.0288 16.9217 33.776C16.9217 33.5248 17.0118 33.3112 17.1918 33.1352C17.3703 32.9576 17.5868 32.8688 17.8415 32.8688ZM23.0124 48.7136C23.0124 48.4656 23.1008 48.2544 23.2776 48.08C23.4512 47.9072 23.6637 47.8208 23.9151 47.8208C24.1666 47.8208 24.3799 47.9072 24.5551 48.08C24.7319 48.2544 24.8203 48.4656 24.8203 48.7136C24.8203 48.8128 24.8049 48.9072 24.7741 48.9968L30.5752 54.6296V58.5272C30.4665 58.6568 30.3586 58.6568 30.2515 58.5272V54.7328L24.6281 49.2704C24.6054 49.2928 24.581 49.3168 24.5551 49.3424C24.3799 49.5152 24.1666 49.6016 23.9151 49.6016C23.6637 49.6016 23.4512 49.5152 23.2776 49.3424C23.1008 49.168 23.0124 48.9584 23.0124 48.7136ZM23.5063 48.308C23.3928 48.42 23.336 48.5552 23.336 48.7136C23.336 48.872 23.3928 49.0056 23.5063 49.1144C23.6166 49.2264 23.7529 49.2824 23.9151 49.2824C24.0757 49.2824 24.2128 49.2264 24.3264 49.1144C24.4367 49.0056 24.4918 48.872 24.4918 48.7136C24.4918 48.5552 24.4367 48.42 24.3264 48.308C24.2128 48.196 24.0757 48.14 23.9151 48.14C23.7529 48.14 23.6166 48.196 23.5063 48.308ZM18.4231 39.9008C18.4231 39.7408 18.3639 39.604 18.2455 39.4904C18.1351 39.3784 17.9989 39.3224 17.8367 39.3224C17.7864 39.3224 17.7409 39.3288 17.7004 39.3416C17.5949 39.364 17.5025 39.4136 17.423 39.4904C17.3094 39.604 17.2527 39.7408 17.2527 39.9008C17.2527 40.0592 17.3094 40.1944 17.423 40.3064C17.5382 40.42 17.6761 40.4768 17.8367 40.4768C17.9989 40.4768 18.1351 40.42 18.2455 40.3064C18.3639 40.1944 18.4231 40.0592 18.4231 39.9008ZM18.2455 33.3656C18.1351 33.2568 17.9989 33.2024 17.8367 33.2024C17.6761 33.2024 17.5382 33.2568 17.423 33.3656C17.3094 33.4808 17.2527 33.6176 17.2527 33.776C17.2527 33.9344 17.3094 34.0696 17.423 34.1816C17.5025 34.2632 17.5949 34.3168 17.7004 34.3424C17.7409 34.3488 17.7864 34.352 17.8367 34.352C17.9129 34.352 17.9827 34.3408 18.0459 34.3184C18.1205 34.2896 18.1871 34.244 18.2455 34.1816C18.3639 34.0696 18.4231 33.9344 18.4231 33.776C18.4231 33.6176 18.3639 33.4808 18.2455 33.3656ZM19.102 20.1272C19.102 19.9944 19.0541 19.8824 18.9584 19.7912C18.8643 19.6968 18.7508 19.6496 18.6178 19.6496C18.4815 19.6496 18.3671 19.6968 18.2747 19.7912C18.1822 19.8824 18.136 19.9944 18.136 20.1272C18.136 20.26 18.1822 20.3728 18.2747 20.4656C18.3671 20.5568 18.4815 20.6024 18.6178 20.6024C18.7508 20.6024 18.8643 20.5568 18.9584 20.4656C19.0541 20.3728 19.102 20.26 19.102 20.1272ZM26.1246 19.8248C26.0321 19.7304 25.9186 19.6832 25.7839 19.6832C25.6493 19.6832 25.5349 19.7304 25.4408 19.8248C25.3484 19.916 25.3021 20.0272 25.3021 20.1584C25.3021 20.2928 25.3484 20.4064 25.4408 20.4992C25.5349 20.5904 25.6493 20.636 25.7839 20.636C25.9186 20.636 26.0321 20.5904 26.1246 20.4992C26.2203 20.4064 26.2682 20.2928 26.2682 20.1584C26.2682 20.0272 26.2203 19.916 26.1246 19.8248ZM24.5332 30.2648C24.4472 30.1768 24.3401 30.1328 24.212 30.1328C24.0838 30.1328 23.976 30.1768 23.8884 30.2648C23.7991 30.3512 23.7545 30.4576 23.7545 30.584C23.7545 30.6368 23.7626 30.6848 23.7789 30.728C23.7837 30.744 23.791 30.7608 23.8008 30.7784C23.8089 30.8008 23.8227 30.8232 23.8421 30.8456C23.8519 30.8616 23.8673 30.88 23.8884 30.9008C23.976 30.9872 24.0838 31.0304 24.212 31.0304C24.3401 31.0304 24.4472 30.9872 24.5332 30.9008C24.551 30.88 24.5673 30.8616 24.5819 30.8456C24.6403 30.7704 24.6695 30.6832 24.6695 30.584C24.6695 30.4576 24.624 30.3512 24.5332 30.2648ZM36.532 1.23438C36.5238 1.24238 36.5157 1.24957 36.5076 1.25597V6.53837C43.6649 12.4168 52.0607 15.648 61.6951 16.232C61.9838 23.6448 61.4615 30.6136 60.128 37.1384C57.6963 49.2376 49.8228 58.8992 36.5076 66.1232H36.5003V70.5824L36.5076 70.5896C47.0618 65.396 55.0464 57.6744 60.4614 47.4248C64.5558 38.2312 66.2016 26.7248 65.3986 12.9056C53.6148 12.7184 43.9926 8.82797 36.532 1.23438Z" fill="#2F9DD6"/>
<path id="Vector_3" d="M41.245 51.0874C41.2385 51.1273 41.2353 51.1681 41.2353 51.2097C41.2353 51.3617 41.2904 51.4906 41.4007 51.5961C41.5094 51.7049 41.64 51.7593 41.7925 51.7593C41.9466 51.7593 42.0804 51.7049 42.194 51.5961C42.3011 51.4906 42.3546 51.3617 42.3546 51.2097C42.3546 51.1681 42.3497 51.1273 42.34 51.0874C42.3205 50.9882 42.2719 50.8978 42.194 50.8162C42.0804 50.709 41.9466 50.6553 41.7925 50.6553C41.64 50.6553 41.5094 50.709 41.4007 50.8162C41.3196 50.8978 41.2677 50.9882 41.245 51.0874ZM36.5754 35.9385H36.5V44.2785H38.8311L37.6485 40.3161C37.8562 40.2073 38.0508 40.0633 38.2325 39.8841C38.6932 39.4329 38.9236 38.889 38.9236 38.2521C38.9236 37.6122 38.6932 37.0649 38.2325 36.6105C37.7751 36.1625 37.2227 35.9385 36.5754 35.9385ZM36.5462 24.8505C36.5316 24.8505 36.5162 24.8505 36.5 24.8505V32.1249H41.3034V29.5377C41.3034 28.2417 40.8394 27.1369 39.9115 26.2233C38.9836 25.3081 37.8619 24.8505 36.5462 24.8505ZM43.8122 16.6065C43.6759 16.6065 43.5615 16.6521 43.4691 16.7433C43.375 16.8361 43.3279 16.9497 43.3279 17.0841C43.3279 17.2169 43.375 17.3297 43.4691 17.4225C43.5242 17.4769 43.5891 17.5177 43.6637 17.5449C43.7092 17.5545 43.7586 17.5593 43.8122 17.5593C43.9452 17.5593 44.0579 17.5137 44.1504 17.4225C44.2461 17.3297 44.294 17.2169 44.294 17.0841C44.294 16.9497 44.2461 16.8361 44.1504 16.7433C44.0579 16.6521 43.9452 16.6065 43.8122 16.6065ZM60.0449 17.8641C56.8767 17.6161 53.8635 17.0689 51.0051 16.2225C45.1781 14.6033 40.3536 12.0729 36.5316 8.63135V14.6313L43.6637 21.8337V17.9769C43.4756 17.9497 43.3125 17.8673 43.1746 17.7297C43.1714 17.7281 43.1673 17.7249 43.1625 17.7201C42.984 17.5457 42.8948 17.3337 42.8948 17.0841C42.8948 16.8329 42.984 16.6177 43.1625 16.4385C43.3377 16.2673 43.5542 16.1817 43.8122 16.1817C44.0652 16.1817 44.281 16.2673 44.4594 16.4385C44.6363 16.6177 44.7247 16.8329 44.7247 17.0841C44.7247 17.3337 44.6363 17.5457 44.4594 17.7201C44.4578 17.7249 44.4546 17.7281 44.4497 17.7297C44.3232 17.8513 44.1755 17.9305 44.0068 17.9673V22.6521L36.5316 15.1641V22.0617C36.5414 22.0617 36.5527 22.0617 36.5657 22.0617C38.6632 22.0617 40.4534 22.7921 41.9361 24.2529C43.4204 25.7185 44.1626 27.4857 44.1626 29.5545V32.3073C44.6071 32.4609 45.0094 32.7146 45.3695 33.0681C46.0135 33.7034 46.3355 34.4689 46.3355 35.3649V44.3913C46.3355 45.2857 46.0135 46.049 45.3695 46.681C44.7303 47.3161 43.9557 47.6337 43.0457 47.6337H36.5V53.1154C36.5227 53.1105 36.5479 53.1082 36.5754 53.1082H36.5803C36.7555 53.1082 36.9047 53.1681 37.028 53.2882C37.1513 53.4097 37.213 53.5578 37.213 53.7322C37.213 53.9049 37.1513 54.0521 37.028 54.1737C36.9047 54.2953 36.7555 54.3562 36.5803 54.3562H36.5754C36.5479 54.3562 36.5227 54.3553 36.5 54.3537V58.5729H36.5584L40.1476 54.8337V52.5537L41.0625 51.709C41.0187 51.6481 40.9846 51.5849 40.9603 51.5194C40.9214 51.4217 40.9019 51.3185 40.9019 51.2097C40.9019 50.9697 40.9903 50.7626 41.1671 50.5882C41.3375 50.4202 41.5451 50.3362 41.7901 50.3362C42.0334 50.3362 42.2435 50.4202 42.4203 50.5882C42.5598 50.7322 42.6409 50.8986 42.6636 51.0874C42.6717 51.1273 42.6758 51.1681 42.6758 51.2097C42.6758 51.4481 42.5906 51.653 42.4203 51.8242C42.2435 51.9969 42.0334 52.0834 41.7901 52.0834C41.6278 52.0834 41.4818 52.0465 41.3521 51.9729L40.4809 52.7577V55.0017L36.5316 59.0673L36.5 59.0409V64.3161L36.5073 64.3209C42.7123 61.3833 48.0591 56.7425 52.5478 50.3985C57.8055 43.5905 60.3045 32.7457 60.0449 17.8641ZM46.6324 19.5201C46.8092 19.3457 47.0242 19.2585 47.2772 19.2585C47.5319 19.2585 47.7493 19.3457 47.9294 19.5201C48.1062 19.6961 48.1946 19.9089 48.1946 20.1585C48.1946 20.4097 48.1062 20.6225 47.9294 20.7969C47.7493 20.9745 47.5319 21.0633 47.2772 21.0633C47.0242 21.0633 46.8092 20.9745 46.6324 20.7969C46.454 20.6225 46.3647 20.4097 46.3647 20.1585C46.3647 19.9089 46.454 19.6961 46.6324 19.5201ZM46.3453 20.9865L46.7005 21.2169V23.9025L49.5062 26.7849C49.6019 26.8777 49.7049 26.8777 49.8152 26.7849L52.8569 23.7873C52.9023 23.7169 52.8982 23.6385 52.8447 23.5521L50.9029 21.5433C50.8315 21.5657 50.7545 21.5769 50.6717 21.5769C50.5695 21.5769 50.4738 21.5609 50.3846 21.5289C50.297 21.4873 50.2159 21.4305 50.1413 21.3585C49.9904 21.2145 49.915 21.0385 49.915 20.8305C49.915 20.7137 49.9377 20.6065 49.9831 20.5089C50.0253 20.4321 50.078 20.3625 50.1413 20.3001C50.2873 20.1545 50.4641 20.0817 50.6717 20.0817C50.8826 20.0817 51.0627 20.1545 51.2119 20.3001C51.2752 20.3625 51.3255 20.4321 51.3628 20.5089C51.3709 20.5265 51.3782 20.5449 51.3847 20.5641C51.4155 20.6473 51.4309 20.7361 51.4309 20.8305C51.4309 21.0385 51.3579 21.2145 51.2119 21.3585C51.2022 21.3681 51.1892 21.3801 51.173 21.3945L53.1537 23.4441C53.2527 23.6457 53.2389 23.8169 53.1124 23.9577L49.9904 27.1137C49.7779 27.2865 49.5678 27.2865 49.3602 27.1137L46.3453 24.0465V20.9865ZM57.4948 22.5969L57.6992 22.8393L49.696 30.7617C49.6879 30.7889 49.6797 30.8169 49.6716 30.8457C49.6327 30.9737 49.5629 31.0873 49.4624 31.1865C49.3456 31.3001 49.2142 31.3761 49.0682 31.4145V44.3722L51.7278 41.7009L51.594 41.5665V31.9929L57.9912 25.5465L58.2175 25.8009L51.9736 32.0937V41.3985L53.9835 43.4265L53.7304 43.6977L51.9711 41.9433L49.039 44.8713C48.807 44.9817 48.6926 44.8793 48.6959 44.5641V31.4242C48.5223 31.3953 48.369 31.3161 48.236 31.1865C48.1354 31.0873 48.0648 30.9737 48.0243 30.8457C47.9999 30.7625 47.9878 30.6754 47.9878 30.5842C47.9878 30.3489 48.0705 30.1481 48.236 29.9817C48.4047 29.8153 48.6099 29.7321 48.8516 29.7321C49.0901 29.7321 49.2937 29.8153 49.4624 29.9817C49.5678 30.0825 49.6376 30.2001 49.6716 30.3345L57.4948 22.5969ZM54.4434 19.2249C54.6981 19.2249 54.9163 19.3121 55.098 19.4865C55.2732 19.6625 55.3608 19.8761 55.3608 20.1273C55.3608 20.3801 55.2732 20.5921 55.098 20.7633C54.9163 20.9409 54.6981 21.0297 54.4434 21.0297C54.1903 21.0297 53.9754 20.9409 53.7986 20.7633C53.6201 20.5921 53.5309 20.3801 53.5309 20.1273C53.5309 19.8761 53.6201 19.6625 53.7986 19.4865C53.9754 19.3121 54.1903 19.2249 54.4434 19.2249ZM55.0177 34.6689C54.849 34.6321 54.6997 34.5489 54.5699 34.4193C54.3882 34.2433 54.2974 34.0289 54.2974 33.7761C54.2974 33.525 54.3882 33.3113 54.5699 33.1353C54.7484 32.9577 54.9641 32.8689 55.2172 32.8689C55.4735 32.8689 55.6909 32.9577 55.8693 33.1353C56.0478 33.3113 56.137 33.525 56.137 33.7761C56.137 34.0289 56.0478 34.2433 55.8693 34.4193C55.7233 34.5633 55.5538 34.6505 55.3608 34.6809V39.0033C55.5538 39.0273 55.7233 39.1113 55.8693 39.2553C56.0478 39.4345 56.137 39.6497 56.137 39.9009C56.137 40.1505 56.0478 40.365 55.8693 40.5441C55.6909 40.7201 55.4735 40.8082 55.2172 40.8082C54.9641 40.8082 54.7484 40.7201 54.5699 40.5441C54.5472 40.5217 54.5253 40.4993 54.5042 40.4769C54.4896 40.4625 54.4775 40.445 54.4677 40.4242C54.3542 40.2738 54.2974 40.0993 54.2974 39.9009C54.2974 39.6497 54.3882 39.4345 54.5699 39.2553C54.6997 39.1273 54.849 39.0473 55.0177 39.0153V34.6689ZM49.786 48.0802C49.9628 48.2546 50.0512 48.4657 50.0512 48.7137C50.0512 48.9585 49.9628 49.1681 49.786 49.3425C49.6092 49.5153 49.3967 49.6017 49.1485 49.6017C48.897 49.6017 48.6829 49.5153 48.5061 49.3425C48.4785 49.3169 48.455 49.2929 48.4355 49.2705L42.8121 54.7329V58.5273C42.7034 58.6569 42.5939 58.6569 42.4836 58.5273V54.6297L48.2895 48.9969C48.2587 48.9073 48.2433 48.8129 48.2433 48.7137C48.2433 48.4657 48.3309 48.2546 48.5061 48.0802C48.6829 47.9073 48.897 47.8209 49.1485 47.8209C49.3967 47.8209 49.6092 47.9073 49.786 48.0802ZM49.7252 48.7137C49.7252 48.5553 49.6684 48.4202 49.5548 48.3082C49.4445 48.1961 49.3091 48.1401 49.1485 48.1401C48.9879 48.1401 48.8508 48.1961 48.7372 48.3082C48.6237 48.4202 48.5669 48.5553 48.5669 48.7137C48.5669 48.8721 48.6237 49.0057 48.7372 49.1145C48.8508 49.2266 48.9879 49.2826 49.1485 49.2826C49.3091 49.2826 49.4445 49.2266 49.5548 49.1145C49.6684 49.0057 49.7252 48.8721 49.7252 48.7137ZM55.3608 39.3417C55.3186 39.3289 55.2732 39.3225 55.2245 39.3225C55.0639 39.3225 54.9268 39.3785 54.8133 39.4905C54.6981 39.6041 54.6405 39.7409 54.6405 39.9009C54.6405 40.0593 54.6981 40.1945 54.8133 40.3065C54.9268 40.4201 55.0639 40.4769 55.2245 40.4769C55.3867 40.4769 55.5254 40.4201 55.6406 40.3065C55.7542 40.1945 55.8109 40.0593 55.8109 39.9009C55.8109 39.7409 55.7542 39.6041 55.6406 39.4905C55.5579 39.4137 55.4646 39.3641 55.3608 39.3417ZM54.8133 34.1817C54.8749 34.2441 54.943 34.2897 55.0177 34.3185C55.0809 34.3409 55.1499 34.3521 55.2245 34.3521C55.2732 34.3521 55.3186 34.3489 55.3608 34.3425C55.4646 34.3169 55.5579 34.2633 55.6406 34.1817C55.7542 34.0697 55.8109 33.9345 55.8109 33.7761C55.8109 33.6178 55.7542 33.4809 55.6406 33.3657C55.5254 33.2569 55.3867 33.2025 55.2245 33.2025C55.0639 33.2025 54.9268 33.2569 54.8133 33.3657C54.6981 33.4809 54.6405 33.6178 54.6405 33.7761C54.6405 33.9345 54.6981 34.0697 54.8133 34.1817ZM54.7865 19.7913C54.694 19.6969 54.5797 19.6497 54.4434 19.6497C54.3088 19.6497 54.1944 19.6969 54.1003 19.7913C54.0078 19.8825 53.9616 19.9945 53.9616 20.1273C53.9616 20.2601 54.0078 20.3729 54.1003 20.4657C54.1944 20.5569 54.3088 20.6025 54.4434 20.6025C54.5797 20.6025 54.694 20.5569 54.7865 20.4657C54.8806 20.3729 54.9276 20.2601 54.9276 20.1273C54.9276 19.9945 54.8806 19.8825 54.7865 19.7913ZM49.2799 30.7281C49.2961 30.6849 49.3042 30.6369 49.3042 30.5842C49.3042 30.4578 49.2612 30.3513 49.1752 30.2649C49.0844 30.1769 48.9765 30.1329 48.8516 30.1329C48.7234 30.1329 48.6164 30.1769 48.5304 30.2649C48.4396 30.3513 48.3941 30.4578 48.3941 30.5842C48.3941 30.6833 48.4217 30.7705 48.4769 30.8457C48.4915 30.8617 48.5093 30.8801 48.5304 30.9009C48.6164 30.9873 48.7234 31.0305 48.8516 31.0305C48.9765 31.0305 49.0844 30.9873 49.1752 30.9009C49.1931 30.8801 49.2077 30.8617 49.219 30.8457C49.2369 30.8233 49.2499 30.8009 49.258 30.7785C49.2709 30.7609 49.2782 30.7442 49.2799 30.7281ZM47.2772 19.6833C47.1442 19.6833 47.0298 19.7305 46.9341 19.8249C46.8417 19.9161 46.7954 20.0273 46.7954 20.1585C46.7954 20.2929 46.8417 20.4065 46.9341 20.4993C47.0298 20.5905 47.1442 20.6361 47.2772 20.6361C47.4135 20.6361 47.5279 20.5905 47.6203 20.4993C47.7144 20.4065 47.7615 20.2929 47.7615 20.1585C47.7615 20.0273 47.7144 19.9161 47.6203 19.8249C47.5279 19.7305 47.4135 19.6833 47.2772 19.6833Z" fill="#2887B8"/>
<path id="Vector_4" d="M36.5316 22.0618C36.5211 22.0618 36.5105 22.0618 36.5 22.0618V24.8506C36.5162 24.8506 36.5316 24.8506 36.5462 24.8506C37.8619 24.8506 38.9836 25.3082 39.9115 26.2234C40.8394 27.137 41.3034 28.2418 41.3034 29.5378V32.125H36.5V35.9386H36.5754C37.2227 35.9386 37.7751 36.1626 38.2325 36.6106C38.6932 37.065 38.9236 37.6122 38.9236 38.2522C38.9236 38.889 38.6932 39.433 38.2325 39.8842C38.0508 40.0634 37.8562 40.2074 37.6485 40.3162L38.8311 44.2786H36.5V47.6338H43.0457C43.9557 47.6338 44.7303 47.3162 45.3695 46.681C46.0135 46.049 46.3355 45.2858 46.3355 44.3914V35.365C46.3355 34.469 46.0135 33.7034 45.3695 33.0682C45.0094 32.7146 44.6071 32.461 44.1626 32.3074V29.5546C44.1626 27.4858 43.4204 25.7186 41.9361 24.253C40.4534 22.7922 38.6632 22.0618 36.5657 22.0618C36.5527 22.0618 36.5414 22.0618 36.5316 22.0618ZM51.0051 16.2226C53.8635 17.069 56.8767 17.6162 60.0449 17.8642C60.3045 32.7458 57.8055 43.5906 52.5478 50.3986C48.0591 56.7426 42.7123 61.3834 36.5073 64.321H36.5V66.121C36.5049 66.121 36.5073 66.1218 36.5073 66.1234C49.8225 58.8994 57.696 49.2378 60.1277 37.1386C61.4611 30.6138 61.9835 23.645 61.6947 16.2322C52.0604 15.6482 43.6645 12.417 36.5073 6.53857V8.60737C36.5154 8.61537 36.5235 8.62337 36.5316 8.63137C40.3536 12.073 45.1781 14.6034 51.0051 16.2226Z" fill="#D8D8D8"/>
<path id="Vector_5" d="M36.5074 6.53826V1.25586C29.0225 8.83506 19.3913 12.7183 7.614 12.9055C6.81424 26.7247 8.46161 38.2311 12.5561 47.4247C17.9711 57.6743 25.9524 65.3934 36.5001 70.5823V66.1231V66.1207C23.1914 58.8983 15.3196 49.2375 12.8846 37.1383C11.5544 30.6135 11.0328 23.6447 11.32 16.2319C20.956 15.6511 29.3518 12.4199 36.5074 6.53826Z" fill="#38B9FC"/>
<path id="Vector_6" d="M36.5075 8.60737V6.53857C29.3519 12.4202 20.9561 15.6514 11.3201 16.2322C11.033 23.645 11.5545 30.6138 12.8847 37.1386C15.3197 49.2378 23.1915 58.8986 36.5002 66.121V64.321V64.3162C30.3001 61.3802 24.9565 56.741 20.4694 50.3986C15.2118 43.5906 12.7128 32.7458 12.9723 17.8642C16.1405 17.6162 19.1538 17.069 22.0122 16.2226C27.8441 14.6034 32.6759 12.065 36.5075 8.60737Z" fill="#FBFFFD"/>
<path id="Vector_7" d="M18.4933 33.135C18.3116 32.9574 18.0942 32.8686 17.8411 32.8686C17.5864 32.8686 17.3699 32.9574 17.1914 33.135C17.0114 33.311 16.9213 33.5246 16.9213 33.7758C16.9213 34.0286 17.0114 34.243 17.1914 34.419C17.3374 34.563 17.507 34.6502 17.7 34.6806V39.003C17.507 39.027 17.3374 39.111 17.1914 39.255C17.0114 39.4342 16.9213 39.6494 16.9213 39.9006C16.9213 40.1502 17.0114 40.3646 17.1914 40.5438C17.3699 40.7198 17.5864 40.8078 17.8411 40.8078C18.0942 40.8078 18.3116 40.7198 18.4933 40.5438C18.516 40.5214 18.5363 40.499 18.5541 40.4766C18.5687 40.4622 18.5825 40.4446 18.5955 40.4238C18.7058 40.2734 18.7609 40.099 18.7609 39.9006C18.7609 39.6494 18.6717 39.4342 18.4933 39.255C18.3619 39.127 18.2126 39.047 18.0455 39.015V34.6686C18.2126 34.6318 18.3619 34.5486 18.4933 34.419C18.6717 34.243 18.7609 34.0286 18.7609 33.7758C18.7609 33.5246 18.6717 33.311 18.4933 33.135ZM17.8363 33.2022C17.9985 33.2022 18.1348 33.2566 18.2451 33.3654C18.3635 33.4806 18.4227 33.6174 18.4227 33.7758C18.4227 33.9342 18.3635 34.0694 18.2451 34.1814C18.1867 34.2438 18.1202 34.2894 18.0455 34.3182C17.9823 34.3406 17.9125 34.3518 17.8363 34.3518C17.786 34.3518 17.7406 34.3486 17.7 34.3422C17.5946 34.3166 17.5021 34.263 17.4226 34.1814C17.309 34.0694 17.2523 33.9342 17.2523 33.7758C17.2523 33.6174 17.309 33.4806 17.4226 33.3654C17.5378 33.2566 17.6757 33.2022 17.8363 33.2022ZM18.2451 39.4902C18.3635 39.6038 18.4227 39.7406 18.4227 39.9006C18.4227 40.059 18.3635 40.1942 18.2451 40.3062C18.1348 40.4198 17.9985 40.4766 17.8363 40.4766C17.6757 40.4766 17.5378 40.4198 17.4226 40.3062C17.309 40.1942 17.2523 40.059 17.2523 39.9006C17.2523 39.7406 17.309 39.6038 17.4226 39.4902C17.5021 39.4134 17.5946 39.3638 17.7 39.3414C17.7406 39.3286 17.786 39.3222 17.8363 39.3222C17.9985 39.3222 18.1348 39.3782 18.2451 39.4902ZM19.5299 20.127C19.5299 19.8758 19.4406 19.6622 19.2622 19.4862C19.087 19.3118 18.8721 19.2246 18.6174 19.2246C18.3611 19.2246 18.1437 19.3118 17.9652 19.4862C17.7884 19.6622 17.7 19.8758 17.7 20.127C17.7 20.3798 17.7884 20.5918 17.9652 20.763C18.1437 20.9406 18.3611 21.0294 18.6174 21.0294C18.8721 21.0294 19.087 20.9406 19.2622 20.763C19.4406 20.5918 19.5299 20.3798 19.5299 20.127ZM18.958 19.791C19.0537 19.8822 19.1016 19.9942 19.1016 20.127C19.1016 20.2598 19.0537 20.3726 18.958 20.4654C18.8639 20.5566 18.7504 20.6022 18.6174 20.6022C18.4811 20.6022 18.3667 20.5566 18.2743 20.4654C18.1818 20.3726 18.1356 20.2598 18.1356 20.127C18.1356 19.9942 18.1818 19.8822 18.2743 19.791C18.3667 19.6966 18.4811 19.6494 18.6174 19.6494C18.7504 19.6494 18.8639 19.6966 18.958 19.791ZM26.7155 20.9862L26.3627 21.2166V23.9022L23.5546 26.7846C23.4573 26.8774 23.3543 26.8774 23.2456 26.7846L20.2063 23.787C20.1609 23.7166 20.1642 23.6382 20.2161 23.5518L22.1554 21.543C22.2284 21.5654 22.3055 21.5766 22.3866 21.5766C22.492 21.5766 22.5878 21.5606 22.6737 21.5286C22.763 21.487 22.8457 21.4302 22.9219 21.3582C23.0696 21.2142 23.1434 21.0382 23.1434 20.8302C23.1434 20.7134 23.1207 20.6062 23.0752 20.5086C23.0363 20.4318 22.9852 20.3622 22.9219 20.2998C22.7759 20.1542 22.5975 20.0814 22.3866 20.0814C22.1773 20.0814 21.9989 20.1542 21.8513 20.2998C21.7848 20.3622 21.7328 20.4318 21.6955 20.5086C21.6874 20.5262 21.6801 20.5446 21.6736 20.5638C21.6461 20.647 21.6323 20.7358 21.6323 20.8302C21.6323 21.0382 21.7053 21.2142 21.8513 21.3582C21.861 21.3678 21.8732 21.3798 21.8878 21.3942L19.907 23.4438C19.8097 23.6454 19.8227 23.8166 19.946 23.9574L23.0728 27.1134C23.2821 27.2862 23.4921 27.2862 23.703 27.1134L26.7155 24.0462V20.9862ZM26.4308 19.5198C26.254 19.3454 26.0382 19.2582 25.7835 19.2582C25.5272 19.2582 25.3098 19.3454 25.1314 19.5198C24.9562 19.6958 24.8686 19.9086 24.8686 20.1582C24.8686 20.4094 24.9562 20.6222 25.1314 20.7966C25.3098 20.9742 25.5272 21.063 25.7835 21.063C26.0382 21.063 26.254 20.9742 26.4308 20.7966C26.6092 20.6222 26.6985 20.4094 26.6985 20.1582C26.6985 19.9086 26.6092 19.6958 26.4308 19.5198ZM25.7835 19.683C25.9182 19.683 26.0317 19.7302 26.1242 19.8246C26.2199 19.9158 26.2678 20.027 26.2678 20.1582C26.2678 20.2926 26.2199 20.4062 26.1242 20.499C26.0317 20.5902 25.9182 20.6358 25.7835 20.6358C25.6489 20.6358 25.5345 20.5902 25.4404 20.499C25.348 20.4062 25.3017 20.2926 25.3017 20.1582C25.3017 20.027 25.348 19.9158 25.4404 19.8246C25.5345 19.7302 25.6489 19.683 25.7835 19.683ZM15.5635 22.5966L15.3616 22.839L23.3624 30.7614C23.3705 30.7886 23.3786 30.8166 23.3867 30.8454C23.4289 30.9734 23.5003 31.087 23.6008 31.1862C23.716 31.2998 23.8466 31.3758 23.9926 31.4142V44.3718L21.333 41.7006L21.4668 41.5662V31.9926L15.0696 25.5462L14.8457 25.8006L21.0848 32.0934V41.3982L19.0773 43.4262L19.3303 43.6974L21.0921 41.943L24.0194 44.871C24.253 44.9814 24.3673 44.879 24.3625 44.5638V31.4238C24.5393 31.395 24.6926 31.3158 24.8224 31.1862C24.9229 31.087 24.9951 30.9734 25.0389 30.8454C25.0633 30.7622 25.0754 30.675 25.0754 30.5838C25.0754 30.3486 24.9911 30.1478 24.8224 29.9814C24.6537 29.815 24.4501 29.7318 24.2116 29.7318C23.9731 29.7318 23.7695 29.815 23.6008 29.9814C23.4954 30.0822 23.424 30.1998 23.3867 30.3342L15.5635 22.5966ZM24.2116 30.1326C24.3398 30.1326 24.4468 30.1766 24.5328 30.2646C24.6236 30.351 24.6691 30.4574 24.6691 30.5838C24.6691 30.683 24.6399 30.7702 24.5815 30.8454C24.5669 30.8614 24.5506 30.8798 24.5328 30.9006C24.4468 30.987 24.3398 31.0302 24.2116 31.0302C24.0834 31.0302 23.9756 30.987 23.888 30.9006C23.8669 30.8798 23.8515 30.8614 23.8417 30.8454C23.8223 30.823 23.8085 30.8006 23.8004 30.7782C23.7906 30.7606 23.7833 30.7438 23.7785 30.7278C23.7622 30.6846 23.7541 30.6366 23.7541 30.5838C23.7541 30.4574 23.7987 30.351 23.888 30.2646C23.9756 30.1766 24.0834 30.1326 24.2116 30.1326Z" fill="#FDFFFF"/>
</g>
</g>
</g>
</svg>
