<svg width="289" height="285" viewBox="0 0 289 285" fill="none" xmlns="http://www.w3.org/2000/svg">
<path d="M205.652 212.697C205.004 212.068 204.22 211.753 203.299 211.753H203.274C203.129 211.753 202.997 211.766 202.877 211.791C202.144 211.849 201.496 212.151 200.934 212.697C200.295 213.334 199.975 214.11 199.975 215.025C199.975 215.931 200.295 216.703 200.934 217.34C201.496 217.894 202.144 218.209 202.877 218.284C202.997 218.293 203.129 218.297 203.274 218.297H203.299C204.22 218.297 205.004 217.978 205.652 217.34C206.3 216.703 206.624 215.931 206.624 215.025C206.624 214.11 206.3 213.334 205.652 212.697ZM202.877 213.641C202.997 213.599 203.129 213.578 203.274 213.578C203.683 213.578 204.028 213.716 204.31 213.993C204.599 214.278 204.744 214.622 204.744 215.025C204.744 215.428 204.599 215.767 204.31 216.044C204.028 216.338 203.683 216.485 203.274 216.485C203.129 216.485 202.997 216.472 202.877 216.447C202.63 216.371 202.409 216.237 202.213 216.044C201.931 215.767 201.791 215.428 201.791 215.025C201.791 214.622 201.931 214.278 202.213 213.993C202.409 213.808 202.63 213.691 202.877 213.641ZM175.411 197.218C174.133 197.218 173.029 197.658 172.1 198.539C171.358 199.294 170.927 200.167 170.808 201.157C170.774 201.367 170.757 201.581 170.757 201.799C170.757 203.049 171.204 204.123 172.1 205.02C173.029 205.926 174.133 206.379 175.411 206.379C176.255 206.379 177.022 206.186 177.713 205.801L182.265 209.916V221.682L202.877 242.862L203.044 243L223.797 221.682V209.916L228.374 205.801C229.056 206.186 229.824 206.379 230.676 206.379C231.955 206.379 233.059 205.926 233.988 205.02C234.883 204.123 235.33 203.049 235.33 201.799C235.33 201.581 235.309 201.367 235.267 201.157C235.147 200.167 234.721 199.294 233.988 198.539C233.059 197.658 231.955 197.218 230.676 197.218C229.389 197.218 228.298 197.658 227.403 198.539C226.473 199.454 226.009 200.54 226.009 201.799C226.009 202.369 226.111 202.91 226.316 203.422C226.444 203.766 226.623 204.097 226.853 204.416L222.045 208.846V220.801L203.184 240.408H202.877L184.017 220.801V208.846L179.235 204.416C179.448 204.097 179.627 203.766 179.772 203.422C179.968 202.91 180.066 202.369 180.066 201.799C180.066 200.54 179.605 199.454 178.685 198.539C177.773 197.658 176.681 197.218 175.411 197.218ZM172.419 201.799C172.419 201.581 172.453 201.367 172.521 201.157C172.607 200.637 172.862 200.163 173.289 199.735C173.868 199.173 174.563 198.892 175.373 198.892C176.174 198.892 176.86 199.173 177.432 199.735C177.866 200.163 178.143 200.637 178.263 201.157C178.305 201.367 178.327 201.581 178.327 201.799C178.327 202.596 178.028 203.271 177.432 203.825C176.86 204.395 176.174 204.681 175.373 204.681C174.563 204.681 173.868 204.395 173.289 203.825C172.709 203.271 172.419 202.596 172.419 201.799ZM227.761 201.799C227.761 201.581 227.778 201.367 227.812 201.157C227.931 200.637 228.204 200.163 228.63 199.735C229.201 199.173 229.888 198.892 230.689 198.892C231.499 198.892 232.202 199.173 232.799 199.735C233.208 200.163 233.464 200.637 233.566 201.157C233.617 201.367 233.643 201.581 233.643 201.799C233.643 202.596 233.361 203.271 232.799 203.825C232.202 204.395 231.499 204.681 230.689 204.681C229.888 204.681 229.201 204.395 228.63 203.825C228.05 203.271 227.761 202.596 227.761 201.799ZM202.877 63.5843V48.9613C191.995 49.0335 182.686 52.8633 174.951 60.4508C167.168 68.1357 163.277 77.402 163.277 88.2497V102.797C161.086 103.628 159.087 104.92 157.28 106.673C153.904 110.004 152.216 114.018 152.216 118.717V166.046C152.216 170.736 153.904 174.738 157.28 178.052C160.655 181.383 164.73 183.048 169.504 183.048H202.877V165.455H192.175L198.325 144.993C196.953 144.397 195.691 143.537 194.54 142.413C192.145 140.047 190.947 137.195 190.947 133.856C190.947 130.5 192.145 127.63 194.54 125.248C196.868 122.983 199.647 121.808 202.877 121.724V101.728H178.148V88.1616C178.148 81.3661 180.586 75.5731 185.462 70.7826C190.287 66.0341 196.092 63.6347 202.877 63.5843ZM236.481 22.8612C236.481 24.17 236.95 25.2816 237.888 26.1961C237.913 26.2213 237.935 26.2381 237.952 26.2465C238.676 26.968 239.533 27.4 240.522 27.5426V47.7658L203.044 10L165.553 47.7658V27.5426C166.533 27.4 167.385 26.968 168.11 26.2465C168.144 26.2381 168.165 26.2213 168.174 26.1961C169.129 25.2816 169.606 24.17 169.606 22.8612C169.606 21.5441 169.129 20.4157 168.174 19.4761C167.253 18.5784 166.124 18.1295 164.785 18.1295C163.447 18.1295 162.305 18.5784 161.359 19.4761C160.446 20.4157 159.99 21.5441 159.99 22.8612C159.99 24.17 160.446 25.2816 161.359 26.1961C161.384 26.2213 161.405 26.2381 161.423 26.2465C162.096 26.8841 162.872 27.2993 163.75 27.4923V52.057L203.044 12.7937L242.325 52.057V27.4923C243.211 27.2993 243.987 26.8841 244.652 26.2465C244.678 26.2381 244.695 26.2213 244.703 26.1961C245.632 25.2816 246.097 24.17 246.097 22.8612C246.097 21.5441 245.632 20.4157 244.703 19.4761C243.766 18.5784 242.632 18.1295 241.302 18.1295C239.947 18.1295 238.808 18.5784 237.888 19.4761C236.95 20.4157 236.481 21.5441 236.481 22.8612ZM239.499 21.0743C239.985 20.5961 240.586 20.357 241.302 20.357C242.001 20.357 242.593 20.5961 243.079 21.0743C243.582 21.5609 243.834 22.1565 243.834 22.8612C243.834 23.5576 243.582 24.1491 243.079 24.6357C242.593 25.1139 242.001 25.353 241.302 25.353C241.021 25.353 240.761 25.3278 240.522 25.2775C240.13 25.1348 239.789 24.9209 239.499 24.6357C239.005 24.1491 238.757 23.5576 238.757 22.8612C238.757 22.1565 239.005 21.5609 239.499 21.0743ZM162.983 21.0743C163.485 20.5961 164.086 20.357 164.785 20.357C165.502 20.357 166.102 20.5961 166.588 21.0743C167.074 21.5609 167.317 22.1565 167.317 22.8612C167.317 23.5576 167.074 24.1491 166.588 24.6357C166.299 24.9209 165.953 25.1348 165.553 25.2775C165.323 25.3278 165.067 25.353 164.785 25.353C164.086 25.353 163.485 25.1139 162.983 24.6357C162.497 24.1491 162.254 23.5576 162.254 22.8612C162.254 22.1565 162.497 21.5609 162.983 21.0743ZM133.394 185.389C132.465 186.303 132 187.411 132 188.711C132 189.995 132.465 191.094 133.394 192.008C134.306 192.914 135.423 193.367 136.744 193.367C138.065 193.367 139.186 192.914 140.107 192.008C140.243 191.874 140.371 191.748 140.49 191.631L170.041 220.273V240.169C170.603 240.848 171.17 240.848 171.741 240.169V219.731L141.258 190.196C141.42 189.726 141.501 189.231 141.501 188.711C141.501 187.411 141.036 186.303 140.107 185.389C139.186 184.483 138.065 184.03 136.744 184.03C135.423 184.03 134.306 184.483 133.394 185.389ZM133.701 188.711C133.701 187.88 133.999 187.171 134.596 186.584C135.175 185.997 135.891 185.703 136.744 185.703C137.588 185.703 138.308 185.997 138.905 186.584C139.485 187.171 139.774 187.88 139.774 188.711C139.774 189.541 139.485 190.242 138.905 190.813C138.308 191.4 137.588 191.693 136.744 191.693C135.891 191.693 135.175 191.4 134.596 190.813C133.999 190.242 133.701 189.541 133.701 188.711ZM274.087 188.711C274.087 187.411 273.623 186.303 272.694 185.389C271.764 184.483 270.648 184.03 269.343 184.03C268.022 184.03 266.897 184.483 265.968 185.389C265.047 186.303 264.587 187.411 264.587 188.711C264.587 189.231 264.668 189.726 264.83 190.196L234.32 219.731V240.169C234.9 240.848 235.475 240.848 236.047 240.169V220.273L265.597 191.631C265.699 191.748 265.823 191.874 265.968 192.008C266.897 192.914 268.022 193.367 269.343 193.367C270.648 193.367 271.764 192.914 272.694 192.008C273.623 191.094 274.087 189.995 274.087 188.711ZM271.479 186.584C272.076 187.171 272.374 187.88 272.374 188.711C272.374 189.541 272.076 190.242 271.479 190.813C270.899 191.4 270.187 191.693 269.343 191.693C268.5 191.693 267.779 191.4 267.182 190.813C266.586 190.242 266.287 189.541 266.287 188.711C266.287 187.88 266.586 187.171 267.182 186.584C267.779 185.997 268.5 185.703 269.343 185.703C270.187 185.703 270.899 185.997 271.479 186.584ZM297.833 113.758C298.515 114.438 299.299 114.874 300.185 115.067V137.857C299.299 138.025 298.515 138.445 297.833 139.116C296.878 140.055 296.4 141.184 296.4 142.501C296.4 143.541 296.699 144.456 297.295 145.244C297.347 145.354 297.411 145.446 297.487 145.521C297.598 145.639 297.713 145.756 297.833 145.874C298.77 146.797 299.904 147.258 301.234 147.258C302.581 147.258 303.723 146.797 304.661 145.874C305.598 144.934 306.067 143.81 306.067 142.501C306.067 141.184 305.598 140.055 304.661 139.116C303.893 138.361 303.003 137.92 301.988 137.794V115.13C303.003 114.971 303.893 114.513 304.661 113.758C305.598 112.835 306.067 111.711 306.067 110.386C306.067 109.069 305.598 107.949 304.661 107.026C303.723 106.094 302.581 105.629 301.234 105.629C299.904 105.629 298.77 106.094 297.833 107.026C296.878 107.949 296.4 109.069 296.4 110.386C296.4 111.711 296.878 112.835 297.833 113.758ZM300.185 113.23C299.793 113.079 299.435 112.84 299.111 112.512C298.506 111.925 298.203 111.216 298.203 110.386C298.203 109.555 298.506 108.838 299.111 108.234C299.708 107.663 300.428 107.378 301.272 107.378C302.125 107.378 302.854 107.663 303.459 108.234C304.055 108.838 304.354 109.555 304.354 110.386C304.354 111.216 304.055 111.925 303.459 112.512C303.024 112.94 302.534 113.221 301.988 113.356C301.767 113.389 301.528 113.406 301.272 113.406C300.88 113.406 300.518 113.347 300.185 113.23ZM301.272 139.468C301.528 139.468 301.767 139.502 301.988 139.569C302.534 139.686 303.024 139.946 303.459 140.349C304.055 140.945 304.354 141.662 304.354 142.501C304.354 143.332 304.055 144.041 303.459 144.628C302.854 145.223 302.125 145.521 301.272 145.521C300.428 145.521 299.708 145.223 299.111 144.628C298.506 144.041 298.203 143.332 298.203 142.501C298.203 141.662 298.506 140.945 299.111 140.349C299.708 139.762 300.428 139.468 301.272 139.468ZM300.607 35.4582C299.653 34.5438 298.506 34.0865 297.168 34.0865C295.838 34.0865 294.708 34.5438 293.779 35.4582C292.841 36.3811 292.373 37.5011 292.373 38.8183C292.373 40.1438 292.841 41.2554 293.779 42.1531C294.708 43.0844 295.838 43.55 297.168 43.55C298.506 43.55 299.653 43.0844 300.607 42.1531C301.528 41.2554 301.988 40.1438 301.988 38.8183C301.988 37.5011 301.528 36.3811 300.607 35.4582ZM297.168 36.314C297.884 36.314 298.485 36.5615 298.971 37.0564C299.465 37.5346 299.712 38.1219 299.712 38.8183C299.712 39.5146 299.465 40.1061 298.971 40.5927C298.485 41.0709 297.884 41.31 297.168 41.31C296.46 41.31 295.859 41.0709 295.365 40.5927C294.879 40.1061 294.636 39.5146 294.636 38.8183C294.636 38.1219 294.879 37.5346 295.365 37.0564C295.859 36.5615 296.46 36.314 297.168 36.314ZM314.276 53.0386L313.202 51.7676L272.093 92.3397C271.914 91.6349 271.547 91.0183 270.993 90.4898C270.106 89.6172 269.037 89.181 267.783 89.181C266.513 89.181 265.435 89.6172 264.548 90.4898C263.679 91.3623 263.244 92.4152 263.244 93.6484C263.244 94.1267 263.308 94.5839 263.436 95.0201C263.649 95.6913 264.02 96.287 264.548 96.8071C265.247 97.4867 266.053 97.902 266.965 98.053V166.953C266.948 168.605 267.549 169.142 268.768 168.563L284.176 153.21L293.421 162.41L294.751 160.988L284.189 150.354V101.564L317 68.5678L315.811 67.2338L282.194 101.035V151.235L282.898 151.939L268.921 165.946V98.0026C269.689 97.8013 270.379 97.4028 270.993 96.8071C271.521 96.287 271.888 95.6913 272.093 95.0201C272.135 94.8691 272.178 94.7223 272.22 94.5797L314.276 53.0386ZM270.162 93.6484C270.162 93.9253 270.119 94.177 270.034 94.4035C270.025 94.4874 269.987 94.5755 269.919 94.6678C269.876 94.7852 269.808 94.9027 269.714 95.0201C269.655 95.104 269.578 95.2005 269.484 95.3096C269.007 95.7626 268.44 95.9891 267.783 95.9891C267.11 95.9891 266.547 95.7626 266.096 95.3096C265.985 95.2005 265.891 95.104 265.814 95.0201C265.524 94.6258 265.38 94.1686 265.38 93.6484C265.38 92.9857 265.618 92.4278 266.096 91.9747C266.547 91.5133 267.11 91.2826 267.783 91.2826C268.44 91.2826 269.007 91.5133 269.484 91.9747C269.936 92.4278 270.162 92.9857 270.162 93.6484ZM256.48 44.5316L254.613 43.3235V59.3686L270.456 75.4514C271.547 76.3575 272.651 76.3575 273.768 75.4514L290.173 58.9029C290.838 58.1647 290.911 57.267 290.391 56.2099L279.982 45.4628C280.067 45.3873 280.136 45.3244 280.187 45.2741C280.954 44.519 281.338 43.5961 281.338 42.5055C281.338 42.0105 281.257 41.5449 281.095 41.1086C281.06 41.0079 281.022 40.9115 280.979 40.8192C280.783 40.4165 280.519 40.0515 280.187 39.7243C279.402 38.9609 278.456 38.5792 277.348 38.5792C276.257 38.5792 275.328 38.9609 274.56 39.7243C274.228 40.0515 273.951 40.4165 273.729 40.8192C273.491 41.3309 273.371 41.893 273.371 42.5055C273.371 43.5961 273.768 44.519 274.56 45.2741C274.953 45.6516 275.379 45.9494 275.839 46.1675C276.308 46.3353 276.811 46.4192 277.348 46.4192C277.783 46.4192 278.188 46.3605 278.563 46.243L288.767 56.7762C289.048 57.2292 289.069 57.6403 288.831 58.0094L272.847 73.7274C272.267 74.2139 271.726 74.2139 271.223 73.7274L256.48 58.6135V44.5316ZM259.51 34.2627C258.181 34.2627 257.051 34.7199 256.122 35.6344C255.184 36.5573 254.715 37.6731 254.715 38.9819C254.715 40.299 255.184 41.4148 256.122 42.3293C257.051 43.2605 258.181 43.7262 259.51 43.7262C260.849 43.7262 261.991 43.2605 262.937 42.3293C263.866 41.4148 264.331 40.299 264.331 38.9819C264.331 37.6731 263.866 36.5573 262.937 35.6344C261.991 34.7199 260.849 34.2627 259.51 34.2627ZM257.707 37.2326C258.21 36.7376 258.811 36.4901 259.51 36.4901C260.226 36.4901 260.827 36.7376 261.313 37.2326C261.808 37.7108 262.055 38.2939 262.055 38.9819C262.055 39.6866 261.808 40.2822 261.313 40.7688C260.827 41.247 260.226 41.4861 259.51 41.4861C258.811 41.4861 258.21 41.247 257.707 40.7688C257.222 40.2822 256.979 39.6866 256.979 38.9819C256.979 38.2939 257.222 37.7108 257.707 37.2326Z" fill="#F2F5F4" fill-opacity="0.2"/>
<path d="M12.3032 174.254C12.9324 173.61 13.2471 172.83 13.2471 171.914L13.2471 171.889C13.2471 171.744 13.2345 171.613 13.2093 171.494C13.1506 170.765 12.8485 170.121 12.3032 169.561C11.6656 168.925 10.8896 168.607 9.97511 168.607C9.06903 168.607 8.2972 168.925 7.65959 169.561C7.10588 170.121 6.79127 170.765 6.71577 171.494C6.70738 171.613 6.70317 171.744 6.70317 171.889L6.70317 171.914C6.70317 172.83 7.02199 173.61 7.65959 174.254C8.2972 174.898 9.06903 175.221 9.97511 175.221C10.8896 175.221 11.6656 174.898 12.3032 174.254ZM11.3594 171.494C11.4013 171.613 11.4223 171.744 11.4223 171.889C11.4223 172.296 11.2839 172.639 11.007 172.919C10.7218 173.207 10.3778 173.351 9.97511 173.351C9.57241 173.351 9.23265 173.207 8.95579 172.919C8.66216 172.639 8.51534 172.296 8.51534 171.889C8.51534 171.744 8.5279 171.613 8.55307 171.494C8.62857 171.248 8.76283 171.028 8.95579 170.833C9.23265 170.553 9.57241 170.413 9.97511 170.413C10.3778 170.413 10.7218 170.553 11.007 170.833C11.1916 171.028 11.3091 171.248 11.3594 171.494ZM27.782 144.177C27.782 142.905 27.3416 141.807 26.4607 140.883C25.7056 140.145 24.8331 139.717 23.8431 139.598C23.6334 139.564 23.4194 139.547 23.2013 139.547C21.9513 139.547 20.8774 139.993 19.9797 140.883C19.0736 141.807 18.6206 142.905 18.6206 144.177C18.6206 145.016 18.8136 145.779 19.1995 146.466L15.0844 150.993L3.31798 150.993L-17.8616 171.494L-18 171.66L3.31798 192.301L15.0844 192.301L19.1995 196.853C18.8136 197.532 18.6206 198.295 18.6206 199.143C18.6206 200.414 19.0736 201.512 19.9797 202.437C20.8774 203.327 21.9513 203.772 23.2013 203.772C23.4194 203.772 23.6334 203.751 23.8431 203.708C24.8331 203.59 25.7056 203.166 26.4607 202.437C27.3416 201.512 27.782 200.414 27.782 199.143C27.782 197.862 27.3416 196.777 26.4607 195.887C25.5462 194.963 24.4598 194.501 23.2013 194.501C22.6308 194.501 22.0897 194.602 21.5779 194.806C21.2339 194.933 20.9026 195.111 20.5838 195.34L16.1541 190.558L4.19889 190.558L-15.4076 171.8L-15.4076 171.494L4.19889 152.736L16.1541 152.736L20.5838 147.979C20.9026 148.191 21.2339 148.369 21.5779 148.513C22.0897 148.708 22.6308 148.806 23.2013 148.806C24.4598 148.806 25.5462 148.348 26.4607 147.432C27.3416 146.525 27.782 145.44 27.782 144.177ZM23.2013 141.201C23.4194 141.201 23.6334 141.235 23.8431 141.302C24.3633 141.387 24.8373 141.642 25.2651 142.066C25.8272 142.642 26.1083 143.333 26.1083 144.139C26.1083 144.935 25.8272 145.618 25.2651 146.186C24.8373 146.618 24.3633 146.894 23.8431 147.013C23.6334 147.055 23.4194 147.076 23.2013 147.076C22.4043 147.076 21.7289 146.78 21.1752 146.186C20.6047 145.618 20.3195 144.935 20.3195 144.139C20.3195 143.333 20.6047 142.642 21.1752 142.066C21.7289 141.489 22.4043 141.201 23.2013 141.201ZM23.2013 196.243C23.4194 196.243 23.6334 196.26 23.8431 196.294C24.3633 196.413 24.8373 196.684 25.2651 197.108C25.8272 197.676 26.1083 198.358 26.1083 199.155C26.1083 199.961 25.8272 200.66 25.2651 201.254C24.8373 201.661 24.3633 201.915 23.8431 202.017C23.6334 202.068 23.4194 202.093 23.2013 202.093C22.4043 202.093 21.7289 201.813 21.1752 201.254C20.6047 200.66 20.3195 199.961 20.3195 199.155C20.3195 198.358 20.6047 197.676 21.1752 197.108C21.7289 196.531 22.4043 196.243 23.2013 196.243ZM161.416 171.494L176.039 171.494C175.967 160.671 172.137 151.412 164.549 143.719C156.864 135.978 147.598 132.108 136.75 132.108L122.203 132.108C121.372 129.929 120.08 127.94 118.327 126.143C114.996 122.785 110.982 121.107 106.283 121.107L58.9536 121.107C54.2638 121.107 50.2619 122.785 46.9481 126.143C43.6174 129.5 41.9521 133.553 41.9521 138.301L41.9521 171.494L59.545 171.494L59.545 160.85L80.0072 166.967C80.6029 165.602 81.4628 164.347 82.587 163.202C84.9529 160.82 87.8054 159.629 91.1444 159.629C94.5003 159.629 97.3695 160.82 99.7521 163.202C102.017 165.517 103.192 168.281 103.276 171.494L123.272 171.494L123.272 146.898L136.838 146.898C143.634 146.898 149.427 149.323 154.217 154.173C158.966 158.972 161.365 164.745 161.416 171.494ZM202.139 204.917C200.83 204.917 199.718 205.383 198.804 206.315C198.779 206.341 198.762 206.362 198.754 206.379C198.032 207.1 197.6 207.952 197.457 208.935L177.234 208.935L215 171.66L177.234 134.371L197.457 134.371C197.6 135.346 198.032 136.194 198.754 136.915C198.762 136.949 198.779 136.97 198.804 136.978C199.718 137.928 200.83 138.403 202.139 138.403C203.456 138.403 204.584 137.928 205.524 136.978C206.422 136.063 206.87 134.939 206.87 133.608C206.87 132.277 206.422 131.141 205.524 130.2C204.584 129.293 203.456 128.839 202.139 128.839C200.83 128.839 199.718 129.293 198.804 130.2C198.779 130.225 198.762 130.247 198.754 130.263C198.116 130.933 197.701 131.705 197.508 132.578L172.943 132.578L212.206 171.66L172.943 210.729L197.508 210.729C197.701 211.61 198.116 212.382 198.754 213.043C198.762 213.069 198.779 213.086 198.804 213.094C199.718 214.018 200.83 214.48 202.139 214.48C203.456 214.48 204.584 214.018 205.524 213.094C206.422 212.161 206.87 211.034 206.87 209.711C206.87 208.363 206.422 207.231 205.524 206.315C204.584 205.383 203.456 204.917 202.139 204.917ZM203.926 207.918C204.404 208.401 204.643 208.999 204.643 209.711C204.643 210.406 204.404 210.996 203.926 211.479C203.439 211.979 202.843 212.229 202.139 212.229C201.442 212.229 200.851 211.979 200.364 211.479C199.886 210.996 199.647 210.406 199.647 209.711C199.647 209.431 199.672 209.173 199.723 208.935C199.865 208.545 200.079 208.206 200.364 207.918C200.851 207.426 201.442 207.18 202.139 207.18C202.843 207.18 203.439 207.426 203.926 207.918ZM203.926 131.815C204.404 132.315 204.643 132.913 204.643 133.608C204.643 134.32 204.404 134.918 203.926 135.401C203.439 135.885 202.843 136.126 202.139 136.126C201.442 136.126 200.851 135.885 200.364 135.401C200.079 135.113 199.865 134.77 199.723 134.371C199.672 134.142 199.647 133.888 199.647 133.608C199.647 132.913 199.886 132.315 200.364 131.815C200.851 131.332 201.442 131.09 202.139 131.09C202.843 131.09 203.439 131.332 203.926 131.815ZM39.6114 102.386C38.6969 101.462 37.5895 101 36.2891 101C35.0055 101 33.9064 101.462 32.992 102.386C32.0859 103.293 31.6329 104.404 31.6329 105.718C31.6329 107.032 32.0859 108.147 32.992 109.063C33.1262 109.199 33.252 109.326 33.3695 109.445L4.72743 138.835L-15.1685 138.835C-15.8481 139.395 -15.8481 139.959 -15.1685 140.527L5.26856 140.527L34.8041 110.208C35.2739 110.369 35.7689 110.449 36.2891 110.449C37.5895 110.449 38.6969 109.987 39.6114 109.063C40.5174 108.147 40.9705 107.032 40.9705 105.718C40.9705 104.404 40.5174 103.293 39.6114 102.386ZM36.2891 102.691C37.1197 102.691 37.8286 102.988 38.4158 103.582C39.0031 104.158 39.2967 104.87 39.2967 105.718C39.2967 106.558 39.0031 107.274 38.4158 107.868C37.8286 108.444 37.1197 108.732 36.2891 108.732C35.4585 108.732 34.758 108.444 34.1875 107.868C33.6002 107.274 33.3066 106.558 33.3066 105.718C33.3066 104.87 33.6002 104.158 34.1875 103.582C34.758 102.988 35.4585 102.691 36.2891 102.691ZM36.2891 242.319C37.5895 242.319 38.6969 241.857 39.6113 240.933C40.5174 240.009 40.9705 238.898 40.9705 237.601C40.9705 236.287 40.5174 235.168 39.6113 234.244C38.6969 233.328 37.5895 232.87 36.2891 232.87C35.7689 232.87 35.2739 232.951 34.8041 233.112L5.26856 202.767L-15.1685 202.767C-15.8481 203.344 -15.8481 203.916 -15.1685 204.484L4.72742 204.484L33.3695 233.875C33.252 233.977 33.1262 234.099 32.992 234.244C32.0859 235.168 31.6329 236.287 31.6329 237.601C31.6329 238.898 32.0859 240.009 32.992 240.933C33.9064 241.857 35.0055 242.319 36.2891 242.319ZM38.4158 239.725C37.8286 240.318 37.1196 240.615 36.2891 240.615C35.4585 240.615 34.758 240.318 34.1875 239.725C33.6002 239.148 33.3066 238.44 33.3066 237.601C33.3066 236.762 33.6002 236.045 34.1875 235.452C34.758 234.858 35.4585 234.562 36.2891 234.562C37.1196 234.562 37.8286 234.858 38.4158 235.452C39.0031 236.045 39.2967 236.762 39.2967 237.601C39.2967 238.44 39.0031 239.148 38.4158 239.725ZM111.242 265.936C110.562 266.614 110.126 267.394 109.933 268.276L87.1426 268.276C86.9748 267.394 86.5553 266.614 85.8842 265.936C84.9445 264.987 83.8161 264.512 82.499 264.512C81.4586 264.512 80.5442 264.808 79.7555 265.402C79.6465 265.453 79.5542 265.516 79.4787 265.593C79.3612 265.703 79.2438 265.817 79.1263 265.936C78.2035 266.869 77.742 267.996 77.742 269.319C77.742 270.659 78.2035 271.795 79.1263 272.727C80.066 273.66 81.1902 274.126 82.4989 274.126C83.8161 274.126 84.9445 273.66 85.8842 272.727C86.6392 271.964 87.0797 271.078 87.2055 270.069L109.87 270.069C110.029 271.078 110.487 271.964 111.242 272.727C112.165 273.66 113.289 274.126 114.614 274.126C115.931 274.126 117.051 273.66 117.974 272.727C118.906 271.795 119.371 270.659 119.371 269.319C119.371 267.996 118.906 266.869 117.974 265.936C117.051 264.987 115.931 264.512 114.614 264.512C113.289 264.512 112.165 264.987 111.242 265.936ZM111.77 268.276C111.921 267.886 112.16 267.53 112.488 267.208C113.075 266.606 113.784 266.305 114.614 266.305C115.445 266.305 116.162 266.606 116.766 267.208C117.337 267.801 117.622 268.518 117.622 269.357C117.622 270.205 117.337 270.93 116.766 271.532C116.162 272.125 115.445 272.422 114.614 272.422C113.784 272.422 113.075 272.125 112.488 271.532C112.06 271.1 111.779 270.612 111.644 270.069C111.611 269.849 111.594 269.612 111.594 269.357C111.594 268.967 111.653 268.607 111.77 268.276ZM85.5318 269.357C85.5318 269.612 85.4982 269.849 85.4311 270.069C85.3137 270.612 85.0536 271.1 84.6509 271.532C84.0552 272.125 83.3379 272.422 82.4989 272.422C81.6684 272.422 80.9595 272.125 80.3722 271.532C79.7765 270.93 79.4787 270.205 79.4787 269.357C79.4787 268.518 79.7765 267.801 80.3722 267.208C80.9595 266.606 81.6684 266.305 82.499 266.305C83.3379 266.305 84.0552 266.606 84.6509 267.208C85.2381 267.801 85.5318 268.518 85.5318 269.357ZM189.542 268.696C190.456 267.746 190.913 266.606 190.913 265.275C190.913 263.952 190.456 262.829 189.542 261.905C188.619 260.972 187.499 260.506 186.182 260.506C184.856 260.506 183.745 260.972 182.847 261.905C181.916 262.829 181.45 263.952 181.45 265.275C181.45 266.606 181.916 267.746 182.847 268.696C183.745 269.612 184.856 270.069 186.182 270.069C187.499 270.069 188.619 269.612 189.542 268.696ZM188.686 265.275C188.686 265.987 188.439 266.585 187.944 267.068C187.465 267.56 186.878 267.806 186.182 267.806C185.485 267.806 184.894 267.56 184.407 267.068C183.929 266.585 183.69 265.987 183.69 265.275C183.69 264.571 183.929 263.973 184.407 263.482C184.894 262.998 185.485 262.757 186.182 262.757C186.878 262.757 187.465 262.998 187.944 263.482C188.439 263.973 188.686 264.571 188.686 265.275ZM171.961 282.291L173.232 281.223L132.66 240.335C133.365 240.157 133.982 239.793 134.51 239.242C135.383 238.36 135.819 237.296 135.819 236.049C135.819 234.786 135.383 233.714 134.51 232.832C133.638 231.967 132.585 231.535 131.352 231.535C130.873 231.535 130.416 231.598 129.98 231.725C129.309 231.937 128.713 232.306 128.193 232.832C127.513 233.527 127.098 234.328 126.947 235.236L58.0475 235.236C56.3947 235.219 55.8578 235.816 56.4367 237.029L71.7896 252.354L62.5905 261.549L64.0125 262.871L74.6463 252.366L123.436 252.366L156.432 285L157.766 283.817L123.965 250.382L73.7654 250.382L73.0607 251.082L59.0542 237.181L126.997 237.181C127.199 237.944 127.597 238.631 128.193 239.242C128.713 239.767 129.309 240.132 129.98 240.335C130.131 240.378 130.278 240.42 130.42 240.463L171.961 282.291ZM131.352 238.415C131.075 238.415 130.823 238.373 130.596 238.288C130.513 238.279 130.424 238.241 130.332 238.173C130.215 238.131 130.097 238.063 129.98 237.97C129.896 237.911 129.799 237.834 129.69 237.741C129.237 237.266 129.011 236.702 129.011 236.049C129.011 235.38 129.237 234.82 129.69 234.371C129.799 234.261 129.896 234.167 129.98 234.091C130.374 233.803 130.831 233.659 131.352 233.659C132.014 233.659 132.572 233.896 133.025 234.371C133.487 234.82 133.717 235.38 133.717 236.049C133.717 236.702 133.487 237.266 133.025 237.741C132.572 238.19 132.014 238.415 131.352 238.415ZM180.468 224.807L181.677 222.95L165.631 222.95L149.549 238.708C148.643 239.793 148.643 240.891 149.549 242.001L166.097 258.318C166.835 258.98 167.733 259.052 168.79 258.534L179.537 248.182C179.613 248.267 179.676 248.335 179.726 248.386C180.481 249.149 181.404 249.53 182.495 249.53C182.989 249.53 183.455 249.45 183.891 249.289C183.992 249.255 184.089 249.217 184.181 249.174C184.584 248.979 184.948 248.716 185.276 248.386C186.039 247.606 186.421 246.665 186.421 245.562C186.421 244.477 186.039 243.553 185.276 242.79C184.948 242.459 184.584 242.184 184.181 241.963C183.669 241.726 183.107 241.607 182.495 241.607C181.404 241.607 180.481 242.001 179.726 242.79C179.348 243.18 179.051 243.604 178.832 244.062C178.665 244.528 178.581 245.028 178.581 245.562C178.581 245.995 178.639 246.397 178.757 246.771L168.224 256.919C167.771 257.199 167.36 257.22 166.991 256.983L151.273 241.086C150.786 240.509 150.786 239.971 151.273 239.471L166.386 224.807L180.468 224.807ZM190.737 227.821C190.737 226.498 190.28 225.375 189.366 224.451C188.443 223.518 187.327 223.052 186.018 223.052C184.701 223.052 183.585 223.518 182.671 224.451C181.739 225.375 181.274 226.498 181.274 227.821C181.274 229.152 181.739 230.288 182.671 231.229C183.585 232.154 184.701 232.616 186.018 232.616C187.327 232.616 188.443 232.154 189.366 231.229C190.28 230.288 190.737 229.152 190.737 227.821ZM187.767 226.028C188.262 226.528 188.51 227.126 188.51 227.821C188.51 228.533 188.262 229.131 187.767 229.614C187.289 230.106 186.706 230.352 186.018 230.352C185.313 230.352 184.718 230.106 184.231 229.614C183.753 229.131 183.514 228.533 183.514 227.821C183.514 227.126 183.753 226.528 184.231 226.028C184.718 225.545 185.313 225.303 186.018 225.303C186.706 225.303 187.289 225.545 187.767 226.028Z" fill="#F2F5F4" fill-opacity="0.2"/>
<g filter="url(#filter0_f_13_15)">
<path d="M249.637 176.537C227.797 237.5 196.071 254.011 161.007 254.011C125.943 254.011 97.5185 225.58 97.5185 190.508C97.5185 155.437 214.573 50.0402 249.637 50.0402C284.701 50.0402 271.477 115.575 249.637 176.537Z" fill="black"/>
</g>
<path d="M146.59 210.406C146.102 209.931 145.511 209.694 144.818 209.694H144.799C144.689 209.694 144.59 209.703 144.5 209.722C143.948 209.766 143.46 209.994 143.036 210.406C142.554 210.887 142.313 211.473 142.313 212.164C142.313 212.848 142.554 213.43 143.036 213.912C143.46 214.33 143.948 214.567 144.5 214.624C144.59 214.63 144.689 214.634 144.799 214.634H144.818C145.511 214.634 146.102 214.393 146.59 213.912C147.079 213.43 147.323 212.848 147.323 212.164C147.323 211.473 147.079 210.887 146.59 210.406ZM144.5 211.119C144.59 211.087 144.689 211.071 144.799 211.071C145.107 211.071 145.367 211.176 145.579 211.385C145.797 211.6 145.906 211.86 145.906 212.164C145.906 212.468 145.797 212.724 145.579 212.933C145.367 213.155 145.107 213.266 144.799 213.266C144.689 213.266 144.59 213.256 144.5 213.237C144.314 213.18 144.147 213.079 143.999 212.933C143.787 212.724 143.681 212.468 143.681 212.164C143.681 211.86 143.787 211.6 143.999 211.385C144.147 211.245 144.314 211.157 144.5 211.119ZM123.808 198.721C122.844 198.721 122.013 199.054 121.313 199.719C120.754 200.289 120.43 200.947 120.34 201.695C120.314 201.853 120.301 202.014 120.301 202.179C120.301 203.123 120.638 203.933 121.313 204.611C122.013 205.295 122.844 205.637 123.808 205.637C124.443 205.637 125.021 205.491 125.542 205.2L128.971 208.307V217.189L144.5 233.178L144.625 233.282L160.26 217.189V208.307L163.709 205.2C164.223 205.491 164.801 205.637 165.443 205.637C166.406 205.637 167.238 205.295 167.938 204.611C168.612 203.933 168.949 203.123 168.949 202.179C168.949 202.014 168.933 201.853 168.901 201.695C168.811 200.947 168.49 200.289 167.938 199.719C167.238 199.054 166.406 198.721 165.443 198.721C164.473 198.721 163.651 199.054 162.977 199.719C162.277 200.409 161.927 201.229 161.927 202.179C161.927 202.61 162.004 203.018 162.158 203.405C162.254 203.664 162.389 203.914 162.562 204.155L158.94 207.499V216.524L144.731 231.325H144.5L130.291 216.524V207.499L126.688 204.155C126.849 203.914 126.983 203.664 127.093 203.405C127.24 203.018 127.314 202.61 127.314 202.179C127.314 201.229 126.967 200.409 126.274 199.719C125.587 199.054 124.765 198.721 123.808 198.721ZM121.553 202.179C121.553 202.014 121.579 201.853 121.63 201.695C121.695 201.302 121.887 200.944 122.208 200.621C122.645 200.197 123.169 199.985 123.779 199.985C124.382 199.985 124.899 200.197 125.33 200.621C125.657 200.944 125.866 201.302 125.956 201.695C125.988 201.853 126.004 202.014 126.004 202.179C126.004 202.781 125.779 203.291 125.33 203.709C124.899 204.139 124.382 204.355 123.779 204.355C123.169 204.355 122.645 204.139 122.208 203.709C121.772 203.291 121.553 202.781 121.553 202.179ZM163.246 202.179C163.246 202.014 163.259 201.853 163.285 201.695C163.375 201.302 163.58 200.944 163.902 200.621C164.332 200.197 164.849 199.985 165.452 199.985C166.063 199.985 166.592 200.197 167.042 200.621C167.35 200.944 167.543 201.302 167.62 201.695C167.659 201.853 167.678 202.014 167.678 202.179C167.678 202.781 167.466 203.291 167.042 203.709C166.592 204.139 166.063 204.355 165.452 204.355C164.849 204.355 164.332 204.139 163.902 203.709C163.465 203.291 163.246 202.781 163.246 202.179ZM144.5 97.8405V86.8015C136.301 86.856 129.288 89.7472 123.461 95.475C117.597 101.276 114.666 108.272 114.666 116.461V127.443C113.015 128.07 111.509 129.045 110.148 130.369C107.604 132.883 106.333 135.913 106.333 139.46V175.19C106.333 178.73 107.604 181.751 110.148 184.253C112.691 186.767 115.761 188.024 119.357 188.024H144.5V174.743H136.437L141.071 159.296C140.037 158.846 139.086 158.197 138.219 157.349C136.414 155.563 135.512 153.409 135.512 150.889C135.512 148.355 136.414 146.189 138.219 144.391C139.972 142.681 142.066 141.794 144.5 141.731V126.635H125.869V116.394C125.869 111.264 127.706 106.891 131.379 103.275C135.014 99.6899 139.388 97.8785 144.5 97.8405ZM169.816 67.0985C169.816 68.0865 170.17 68.9257 170.876 69.616C170.895 69.635 170.911 69.6477 170.924 69.654C171.47 70.1987 172.116 70.5249 172.861 70.6325V85.899L144.625 57.3895L116.38 85.899V70.6325C117.119 70.5249 117.761 70.1987 118.307 69.654C118.333 69.6477 118.349 69.635 118.355 69.616C119.074 68.9257 119.434 68.0865 119.434 67.0985C119.434 66.1042 119.074 65.2524 118.355 64.543C117.662 63.8654 116.811 63.5265 115.802 63.5265C114.794 63.5265 113.933 63.8654 113.221 64.543C112.533 65.2524 112.19 66.1042 112.19 67.0985C112.19 68.0865 112.533 68.9257 113.221 69.616C113.24 69.635 113.256 69.6477 113.269 69.654C113.776 70.1354 114.361 70.4489 115.022 70.5945V89.1385L144.625 59.4985L174.219 89.1385V70.5945C174.887 70.4489 175.471 70.1354 175.972 69.654C175.991 69.6477 176.004 69.635 176.011 69.616C176.711 68.9257 177.061 68.0865 177.061 67.0985C177.061 66.1042 176.711 65.2524 176.011 64.543C175.304 63.8654 174.45 63.5265 173.448 63.5265C172.427 63.5265 171.57 63.8654 170.876 64.543C170.17 65.2524 169.816 66.1042 169.816 67.0985ZM172.09 65.7495C172.456 65.3885 172.909 65.208 173.448 65.208C173.975 65.208 174.421 65.3885 174.787 65.7495C175.166 66.1169 175.356 66.5665 175.356 67.0985C175.356 67.6242 175.166 68.0707 174.787 68.438C174.421 68.799 173.975 68.9795 173.448 68.9795C173.236 68.9795 173.04 68.9605 172.861 68.9225C172.565 68.8149 172.308 68.6534 172.09 68.438C171.717 68.0707 171.531 67.6242 171.531 67.0985C171.531 66.5665 171.717 66.1169 172.09 65.7495ZM114.444 65.7495C114.823 65.3885 115.276 65.208 115.802 65.208C116.342 65.208 116.795 65.3885 117.161 65.7495C117.527 66.1169 117.71 66.5665 117.71 67.0985C117.71 67.6242 117.527 68.0707 117.161 68.438C116.942 68.6534 116.682 68.8149 116.38 68.9225C116.207 68.9605 116.014 68.9795 115.802 68.9795C115.276 68.9795 114.823 68.799 114.444 68.438C114.078 68.0707 113.895 67.6242 113.895 67.0985C113.895 66.5665 114.078 66.1169 114.444 65.7495ZM92.1525 189.791C91.4524 190.481 91.1024 191.317 91.1024 192.299C91.1024 193.268 91.4524 194.098 92.1525 194.788C92.8396 195.472 93.681 195.814 94.6764 195.814C95.6718 195.814 96.5164 195.472 97.21 194.788C97.3127 194.687 97.4091 194.592 97.499 194.503L119.762 216.125V231.145C120.185 231.658 120.613 231.658 121.043 231.145V215.717L98.077 193.42C98.199 193.065 98.26 192.692 98.26 192.299C98.26 191.317 97.91 190.481 97.21 189.791C96.5164 189.107 95.6718 188.765 94.6764 188.765C93.681 188.765 92.8396 189.107 92.1525 189.791ZM92.3837 192.299C92.3837 191.672 92.6084 191.137 93.058 190.694C93.4947 190.25 94.0342 190.029 94.6764 190.029C95.3122 190.029 95.8549 190.25 96.3044 190.694C96.7411 191.137 96.9595 191.672 96.9595 192.299C96.9595 192.926 96.7411 193.455 96.3044 193.886C95.8549 194.329 95.3122 194.551 94.6764 194.551C94.0342 194.551 93.4947 194.329 93.058 193.886C92.6084 193.455 92.3837 192.926 92.3837 192.299ZM198.148 192.299C198.148 191.317 197.798 190.481 197.098 189.791C196.398 189.107 195.557 188.765 194.574 188.765C193.579 188.765 192.731 189.107 192.031 189.791C191.337 190.481 190.99 191.317 190.99 192.299C190.99 192.692 191.051 193.065 191.173 193.42L168.188 215.717V231.145C168.625 231.658 169.059 231.658 169.489 231.145V216.125L191.751 194.503C191.829 194.592 191.922 194.687 192.031 194.788C192.731 195.472 193.579 195.814 194.574 195.814C195.557 195.814 196.398 195.472 197.098 194.788C197.798 194.098 198.148 193.268 198.148 192.299ZM196.183 190.694C196.632 191.137 196.857 191.672 196.857 192.299C196.857 192.926 196.632 193.455 196.183 193.886C195.746 194.329 195.21 194.551 194.574 194.551C193.938 194.551 193.396 194.329 192.946 193.886C192.496 193.455 192.272 192.926 192.272 192.299C192.272 191.672 192.496 191.137 192.946 190.694C193.396 190.25 193.938 190.029 194.574 190.029C195.21 190.029 195.746 190.25 196.183 190.694ZM216.037 135.717C216.551 136.23 217.142 136.559 217.81 136.705V153.91C217.142 154.036 216.551 154.353 216.037 154.86C215.318 155.569 214.958 156.421 214.958 157.415C214.958 158.2 215.183 158.891 215.633 159.486C215.671 159.568 215.719 159.638 215.777 159.695C215.861 159.784 215.947 159.872 216.037 159.961C216.744 160.658 217.598 161.006 218.6 161.006C219.614 161.006 220.475 160.658 221.181 159.961C221.888 159.252 222.241 158.403 222.241 157.415C222.241 156.421 221.888 155.569 221.181 154.86C220.603 154.29 219.932 153.957 219.168 153.862V136.753C219.932 136.632 220.603 136.287 221.181 135.717C221.888 135.02 222.241 134.172 222.241 133.171C222.241 132.177 221.888 131.331 221.181 130.635C220.475 129.932 219.614 129.58 218.6 129.58C217.598 129.58 216.744 129.932 216.037 130.635C215.318 131.331 214.958 132.177 214.958 133.171C214.958 134.172 215.318 135.02 216.037 135.717ZM217.81 135.318C217.514 135.204 217.245 135.024 217 134.777C216.544 134.333 216.316 133.798 216.316 133.171C216.316 132.544 216.544 132.003 217 131.547C217.45 131.116 217.993 130.901 218.628 130.901C219.271 130.901 219.82 131.116 220.276 131.547C220.725 132.003 220.95 132.544 220.95 133.171C220.95 133.798 220.725 134.333 220.276 134.777C219.948 135.1 219.579 135.312 219.168 135.413C219.001 135.438 218.821 135.451 218.628 135.451C218.333 135.451 218.06 135.407 217.81 135.318ZM218.628 155.126C218.821 155.126 219.001 155.151 219.168 155.202C219.579 155.29 219.948 155.487 220.276 155.791C220.725 156.24 220.95 156.782 220.95 157.415C220.95 158.042 220.725 158.577 220.276 159.021C219.82 159.47 219.271 159.695 218.628 159.695C217.993 159.695 217.45 159.47 217 159.021C216.544 158.577 216.316 158.042 216.316 157.415C216.316 156.782 216.544 156.24 217 155.791C217.45 155.347 217.993 155.126 218.628 155.126ZM218.128 76.608C217.408 75.9177 216.544 75.5725 215.536 75.5725C214.534 75.5725 213.683 75.9177 212.983 76.608C212.277 77.3047 211.924 78.1502 211.924 79.1445C211.924 80.1452 212.277 80.9844 212.983 81.662C213.683 82.365 214.534 82.7165 215.536 82.7165C216.544 82.7165 217.408 82.365 218.128 81.662C218.821 80.9844 219.168 80.1452 219.168 79.1445C219.168 78.1502 218.821 77.3047 218.128 76.608ZM215.536 77.254C216.076 77.254 216.528 77.4409 216.894 77.8145C217.267 78.1755 217.453 78.6189 217.453 79.1445C217.453 79.6702 217.267 80.1167 216.894 80.484C216.528 80.845 216.076 81.0255 215.536 81.0255C215.003 81.0255 214.55 80.845 214.178 80.484C213.812 80.1167 213.629 79.6702 213.629 79.1445C213.629 78.6189 213.812 78.1755 214.178 77.8145C214.55 77.4409 215.003 77.254 215.536 77.254ZM228.426 89.8795L227.616 88.92L196.645 119.548C196.51 119.016 196.234 118.551 195.817 118.152C195.149 117.493 194.343 117.164 193.399 117.164C192.442 117.164 191.629 117.493 190.962 118.152C190.306 118.81 189.979 119.605 189.979 120.536C189.979 120.897 190.027 121.242 190.123 121.572C190.284 122.078 190.563 122.528 190.962 122.921C191.488 123.434 192.095 123.747 192.782 123.861V175.874C192.769 177.121 193.222 177.527 194.141 177.09L205.749 165.5L212.714 172.444L213.715 171.371L205.758 163.343V126.512L230.477 101.603L229.582 100.596L204.256 126.113V164.008L204.785 164.54L194.256 175.114V123.823C194.834 123.671 195.354 123.37 195.817 122.921C196.215 122.528 196.491 122.078 196.645 121.572C196.677 121.458 196.709 121.347 196.742 121.239L228.426 89.8795ZM195.191 120.536C195.191 120.745 195.158 120.935 195.094 121.106C195.088 121.169 195.059 121.236 195.008 121.306C194.975 121.394 194.924 121.483 194.853 121.572C194.808 121.635 194.751 121.708 194.68 121.79C194.32 122.132 193.893 122.303 193.399 122.303C192.891 122.303 192.468 122.132 192.127 121.79C192.044 121.708 191.973 121.635 191.915 121.572C191.697 121.274 191.588 120.929 191.588 120.536C191.588 120.036 191.768 119.615 192.127 119.273C192.468 118.924 192.891 118.75 193.399 118.75C193.893 118.75 194.32 118.924 194.68 119.273C195.02 119.615 195.191 120.036 195.191 120.536ZM184.883 83.4575L183.476 82.5455V94.658L195.412 106.799C196.234 107.483 197.066 107.483 197.907 106.799L210.267 94.3065C210.768 93.7492 210.822 93.0715 210.431 92.2735L202.589 84.1605C202.653 84.1035 202.705 84.056 202.743 84.018C203.321 83.448 203.61 82.7514 203.61 81.928C203.61 81.5544 203.549 81.2029 203.427 80.8735C203.401 80.7975 203.373 80.7247 203.34 80.655C203.193 80.351 202.994 80.0755 202.743 79.8285C202.152 79.2522 201.439 78.964 200.605 78.964C199.782 78.964 199.082 79.2522 198.504 79.8285C198.254 80.0755 198.045 80.351 197.878 80.655C197.698 81.0414 197.609 81.4657 197.609 81.928C197.609 82.7514 197.907 83.448 198.504 84.018C198.8 84.303 199.121 84.5279 199.468 84.6925C199.821 84.8192 200.2 84.8825 200.605 84.8825C200.932 84.8825 201.237 84.8382 201.52 84.7495L209.207 92.701C209.419 93.043 209.435 93.3534 209.255 93.632L197.214 105.498C196.777 105.865 196.369 105.865 195.99 105.498L184.883 94.088V83.4575ZM187.166 75.7055C186.164 75.7055 185.313 76.0507 184.613 76.741C183.907 77.4377 183.554 78.28 183.554 79.268C183.554 80.2624 183.907 81.1047 184.613 81.795C185.313 82.498 186.164 82.8495 187.166 82.8495C188.174 82.8495 189.035 82.498 189.748 81.795C190.448 81.1047 190.798 80.2624 190.798 79.268C190.798 78.28 190.448 77.4377 189.748 76.741C189.035 76.0507 188.174 75.7055 187.166 75.7055ZM185.808 77.9475C186.187 77.5739 186.639 77.387 187.166 77.387C187.705 77.387 188.158 77.5739 188.524 77.9475C188.897 78.3085 189.083 78.7487 189.083 79.268C189.083 79.8 188.897 80.2497 188.524 80.617C188.158 80.978 187.705 81.1585 187.166 81.1585C186.639 81.1585 186.187 80.978 185.808 80.617C185.442 80.2497 185.259 79.8 185.259 79.268C185.259 78.7487 185.442 78.3085 185.808 77.9475Z" fill="#F2F5F4"/>
<path d="M144.799 211.071C144.689 211.071 144.59 211.087 144.5 211.119C144.314 211.157 144.147 211.245 143.999 211.385C143.787 211.6 143.681 211.86 143.681 212.164C143.681 212.468 143.787 212.724 143.999 212.933C144.147 213.079 144.314 213.18 144.5 213.237C144.59 213.256 144.689 213.266 144.799 213.266C145.107 213.266 145.367 213.155 145.579 212.933C145.797 212.724 145.906 212.468 145.906 212.164C145.906 211.86 145.797 211.6 145.579 211.385C145.367 211.176 145.107 211.071 144.799 211.071ZM121.63 201.695C121.579 201.853 121.553 202.014 121.553 202.179C121.553 202.781 121.772 203.291 122.208 203.709C122.645 204.139 123.169 204.355 123.779 204.355C124.382 204.355 124.899 204.139 125.33 203.709C125.779 203.291 126.004 202.781 126.004 202.179C126.004 202.014 125.988 201.853 125.956 201.695C125.866 201.302 125.657 200.944 125.33 200.621C124.899 200.197 124.382 199.985 123.779 199.985C123.169 199.985 122.645 200.197 122.208 200.621C121.887 200.944 121.695 201.302 121.63 201.695ZM144.5 141.73C142.066 141.794 139.972 142.68 138.219 144.39C136.414 146.189 135.512 148.355 135.512 150.888C135.512 153.409 136.414 155.562 138.219 157.348C139.086 158.197 140.037 158.846 141.071 159.296L136.437 174.743H144.5V141.73ZM144.5 97.8405C139.388 97.8785 135.014 99.6898 131.379 103.274C127.706 106.891 125.869 111.264 125.869 116.394V126.635H144.5V97.8405ZM115.802 65.208C115.276 65.208 114.823 65.3885 114.444 65.7495C114.078 66.1168 113.895 66.5665 113.895 67.0985C113.895 67.6241 114.078 68.0706 114.444 68.438C114.823 68.799 115.276 68.9795 115.802 68.9795C116.014 68.9795 116.207 68.9605 116.38 68.9225C116.682 68.8148 116.942 68.6533 117.161 68.438C117.527 68.0706 117.71 67.6241 117.71 67.0985C117.71 66.5665 117.527 66.1168 117.161 65.7495C116.795 65.3885 116.342 65.208 115.802 65.208ZM144.625 33.6395C144.593 33.6078 144.561 33.5761 144.529 33.5445C129.36 47.2308 110.231 57.2786 87.1431 63.688C75.8272 67.0383 63.8979 69.2043 51.3553 70.186C50.3277 129.092 60.2212 172.02 81.0356 198.968C98.7995 224.073 119.954 242.437 144.5 254.059V233.178L128.971 217.189V208.307L125.542 205.2C125.021 205.491 124.443 205.637 123.808 205.637C122.844 205.637 122.013 205.295 121.313 204.611C120.638 203.933 120.301 203.123 120.301 202.179C120.301 202.014 120.314 201.853 120.34 201.695C120.43 200.947 120.754 200.289 121.313 199.719C122.013 199.054 122.844 198.721 123.808 198.721C124.765 198.721 125.587 199.054 126.274 199.719C126.967 200.409 127.314 201.229 127.314 202.179C127.314 202.61 127.24 203.018 127.093 203.405C126.983 203.664 126.849 203.914 126.688 204.155L130.291 207.499V216.524L144.5 231.325V214.624C143.948 214.567 143.46 214.33 143.036 213.912C142.554 213.43 142.313 212.848 142.313 212.164C142.313 211.473 142.554 210.887 143.036 210.406C143.46 209.994 143.948 209.766 144.5 209.722V188.024H119.357C115.761 188.024 112.691 186.767 110.148 184.252C107.604 181.751 106.333 178.73 106.333 175.189V139.46C106.333 135.913 107.604 132.883 110.148 130.368C111.509 129.045 113.015 128.069 114.666 127.442V116.46C114.666 108.271 117.597 101.276 123.461 95.475C129.288 89.7472 136.301 86.856 144.5 86.8015C144.542 86.8016 144.583 86.8016 144.625 86.8015V59.4985L115.022 89.1385V70.5945C114.361 70.4488 113.776 70.1353 113.269 69.654C113.256 69.6476 113.24 69.635 113.221 69.616C112.533 68.9256 112.19 68.0865 112.19 67.0985C112.19 66.1041 112.533 65.2523 113.221 64.543C113.933 63.8653 114.794 63.5265 115.802 63.5265C116.811 63.5265 117.662 63.8653 118.355 64.543C119.074 65.2523 119.434 66.1041 119.434 67.0985C119.434 68.0865 119.074 68.9256 118.355 69.616C118.349 69.635 118.333 69.6476 118.307 69.654C117.761 70.1986 117.119 70.5248 116.38 70.6325V85.899L144.625 57.3895V33.6395ZM60.8152 89.8795L61.6148 88.92L92.586 119.548C92.7337 119.016 93.0163 118.55 93.4337 118.151C94.1016 117.493 94.9076 117.163 95.8517 117.163C96.7957 117.163 97.6017 117.493 98.2696 118.151C98.9375 118.81 99.2715 119.605 99.2715 120.536C99.2715 120.897 99.2233 121.242 99.127 121.571C98.9536 122.078 98.6678 122.528 98.2696 122.92C97.7558 123.433 97.1489 123.747 96.4489 123.861V175.874C96.4682 177.121 96.0154 177.526 95.0906 177.089L83.5017 165.499L76.5272 172.444L75.5253 171.37L83.4728 163.343V126.511L58.773 101.602L59.6592 100.595L84.9853 126.112V164.008L84.4554 164.54L94.9847 175.114V123.823C94.4067 123.671 93.8897 123.37 93.4337 122.92C93.0355 122.528 92.7529 122.078 92.586 121.571C92.5538 121.457 92.5217 121.347 92.4896 121.239L60.8152 89.8795ZM102.075 75.7055C103.083 75.7055 103.937 76.0506 104.637 76.741C105.344 77.4376 105.697 78.28 105.697 79.268C105.697 80.2623 105.344 81.1046 104.637 81.795C103.937 82.498 103.083 82.8495 102.075 82.8495C101.06 82.8495 100.2 82.498 99.4931 81.795C98.7995 81.1046 98.4527 80.2623 98.4527 79.268C98.4527 78.28 98.7995 77.4376 99.4931 76.741C100.2 76.0506 101.06 75.7055 102.075 75.7055ZM104.368 83.4575L105.764 82.5455V94.658L93.8383 106.799C93.0034 107.483 92.1717 107.483 91.3433 106.799L78.9644 94.3065C78.4763 93.7492 78.425 93.0715 78.8103 92.2735L86.6518 84.1605C86.594 84.1035 86.5459 84.056 86.5073 84.018C85.9293 83.448 85.6403 82.7513 85.6403 81.928C85.6403 81.5543 85.6949 81.2028 85.8041 80.8735C85.8298 80.7975 85.8587 80.7246 85.8908 80.655C86.0385 80.351 86.244 80.0755 86.5073 79.8285C87.0917 79.2521 87.7982 78.964 88.6267 78.964C89.4615 78.964 90.168 79.2521 90.746 79.8285C90.9965 80.0755 91.1988 80.351 91.3529 80.655C91.5327 81.0413 91.6226 81.4657 91.6226 81.928C91.6226 82.7513 91.3304 83.448 90.746 84.018C90.4441 84.303 90.1166 84.5278 89.7634 84.6925C89.423 84.8191 89.0441 84.8825 88.6267 84.8825C88.3055 84.8825 88.0005 84.8381 87.7115 84.7495L80.0337 92.701C79.8282 93.043 79.8154 93.3533 79.9952 93.632L92.0272 105.497C92.4575 105.865 92.8653 105.865 93.2507 105.497L104.368 94.088V83.4575ZM76.2575 76.608C76.9639 77.3047 77.3171 78.1501 77.3171 79.1445C77.3171 80.1451 76.9639 80.9843 76.2575 81.662C75.5639 82.365 74.7129 82.7165 73.7046 82.7165C72.6899 82.7165 71.8293 82.365 71.1229 81.662C70.4229 80.9843 70.0729 80.1451 70.0729 79.1445C70.0729 78.1501 70.4229 77.3047 71.1229 76.608C71.8293 75.9177 72.6899 75.5725 73.7046 75.5725C74.7129 75.5725 75.5639 75.9177 76.2575 76.608ZM70.6316 129.58C71.6335 129.58 72.494 129.931 73.2133 130.634C73.9198 131.331 74.273 132.177 74.273 133.171C74.273 134.172 73.9198 135.02 73.2133 135.717C72.6931 136.23 72.1023 136.559 71.4408 136.705V153.909C72.1023 154.036 72.6931 154.353 73.2133 154.859C73.9198 155.569 74.273 156.421 74.273 157.415C74.273 158.2 74.0546 158.891 73.6179 159.486C73.5665 159.568 73.512 159.638 73.4542 159.695C73.3835 159.784 73.3032 159.872 73.2133 159.961C72.494 160.658 71.6335 161.006 70.6316 161.006C69.6233 161.006 68.7659 160.658 68.0595 159.961C67.3466 159.252 66.9902 158.403 66.9902 157.415C66.9902 156.421 67.3466 155.569 68.0595 154.859C68.6375 154.289 69.3086 153.957 70.0729 153.862V136.752C69.3086 136.632 68.6375 136.287 68.0595 135.717C67.3466 135.02 66.9902 134.172 66.9902 133.171C66.9902 132.177 67.3466 131.331 68.0595 130.634C68.7659 129.931 69.6233 129.58 70.6316 129.58ZM91.1024 192.299C91.1024 191.317 91.4524 190.481 92.1525 189.791C92.8396 189.107 93.6809 188.765 94.6764 188.765C95.6718 188.765 96.5164 189.107 97.21 189.791C97.91 190.481 98.26 191.317 98.26 192.299C98.26 192.692 98.199 193.065 98.077 193.42L121.043 215.717V231.145C120.613 231.658 120.185 231.658 119.762 231.145V216.125L97.499 194.503C97.409 194.592 97.3127 194.687 97.21 194.788C96.5164 195.472 95.6718 195.814 94.6764 195.814C93.6809 195.814 92.8396 195.472 92.1525 194.788C91.4524 194.098 91.1024 193.268 91.1024 192.299ZM93.058 190.694C92.6084 191.137 92.3837 191.672 92.3837 192.299C92.3837 192.926 92.6084 193.455 93.058 193.886C93.4947 194.329 94.0342 194.551 94.6764 194.551C95.3122 194.551 95.8549 194.329 96.3044 193.886C96.7411 193.455 96.9595 192.926 96.9595 192.299C96.9595 191.672 96.7411 191.137 96.3044 190.694C95.8549 190.25 95.3122 190.029 94.6764 190.029C94.0342 190.029 93.4947 190.25 93.058 190.694ZM72.934 157.415C72.934 156.782 72.6995 156.24 72.2307 155.79C71.794 155.347 71.2545 155.125 70.6123 155.125C70.4132 155.125 70.2334 155.151 70.0729 155.201C69.6554 155.29 69.2893 155.486 68.9747 155.79C68.5251 156.24 68.3003 156.782 68.3003 157.415C68.3003 158.042 68.5251 158.577 68.9747 159.02C69.4306 159.47 69.9765 159.695 70.6123 159.695C71.2545 159.695 71.794 159.47 72.2307 159.02C72.6995 158.577 72.934 158.042 72.934 157.415ZM72.2307 131.546C71.794 131.116 71.2545 130.9 70.6123 130.9C69.9765 130.9 69.4306 131.116 68.9747 131.546C68.5251 132.002 68.3003 132.544 68.3003 133.171C68.3003 133.798 68.5251 134.333 68.9747 134.776C69.2893 135.099 69.6554 135.312 70.0729 135.413C70.2334 135.438 70.4132 135.451 70.6123 135.451C70.9142 135.451 71.1903 135.407 71.4408 135.318C71.7362 135.204 71.9995 135.023 72.2307 134.776C72.6995 134.333 72.934 133.798 72.934 133.171C72.934 132.544 72.6995 132.002 72.2307 131.546ZM75.6217 79.1445C75.6217 78.6188 75.4322 78.1755 75.0533 77.8145C74.6808 77.4408 74.2312 77.254 73.7046 77.254C73.1652 77.254 72.7124 77.4408 72.3463 77.8145C71.9803 78.1755 71.7972 78.6188 71.7972 79.1445C71.7972 79.6701 71.9803 80.1167 72.3463 80.484C72.7124 80.845 73.1652 81.0255 73.7046 81.0255C74.2312 81.0255 74.6808 80.845 75.0533 80.484C75.4322 80.1167 75.6217 79.6701 75.6217 79.1445ZM103.423 77.9475C103.057 77.5738 102.608 77.387 102.075 77.387C101.542 77.387 101.089 77.5738 100.716 77.9475C100.35 78.3085 100.167 78.7487 100.167 79.268C100.167 79.8 100.35 80.2496 100.716 80.617C101.089 80.978 101.542 81.1585 102.075 81.1585C102.608 81.1585 103.057 80.978 103.423 80.617C103.802 80.2496 103.992 79.8 103.992 79.268C103.992 78.7487 103.802 78.3085 103.423 77.9475ZM97.1233 119.272C96.7829 118.924 96.359 118.75 95.8517 118.75C95.3443 118.75 94.9172 118.924 94.5704 119.272C94.2172 119.614 94.0406 120.036 94.0406 120.536C94.0406 120.745 94.0727 120.935 94.1369 121.106C94.1562 121.169 94.1851 121.236 94.2236 121.305C94.2557 121.394 94.3103 121.483 94.3874 121.571C94.4259 121.635 94.4869 121.708 94.5704 121.79C94.9172 122.132 95.3443 122.303 95.8517 122.303C96.359 122.303 96.7829 122.132 97.1233 121.79C97.1939 121.708 97.2581 121.635 97.3159 121.571C97.5471 121.274 97.6627 120.929 97.6627 120.536C97.6627 120.036 97.4829 119.614 97.1233 119.272ZM144.625 4.36047C144.593 4.39214 144.561 4.42064 144.529 4.44597V25.3555C172.864 48.6241 206.102 61.4143 244.244 63.726C245.387 93.0683 243.319 120.653 238.04 146.48C228.413 194.373 197.243 232.617 144.529 261.212H144.5V278.863L144.529 278.892C186.312 258.334 217.922 227.769 239.359 187.197C255.569 150.806 262.084 105.26 258.905 50.559C212.254 49.818 174.161 34.4185 144.625 4.36047Z" fill="#2F9DD6"/>
<path d="M163.285 201.695C163.259 201.853 163.246 202.014 163.246 202.179C163.246 202.781 163.465 203.291 163.902 203.709C164.332 204.139 164.849 204.355 165.452 204.355C166.063 204.355 166.592 204.139 167.042 203.709C167.466 203.291 167.678 202.781 167.678 202.179C167.678 202.014 167.659 201.853 167.62 201.695C167.543 201.302 167.35 200.944 167.042 200.621C166.592 200.197 166.063 199.985 165.452 199.985C164.849 199.985 164.332 200.197 163.902 200.621C163.58 200.944 163.375 201.302 163.285 201.695ZM144.799 141.731H144.5V174.743H153.729L149.047 159.059C149.869 158.628 150.64 158.058 151.359 157.349C153.183 155.563 154.095 153.409 154.095 150.889C154.095 148.355 153.183 146.189 151.359 144.391C149.548 142.617 147.361 141.731 144.799 141.731ZM144.683 97.8405C144.625 97.8405 144.564 97.8405 144.5 97.8405V126.635H163.516V116.394C163.516 111.264 161.679 106.891 158.006 103.275C154.332 99.6519 149.891 97.8405 144.683 97.8405ZM173.448 65.208C172.909 65.208 172.456 65.3885 172.09 65.7495C171.717 66.1169 171.531 66.5665 171.531 67.0985C171.531 67.6242 171.717 68.0707 172.09 68.438C172.308 68.6534 172.565 68.8149 172.861 68.9225C173.04 68.9605 173.236 68.9795 173.448 68.9795C173.975 68.9795 174.421 68.799 174.787 68.438C175.166 68.0707 175.356 67.6242 175.356 67.0985C175.356 66.5665 175.166 66.1169 174.787 65.7495C174.421 65.3885 173.975 65.208 173.448 65.208ZM237.712 70.186C225.17 69.2044 213.24 67.0384 201.924 63.688C178.856 57.2787 159.756 47.2625 144.625 33.6395V57.3895L172.861 85.899V70.6325C172.116 70.5249 171.47 70.1987 170.924 69.654C170.911 69.6477 170.895 69.635 170.876 69.616C170.17 68.9257 169.816 68.0865 169.816 67.0985C169.816 66.1042 170.17 65.2524 170.876 64.543C171.57 63.8654 172.427 63.5265 173.448 63.5265C174.45 63.5265 175.304 63.8654 176.011 64.543C176.711 65.2524 177.061 66.1042 177.061 67.0985C177.061 68.0865 176.711 68.9257 176.011 69.616C176.004 69.635 175.991 69.6477 175.972 69.654C175.471 70.1354 174.887 70.4489 174.219 70.5945V89.1385L144.625 59.4985V86.8015C144.664 86.8015 144.709 86.8015 144.76 86.8015C153.064 86.8015 160.151 89.6927 166.021 95.475C171.897 101.276 174.835 108.272 174.835 116.461V127.357C176.595 127.965 178.188 128.969 179.613 130.369C182.163 132.883 183.438 135.913 183.438 139.46V175.19C183.438 178.73 182.163 181.751 179.613 184.253C177.083 186.767 174.017 188.024 170.414 188.024H144.5V209.722C144.59 209.703 144.689 209.694 144.799 209.694H144.818C145.512 209.694 146.102 209.931 146.59 210.406C147.079 210.887 147.323 211.473 147.323 212.164C147.323 212.848 147.079 213.43 146.59 213.912C146.102 214.393 145.512 214.634 144.818 214.634H144.799C144.689 214.634 144.59 214.63 144.5 214.624V231.325H144.731L158.94 216.524V207.499L162.562 204.155C162.389 203.914 162.254 203.664 162.158 203.405C162.004 203.018 161.927 202.61 161.927 202.179C161.927 201.229 162.277 200.409 162.977 199.719C163.651 199.054 164.473 198.721 165.443 198.721C166.406 198.721 167.238 199.054 167.938 199.719C168.49 200.289 168.811 200.947 168.901 201.695C168.933 201.853 168.949 202.014 168.949 202.179C168.949 203.123 168.612 203.933 167.938 204.611C167.238 205.295 166.406 205.637 165.443 205.637C164.801 205.637 164.223 205.491 163.709 205.2L160.26 208.307V217.189L144.625 233.282L144.5 233.178V254.059L144.529 254.078C169.094 242.45 190.262 224.08 208.032 198.968C228.846 172.02 238.74 129.092 237.712 70.186ZM184.613 76.741C185.313 76.0507 186.164 75.7055 187.166 75.7055C188.174 75.7055 189.035 76.0507 189.748 76.741C190.448 77.4377 190.798 78.28 190.798 79.268C190.798 80.2624 190.448 81.1047 189.748 81.795C189.035 82.498 188.174 82.8495 187.166 82.8495C186.164 82.8495 185.313 82.498 184.613 81.795C183.907 81.1047 183.554 80.2624 183.554 79.268C183.554 78.28 183.907 77.4377 184.613 76.741ZM183.476 82.5455L184.883 83.4575V94.088L195.99 105.498C196.369 105.865 196.777 105.865 197.214 105.498L209.255 93.632C209.435 93.3534 209.419 93.043 209.207 92.701L201.52 84.7495C201.237 84.8382 200.932 84.8825 200.605 84.8825C200.2 84.8825 199.821 84.8192 199.468 84.6925C199.121 84.5279 198.8 84.303 198.504 84.018C197.907 83.448 197.609 82.7514 197.609 81.928C197.609 81.4657 197.698 81.0414 197.878 80.655C198.045 80.351 198.254 80.0755 198.504 79.8285C199.082 79.2522 199.782 78.964 200.605 78.964C201.439 78.964 202.152 79.2522 202.743 79.8285C202.994 80.0755 203.193 80.351 203.34 80.655C203.373 80.7247 203.401 80.7975 203.427 80.8735C203.549 81.2029 203.61 81.5544 203.61 81.928C203.61 82.7514 203.321 83.448 202.743 84.018C202.705 84.056 202.653 84.1035 202.589 84.1605L210.431 92.2735C210.822 93.0715 210.768 93.7492 210.267 94.3065L197.907 106.799C197.066 107.483 196.234 107.483 195.412 106.799L183.476 94.658V82.5455ZM227.616 88.92L228.426 89.8795L196.742 121.239C196.709 121.347 196.677 121.458 196.645 121.572C196.491 122.078 196.215 122.528 195.817 122.921C195.354 123.37 194.834 123.671 194.256 123.823V175.114L204.785 164.54L204.256 164.008V126.113L229.582 100.596L230.477 101.603L205.758 126.512V163.343L213.715 171.371L212.714 172.444L205.749 165.5L194.141 177.09C193.222 177.527 192.769 177.121 192.782 175.874V123.861C192.095 123.747 191.488 123.434 190.962 122.921C190.563 122.528 190.284 122.078 190.123 121.572C190.027 121.242 189.979 120.897 189.979 120.536C189.979 119.605 190.307 118.81 190.962 118.152C191.629 117.493 192.442 117.164 193.399 117.164C194.343 117.164 195.149 117.493 195.817 118.152C196.234 118.551 196.51 119.016 196.645 119.548L227.616 88.92ZM215.536 75.5725C216.544 75.5725 217.408 75.9177 218.128 76.608C218.821 77.3047 219.168 78.1502 219.168 79.1445C219.168 80.1452 218.821 80.9844 218.128 81.662C217.408 82.365 216.544 82.7165 215.536 82.7165C214.534 82.7165 213.683 82.365 212.983 81.662C212.277 80.9844 211.924 80.1452 211.924 79.1445C211.924 78.1502 212.277 77.3047 212.983 76.608C213.683 75.9177 214.534 75.5725 215.536 75.5725ZM217.81 136.705C217.142 136.559 216.551 136.23 216.037 135.717C215.318 135.02 214.958 134.172 214.958 133.171C214.958 132.177 215.318 131.331 216.037 130.635C216.744 129.932 217.598 129.58 218.6 129.58C219.614 129.58 220.475 129.932 221.181 130.635C221.888 131.331 222.241 132.177 222.241 133.171C222.241 134.172 221.888 135.02 221.181 135.717C220.603 136.287 219.932 136.632 219.168 136.753V153.862C219.932 153.957 220.603 154.29 221.181 154.86C221.888 155.569 222.241 156.421 222.241 157.415C222.241 158.403 221.888 159.252 221.181 159.961C220.475 160.658 219.614 161.006 218.6 161.006C217.598 161.006 216.744 160.658 216.037 159.961C215.947 159.872 215.861 159.784 215.777 159.695C215.719 159.638 215.671 159.568 215.633 159.486C215.183 158.891 214.958 158.2 214.958 157.415C214.958 156.421 215.318 155.569 216.037 154.86C216.551 154.353 217.142 154.036 217.81 153.91V136.705ZM197.098 189.791C197.798 190.481 198.148 191.317 198.148 192.299C198.148 193.268 197.798 194.098 197.098 194.788C196.398 195.472 195.557 195.814 194.574 195.814C193.579 195.814 192.731 195.472 192.031 194.788C191.922 194.687 191.829 194.592 191.751 194.503L169.489 216.125V231.145C169.059 231.658 168.625 231.658 168.188 231.145V215.717L191.173 193.42C191.051 193.065 190.99 192.692 190.99 192.299C190.99 191.317 191.337 190.481 192.031 189.791C192.731 189.107 193.579 188.765 194.574 188.765C195.557 188.765 196.398 189.107 197.098 189.791ZM196.857 192.299C196.857 191.672 196.632 191.137 196.183 190.694C195.746 190.25 195.21 190.029 194.574 190.029C193.938 190.029 193.396 190.25 192.946 190.694C192.496 191.137 192.272 191.672 192.272 192.299C192.272 192.926 192.496 193.455 192.946 193.886C193.396 194.329 193.938 194.551 194.574 194.551C195.21 194.551 195.746 194.329 196.183 193.886C196.632 193.455 196.857 192.926 196.857 192.299ZM219.168 155.202C219.001 155.151 218.821 155.126 218.628 155.126C217.993 155.126 217.45 155.347 217 155.791C216.544 156.24 216.316 156.782 216.316 157.415C216.316 158.042 216.544 158.577 217 159.021C217.45 159.47 217.993 159.695 218.628 159.695C219.271 159.695 219.82 159.47 220.276 159.021C220.725 158.577 220.95 158.042 220.95 157.415C220.95 156.782 220.725 156.24 220.276 155.791C219.948 155.487 219.579 155.29 219.168 155.202ZM217 134.777C217.245 135.024 217.514 135.204 217.81 135.318C218.06 135.407 218.333 135.451 218.628 135.451C218.821 135.451 219.001 135.438 219.168 135.413C219.579 135.312 219.948 135.1 220.276 134.777C220.725 134.333 220.95 133.798 220.95 133.171C220.95 132.544 220.725 132.003 220.276 131.547C219.82 131.116 219.271 130.901 218.628 130.901C217.993 130.901 217.45 131.116 217 131.547C216.544 132.003 216.316 132.544 216.316 133.171C216.316 133.798 216.544 134.333 217 134.777ZM216.894 77.8145C216.528 77.4409 216.076 77.254 215.536 77.254C215.003 77.254 214.55 77.4409 214.178 77.8145C213.812 78.1755 213.629 78.6189 213.629 79.1445C213.629 79.6702 213.812 80.1167 214.178 80.484C214.55 80.845 215.003 81.0255 215.536 81.0255C216.076 81.0255 216.528 80.845 216.894 80.484C217.267 80.1167 217.453 79.6702 217.453 79.1445C217.453 78.6189 217.267 78.1755 216.894 77.8145ZM195.094 121.106C195.158 120.935 195.191 120.745 195.191 120.536C195.191 120.036 195.02 119.615 194.68 119.273C194.32 118.924 193.893 118.75 193.399 118.75C192.891 118.75 192.468 118.924 192.127 119.273C191.768 119.615 191.588 120.036 191.588 120.536C191.588 120.929 191.697 121.274 191.915 121.572C191.973 121.635 192.044 121.708 192.127 121.79C192.468 122.132 192.891 122.303 193.399 122.303C193.893 122.303 194.32 122.132 194.68 121.79C194.751 121.708 194.808 121.635 194.853 121.572C194.924 121.483 194.975 121.394 195.008 121.306C195.059 121.236 195.088 121.169 195.094 121.106ZM187.166 77.387C186.639 77.387 186.187 77.5739 185.808 77.9475C185.442 78.3085 185.259 78.7487 185.259 79.268C185.259 79.8 185.442 80.2497 185.808 80.617C186.187 80.978 186.639 81.1585 187.166 81.1585C187.705 81.1585 188.158 80.978 188.524 80.617C188.897 80.2497 189.083 79.8 189.083 79.268C189.083 78.7487 188.897 78.3085 188.524 77.9475C188.158 77.5739 187.705 77.387 187.166 77.387Z" fill="#2887B8"/>
<path d="M144.625 86.8015C144.583 86.8016 144.542 86.8016 144.5 86.8015V97.8405C144.564 97.8405 144.625 97.8405 144.683 97.8405C149.891 97.8405 154.332 99.6518 158.006 103.274C161.679 106.891 163.516 111.264 163.516 116.394V126.635H144.5V141.73H144.799C147.361 141.73 149.548 142.617 151.359 144.39C153.183 146.189 154.095 148.355 154.095 150.888C154.095 153.409 153.183 155.562 151.359 157.348C150.64 158.058 149.869 158.628 149.047 159.058L153.729 174.743H144.5V188.024H170.414C174.017 188.024 177.083 186.767 179.613 184.252C182.163 181.751 183.438 178.73 183.438 175.189V139.46C183.438 135.913 182.163 132.883 179.613 130.368C178.188 128.969 176.595 127.965 174.835 127.357V116.46C174.835 108.271 171.897 101.276 166.021 95.475C160.151 89.6926 153.064 86.8015 144.76 86.8015C144.709 86.8015 144.664 86.8015 144.625 86.8015ZM201.924 63.688C213.24 67.0383 225.17 69.2043 237.712 70.186C238.74 129.092 228.846 172.02 208.032 198.968C190.262 224.08 169.094 242.449 144.529 254.077H144.5V261.202C144.519 261.202 144.529 261.206 144.529 261.212C197.243 232.617 228.413 194.373 238.04 146.48C243.319 120.653 245.387 93.0683 244.244 63.726C206.102 61.4143 172.864 48.6241 144.529 25.3555V33.5445C144.561 33.5761 144.593 33.6078 144.625 33.6395C159.756 47.2625 178.856 57.2786 201.924 63.688Z" fill="#D8D8D8"/>
<path d="M144.529 25.3554V4.44592C114.897 34.4469 76.768 49.8179 30.1427 50.5589C26.9765 105.26 33.4983 150.806 49.708 187.197C71.1454 227.769 102.743 258.324 144.5 278.863V261.212V261.202C91.8121 232.614 60.6483 194.373 51.0085 146.48C45.7423 120.653 43.6775 93.0682 44.8143 63.7259C82.9623 61.4269 116.2 48.6368 144.529 25.3554Z" fill="#38B9FC"/>
<path d="M144.529 33.5445V25.3555C116.2 48.6368 82.9623 61.427 44.8143 63.726C43.6775 93.0683 45.7423 120.653 51.0085 146.48C60.6483 194.373 91.8121 232.614 144.5 261.202V254.077V254.058C119.954 242.437 98.7995 224.073 81.0356 198.968C60.2212 172.02 50.3277 129.092 51.3553 70.186C63.8979 69.2043 75.8272 67.0383 87.1431 63.688C110.231 57.2786 129.36 47.2308 144.529 33.5445Z" fill="#FBFFFD"/>
<path d="M73.2133 130.635C72.494 129.932 71.6335 129.58 70.6316 129.58C69.6233 129.58 68.7659 129.932 68.0595 130.635C67.3466 131.331 66.9902 132.177 66.9902 133.171C66.9902 134.172 67.3466 135.02 68.0595 135.717C68.6375 136.287 69.3086 136.632 70.0729 136.753V153.862C69.3086 153.957 68.6375 154.29 68.0595 154.86C67.3466 155.569 66.9902 156.421 66.9902 157.415C66.9902 158.403 67.3466 159.252 68.0595 159.961C68.7659 160.658 69.6233 161.006 70.6316 161.006C71.6335 161.006 72.494 160.658 73.2133 159.961C73.3032 159.872 73.3835 159.784 73.4542 159.695C73.512 159.638 73.5666 159.568 73.6179 159.486C74.0546 158.891 74.273 158.2 74.273 157.415C74.273 156.421 73.9198 155.569 73.2133 154.86C72.6931 154.353 72.1023 154.036 71.4408 153.91V136.705C72.1023 136.559 72.6931 136.23 73.2133 135.717C73.9198 135.02 74.273 134.172 74.273 133.171C74.273 132.177 73.9198 131.331 73.2133 130.635ZM70.6123 130.901C71.2546 130.901 71.794 131.116 72.2307 131.547C72.6996 132.003 72.934 132.544 72.934 133.171C72.934 133.798 72.6996 134.333 72.2307 134.777C71.9995 135.024 71.7362 135.204 71.4408 135.318C71.1903 135.407 70.9142 135.451 70.6123 135.451C70.4132 135.451 70.2334 135.438 70.0729 135.413C69.6554 135.312 69.2894 135.1 68.9747 134.777C68.5251 134.333 68.3003 133.798 68.3003 133.171C68.3003 132.544 68.5251 132.003 68.9747 131.547C69.4306 131.116 69.9765 130.901 70.6123 130.901ZM72.2307 155.791C72.6996 156.24 72.934 156.782 72.934 157.415C72.934 158.042 72.6996 158.577 72.2307 159.021C71.794 159.47 71.2546 159.695 70.6123 159.695C69.9765 159.695 69.4306 159.47 68.9747 159.021C68.5251 158.577 68.3003 158.042 68.3003 157.415C68.3003 156.782 68.5251 156.24 68.9747 155.791C69.2894 155.487 69.6554 155.29 70.0729 155.202C70.2334 155.151 70.4132 155.126 70.6123 155.126C71.2546 155.126 71.794 155.347 72.2307 155.791ZM77.3171 79.1445C77.3171 78.1502 76.9639 77.3047 76.2575 76.608C75.5639 75.9177 74.7129 75.5725 73.7046 75.5725C72.6899 75.5725 71.8293 75.9177 71.1229 76.608C70.4229 77.3047 70.0729 78.1502 70.0729 79.1445C70.0729 80.1452 70.4229 80.9843 71.1229 81.662C71.8293 82.365 72.6899 82.7165 73.7046 82.7165C74.7129 82.7165 75.5639 82.365 76.2575 81.662C76.9639 80.9843 77.3171 80.1452 77.3171 79.1445ZM75.0533 77.8145C75.4322 78.1755 75.6217 78.6188 75.6217 79.1445C75.6217 79.6702 75.4322 80.1167 75.0533 80.484C74.6808 80.845 74.2313 81.0255 73.7046 81.0255C73.1652 81.0255 72.7124 80.845 72.3463 80.484C71.9803 80.1167 71.7972 79.6702 71.7972 79.1445C71.7972 78.6188 71.9803 78.1755 72.3463 77.8145C72.7124 77.4408 73.1652 77.254 73.7046 77.254C74.2313 77.254 74.6808 77.4408 75.0533 77.8145ZM105.764 82.5455L104.368 83.4575V94.088L93.2507 105.498C92.8653 105.865 92.4575 105.865 92.0272 105.498L79.9952 93.632C79.8154 93.3533 79.8282 93.043 80.0337 92.701L87.7115 84.7495C88.0005 84.8382 88.3056 84.8825 88.6267 84.8825C89.0441 84.8825 89.423 84.8192 89.7634 84.6925C90.1166 84.5278 90.4442 84.303 90.746 84.018C91.3304 83.448 91.6226 82.7513 91.6226 81.928C91.6226 81.4657 91.5327 81.0413 91.3529 80.655C91.1988 80.351 90.9965 80.0755 90.746 79.8285C90.168 79.2522 89.4616 78.964 88.6267 78.964C87.7982 78.964 87.0918 79.2522 86.5073 79.8285C86.244 80.0755 86.0385 80.351 85.8908 80.655C85.8587 80.7247 85.8298 80.7975 85.8041 80.8735C85.6949 81.2028 85.6403 81.5543 85.6403 81.928C85.6403 82.7513 85.9293 83.448 86.5073 84.018C86.5459 84.056 86.594 84.1035 86.6518 84.1605L78.8103 92.2735C78.425 93.0715 78.4763 93.7492 78.9644 94.3065L91.3433 106.799C92.1717 107.483 93.0034 107.483 93.8383 106.799L105.764 94.658V82.5455ZM104.637 76.741C103.937 76.0507 103.083 75.7055 102.075 75.7055C101.06 75.7055 100.2 76.0507 99.4931 76.741C98.7995 77.4377 98.4527 78.28 98.4527 79.268C98.4527 80.2623 98.7995 81.1047 99.4931 81.795C100.2 82.498 101.06 82.8495 102.075 82.8495C103.083 82.8495 103.937 82.498 104.637 81.795C105.344 81.1047 105.697 80.2623 105.697 79.268C105.697 78.28 105.344 77.4377 104.637 76.741ZM102.075 77.387C102.608 77.387 103.057 77.5738 103.423 77.9475C103.802 78.3085 103.992 78.7487 103.992 79.268C103.992 79.8 103.802 80.2497 103.423 80.617C103.057 80.978 102.608 81.1585 102.075 81.1585C101.542 81.1585 101.089 80.978 100.716 80.617C100.35 80.2497 100.167 79.8 100.167 79.268C100.167 78.7487 100.35 78.3085 100.716 77.9475C101.089 77.5738 101.542 77.387 102.075 77.387ZM61.6148 88.92L60.8152 89.8795L92.4896 121.239C92.5217 121.347 92.5539 121.458 92.586 121.572C92.7529 122.078 93.0355 122.528 93.4337 122.921C93.8897 123.37 94.4067 123.671 94.9847 123.823V175.114L84.4554 164.54L84.9853 164.008V126.113L59.6592 100.596L58.773 101.603L83.4728 126.512V163.343L75.5253 171.371L76.5272 172.444L83.5017 165.5L95.0906 177.09C96.0154 177.527 96.4682 177.121 96.4489 175.874V123.861C97.149 123.747 97.7559 123.434 98.2696 122.921C98.6678 122.528 98.9536 122.078 99.127 121.572C99.2233 121.242 99.2715 120.897 99.2715 120.536C99.2715 119.605 98.9375 118.81 98.2696 118.152C97.6017 117.493 96.7957 117.164 95.8517 117.164C94.9076 117.164 94.1016 117.493 93.4337 118.152C93.0163 118.551 92.7337 119.016 92.586 119.548L61.6148 88.92ZM95.8517 118.75C96.359 118.75 96.7829 118.924 97.1233 119.273C97.4829 119.615 97.6627 120.036 97.6627 120.536C97.6627 120.929 97.5471 121.274 97.3159 121.572C97.2581 121.635 97.1939 121.708 97.1233 121.79C96.7829 122.132 96.359 122.303 95.8517 122.303C95.3443 122.303 94.9172 122.132 94.5704 121.79C94.4869 121.708 94.4259 121.635 94.3874 121.572C94.3103 121.483 94.2557 121.394 94.2236 121.306C94.1851 121.236 94.1562 121.169 94.1369 121.106C94.0727 120.935 94.0406 120.745 94.0406 120.536C94.0406 120.036 94.2172 119.615 94.5704 119.273C94.9172 118.924 95.3443 118.75 95.8517 118.75Z" fill="#FDFFFF"/>
<defs>
<filter id="filter0_f_13_15" x="4.81847" y="-42.6598" width="359.138" height="389.371" filterUnits="userSpaceOnUse" color-interpolation-filters="sRGB">
<feFlood flood-opacity="0" result="BackgroundImageFix"/>
<feBlend mode="normal" in="SourceGraphic" in2="BackgroundImageFix" result="shape"/>
<feGaussianBlur stdDeviation="46.35" result="effect1_foregroundBlur_13_15"/>
</filter>
</defs>
</svg>
