<svg width="335" height="285" viewBox="0 0 335 285" fill="none" xmlns="http://www.w3.org/2000/svg">
<path d="M223.652 212.697C223.004 212.068 222.22 211.753 221.299 211.753H221.274C221.129 211.753 220.997 211.766 220.877 211.791C220.144 211.849 219.496 212.151 218.934 212.697C218.295 213.334 217.975 214.11 217.975 215.025C217.975 215.931 218.295 216.703 218.934 217.34C219.496 217.894 220.144 218.209 220.877 218.284C220.997 218.293 221.129 218.297 221.274 218.297H221.299C222.22 218.297 223.004 217.978 223.652 217.34C224.3 216.703 224.624 215.931 224.624 215.025C224.624 214.11 224.3 213.334 223.652 212.697ZM220.877 213.641C220.997 213.599 221.129 213.578 221.274 213.578C221.683 213.578 222.028 213.716 222.31 213.993C222.599 214.278 222.744 214.622 222.744 215.025C222.744 215.428 222.599 215.767 222.31 216.044C222.028 216.338 221.683 216.485 221.274 216.485C221.129 216.485 220.997 216.472 220.877 216.447C220.63 216.371 220.409 216.237 220.213 216.044C219.931 215.767 219.791 215.428 219.791 215.025C219.791 214.622 219.931 214.278 220.213 213.993C220.409 213.808 220.63 213.691 220.877 213.641ZM193.411 197.218C192.133 197.218 191.029 197.658 190.1 198.539C189.358 199.294 188.927 200.167 188.808 201.157C188.774 201.367 188.757 201.581 188.757 201.799C188.757 203.049 189.204 204.123 190.1 205.02C191.029 205.926 192.133 206.379 193.411 206.379C194.255 206.379 195.022 206.186 195.713 205.801L200.265 209.916V221.682L220.877 242.862L221.044 243L241.797 221.682V209.916L246.374 205.801C247.056 206.186 247.824 206.379 248.676 206.379C249.955 206.379 251.059 205.926 251.988 205.02C252.883 204.123 253.33 203.049 253.33 201.799C253.33 201.581 253.309 201.367 253.267 201.157C253.147 200.167 252.721 199.294 251.988 198.539C251.059 197.658 249.955 197.218 248.676 197.218C247.389 197.218 246.298 197.658 245.403 198.539C244.473 199.454 244.009 200.54 244.009 201.799C244.009 202.369 244.111 202.91 244.316 203.422C244.444 203.766 244.623 204.097 244.853 204.416L240.045 208.846V220.801L221.184 240.408H220.877L202.017 220.801V208.846L197.235 204.416C197.448 204.097 197.627 203.766 197.772 203.422C197.968 202.91 198.066 202.369 198.066 201.799C198.066 200.54 197.605 199.454 196.685 198.539C195.773 197.658 194.681 197.218 193.411 197.218ZM190.419 201.799C190.419 201.581 190.453 201.367 190.521 201.157C190.607 200.637 190.862 200.163 191.289 199.735C191.868 199.173 192.563 198.892 193.373 198.892C194.174 198.892 194.86 199.173 195.432 199.735C195.866 200.163 196.143 200.637 196.263 201.157C196.305 201.367 196.327 201.581 196.327 201.799C196.327 202.596 196.028 203.271 195.432 203.825C194.86 204.395 194.174 204.681 193.373 204.681C192.563 204.681 191.868 204.395 191.289 203.825C190.709 203.271 190.419 202.596 190.419 201.799ZM245.761 201.799C245.761 201.581 245.778 201.367 245.812 201.157C245.931 200.637 246.204 200.163 246.63 199.735C247.201 199.173 247.888 198.892 248.689 198.892C249.499 198.892 250.202 199.173 250.799 199.735C251.208 200.163 251.464 200.637 251.566 201.157C251.617 201.367 251.643 201.581 251.643 201.799C251.643 202.596 251.361 203.271 250.799 203.825C250.202 204.395 249.499 204.681 248.689 204.681C247.888 204.681 247.201 204.395 246.63 203.825C246.05 203.271 245.761 202.596 245.761 201.799ZM220.877 63.5843V48.9613C209.995 49.0335 200.686 52.8633 192.951 60.4508C185.168 68.1357 181.277 77.402 181.277 88.2497V102.797C179.086 103.628 177.087 104.92 175.28 106.673C171.904 110.004 170.216 114.018 170.216 118.717V166.046C170.216 170.736 171.904 174.738 175.28 178.052C178.655 181.383 182.73 183.048 187.504 183.048H220.877V165.455H210.175L216.325 144.993C214.953 144.397 213.691 143.537 212.54 142.413C210.145 140.047 208.947 137.195 208.947 133.856C208.947 130.5 210.145 127.63 212.54 125.248C214.868 122.983 217.647 121.808 220.877 121.724V101.728H196.148V88.1616C196.148 81.3661 198.586 75.5731 203.462 70.7826C208.287 66.0341 214.092 63.6347 220.877 63.5843ZM254.481 22.8612C254.481 24.17 254.95 25.2816 255.888 26.1961C255.913 26.2213 255.935 26.2381 255.952 26.2465C256.676 26.968 257.533 27.4 258.522 27.5426V47.7658L221.044 10L183.553 47.7658V27.5426C184.533 27.4 185.385 26.968 186.11 26.2465C186.144 26.2381 186.165 26.2213 186.174 26.1961C187.129 25.2816 187.606 24.17 187.606 22.8612C187.606 21.5441 187.129 20.4157 186.174 19.4761C185.253 18.5784 184.124 18.1295 182.785 18.1295C181.447 18.1295 180.305 18.5784 179.359 19.4761C178.446 20.4157 177.99 21.5441 177.99 22.8612C177.99 24.17 178.446 25.2816 179.359 26.1961C179.384 26.2213 179.405 26.2381 179.423 26.2465C180.096 26.8841 180.872 27.2993 181.75 27.4923V52.057L221.044 12.7937L260.325 52.057V27.4923C261.211 27.2993 261.987 26.8841 262.652 26.2465C262.678 26.2381 262.695 26.2213 262.703 26.1961C263.632 25.2816 264.097 24.17 264.097 22.8612C264.097 21.5441 263.632 20.4157 262.703 19.4761C261.766 18.5784 260.632 18.1295 259.302 18.1295C257.947 18.1295 256.808 18.5784 255.888 19.4761C254.95 20.4157 254.481 21.5441 254.481 22.8612ZM257.499 21.0743C257.985 20.5961 258.586 20.357 259.302 20.357C260.001 20.357 260.593 20.5961 261.079 21.0743C261.582 21.5609 261.834 22.1565 261.834 22.8612C261.834 23.5576 261.582 24.1491 261.079 24.6357C260.593 25.1139 260.001 25.353 259.302 25.353C259.021 25.353 258.761 25.3278 258.522 25.2775C258.13 25.1348 257.789 24.9209 257.499 24.6357C257.005 24.1491 256.757 23.5576 256.757 22.8612C256.757 22.1565 257.005 21.5609 257.499 21.0743ZM180.983 21.0743C181.485 20.5961 182.086 20.357 182.785 20.357C183.502 20.357 184.102 20.5961 184.588 21.0743C185.074 21.5609 185.317 22.1565 185.317 22.8612C185.317 23.5576 185.074 24.1491 184.588 24.6357C184.299 24.9209 183.953 25.1348 183.553 25.2775C183.323 25.3278 183.067 25.353 182.785 25.353C182.086 25.353 181.485 25.1139 180.983 24.6357C180.497 24.1491 180.254 23.5576 180.254 22.8612C180.254 22.1565 180.497 21.5609 180.983 21.0743ZM151.394 185.389C150.465 186.303 150 187.411 150 188.711C150 189.995 150.465 191.094 151.394 192.008C152.306 192.914 153.423 193.367 154.744 193.367C156.065 193.367 157.186 192.914 158.107 192.008C158.243 191.874 158.371 191.748 158.49 191.631L188.041 220.273V240.169C188.603 240.848 189.17 240.848 189.741 240.169V219.731L159.258 190.196C159.42 189.726 159.501 189.231 159.501 188.711C159.501 187.411 159.036 186.303 158.107 185.389C157.186 184.483 156.065 184.03 154.744 184.03C153.423 184.03 152.306 184.483 151.394 185.389ZM151.701 188.711C151.701 187.88 151.999 187.171 152.596 186.584C153.175 185.997 153.891 185.703 154.744 185.703C155.588 185.703 156.308 185.997 156.905 186.584C157.485 187.171 157.774 187.88 157.774 188.711C157.774 189.541 157.485 190.242 156.905 190.813C156.308 191.4 155.588 191.693 154.744 191.693C153.891 191.693 153.175 191.4 152.596 190.813C151.999 190.242 151.701 189.541 151.701 188.711ZM292.087 188.711C292.087 187.411 291.623 186.303 290.694 185.389C289.764 184.483 288.648 184.03 287.343 184.03C286.022 184.03 284.897 184.483 283.968 185.389C283.047 186.303 282.587 187.411 282.587 188.711C282.587 189.231 282.668 189.726 282.83 190.196L252.32 219.731V240.169C252.9 240.848 253.475 240.848 254.047 240.169V220.273L283.597 191.631C283.699 191.748 283.823 191.874 283.968 192.008C284.897 192.914 286.022 193.367 287.343 193.367C288.648 193.367 289.764 192.914 290.694 192.008C291.623 191.094 292.087 189.995 292.087 188.711ZM289.479 186.584C290.076 187.171 290.374 187.88 290.374 188.711C290.374 189.541 290.076 190.242 289.479 190.813C288.899 191.4 288.187 191.693 287.343 191.693C286.5 191.693 285.779 191.4 285.182 190.813C284.586 190.242 284.287 189.541 284.287 188.711C284.287 187.88 284.586 187.171 285.182 186.584C285.779 185.997 286.5 185.703 287.343 185.703C288.187 185.703 288.899 185.997 289.479 186.584ZM315.833 113.758C316.515 114.438 317.299 114.874 318.185 115.067V137.857C317.299 138.025 316.515 138.445 315.833 139.116C314.878 140.055 314.4 141.184 314.4 142.501C314.4 143.541 314.699 144.456 315.295 145.244C315.347 145.354 315.411 145.446 315.487 145.521C315.598 145.639 315.713 145.756 315.833 145.874C316.77 146.797 317.904 147.258 319.234 147.258C320.581 147.258 321.723 146.797 322.661 145.874C323.598 144.934 324.067 143.81 324.067 142.501C324.067 141.184 323.598 140.055 322.661 139.116C321.893 138.361 321.003 137.92 319.988 137.794V115.13C321.003 114.971 321.893 114.513 322.661 113.758C323.598 112.835 324.067 111.711 324.067 110.386C324.067 109.069 323.598 107.949 322.661 107.026C321.723 106.094 320.581 105.629 319.234 105.629C317.904 105.629 316.77 106.094 315.833 107.026C314.878 107.949 314.4 109.069 314.4 110.386C314.4 111.711 314.878 112.835 315.833 113.758ZM318.185 113.23C317.793 113.079 317.435 112.84 317.111 112.512C316.506 111.925 316.203 111.216 316.203 110.386C316.203 109.555 316.506 108.838 317.111 108.234C317.708 107.663 318.428 107.378 319.272 107.378C320.125 107.378 320.854 107.663 321.459 108.234C322.055 108.838 322.354 109.555 322.354 110.386C322.354 111.216 322.055 111.925 321.459 112.512C321.024 112.94 320.534 113.221 319.988 113.356C319.767 113.389 319.528 113.406 319.272 113.406C318.88 113.406 318.518 113.347 318.185 113.23ZM319.272 139.468C319.528 139.468 319.767 139.502 319.988 139.569C320.534 139.686 321.024 139.946 321.459 140.349C322.055 140.945 322.354 141.662 322.354 142.501C322.354 143.332 322.055 144.041 321.459 144.628C320.854 145.223 320.125 145.521 319.272 145.521C318.428 145.521 317.708 145.223 317.111 144.628C316.506 144.041 316.203 143.332 316.203 142.501C316.203 141.662 316.506 140.945 317.111 140.349C317.708 139.762 318.428 139.468 319.272 139.468ZM318.607 35.4582C317.653 34.5438 316.506 34.0865 315.168 34.0865C313.838 34.0865 312.708 34.5438 311.779 35.4582C310.841 36.3811 310.373 37.5011 310.373 38.8183C310.373 40.1438 310.841 41.2554 311.779 42.1531C312.708 43.0844 313.838 43.55 315.168 43.55C316.506 43.55 317.653 43.0844 318.607 42.1531C319.528 41.2554 319.988 40.1438 319.988 38.8183C319.988 37.5011 319.528 36.3811 318.607 35.4582ZM315.168 36.314C315.884 36.314 316.485 36.5615 316.971 37.0564C317.465 37.5346 317.712 38.1219 317.712 38.8183C317.712 39.5146 317.465 40.1061 316.971 40.5927C316.485 41.0709 315.884 41.31 315.168 41.31C314.46 41.31 313.859 41.0709 313.365 40.5927C312.879 40.1061 312.636 39.5146 312.636 38.8183C312.636 38.1219 312.879 37.5346 313.365 37.0564C313.859 36.5615 314.46 36.314 315.168 36.314ZM332.276 53.0386L331.202 51.7676L290.093 92.3397C289.914 91.6349 289.547 91.0183 288.993 90.4898C288.106 89.6172 287.037 89.181 285.783 89.181C284.513 89.181 283.435 89.6172 282.548 90.4898C281.679 91.3623 281.244 92.4152 281.244 93.6484C281.244 94.1267 281.308 94.5839 281.436 95.0201C281.649 95.6913 282.02 96.287 282.548 96.8071C283.247 97.4867 284.053 97.902 284.965 98.053V166.953C284.948 168.605 285.549 169.142 286.768 168.563L302.176 153.21L311.421 162.41L312.751 160.988L302.189 150.354V101.564L335 68.5678L333.811 67.2338L300.194 101.035V151.235L300.898 151.939L286.921 165.946V98.0026C287.689 97.8013 288.379 97.4028 288.993 96.8071C289.521 96.287 289.888 95.6913 290.093 95.0201C290.135 94.8691 290.178 94.7223 290.22 94.5797L332.276 53.0386ZM288.162 93.6484C288.162 93.9253 288.119 94.177 288.034 94.4035C288.025 94.4874 287.987 94.5755 287.919 94.6678C287.876 94.7852 287.808 94.9027 287.714 95.0201C287.655 95.104 287.578 95.2005 287.484 95.3096C287.007 95.7626 286.44 95.9891 285.783 95.9891C285.11 95.9891 284.547 95.7626 284.096 95.3096C283.985 95.2005 283.891 95.104 283.814 95.0201C283.524 94.6258 283.38 94.1686 283.38 93.6484C283.38 92.9857 283.618 92.4278 284.096 91.9747C284.547 91.5133 285.11 91.2826 285.783 91.2826C286.44 91.2826 287.007 91.5133 287.484 91.9747C287.936 92.4278 288.162 92.9857 288.162 93.6484ZM274.48 44.5316L272.613 43.3235V59.3686L288.456 75.4514C289.547 76.3575 290.651 76.3575 291.768 75.4514L308.173 58.9029C308.838 58.1647 308.911 57.267 308.391 56.2099L297.982 45.4628C298.067 45.3873 298.136 45.3244 298.187 45.2741C298.954 44.519 299.338 43.5961 299.338 42.5055C299.338 42.0105 299.257 41.5449 299.095 41.1086C299.06 41.0079 299.022 40.9115 298.979 40.8192C298.783 40.4165 298.519 40.0515 298.187 39.7243C297.402 38.9609 296.456 38.5792 295.348 38.5792C294.257 38.5792 293.328 38.9609 292.56 39.7243C292.228 40.0515 291.951 40.4165 291.729 40.8192C291.491 41.3309 291.371 41.893 291.371 42.5055C291.371 43.5961 291.768 44.519 292.56 45.2741C292.953 45.6516 293.379 45.9494 293.839 46.1675C294.308 46.3353 294.811 46.4192 295.348 46.4192C295.783 46.4192 296.188 46.3605 296.563 46.243L306.767 56.7762C307.048 57.2292 307.069 57.6403 306.831 58.0094L290.847 73.7274C290.267 74.2139 289.726 74.2139 289.223 73.7274L274.48 58.6135V44.5316ZM277.51 34.2627C276.181 34.2627 275.051 34.7199 274.122 35.6344C273.184 36.5573 272.715 37.6731 272.715 38.9819C272.715 40.299 273.184 41.4148 274.122 42.3293C275.051 43.2605 276.181 43.7262 277.51 43.7262C278.849 43.7262 279.991 43.2605 280.937 42.3293C281.866 41.4148 282.331 40.299 282.331 38.9819C282.331 37.6731 281.866 36.5573 280.937 35.6344C279.991 34.7199 278.849 34.2627 277.51 34.2627ZM275.707 37.2326C276.21 36.7376 276.811 36.4901 277.51 36.4901C278.226 36.4901 278.827 36.7376 279.313 37.2326C279.808 37.7108 280.055 38.2939 280.055 38.9819C280.055 39.6866 279.808 40.2822 279.313 40.7688C278.827 41.247 278.226 41.4861 277.51 41.4861C276.811 41.4861 276.21 41.247 275.707 40.7688C275.222 40.2822 274.979 39.6866 274.979 38.9819C274.979 38.2939 275.222 37.7108 275.707 37.2326Z" fill="#F2F5F4" fill-opacity="0.2"/>
<path d="M30.3032 174.254C30.9324 173.61 31.2471 172.83 31.2471 171.914L31.2471 171.889C31.2471 171.744 31.2345 171.613 31.2093 171.494C31.1506 170.765 30.8485 170.121 30.3032 169.561C29.6656 168.925 28.8896 168.607 27.9751 168.607C27.069 168.607 26.2972 168.925 25.6596 169.561C25.1059 170.121 24.7913 170.765 24.7158 171.494C24.7074 171.613 24.7032 171.744 24.7032 171.889L24.7032 171.914C24.7032 172.83 25.022 173.61 25.6596 174.254C26.2972 174.898 27.069 175.221 27.9751 175.221C28.8896 175.221 29.6656 174.898 30.3032 174.254ZM29.3594 171.494C29.4013 171.613 29.4223 171.744 29.4223 171.889C29.4223 172.296 29.2839 172.639 29.007 172.919C28.7218 173.207 28.3778 173.351 27.9751 173.351C27.5724 173.351 27.2326 173.207 26.9558 172.919C26.6622 172.639 26.5153 172.296 26.5153 171.889C26.5153 171.744 26.5279 171.613 26.5531 171.494C26.6286 171.248 26.7628 171.028 26.9558 170.833C27.2326 170.553 27.5724 170.413 27.9751 170.413C28.3778 170.413 28.7218 170.553 29.007 170.833C29.1916 171.028 29.3091 171.248 29.3594 171.494ZM45.782 144.177C45.782 142.905 45.3416 141.807 44.4607 140.883C43.7056 140.145 42.8331 139.717 41.8431 139.598C41.6334 139.564 41.4194 139.547 41.2013 139.547C39.9513 139.547 38.8774 139.993 37.9797 140.883C37.0736 141.807 36.6206 142.905 36.6206 144.177C36.6206 145.016 36.8136 145.779 37.1995 146.466L33.0844 150.993L21.318 150.993L0.138446 171.494L5.39887e-06 171.66L21.318 192.301L33.0844 192.301L37.1995 196.853C36.8136 197.532 36.6206 198.295 36.6206 199.143C36.6206 200.414 37.0736 201.512 37.9797 202.437C38.8774 203.327 39.9513 203.772 41.2013 203.772C41.4194 203.772 41.6334 203.751 41.8431 203.708C42.8331 203.59 43.7056 203.166 44.4607 202.437C45.3416 201.512 45.782 200.414 45.782 199.143C45.782 197.862 45.3416 196.777 44.4607 195.887C43.5462 194.963 42.4598 194.501 41.2013 194.501C40.6308 194.501 40.0897 194.602 39.5779 194.806C39.2339 194.933 38.9026 195.111 38.5838 195.34L34.1541 190.558L22.1989 190.558L2.5924 171.8L2.5924 171.494L22.1989 152.736L34.1541 152.736L38.5838 147.979C38.9026 148.191 39.2339 148.369 39.5779 148.513C40.0897 148.708 40.6308 148.806 41.2013 148.806C42.4598 148.806 43.5462 148.348 44.4607 147.432C45.3416 146.525 45.782 145.44 45.782 144.177ZM41.2013 141.201C41.4194 141.201 41.6334 141.235 41.8431 141.302C42.3633 141.387 42.8373 141.642 43.2651 142.066C43.8272 142.642 44.1083 143.333 44.1083 144.139C44.1083 144.935 43.8272 145.618 43.2651 146.186C42.8373 146.618 42.3633 146.894 41.8431 147.013C41.6334 147.055 41.4194 147.076 41.2013 147.076C40.4043 147.076 39.7289 146.78 39.1752 146.186C38.6047 145.618 38.3195 144.935 38.3195 144.139C38.3195 143.333 38.6047 142.642 39.1752 142.066C39.7289 141.489 40.4043 141.201 41.2013 141.201ZM41.2013 196.243C41.4194 196.243 41.6334 196.26 41.8431 196.294C42.3633 196.413 42.8373 196.684 43.2651 197.108C43.8272 197.676 44.1083 198.358 44.1083 199.155C44.1083 199.961 43.8272 200.66 43.2651 201.254C42.8373 201.661 42.3633 201.915 41.8431 202.017C41.6334 202.068 41.4194 202.093 41.2013 202.093C40.4043 202.093 39.7289 201.813 39.1752 201.254C38.6047 200.66 38.3195 199.961 38.3195 199.155C38.3195 198.358 38.6047 197.676 39.1752 197.108C39.7289 196.531 40.4043 196.243 41.2013 196.243ZM179.416 171.494L194.039 171.494C193.967 160.671 190.137 151.412 182.549 143.719C174.864 135.978 165.598 132.108 154.75 132.108L140.203 132.108C139.372 129.929 138.08 127.94 136.327 126.143C132.996 122.785 128.982 121.107 124.283 121.107L76.9536 121.107C72.2638 121.107 68.2619 122.785 64.9481 126.143C61.6174 129.5 59.9521 133.553 59.9521 138.301L59.9521 171.494L77.545 171.494L77.545 160.85L98.0072 166.967C98.6029 165.602 99.4628 164.347 100.587 163.202C102.953 160.82 105.805 159.629 109.144 159.629C112.5 159.629 115.37 160.82 117.752 163.202C120.017 165.517 121.192 168.281 121.276 171.494L141.272 171.494L141.272 146.898L154.838 146.898C161.634 146.898 167.427 149.323 172.217 154.173C176.966 158.972 179.365 164.745 179.416 171.494ZM220.139 204.917C218.83 204.917 217.718 205.383 216.804 206.315C216.779 206.341 216.762 206.362 216.754 206.379C216.032 207.1 215.6 207.952 215.457 208.935L195.234 208.935L233 171.66L195.234 134.371L215.457 134.371C215.6 135.346 216.032 136.194 216.754 136.915C216.762 136.949 216.779 136.97 216.804 136.978C217.718 137.928 218.83 138.403 220.139 138.403C221.456 138.403 222.584 137.928 223.524 136.978C224.422 136.063 224.87 134.939 224.87 133.608C224.87 132.277 224.422 131.141 223.524 130.2C222.584 129.293 221.456 128.839 220.139 128.839C218.83 128.839 217.718 129.293 216.804 130.2C216.779 130.225 216.762 130.247 216.754 130.263C216.116 130.933 215.701 131.705 215.508 132.578L190.943 132.578L230.206 171.66L190.943 210.729L215.508 210.729C215.701 211.61 216.116 212.382 216.754 213.043C216.762 213.069 216.779 213.086 216.804 213.094C217.718 214.018 218.83 214.48 220.139 214.48C221.456 214.48 222.584 214.018 223.524 213.094C224.422 212.161 224.87 211.034 224.87 209.711C224.87 208.363 224.422 207.231 223.524 206.315C222.584 205.383 221.456 204.917 220.139 204.917ZM221.926 207.918C222.404 208.401 222.643 208.999 222.643 209.711C222.643 210.406 222.404 210.996 221.926 211.479C221.439 211.979 220.843 212.229 220.139 212.229C219.442 212.229 218.851 211.979 218.364 211.479C217.886 210.996 217.647 210.406 217.647 209.711C217.647 209.431 217.672 209.173 217.723 208.935C217.865 208.545 218.079 208.206 218.364 207.918C218.851 207.426 219.442 207.18 220.139 207.18C220.843 207.18 221.439 207.426 221.926 207.918ZM221.926 131.815C222.404 132.315 222.643 132.913 222.643 133.608C222.643 134.32 222.404 134.918 221.926 135.401C221.439 135.885 220.843 136.126 220.139 136.126C219.442 136.126 218.851 135.885 218.364 135.401C218.079 135.113 217.865 134.77 217.723 134.371C217.672 134.142 217.647 133.888 217.647 133.608C217.647 132.913 217.886 132.315 218.364 131.815C218.851 131.332 219.442 131.09 220.139 131.09C220.843 131.09 221.439 131.332 221.926 131.815ZM57.6114 102.386C56.6969 101.462 55.5895 101 54.2891 101C53.0055 101 51.9064 101.462 50.992 102.386C50.0859 103.293 49.6329 104.404 49.6329 105.718C49.6329 107.032 50.0859 108.147 50.992 109.063C51.1262 109.199 51.252 109.326 51.3695 109.445L22.7274 138.835L2.83149 138.835C2.15194 139.395 2.15194 139.959 2.83149 140.527L23.2686 140.527L52.8041 110.208C53.2739 110.369 53.7689 110.449 54.2891 110.449C55.5895 110.449 56.6969 109.987 57.6114 109.063C58.5174 108.147 58.9705 107.032 58.9705 105.718C58.9705 104.404 58.5174 103.293 57.6114 102.386ZM54.2891 102.691C55.1197 102.691 55.8286 102.988 56.4158 103.582C57.0031 104.158 57.2967 104.87 57.2967 105.718C57.2967 106.558 57.0031 107.274 56.4158 107.868C55.8286 108.444 55.1197 108.732 54.2891 108.732C53.4585 108.732 52.758 108.444 52.1875 107.868C51.6002 107.274 51.3066 106.558 51.3066 105.718C51.3066 104.87 51.6002 104.158 52.1875 103.582C52.758 102.988 53.4585 102.691 54.2891 102.691ZM54.2891 242.319C55.5895 242.319 56.6969 241.857 57.6113 240.933C58.5174 240.009 58.9705 238.898 58.9705 237.601C58.9705 236.287 58.5174 235.168 57.6113 234.244C56.6969 233.328 55.5895 232.87 54.2891 232.87C53.7689 232.87 53.2739 232.951 52.8041 233.112L23.2686 202.767L2.83149 202.767C2.15193 203.344 2.15193 203.916 2.83149 204.484L22.7274 204.484L51.3695 233.875C51.252 233.977 51.1262 234.099 50.992 234.244C50.0859 235.168 49.6329 236.287 49.6329 237.601C49.6329 238.898 50.0859 240.009 50.992 240.933C51.9064 241.857 53.0055 242.319 54.2891 242.319ZM56.4158 239.725C55.8286 240.318 55.1196 240.615 54.2891 240.615C53.4585 240.615 52.758 240.318 52.1875 239.725C51.6002 239.148 51.3066 238.44 51.3066 237.601C51.3066 236.762 51.6002 236.045 52.1875 235.452C52.758 234.858 53.4585 234.562 54.2891 234.562C55.1196 234.562 55.8286 234.858 56.4158 235.452C57.0031 236.045 57.2967 236.762 57.2967 237.601C57.2967 238.44 57.0031 239.148 56.4158 239.725ZM129.242 265.936C128.562 266.614 128.126 267.394 127.933 268.276L105.143 268.276C104.975 267.394 104.555 266.614 103.884 265.936C102.945 264.987 101.816 264.512 100.499 264.512C99.4586 264.512 98.5442 264.808 97.7555 265.402C97.6465 265.453 97.5542 265.516 97.4787 265.593C97.3612 265.703 97.2438 265.817 97.1263 265.936C96.2035 266.869 95.742 267.996 95.742 269.319C95.742 270.659 96.2035 271.795 97.1263 272.727C98.066 273.66 99.1902 274.126 100.499 274.126C101.816 274.126 102.945 273.66 103.884 272.727C104.639 271.964 105.08 271.078 105.206 270.069L127.87 270.069C128.029 271.078 128.487 271.964 129.242 272.727C130.165 273.66 131.289 274.126 132.614 274.126C133.931 274.126 135.051 273.66 135.974 272.727C136.906 271.795 137.371 270.659 137.371 269.319C137.371 267.996 136.906 266.869 135.974 265.936C135.051 264.987 133.931 264.512 132.614 264.512C131.289 264.512 130.165 264.987 129.242 265.936ZM129.77 268.276C129.921 267.886 130.16 267.53 130.488 267.208C131.075 266.606 131.784 266.305 132.614 266.305C133.445 266.305 134.162 266.606 134.766 267.208C135.337 267.801 135.622 268.518 135.622 269.357C135.622 270.205 135.337 270.93 134.766 271.532C134.162 272.125 133.445 272.422 132.614 272.422C131.784 272.422 131.075 272.125 130.488 271.532C130.06 271.1 129.779 270.612 129.644 270.069C129.611 269.849 129.594 269.612 129.594 269.357C129.594 268.967 129.653 268.607 129.77 268.276ZM103.532 269.357C103.532 269.612 103.498 269.849 103.431 270.069C103.314 270.612 103.054 271.1 102.651 271.532C102.055 272.125 101.338 272.422 100.499 272.422C99.6684 272.422 98.9595 272.125 98.3722 271.532C97.7765 270.93 97.4787 270.205 97.4787 269.357C97.4787 268.518 97.7765 267.801 98.3722 267.208C98.9595 266.606 99.6684 266.305 100.499 266.305C101.338 266.305 102.055 266.606 102.651 267.208C103.238 267.801 103.532 268.518 103.532 269.357ZM207.542 268.696C208.456 267.746 208.913 266.606 208.913 265.275C208.913 263.952 208.456 262.829 207.542 261.905C206.619 260.972 205.499 260.506 204.182 260.506C202.856 260.506 201.745 260.972 200.847 261.905C199.916 262.829 199.45 263.952 199.45 265.275C199.45 266.606 199.916 267.746 200.847 268.696C201.745 269.612 202.856 270.069 204.182 270.069C205.499 270.069 206.619 269.612 207.542 268.696ZM206.686 265.275C206.686 265.987 206.439 266.585 205.944 267.068C205.465 267.56 204.878 267.806 204.182 267.806C203.485 267.806 202.894 267.56 202.407 267.068C201.929 266.585 201.69 265.987 201.69 265.275C201.69 264.571 201.929 263.973 202.407 263.482C202.894 262.998 203.485 262.757 204.182 262.757C204.878 262.757 205.465 262.998 205.944 263.482C206.439 263.973 206.686 264.571 206.686 265.275ZM189.961 282.291L191.232 281.223L150.66 240.335C151.365 240.157 151.982 239.793 152.51 239.242C153.383 238.36 153.819 237.296 153.819 236.049C153.819 234.786 153.383 233.714 152.51 232.832C151.638 231.967 150.585 231.535 149.352 231.535C148.873 231.535 148.416 231.598 147.98 231.725C147.309 231.937 146.713 232.306 146.193 232.832C145.513 233.527 145.098 234.328 144.947 235.236L76.0475 235.236C74.3947 235.219 73.8578 235.816 74.4367 237.029L89.7896 252.354L80.5905 261.549L82.0125 262.871L92.6463 252.366L141.436 252.366L174.432 285L175.766 283.817L141.965 250.382L91.7654 250.382L91.0607 251.082L77.0542 237.181L144.997 237.181C145.199 237.944 145.597 238.631 146.193 239.242C146.713 239.767 147.309 240.132 147.98 240.335C148.131 240.378 148.278 240.42 148.42 240.463L189.961 282.291ZM149.352 238.415C149.075 238.415 148.823 238.373 148.596 238.288C148.513 238.279 148.424 238.241 148.332 238.173C148.215 238.131 148.097 238.063 147.98 237.97C147.896 237.911 147.799 237.834 147.69 237.741C147.237 237.266 147.011 236.702 147.011 236.049C147.011 235.38 147.237 234.82 147.69 234.371C147.799 234.261 147.896 234.167 147.98 234.091C148.374 233.803 148.831 233.659 149.352 233.659C150.014 233.659 150.572 233.896 151.025 234.371C151.487 234.82 151.717 235.38 151.717 236.049C151.717 236.702 151.487 237.266 151.025 237.741C150.572 238.19 150.014 238.415 149.352 238.415ZM198.468 224.807L199.677 222.95L183.631 222.95L167.549 238.708C166.643 239.793 166.643 240.891 167.549 242.001L184.097 258.318C184.835 258.98 185.733 259.052 186.79 258.534L197.537 248.182C197.613 248.267 197.676 248.335 197.726 248.386C198.481 249.149 199.404 249.53 200.495 249.53C200.989 249.53 201.455 249.45 201.891 249.289C201.992 249.255 202.089 249.217 202.181 249.174C202.584 248.979 202.948 248.716 203.276 248.386C204.039 247.606 204.421 246.665 204.421 245.562C204.421 244.477 204.039 243.553 203.276 242.79C202.948 242.459 202.584 242.184 202.181 241.963C201.669 241.726 201.107 241.607 200.495 241.607C199.404 241.607 198.481 242.001 197.726 242.79C197.348 243.18 197.051 243.604 196.832 244.062C196.665 244.528 196.581 245.028 196.581 245.562C196.581 245.995 196.639 246.397 196.757 246.771L186.224 256.919C185.771 257.199 185.36 257.22 184.991 256.983L169.273 241.086C168.786 240.509 168.786 239.971 169.273 239.471L184.386 224.807L198.468 224.807ZM208.737 227.821C208.737 226.498 208.28 225.375 207.366 224.451C206.443 223.518 205.327 223.052 204.018 223.052C202.701 223.052 201.585 223.518 200.671 224.451C199.739 225.375 199.274 226.498 199.274 227.821C199.274 229.152 199.739 230.288 200.671 231.229C201.585 232.154 202.701 232.616 204.018 232.616C205.327 232.616 206.443 232.154 207.366 231.229C208.28 230.288 208.737 229.152 208.737 227.821ZM205.767 226.028C206.262 226.528 206.51 227.126 206.51 227.821C206.51 228.533 206.262 229.131 205.767 229.614C205.289 230.106 204.706 230.352 204.018 230.352C203.313 230.352 202.718 230.106 202.231 229.614C201.753 229.131 201.514 228.533 201.514 227.821C201.514 227.126 201.753 226.528 202.231 226.028C202.718 225.545 203.313 225.303 204.018 225.303C204.706 225.303 205.289 225.545 205.767 226.028Z" fill="#F2F5F4" fill-opacity="0.2"/>
<path d="M164.59 210.406C164.102 209.931 163.511 209.693 162.818 209.693H162.799C162.689 209.693 162.59 209.703 162.5 209.722C161.948 209.766 161.46 209.994 161.036 210.406C160.554 210.887 160.313 211.473 160.313 212.163C160.313 212.847 160.554 213.43 161.036 213.911C161.46 214.329 161.948 214.567 162.5 214.624C162.59 214.63 162.689 214.633 162.799 214.633H162.818C163.511 214.633 164.102 214.393 164.59 213.911C165.079 213.43 165.323 212.847 165.323 212.163C165.323 211.473 165.079 210.887 164.59 210.406ZM162.5 211.118C162.59 211.087 162.689 211.071 162.799 211.071C163.107 211.071 163.367 211.175 163.579 211.384C163.797 211.6 163.906 211.859 163.906 212.163C163.906 212.467 163.797 212.724 163.579 212.933C163.367 213.154 163.107 213.265 162.799 213.265C162.689 213.265 162.59 213.256 162.5 213.237C162.314 213.18 162.147 213.078 161.999 212.933C161.787 212.724 161.681 212.467 161.681 212.163C161.681 211.859 161.787 211.6 161.999 211.384C162.147 211.245 162.314 211.156 162.5 211.118ZM141.808 198.721C140.844 198.721 140.013 199.053 139.313 199.718C138.754 200.288 138.43 200.947 138.34 201.694C138.314 201.853 138.301 202.014 138.301 202.179C138.301 203.122 138.638 203.933 139.313 204.611C140.013 205.295 140.844 205.637 141.808 205.637C142.443 205.637 143.021 205.491 143.542 205.2L146.971 208.306V217.189L162.5 233.177L162.625 233.282L178.26 217.189V208.306L181.709 205.2C182.223 205.491 182.801 205.637 183.443 205.637C184.406 205.637 185.238 205.295 185.938 204.611C186.612 203.933 186.949 203.122 186.949 202.179C186.949 202.014 186.933 201.853 186.901 201.694C186.811 200.947 186.49 200.288 185.938 199.718C185.238 199.053 184.406 198.721 183.443 198.721C182.473 198.721 181.651 199.053 180.977 199.718C180.277 200.409 179.927 201.229 179.927 202.179C179.927 202.609 180.004 203.018 180.158 203.404C180.254 203.664 180.389 203.914 180.562 204.155L176.94 207.499V216.524L162.731 231.325H162.5L148.291 216.524V207.499L144.688 204.155C144.849 203.914 144.983 203.664 145.093 203.404C145.24 203.018 145.314 202.609 145.314 202.179C145.314 201.229 144.967 200.409 144.274 199.718C143.587 199.053 142.765 198.721 141.808 198.721ZM139.553 202.179C139.553 202.014 139.579 201.853 139.63 201.694C139.695 201.302 139.887 200.944 140.208 200.621C140.645 200.196 141.169 199.984 141.779 199.984C142.382 199.984 142.899 200.196 143.33 200.621C143.657 200.944 143.866 201.302 143.956 201.694C143.988 201.853 144.004 202.014 144.004 202.179C144.004 202.78 143.779 203.29 143.33 203.708C142.899 204.139 142.382 204.354 141.779 204.354C141.169 204.354 140.645 204.139 140.208 203.708C139.772 203.29 139.553 202.78 139.553 202.179ZM181.246 202.179C181.246 202.014 181.259 201.853 181.285 201.694C181.375 201.302 181.58 200.944 181.902 200.621C182.332 200.196 182.849 199.984 183.452 199.984C184.063 199.984 184.592 200.196 185.042 200.621C185.35 200.944 185.543 201.302 185.62 201.694C185.659 201.853 185.678 202.014 185.678 202.179C185.678 202.78 185.466 203.29 185.042 203.708C184.592 204.139 184.063 204.354 183.452 204.354C182.849 204.354 182.332 204.139 181.902 203.708C181.465 203.29 181.246 202.78 181.246 202.179ZM162.5 97.8402V86.8012C154.301 86.8557 147.288 89.7468 141.461 95.4747C135.597 101.276 132.666 108.271 132.666 116.46V127.442C131.015 128.069 129.509 129.045 128.148 130.368C125.604 132.883 124.333 135.913 124.333 139.46V175.189C124.333 178.73 125.604 181.751 128.148 184.252C130.691 186.767 133.761 188.024 137.357 188.024H162.5V174.743H154.437L159.071 159.296C158.037 158.846 157.086 158.197 156.219 157.348C154.414 155.562 153.512 153.409 153.512 150.888C153.512 148.355 154.414 146.189 156.219 144.39C157.972 142.68 160.066 141.794 162.5 141.73V126.635H143.869V116.394C143.869 111.264 145.706 106.89 149.379 103.274C153.014 99.6895 157.388 97.8782 162.5 97.8402ZM187.816 67.0982C187.816 68.0862 188.17 68.9253 188.876 69.6157C188.895 69.6347 188.911 69.6473 188.924 69.6537C189.47 70.1983 190.116 70.5245 190.861 70.6322V85.8987L162.625 57.3892L134.38 85.8987V70.6322C135.119 70.5245 135.761 70.1983 136.307 69.6537C136.333 69.6473 136.349 69.6347 136.355 69.6157C137.074 68.9253 137.434 68.0862 137.434 67.0982C137.434 66.1038 137.074 65.252 136.355 64.5427C135.662 63.865 134.811 63.5262 133.802 63.5262C132.794 63.5262 131.933 63.865 131.221 64.5427C130.533 65.252 130.19 66.1038 130.19 67.0982C130.19 68.0862 130.533 68.9253 131.221 69.6157C131.24 69.6347 131.256 69.6473 131.269 69.6537C131.776 70.135 132.361 70.4485 133.022 70.5942V89.1382L162.625 59.4982L192.219 89.1382V70.5942C192.887 70.4485 193.471 70.135 193.972 69.6537C193.991 69.6473 194.004 69.6347 194.011 69.6157C194.711 68.9253 195.061 68.0862 195.061 67.0982C195.061 66.1038 194.711 65.252 194.011 64.5427C193.304 63.865 192.45 63.5262 191.448 63.5262C190.427 63.5262 189.57 63.865 188.876 64.5427C188.17 65.252 187.816 66.1038 187.816 67.0982ZM190.09 65.7492C190.456 65.3882 190.909 65.2077 191.448 65.2077C191.975 65.2077 192.421 65.3882 192.787 65.7492C193.166 66.1165 193.356 66.5662 193.356 67.0982C193.356 67.6238 193.166 68.0703 192.787 68.4377C192.421 68.7987 191.975 68.9792 191.448 68.9792C191.236 68.9792 191.04 68.9602 190.861 68.9222C190.565 68.8145 190.308 68.653 190.09 68.4377C189.717 68.0703 189.531 67.6238 189.531 67.0982C189.531 66.5662 189.717 66.1165 190.09 65.7492ZM132.444 65.7492C132.823 65.3882 133.276 65.2077 133.802 65.2077C134.342 65.2077 134.795 65.3882 135.161 65.7492C135.527 66.1165 135.71 66.5662 135.71 67.0982C135.71 67.6238 135.527 68.0703 135.161 68.4377C134.942 68.653 134.682 68.8145 134.38 68.9222C134.207 68.9602 134.014 68.9792 133.802 68.9792C133.276 68.9792 132.823 68.7987 132.444 68.4377C132.078 68.0703 131.895 67.6238 131.895 67.0982C131.895 66.5662 132.078 66.1165 132.444 65.7492ZM110.152 189.791C109.452 190.481 109.102 191.317 109.102 192.299C109.102 193.268 109.452 194.097 110.152 194.788C110.84 195.472 111.681 195.814 112.676 195.814C113.672 195.814 114.516 195.472 115.21 194.788C115.313 194.686 115.409 194.591 115.499 194.503L137.762 216.125V231.144C138.185 231.657 138.613 231.657 139.043 231.144V215.716L116.077 193.42C116.199 193.065 116.26 192.691 116.26 192.299C116.26 191.317 115.91 190.481 115.21 189.791C114.516 189.107 113.672 188.765 112.676 188.765C111.681 188.765 110.84 189.107 110.152 189.791ZM110.384 192.299C110.384 191.672 110.608 191.137 111.058 190.693C111.495 190.25 112.034 190.028 112.676 190.028C113.312 190.028 113.855 190.25 114.304 190.693C114.741 191.137 114.959 191.672 114.959 192.299C114.959 192.926 114.741 193.455 114.304 193.885C113.855 194.329 113.312 194.55 112.676 194.55C112.034 194.55 111.495 194.329 111.058 193.885C110.608 193.455 110.384 192.926 110.384 192.299ZM216.148 192.299C216.148 191.317 215.798 190.481 215.098 189.791C214.398 189.107 213.557 188.765 212.574 188.765C211.579 188.765 210.731 189.107 210.031 189.791C209.337 190.481 208.99 191.317 208.99 192.299C208.99 192.691 209.051 193.065 209.173 193.42L186.188 215.716V231.144C186.625 231.657 187.059 231.657 187.489 231.144V216.125L209.751 194.503C209.829 194.591 209.922 194.686 210.031 194.788C210.731 195.472 211.579 195.814 212.574 195.814C213.557 195.814 214.398 195.472 215.098 194.788C215.798 194.097 216.148 193.268 216.148 192.299ZM214.183 190.693C214.632 191.137 214.857 191.672 214.857 192.299C214.857 192.926 214.632 193.455 214.183 193.885C213.746 194.329 213.21 194.55 212.574 194.55C211.938 194.55 211.396 194.329 210.946 193.885C210.496 193.455 210.272 192.926 210.272 192.299C210.272 191.672 210.496 191.137 210.946 190.693C211.396 190.25 211.938 190.028 212.574 190.028C213.21 190.028 213.746 190.25 214.183 190.693ZM234.037 135.717C234.551 136.23 235.142 136.559 235.81 136.705V153.909C235.142 154.036 234.551 154.352 234.037 154.859C233.318 155.568 232.958 156.42 232.958 157.415C232.958 158.2 233.183 158.89 233.633 159.486C233.671 159.568 233.719 159.638 233.777 159.695C233.861 159.783 233.947 159.872 234.037 159.961C234.744 160.657 235.598 161.006 236.6 161.006C237.614 161.006 238.475 160.657 239.181 159.961C239.888 159.251 240.241 158.403 240.241 157.415C240.241 156.42 239.888 155.568 239.181 154.859C238.603 154.289 237.932 153.957 237.168 153.862V136.752C237.932 136.632 238.603 136.287 239.181 135.717C239.888 135.02 240.241 134.171 240.241 133.171C240.241 132.176 239.888 131.331 239.181 130.634C238.475 129.931 237.614 129.58 236.6 129.58C235.598 129.58 234.744 129.931 234.037 130.634C233.318 131.331 232.958 132.176 232.958 133.171C232.958 134.171 233.318 135.02 234.037 135.717ZM235.81 135.318C235.514 135.204 235.245 135.023 235 134.776C234.544 134.333 234.316 133.798 234.316 133.171C234.316 132.544 234.544 132.002 235 131.546C235.45 131.115 235.993 130.9 236.628 130.9C237.271 130.9 237.82 131.115 238.276 131.546C238.725 132.002 238.95 132.544 238.95 133.171C238.95 133.798 238.725 134.333 238.276 134.776C237.948 135.099 237.579 135.311 237.168 135.413C237.001 135.438 236.821 135.451 236.628 135.451C236.333 135.451 236.06 135.406 235.81 135.318ZM236.628 155.125C236.821 155.125 237.001 155.15 237.168 155.201C237.579 155.29 237.948 155.486 238.276 155.79C238.725 156.24 238.95 156.781 238.95 157.415C238.95 158.042 238.725 158.577 238.276 159.02C237.82 159.47 237.271 159.695 236.628 159.695C235.993 159.695 235.45 159.47 235 159.02C234.544 158.577 234.316 158.042 234.316 157.415C234.316 156.781 234.544 156.24 235 155.79C235.45 155.347 235.993 155.125 236.628 155.125ZM236.128 76.6077C235.408 75.9173 234.544 75.5722 233.536 75.5722C232.534 75.5722 231.683 75.9173 230.983 76.6077C230.277 77.3043 229.924 78.1498 229.924 79.1442C229.924 80.1448 230.277 80.984 230.983 81.6617C231.683 82.3647 232.534 82.7162 233.536 82.7162C234.544 82.7162 235.408 82.3647 236.128 81.6617C236.821 80.984 237.168 80.1448 237.168 79.1442C237.168 78.1498 236.821 77.3043 236.128 76.6077ZM233.536 77.2537C234.076 77.2537 234.528 77.4405 234.894 77.8142C235.267 78.1752 235.453 78.6185 235.453 79.1442C235.453 79.6698 235.267 80.1163 234.894 80.4837C234.528 80.8447 234.076 81.0252 233.536 81.0252C233.003 81.0252 232.55 80.8447 232.178 80.4837C231.812 80.1163 231.629 79.6698 231.629 79.1442C231.629 78.6185 231.812 78.1752 232.178 77.8142C232.55 77.4405 233.003 77.2537 233.536 77.2537ZM246.426 89.8792L245.616 88.9197L214.645 119.548C214.51 119.016 214.234 118.55 213.817 118.151C213.149 117.492 212.343 117.163 211.399 117.163C210.442 117.163 209.629 117.492 208.962 118.151C208.306 118.81 207.979 119.605 207.979 120.536C207.979 120.897 208.027 121.242 208.123 121.571C208.284 122.078 208.563 122.528 208.962 122.92C209.488 123.433 210.095 123.747 210.782 123.861V175.873C210.769 177.121 211.222 177.526 212.141 177.089L223.749 165.499L230.714 172.444L231.715 171.37L223.758 163.343V126.511L248.477 101.602L247.582 100.595L222.256 126.112V164.008L222.785 164.54L212.256 175.113V123.823C212.834 123.671 213.354 123.37 213.817 122.92C214.215 122.528 214.491 122.078 214.645 121.571C214.677 121.457 214.709 121.346 214.742 121.239L246.426 89.8792ZM213.191 120.536C213.191 120.745 213.158 120.935 213.094 121.106C213.088 121.169 213.059 121.236 213.008 121.305C212.975 121.394 212.924 121.482 212.853 121.571C212.808 121.634 212.751 121.707 212.68 121.79C212.32 122.132 211.893 122.303 211.399 122.303C210.891 122.303 210.468 122.132 210.127 121.79C210.044 121.707 209.973 121.634 209.915 121.571C209.697 121.273 209.588 120.928 209.588 120.536C209.588 120.035 209.768 119.614 210.127 119.272C210.468 118.924 210.891 118.75 211.399 118.75C211.893 118.75 212.32 118.924 212.68 119.272C213.02 119.614 213.191 120.035 213.191 120.536ZM202.883 83.4572L201.476 82.5452V94.6577L213.412 106.799C214.234 107.483 215.066 107.483 215.907 106.799L228.267 94.3062C228.768 93.7488 228.822 93.0712 228.431 92.2732L220.589 84.1602C220.653 84.1032 220.705 84.0557 220.743 84.0177C221.321 83.4477 221.61 82.751 221.61 81.9277C221.61 81.554 221.549 81.2025 221.427 80.8732C221.401 80.7972 221.373 80.7243 221.34 80.6547C221.193 80.3507 220.994 80.0752 220.743 79.8282C220.152 79.2518 219.439 78.9637 218.605 78.9637C217.782 78.9637 217.082 79.2518 216.504 79.8282C216.254 80.0752 216.045 80.3507 215.878 80.6547C215.698 81.041 215.609 81.4653 215.609 81.9277C215.609 82.751 215.907 83.4477 216.504 84.0177C216.8 84.3027 217.121 84.5275 217.468 84.6922C217.821 84.8188 218.2 84.8822 218.605 84.8822C218.932 84.8822 219.237 84.8378 219.52 84.7492L227.207 92.7007C227.419 93.0427 227.435 93.353 227.255 93.6317L215.214 105.497C214.777 105.864 214.369 105.864 213.99 105.497L202.883 94.0877V83.4572ZM205.166 75.7052C204.164 75.7052 203.313 76.0503 202.613 76.7407C201.907 77.4373 201.554 78.2797 201.554 79.2677C201.554 80.262 201.907 81.1043 202.613 81.7947C203.313 82.4977 204.164 82.8492 205.166 82.8492C206.174 82.8492 207.035 82.4977 207.748 81.7947C208.448 81.1043 208.798 80.262 208.798 79.2677C208.798 78.2797 208.448 77.4373 207.748 76.7407C207.035 76.0503 206.174 75.7052 205.166 75.7052ZM203.808 77.9472C204.187 77.5735 204.639 77.3867 205.166 77.3867C205.705 77.3867 206.158 77.5735 206.524 77.9472C206.897 78.3082 207.083 78.7483 207.083 79.2677C207.083 79.7997 206.897 80.2493 206.524 80.6167C206.158 80.9777 205.705 81.1582 205.166 81.1582C204.639 81.1582 204.187 80.9777 203.808 80.6167C203.442 80.2493 203.259 79.7997 203.259 79.2677C203.259 78.7483 203.442 78.3082 203.808 77.9472Z" fill="#F2F5F4"/>
<path d="M162.799 211.071C162.689 211.071 162.59 211.087 162.5 211.118C162.314 211.156 162.147 211.245 161.999 211.384C161.787 211.6 161.681 211.859 161.681 212.163C161.681 212.467 161.787 212.724 161.999 212.933C162.147 213.079 162.314 213.18 162.5 213.237C162.59 213.256 162.689 213.265 162.799 213.265C163.107 213.265 163.367 213.155 163.579 212.933C163.797 212.724 163.906 212.467 163.906 212.163C163.906 211.859 163.797 211.6 163.579 211.384C163.367 211.175 163.107 211.071 162.799 211.071ZM139.63 201.694C139.579 201.853 139.553 202.014 139.553 202.179C139.553 202.781 139.772 203.29 140.208 203.708C140.645 204.139 141.169 204.354 141.779 204.354C142.382 204.354 142.899 204.139 143.33 203.708C143.779 203.29 144.004 202.781 144.004 202.179C144.004 202.014 143.988 201.853 143.956 201.694C143.866 201.302 143.657 200.944 143.33 200.621C142.899 200.197 142.382 199.984 141.779 199.984C141.169 199.984 140.645 200.197 140.208 200.621C139.887 200.944 139.695 201.302 139.63 201.694ZM162.5 141.73C160.066 141.794 157.972 142.68 156.219 144.39C154.414 146.189 153.512 148.355 153.512 150.888C153.512 153.409 154.414 155.562 156.219 157.348C157.086 158.197 158.037 158.846 159.071 159.296L154.437 174.743H162.5V141.73ZM162.5 97.8404C157.388 97.8784 153.014 99.6897 149.379 103.274C145.706 106.891 143.869 111.264 143.869 116.394V126.635H162.5V97.8404ZM133.802 65.2079C133.276 65.2079 132.823 65.3884 132.444 65.7494C132.078 66.1167 131.895 66.5664 131.895 67.0984C131.895 67.624 132.078 68.0705 132.444 68.4379C132.823 68.7989 133.276 68.9794 133.802 68.9794C134.014 68.9794 134.207 68.9604 134.38 68.9224C134.682 68.8147 134.942 68.6532 135.161 68.4379C135.527 68.0705 135.71 67.624 135.71 67.0984C135.71 66.5664 135.527 66.1167 135.161 65.7494C134.795 65.3884 134.342 65.2079 133.802 65.2079ZM162.625 33.6394C162.593 33.6077 162.561 33.576 162.529 33.5444C147.36 47.2307 128.231 57.2785 105.143 63.6879C93.8272 67.0382 81.8979 69.2042 69.3553 70.1859C68.3277 129.092 78.2212 172.02 99.0356 198.968C116.799 224.073 137.954 242.437 162.5 254.058V233.177L146.971 217.189V208.306L143.542 205.2C143.021 205.491 142.443 205.637 141.808 205.637C140.844 205.637 140.013 205.295 139.313 204.611C138.638 203.933 138.301 203.123 138.301 202.179C138.301 202.014 138.314 201.853 138.34 201.694C138.43 200.947 138.754 200.288 139.313 199.718C140.013 199.053 140.844 198.721 141.808 198.721C142.765 198.721 143.587 199.053 144.274 199.718C144.967 200.409 145.314 201.229 145.314 202.179C145.314 202.61 145.24 203.018 145.093 203.404C144.983 203.664 144.849 203.914 144.688 204.155L148.291 207.499V216.524L162.5 231.325V214.624C161.948 214.567 161.46 214.329 161.036 213.911C160.554 213.43 160.313 212.847 160.313 212.163C160.313 211.473 160.554 210.887 161.036 210.406C161.46 209.994 161.948 209.766 162.5 209.722V188.024H137.357C133.761 188.024 130.691 186.767 128.148 184.252C125.604 181.751 124.333 178.73 124.333 175.189V139.46C124.333 135.913 125.604 132.883 128.148 130.368C129.509 129.045 131.015 128.069 132.666 127.442V116.46C132.666 108.271 135.597 101.276 141.461 95.4749C147.288 89.747 154.301 86.8559 162.5 86.8014C162.542 86.8015 162.583 86.8015 162.625 86.8014V59.4984L133.022 89.1384V70.5944C132.361 70.4487 131.776 70.1352 131.269 69.6539C131.256 69.6475 131.24 69.6349 131.221 69.6159C130.533 68.9255 130.19 68.0864 130.19 67.0984C130.19 66.104 130.533 65.2522 131.221 64.5429C131.933 63.8652 132.794 63.5264 133.802 63.5264C134.811 63.5264 135.662 63.8652 136.355 64.5429C137.074 65.2522 137.434 66.104 137.434 67.0984C137.434 68.0864 137.074 68.9255 136.355 69.6159C136.349 69.6349 136.333 69.6475 136.307 69.6539C135.761 70.1985 135.119 70.5247 134.38 70.6324V85.8989L162.625 57.3894V33.6394ZM78.8152 89.8794L79.6148 88.9199L110.586 119.548C110.734 119.016 111.016 118.55 111.434 118.151C112.102 117.493 112.908 117.163 113.852 117.163C114.796 117.163 115.602 117.493 116.27 118.151C116.938 118.81 117.271 119.605 117.271 120.536C117.271 120.897 117.223 121.242 117.127 121.571C116.954 122.078 116.668 122.528 116.27 122.92C115.756 123.433 115.149 123.747 114.449 123.861V175.873C114.468 177.121 114.015 177.526 113.091 177.089L101.502 165.499L94.5272 172.444L93.5253 171.37L101.473 163.343V126.511L76.773 101.602L77.6592 100.595L102.985 126.112V164.008L102.455 164.54L112.985 175.113V123.823C112.407 123.671 111.89 123.37 111.434 122.92C111.036 122.528 110.753 122.078 110.586 121.571C110.554 121.457 110.522 121.347 110.49 121.239L78.8152 89.8794ZM120.075 75.7054C121.083 75.7054 121.937 76.0505 122.637 76.7409C123.344 77.4375 123.697 78.2799 123.697 79.2679C123.697 80.2622 123.344 81.1045 122.637 81.7949C121.937 82.4979 121.083 82.8494 120.075 82.8494C119.06 82.8494 118.2 82.4979 117.493 81.7949C116.799 81.1045 116.453 80.2622 116.453 79.2679C116.453 78.2799 116.799 77.4375 117.493 76.7409C118.2 76.0505 119.06 75.7054 120.075 75.7054ZM122.368 83.4574L123.764 82.5454V94.6579L111.838 106.799C111.003 107.483 110.172 107.483 109.343 106.799L96.9644 94.3064C96.4763 93.749 96.425 93.0714 96.8103 92.2734L104.652 84.1604C104.594 84.1034 104.546 84.0559 104.507 84.0179C103.929 83.4479 103.64 82.7512 103.64 81.9279C103.64 81.5542 103.695 81.2027 103.804 80.8734C103.83 80.7974 103.859 80.7245 103.891 80.6549C104.039 80.3509 104.244 80.0754 104.507 79.8284C105.092 79.252 105.798 78.9639 106.627 78.9639C107.462 78.9639 108.168 79.252 108.746 79.8284C108.996 80.0754 109.199 80.3509 109.353 80.6549C109.533 81.0412 109.623 81.4655 109.623 81.9279C109.623 82.7512 109.33 83.4479 108.746 84.0179C108.444 84.3029 108.117 84.5277 107.763 84.6924C107.423 84.819 107.044 84.8824 106.627 84.8824C106.306 84.8824 106 84.838 105.711 84.7494L98.0337 92.7009C97.8282 93.0429 97.8154 93.3532 97.9952 93.6319L110.027 105.497C110.458 105.865 110.865 105.865 111.251 105.497L122.368 94.0879V83.4574ZM94.2575 76.6079C94.9639 77.3045 95.3171 78.15 95.3171 79.1444C95.3171 80.145 94.9639 80.9842 94.2575 81.6619C93.5639 82.3649 92.7129 82.7164 91.7046 82.7164C90.6899 82.7164 89.8293 82.3649 89.1229 81.6619C88.4229 80.9842 88.0729 80.145 88.0729 79.1444C88.0729 78.15 88.4229 77.3045 89.1229 76.6079C89.8293 75.9175 90.6899 75.5724 91.7046 75.5724C92.7129 75.5724 93.5639 75.9175 94.2575 76.6079ZM88.6316 129.58C89.6335 129.58 90.494 129.931 91.2133 130.634C91.9198 131.331 92.273 132.177 92.273 133.171C92.273 134.172 91.9198 135.02 91.2133 135.717C90.6931 136.23 90.1023 136.559 89.4408 136.705V153.909C90.1023 154.036 90.6931 154.353 91.2133 154.859C91.9198 155.569 92.273 156.421 92.273 157.415C92.273 158.2 92.0546 158.891 91.6179 159.486C91.5665 159.568 91.512 159.638 91.4542 159.695C91.3835 159.784 91.3032 159.872 91.2133 159.961C90.494 160.658 89.6335 161.006 88.6316 161.006C87.6233 161.006 86.7659 160.658 86.0595 159.961C85.3466 159.252 84.9902 158.403 84.9902 157.415C84.9902 156.421 85.3466 155.569 86.0595 154.859C86.6375 154.289 87.3086 153.957 88.0729 153.862V136.752C87.3086 136.632 86.6375 136.287 86.0595 135.717C85.3466 135.02 84.9902 134.172 84.9902 133.171C84.9902 132.177 85.3466 131.331 86.0595 130.634C86.7659 129.931 87.6233 129.58 88.6316 129.58ZM109.102 192.299C109.102 191.317 109.452 190.481 110.152 189.791C110.84 189.107 111.681 188.765 112.676 188.765C113.672 188.765 114.516 189.107 115.21 189.791C115.91 190.481 116.26 191.317 116.26 192.299C116.26 192.692 116.199 193.065 116.077 193.42L139.043 215.716V231.144C138.613 231.657 138.185 231.657 137.762 231.144V216.125L115.499 194.503C115.409 194.592 115.313 194.687 115.21 194.788C114.516 195.472 113.672 195.814 112.676 195.814C111.681 195.814 110.84 195.472 110.152 194.788C109.452 194.098 109.102 193.268 109.102 192.299ZM111.058 190.693C110.608 191.137 110.384 191.672 110.384 192.299C110.384 192.926 110.608 193.455 111.058 193.885C111.495 194.329 112.034 194.55 112.676 194.55C113.312 194.55 113.855 194.329 114.304 193.885C114.741 193.455 114.959 192.926 114.959 192.299C114.959 191.672 114.741 191.137 114.304 190.693C113.855 190.25 113.312 190.028 112.676 190.028C112.034 190.028 111.495 190.25 111.058 190.693ZM90.934 157.415C90.934 156.782 90.6995 156.24 90.2307 155.79C89.794 155.347 89.2545 155.125 88.6123 155.125C88.4132 155.125 88.2334 155.151 88.0729 155.201C87.6554 155.29 87.2893 155.486 86.9747 155.79C86.5251 156.24 86.3003 156.782 86.3003 157.415C86.3003 158.042 86.5251 158.577 86.9747 159.02C87.4306 159.47 87.9765 159.695 88.6123 159.695C89.2545 159.695 89.794 159.47 90.2307 159.02C90.6995 158.577 90.934 158.042 90.934 157.415ZM90.2307 131.546C89.794 131.116 89.2545 130.9 88.6123 130.9C87.9765 130.9 87.4306 131.116 86.9747 131.546C86.5251 132.002 86.3003 132.544 86.3003 133.171C86.3003 133.798 86.5251 134.333 86.9747 134.776C87.2893 135.099 87.6554 135.312 88.0729 135.413C88.2334 135.438 88.4132 135.451 88.6123 135.451C88.9142 135.451 89.1903 135.407 89.4408 135.318C89.7362 135.204 89.9995 135.023 90.2307 134.776C90.6995 134.333 90.934 133.798 90.934 133.171C90.934 132.544 90.6995 132.002 90.2307 131.546ZM93.6217 79.1444C93.6217 78.6187 93.4322 78.1754 93.0533 77.8144C92.6808 77.4407 92.2312 77.2539 91.7046 77.2539C91.1652 77.2539 90.7124 77.4407 90.3463 77.8144C89.9803 78.1754 89.7972 78.6187 89.7972 79.1444C89.7972 79.67 89.9803 80.1165 90.3463 80.4839C90.7124 80.8449 91.1652 81.0254 91.7046 81.0254C92.2312 81.0254 92.6808 80.8449 93.0533 80.4839C93.4322 80.1165 93.6217 79.67 93.6217 79.1444ZM121.423 77.9474C121.057 77.5737 120.608 77.3869 120.075 77.3869C119.542 77.3869 119.089 77.5737 118.716 77.9474C118.35 78.3084 118.167 78.7485 118.167 79.2679C118.167 79.7999 118.35 80.2495 118.716 80.6169C119.089 80.9779 119.542 81.1584 120.075 81.1584C120.608 81.1584 121.057 80.9779 121.423 80.6169C121.802 80.2495 121.992 79.7999 121.992 79.2679C121.992 78.7485 121.802 78.3084 121.423 77.9474ZM115.123 119.272C114.783 118.924 114.359 118.75 113.852 118.75C113.344 118.75 112.917 118.924 112.57 119.272C112.217 119.614 112.041 120.036 112.041 120.536C112.041 120.745 112.073 120.935 112.137 121.106C112.156 121.169 112.185 121.236 112.224 121.305C112.256 121.394 112.31 121.483 112.387 121.571C112.426 121.635 112.487 121.708 112.57 121.79C112.917 122.132 113.344 122.303 113.852 122.303C114.359 122.303 114.783 122.132 115.123 121.79C115.194 121.708 115.258 121.635 115.316 121.571C115.547 121.274 115.663 120.929 115.663 120.536C115.663 120.036 115.483 119.614 115.123 119.272ZM162.625 4.36035C162.593 4.39202 162.561 4.42052 162.529 4.44585V25.3554C190.864 48.624 224.102 61.4142 262.244 63.7259C263.387 93.0682 261.319 120.653 256.04 146.48C246.413 194.373 215.243 232.617 162.529 261.212H162.5V278.863L162.529 278.891C204.312 258.333 235.922 227.769 257.359 187.197C273.569 150.806 280.084 105.26 276.905 50.5589C230.254 49.8179 192.161 34.4184 162.625 4.36035Z" fill="#2F9DD6"/>
<path d="M181.285 201.694C181.259 201.853 181.246 202.014 181.246 202.179C181.246 202.78 181.465 203.29 181.902 203.708C182.332 204.139 182.849 204.354 183.452 204.354C184.063 204.354 184.592 204.139 185.042 203.708C185.466 203.29 185.678 202.78 185.678 202.179C185.678 202.014 185.659 201.853 185.62 201.694C185.543 201.302 185.35 200.944 185.042 200.621C184.592 200.196 184.063 199.984 183.452 199.984C182.849 199.984 182.332 200.196 181.902 200.621C181.58 200.944 181.375 201.302 181.285 201.694ZM162.799 141.73H162.5V174.743H171.729L167.047 159.058C167.869 158.628 168.64 158.058 169.359 157.348C171.183 155.562 172.095 153.409 172.095 150.888C172.095 148.355 171.183 146.189 169.359 144.39C167.548 142.617 165.361 141.73 162.799 141.73ZM162.683 97.8402C162.625 97.8402 162.564 97.8402 162.5 97.8402V126.635H181.516V116.394C181.516 111.264 179.679 106.89 176.006 103.274C172.332 99.6515 167.891 97.8402 162.683 97.8402ZM191.448 65.2077C190.909 65.2077 190.456 65.3882 190.09 65.7492C189.717 66.1165 189.531 66.5662 189.531 67.0982C189.531 67.6238 189.717 68.0703 190.09 68.4377C190.308 68.653 190.565 68.8145 190.861 68.9222C191.04 68.9602 191.236 68.9792 191.448 68.9792C191.975 68.9792 192.421 68.7987 192.787 68.4377C193.166 68.0703 193.356 67.6238 193.356 67.0982C193.356 66.5662 193.166 66.1165 192.787 65.7492C192.421 65.3882 191.975 65.2077 191.448 65.2077ZM255.712 70.1857C243.17 69.204 231.24 67.038 219.924 63.6877C196.856 57.2783 177.756 47.2622 162.625 33.6392V57.3892L190.861 85.8987V70.6322C190.116 70.5245 189.47 70.1983 188.924 69.6537C188.911 69.6473 188.895 69.6347 188.876 69.6157C188.17 68.9253 187.816 68.0862 187.816 67.0982C187.816 66.1038 188.17 65.252 188.876 64.5427C189.57 63.865 190.427 63.5262 191.448 63.5262C192.45 63.5262 193.304 63.865 194.011 64.5427C194.711 65.252 195.061 66.1038 195.061 67.0982C195.061 68.0862 194.711 68.9253 194.011 69.6157C194.004 69.6347 193.991 69.6473 193.972 69.6537C193.471 70.135 192.887 70.4485 192.219 70.5942V89.1382L162.625 59.4982V86.8012C162.664 86.8012 162.709 86.8012 162.76 86.8012C171.064 86.8012 178.151 89.6923 184.021 95.4747C189.897 101.276 192.835 108.271 192.835 116.46V127.357C194.595 127.965 196.188 128.969 197.613 130.368C200.163 132.883 201.438 135.913 201.438 139.46V175.189C201.438 178.73 200.163 181.751 197.613 184.252C195.083 186.767 192.017 188.024 188.414 188.024H162.5V209.722C162.59 209.703 162.689 209.693 162.799 209.693H162.818C163.512 209.693 164.102 209.931 164.59 210.406C165.079 210.887 165.323 211.473 165.323 212.163C165.323 212.847 165.079 213.43 164.59 213.911C164.102 214.393 163.512 214.633 162.818 214.633H162.799C162.689 214.633 162.59 214.63 162.5 214.624V231.325H162.731L176.94 216.524V207.499L180.562 204.155C180.389 203.914 180.254 203.664 180.158 203.404C180.004 203.018 179.927 202.609 179.927 202.179C179.927 201.229 180.277 200.409 180.977 199.718C181.651 199.053 182.473 198.721 183.443 198.721C184.406 198.721 185.238 199.053 185.938 199.718C186.49 200.288 186.811 200.947 186.901 201.694C186.933 201.853 186.949 202.014 186.949 202.179C186.949 203.122 186.612 203.933 185.938 204.611C185.238 205.295 184.406 205.637 183.443 205.637C182.801 205.637 182.223 205.491 181.709 205.2L178.26 208.306V217.189L162.625 233.282L162.5 233.177V254.058L162.529 254.077C187.094 242.449 208.262 224.079 226.032 198.968C246.846 172.019 256.74 129.092 255.712 70.1857ZM202.613 76.7407C203.313 76.0503 204.164 75.7052 205.166 75.7052C206.174 75.7052 207.035 76.0503 207.748 76.7407C208.448 77.4373 208.798 78.2797 208.798 79.2677C208.798 80.262 208.448 81.1043 207.748 81.7947C207.035 82.4977 206.174 82.8492 205.166 82.8492C204.164 82.8492 203.313 82.4977 202.613 81.7947C201.907 81.1043 201.554 80.262 201.554 79.2677C201.554 78.2797 201.907 77.4373 202.613 76.7407ZM201.476 82.5452L202.883 83.4572V94.0877L213.99 105.497C214.369 105.865 214.777 105.865 215.214 105.497L227.255 93.6317C227.435 93.353 227.419 93.0427 227.207 92.7007L219.52 84.7492C219.237 84.8378 218.932 84.8822 218.605 84.8822C218.2 84.8822 217.821 84.8188 217.468 84.6922C217.121 84.5275 216.8 84.3027 216.504 84.0177C215.907 83.4477 215.609 82.751 215.609 81.9277C215.609 81.4653 215.698 81.041 215.878 80.6547C216.045 80.3507 216.254 80.0752 216.504 79.8282C217.082 79.2518 217.782 78.9637 218.605 78.9637C219.439 78.9637 220.152 79.2518 220.743 79.8282C220.994 80.0752 221.193 80.3507 221.34 80.6547C221.373 80.7243 221.401 80.7972 221.427 80.8732C221.549 81.2025 221.61 81.554 221.61 81.9277C221.61 82.751 221.321 83.4477 220.743 84.0177C220.705 84.0557 220.653 84.1032 220.589 84.1602L228.431 92.2732C228.822 93.0712 228.768 93.7488 228.267 94.3062L215.907 106.799C215.066 107.483 214.234 107.483 213.412 106.799L201.476 94.6577V82.5452ZM245.616 88.9197L246.426 89.8792L214.742 121.239C214.709 121.346 214.677 121.457 214.645 121.571C214.491 122.078 214.215 122.528 213.817 122.92C213.354 123.37 212.834 123.671 212.256 123.823V175.113L222.785 164.54L222.256 164.008V126.112L247.582 100.595L248.477 101.602L223.758 126.511V163.343L231.715 171.37L230.714 172.444L223.749 165.499L212.141 177.089C211.222 177.526 210.769 177.121 210.782 175.873V123.861C210.095 123.747 209.488 123.433 208.962 122.92C208.563 122.528 208.284 122.078 208.123 121.571C208.027 121.242 207.979 120.897 207.979 120.536C207.979 119.605 208.307 118.81 208.962 118.151C209.629 117.492 210.442 117.163 211.399 117.163C212.343 117.163 213.149 117.492 213.817 118.151C214.234 118.55 214.51 119.016 214.645 119.548L245.616 88.9197ZM233.536 75.5722C234.544 75.5722 235.408 75.9173 236.128 76.6077C236.821 77.3043 237.168 78.1498 237.168 79.1442C237.168 80.1448 236.821 80.984 236.128 81.6617C235.408 82.3647 234.544 82.7162 233.536 82.7162C232.534 82.7162 231.683 82.3647 230.983 81.6617C230.277 80.984 229.924 80.1448 229.924 79.1442C229.924 78.1498 230.277 77.3043 230.983 76.6077C231.683 75.9173 232.534 75.5722 233.536 75.5722ZM235.81 136.705C235.142 136.559 234.551 136.23 234.037 135.717C233.318 135.02 232.958 134.171 232.958 133.171C232.958 132.176 233.318 131.331 234.037 130.634C234.744 129.931 235.598 129.58 236.6 129.58C237.614 129.58 238.475 129.931 239.181 130.634C239.888 131.331 240.241 132.176 240.241 133.171C240.241 134.171 239.888 135.02 239.181 135.717C238.603 136.287 237.932 136.632 237.168 136.752V153.862C237.932 153.957 238.603 154.289 239.181 154.859C239.888 155.569 240.241 156.42 240.241 157.415C240.241 158.403 239.888 159.251 239.181 159.961C238.475 160.657 237.614 161.006 236.6 161.006C235.598 161.006 234.744 160.657 234.037 159.961C233.947 159.872 233.861 159.783 233.777 159.695C233.719 159.638 233.671 159.568 233.633 159.486C233.183 158.89 232.958 158.2 232.958 157.415C232.958 156.42 233.318 155.569 234.037 154.859C234.551 154.353 235.142 154.036 235.81 153.909V136.705ZM215.098 189.791C215.798 190.481 216.148 191.317 216.148 192.299C216.148 193.268 215.798 194.097 215.098 194.788C214.398 195.472 213.557 195.814 212.574 195.814C211.579 195.814 210.731 195.472 210.031 194.788C209.922 194.686 209.829 194.591 209.751 194.503L187.489 216.125V231.144C187.059 231.657 186.625 231.657 186.188 231.144V215.716L209.173 193.42C209.051 193.065 208.99 192.691 208.99 192.299C208.99 191.317 209.337 190.481 210.031 189.791C210.731 189.107 211.579 188.765 212.574 188.765C213.557 188.765 214.398 189.107 215.098 189.791ZM214.857 192.299C214.857 191.672 214.632 191.137 214.183 190.693C213.746 190.25 213.21 190.028 212.574 190.028C211.938 190.028 211.396 190.25 210.946 190.693C210.496 191.137 210.272 191.672 210.272 192.299C210.272 192.926 210.496 193.455 210.946 193.885C211.396 194.329 211.938 194.55 212.574 194.55C213.21 194.55 213.746 194.329 214.183 193.885C214.632 193.455 214.857 192.926 214.857 192.299ZM237.168 155.201C237.001 155.15 236.821 155.125 236.628 155.125C235.993 155.125 235.45 155.347 235 155.79C234.544 156.24 234.316 156.781 234.316 157.415C234.316 158.042 234.544 158.577 235 159.02C235.45 159.47 235.993 159.695 236.628 159.695C237.271 159.695 237.82 159.47 238.276 159.02C238.725 158.577 238.95 158.042 238.95 157.415C238.95 156.781 238.725 156.24 238.276 155.79C237.948 155.486 237.579 155.29 237.168 155.201ZM235 134.776C235.245 135.023 235.514 135.204 235.81 135.318C236.06 135.406 236.333 135.451 236.628 135.451C236.821 135.451 237.001 135.438 237.168 135.413C237.579 135.311 237.948 135.099 238.276 134.776C238.725 134.333 238.95 133.798 238.95 133.171C238.95 132.544 238.725 132.002 238.276 131.546C237.82 131.115 237.271 130.9 236.628 130.9C235.993 130.9 235.45 131.115 235 131.546C234.544 132.002 234.316 132.544 234.316 133.171C234.316 133.798 234.544 134.333 235 134.776ZM234.894 77.8142C234.528 77.4405 234.076 77.2537 233.536 77.2537C233.003 77.2537 232.55 77.4405 232.178 77.8142C231.812 78.1752 231.629 78.6185 231.629 79.1442C231.629 79.6698 231.812 80.1163 232.178 80.4837C232.55 80.8447 233.003 81.0252 233.536 81.0252C234.076 81.0252 234.528 80.8447 234.894 80.4837C235.267 80.1163 235.453 79.6698 235.453 79.1442C235.453 78.6185 235.267 78.1752 234.894 77.8142ZM213.094 121.106C213.158 120.935 213.191 120.745 213.191 120.536C213.191 120.035 213.02 119.614 212.68 119.272C212.32 118.924 211.893 118.75 211.399 118.75C210.891 118.75 210.468 118.924 210.127 119.272C209.768 119.614 209.588 120.035 209.588 120.536C209.588 120.928 209.697 121.273 209.915 121.571C209.973 121.634 210.044 121.707 210.127 121.79C210.468 122.132 210.891 122.303 211.399 122.303C211.893 122.303 212.32 122.132 212.68 121.79C212.751 121.707 212.808 121.634 212.853 121.571C212.924 121.482 212.975 121.394 213.008 121.305C213.059 121.236 213.088 121.169 213.094 121.106ZM205.166 77.3867C204.639 77.3867 204.187 77.5735 203.808 77.9472C203.442 78.3082 203.259 78.7483 203.259 79.2677C203.259 79.7997 203.442 80.2493 203.808 80.6167C204.187 80.9777 204.639 81.1582 205.166 81.1582C205.705 81.1582 206.158 80.9777 206.524 80.6167C206.897 80.2493 207.083 79.7997 207.083 79.2677C207.083 78.7483 206.897 78.3082 206.524 77.9472C206.158 77.5735 205.705 77.3867 205.166 77.3867Z" fill="#2887B8"/>
<path d="M162.625 86.8015C162.583 86.8016 162.542 86.8016 162.5 86.8015V97.8405C162.564 97.8405 162.625 97.8405 162.683 97.8405C167.891 97.8405 172.332 99.6518 176.006 103.274C179.679 106.891 181.516 111.264 181.516 116.394V126.635H162.5V141.73H162.799C165.361 141.73 167.548 142.617 169.359 144.39C171.183 146.189 172.095 148.355 172.095 150.888C172.095 153.409 171.183 155.562 169.359 157.348C168.64 158.058 167.869 158.628 167.047 159.058L171.729 174.743H162.5V188.024H188.414C192.017 188.024 195.083 186.767 197.613 184.252C200.163 181.751 201.438 178.73 201.438 175.189V139.46C201.438 135.913 200.163 132.883 197.613 130.368C196.188 128.969 194.595 127.965 192.835 127.357V116.46C192.835 108.271 189.897 101.276 184.021 95.475C178.151 89.6926 171.064 86.8015 162.76 86.8015C162.709 86.8015 162.664 86.8015 162.625 86.8015ZM219.924 63.688C231.24 67.0383 243.17 69.2043 255.712 70.186C256.74 129.092 246.846 172.02 226.032 198.968C208.262 224.08 187.094 242.449 162.529 254.077H162.5V261.202C162.519 261.202 162.529 261.206 162.529 261.212C215.243 232.617 246.413 194.373 256.04 146.48C261.319 120.653 263.387 93.0683 262.244 63.726C224.102 61.4143 190.864 48.6241 162.529 25.3555V33.5445C162.561 33.5761 162.593 33.6078 162.625 33.6395C177.756 47.2625 196.856 57.2786 219.924 63.688Z" fill="#D8D8D8"/>
<path d="M162.529 25.3553V4.4458C132.897 34.4468 94.768 49.8178 48.1427 50.5588C44.9765 105.26 51.4983 150.806 67.708 187.197C89.1454 227.769 120.743 258.324 162.5 278.863V261.212V261.202C109.812 232.614 78.6483 194.373 69.0085 146.48C63.7423 120.653 61.6775 93.0681 62.8143 63.7258C100.962 61.4268 134.2 48.6366 162.529 25.3553Z" fill="#38B9FC"/>
<path d="M162.529 33.5445V25.3555C134.2 48.6368 100.962 61.427 62.8143 63.726C61.6775 93.0683 63.7423 120.653 69.0085 146.48C78.6483 194.373 109.812 232.614 162.5 261.202V254.077V254.058C137.954 242.437 116.799 224.073 99.0356 198.968C78.2212 172.02 68.3278 129.092 69.3553 70.186C81.8979 69.2043 93.8272 67.0383 105.143 63.688C128.231 57.2786 147.36 47.2308 162.529 33.5445Z" fill="#FBFFFD"/>
<path d="M91.2133 130.634C90.494 129.931 89.6335 129.58 88.6316 129.58C87.6233 129.58 86.7659 129.931 86.0595 130.634C85.3466 131.331 84.9902 132.176 84.9902 133.171C84.9902 134.171 85.3466 135.02 86.0595 135.717C86.6375 136.287 87.3086 136.632 88.0729 136.752V153.862C87.3086 153.957 86.6375 154.289 86.0595 154.859C85.3466 155.569 84.9902 156.42 84.9902 157.415C84.9902 158.403 85.3466 159.251 86.0595 159.961C86.7659 160.657 87.6233 161.006 88.6316 161.006C89.6335 161.006 90.494 160.657 91.2133 159.961C91.3032 159.872 91.3835 159.783 91.4542 159.695C91.512 159.638 91.5666 159.568 91.6179 159.486C92.0546 158.89 92.273 158.2 92.273 157.415C92.273 156.42 91.9198 155.569 91.2133 154.859C90.6931 154.353 90.1023 154.036 89.4408 153.909V136.705C90.1023 136.559 90.6931 136.23 91.2133 135.717C91.9198 135.02 92.273 134.171 92.273 133.171C92.273 132.176 91.9198 131.331 91.2133 130.634ZM88.6123 130.9C89.2546 130.9 89.794 131.116 90.2307 131.546C90.6996 132.002 90.934 132.544 90.934 133.171C90.934 133.798 90.6996 134.333 90.2307 134.776C89.9995 135.023 89.7362 135.204 89.4408 135.318C89.1903 135.406 88.9142 135.451 88.6123 135.451C88.4132 135.451 88.2334 135.438 88.0729 135.413C87.6554 135.311 87.2894 135.099 86.9747 134.776C86.5251 134.333 86.3003 133.798 86.3003 133.171C86.3003 132.544 86.5251 132.002 86.9747 131.546C87.4306 131.116 87.9765 130.9 88.6123 130.9ZM90.2307 155.79C90.6996 156.24 90.934 156.781 90.934 157.415C90.934 158.042 90.6996 158.577 90.2307 159.02C89.794 159.47 89.2546 159.695 88.6123 159.695C87.9765 159.695 87.4306 159.47 86.9747 159.02C86.5251 158.577 86.3003 158.042 86.3003 157.415C86.3003 156.781 86.5251 156.24 86.9747 155.79C87.2894 155.486 87.6554 155.29 88.0729 155.201C88.2334 155.151 88.4132 155.125 88.6123 155.125C89.2546 155.125 89.794 155.347 90.2307 155.79ZM95.3171 79.1443C95.3171 78.1499 94.9639 77.3044 94.2575 76.6078C93.5639 75.9174 92.7129 75.5723 91.7046 75.5723C90.6899 75.5723 89.8293 75.9174 89.1229 76.6078C88.4229 77.3044 88.0729 78.1499 88.0729 79.1443C88.0729 80.1449 88.4229 80.9841 89.1229 81.6618C89.8293 82.3648 90.6899 82.7163 91.7046 82.7163C92.7129 82.7163 93.5639 82.3648 94.2575 81.6618C94.9639 80.9841 95.3171 80.1449 95.3171 79.1443ZM93.0533 77.8143C93.4322 78.1753 93.6217 78.6186 93.6217 79.1443C93.6217 79.6699 93.4322 80.1164 93.0533 80.4838C92.6808 80.8448 92.2313 81.0253 91.7046 81.0253C91.1652 81.0253 90.7124 80.8448 90.3463 80.4838C89.9803 80.1164 89.7972 79.6699 89.7972 79.1443C89.7972 78.6186 89.9803 78.1753 90.3463 77.8143C90.7124 77.4406 91.1652 77.2538 91.7046 77.2538C92.2313 77.2538 92.6808 77.4406 93.0533 77.8143ZM123.764 82.5453L122.368 83.4573V94.0878L111.251 105.497C110.865 105.865 110.458 105.865 110.027 105.497L97.9952 93.6318C97.8154 93.3531 97.8282 93.0428 98.0337 92.7008L105.711 84.7493C106 84.8379 106.306 84.8823 106.627 84.8823C107.044 84.8823 107.423 84.8189 107.763 84.6923C108.117 84.5276 108.444 84.3028 108.746 84.0178C109.33 83.4478 109.623 82.7511 109.623 81.9278C109.623 81.4654 109.533 81.0411 109.353 80.6548C109.199 80.3508 108.996 80.0753 108.746 79.8283C108.168 79.2519 107.462 78.9638 106.627 78.9638C105.798 78.9638 105.092 79.2519 104.507 79.8283C104.244 80.0753 104.039 80.3508 103.891 80.6548C103.859 80.7244 103.83 80.7973 103.804 80.8733C103.695 81.2026 103.64 81.5541 103.64 81.9278C103.64 82.7511 103.929 83.4478 104.507 84.0178C104.546 84.0558 104.594 84.1033 104.652 84.1603L96.8103 92.2733C96.425 93.0713 96.4763 93.7489 96.9644 94.3063L109.343 106.799C110.172 107.483 111.003 107.483 111.838 106.799L123.764 94.6578V82.5453ZM122.637 76.7408C121.937 76.0504 121.083 75.7053 120.075 75.7053C119.06 75.7053 118.2 76.0504 117.493 76.7408C116.799 77.4374 116.453 78.2798 116.453 79.2678C116.453 80.2621 116.799 81.1044 117.493 81.7948C118.2 82.4978 119.06 82.8493 120.075 82.8493C121.083 82.8493 121.937 82.4978 122.637 81.7948C123.344 81.1044 123.697 80.2621 123.697 79.2678C123.697 78.2798 123.344 77.4374 122.637 76.7408ZM120.075 77.3868C120.608 77.3868 121.057 77.5736 121.423 77.9473C121.802 78.3083 121.992 78.7484 121.992 79.2678C121.992 79.7998 121.802 80.2494 121.423 80.6168C121.057 80.9778 120.608 81.1583 120.075 81.1583C119.542 81.1583 119.089 80.9778 118.716 80.6168C118.35 80.2494 118.167 79.7998 118.167 79.2678C118.167 78.7484 118.35 78.3083 118.716 77.9473C119.089 77.5736 119.542 77.3868 120.075 77.3868ZM79.6148 88.9198L78.8152 89.8793L110.49 121.239C110.522 121.346 110.554 121.457 110.586 121.571C110.753 122.078 111.036 122.528 111.434 122.92C111.89 123.37 112.407 123.671 112.985 123.823V175.113L102.455 164.54L102.985 164.008V126.112L77.6592 100.595L76.773 101.602L101.473 126.511V163.343L93.5253 171.37L94.5272 172.444L101.502 165.499L113.091 177.089C114.015 177.526 114.468 177.121 114.449 175.873V123.861C115.149 123.747 115.756 123.433 116.27 122.92C116.668 122.528 116.954 122.078 117.127 121.571C117.223 121.242 117.271 120.897 117.271 120.536C117.271 119.605 116.938 118.81 116.27 118.151C115.602 117.493 114.796 117.163 113.852 117.163C112.908 117.163 112.102 117.493 111.434 118.151C111.016 118.55 110.734 119.016 110.586 119.548L79.6148 88.9198ZM113.852 118.75C114.359 118.75 114.783 118.924 115.123 119.272C115.483 119.614 115.663 120.035 115.663 120.536C115.663 120.928 115.547 121.274 115.316 121.571C115.258 121.635 115.194 121.707 115.123 121.79C114.783 122.132 114.359 122.303 113.852 122.303C113.344 122.303 112.917 122.132 112.57 121.79C112.487 121.707 112.426 121.635 112.387 121.571C112.31 121.483 112.256 121.394 112.224 121.305C112.185 121.236 112.156 121.169 112.137 121.106C112.073 120.935 112.041 120.745 112.041 120.536C112.041 120.035 112.217 119.614 112.57 119.272C112.917 118.924 113.344 118.75 113.852 118.75Z" fill="#FDFFFF"/>
</svg>
