<svg width="348" height="628" viewBox="0 0 348 628" fill="none" xmlns="http://www.w3.org/2000/svg">
<path fill-rule="evenodd" clip-rule="evenodd" d="M33 215H313C332.33 215 348 199.33 348 180C348 160.67 332.33 145 313 145H33V148H313C330.673 148 345 162.327 345 180C345 197.673 330.673 212 313 212H33V215Z" fill="white" fill-opacity="0.07"/>
<path fill-rule="evenodd" clip-rule="evenodd" d="M206 281.986C205.665 281.995 205.328 282 204.99 282H35C15.6701 282 3.43323e-05 266.33 3.43323e-05 247C3.43323e-05 227.67 15.6701 212 35.0001 212H204.99C205.328 212 205.665 212.005 206 212.014V215.016C205.665 215.005 205.328 215 204.99 215H35.0001C17.327 215 3.00003 229.327 3.00003 247C3.00003 264.673 17.3269 279 35 279H204.99C205.328 279 205.665 278.995 206 278.984V281.986Z" fill="white" fill-opacity="0.07"/>
<path fill-rule="evenodd" clip-rule="evenodd" d="M33 349H313C332.33 349 348 333.33 348 314C348 294.67 332.33 279 313 279H33V282H313C330.673 282 345 296.327 345 314C345 331.673 330.673 346 313 346H33V349Z" fill="white" fill-opacity="0.07"/>
<path fill-rule="evenodd" clip-rule="evenodd" d="M206 415.986C205.665 415.995 205.328 416 204.99 416H35C15.6701 416 3.43323e-05 400.33 3.43323e-05 381C3.43323e-05 361.67 15.6701 346 35.0001 346H204.99C205.328 346 205.665 346.005 206 346.014V349.016C205.665 349.005 205.328 349 204.99 349H35.0001C17.327 349 3.00003 363.327 3.00003 381C3.00003 398.673 17.3269 413 35 413H204.99C205.328 413 205.665 412.995 206 412.984V415.986Z" fill="white" fill-opacity="0.07"/>
<path fill-rule="evenodd" clip-rule="evenodd" d="M33 483H313C332.33 483 348 467.33 348 448C348 428.67 332.33 413 313 413H33V416H313C330.673 416 345 430.327 345 448C345 465.673 330.673 480 313 480H33V483Z" fill="white" fill-opacity="0.07"/>
<path fill-rule="evenodd" clip-rule="evenodd" d="M206 549.986C205.665 549.995 205.328 550 204.99 550H35C15.6701 550 3.43323e-05 534.33 3.43323e-05 515C3.43323e-05 495.67 15.6701 480 35.0001 480H204.99C205.328 480 205.665 480.005 206 480.014V483.016C205.665 483.005 205.328 483 204.99 483H35.0001C17.327 483 3.00003 497.327 3.00003 515C3.00003 532.673 17.3269 547 35 547H204.99C205.328 547 205.665 546.995 206 546.984V549.986Z" fill="white" fill-opacity="0.07"/>
<path fill-rule="evenodd" clip-rule="evenodd" d="M33 617H313C332.33 617 348 601.33 348 582C348 562.67 332.33 547 313 547H33V550H313C330.673 550 345 564.327 345 582C345 599.673 330.673 614 313 614H33V617Z" fill="white" fill-opacity="0.07"/>
<path fill-rule="evenodd" clip-rule="evenodd" d="M33 81H313C332.33 81 348 65.33 348 46C348 26.67 332.33 11 313 11H33V14H313C330.673 14 345 28.3269 345 46C345 63.6731 330.673 78 313 78H33V81Z" fill="white" fill-opacity="0.07"/>
<path fill-rule="evenodd" clip-rule="evenodd" d="M206 147.986C205.665 147.995 205.328 148 204.99 148H35C15.6701 148 3.43323e-05 132.33 3.43323e-05 113C3.43323e-05 93.67 15.6701 78 35.0001 78H204.99C205.328 78 205.665 78.0048 206 78.0143V81.0156C205.665 81.0052 205.328 81 204.99 81H35.0001C17.327 81 3.00003 95.3269 3.00003 113C3.00003 130.673 17.3269 145 35 145H204.99C205.328 145 205.665 144.995 206 144.984V147.986Z" fill="white" fill-opacity="0.07"/>
<circle cx="34.0005" cy="12" r="12" fill="#38B9FC" fill-opacity="0.37"/>
<circle cx="34.0005" cy="79" r="12" fill="#38B9FC" fill-opacity="0.37"/>
<circle cx="34.0005" cy="144" r="12" fill="#38B9FC" fill-opacity="0.37"/>
<circle cx="34.0005" cy="214" r="12" fill="#38B9FC" fill-opacity="0.37"/>
<circle cx="34.0005" cy="280" r="12" fill="#38B9FC" fill-opacity="0.37"/>
<circle cx="34.0005" cy="346" r="12" fill="#38B9FC" fill-opacity="0.37"/>
<circle cx="34.0005" cy="413" r="12" fill="#38B9FC" fill-opacity="0.37"/>
<circle cx="34.0005" cy="481" r="12" fill="#38B9FC" fill-opacity="0.37"/>
<circle cx="34.0005" cy="547" r="12" fill="#38B9FC" fill-opacity="0.37"/>
<circle cx="34.0005" cy="616" r="12" fill="#38B9FC" fill-opacity="0.37"/>
<circle cx="34.0005" cy="12" r="8" fill="#38B9FC"/>
<circle cx="34.0005" cy="79" r="8" fill="#38B9FC"/>
<circle cx="34.0005" cy="144" r="8" fill="#38B9FC"/>
<circle cx="34.0005" cy="214" r="8" fill="#38B9FC"/>
<circle cx="34.0005" cy="280" r="8" fill="#38B9FC"/>
<circle cx="34.0005" cy="346" r="8" fill="#38B9FC"/>
<circle cx="34.0005" cy="413" r="8" fill="#38B9FC"/>
<circle cx="34.0005" cy="481" r="8" fill="#38B9FC"/>
<circle cx="34.0005" cy="547" r="8" fill="#38B9FC"/>
<circle cx="34.0005" cy="616" r="8" fill="#38B9FC"/>
</svg>
