<svg width="1127" height="698" viewBox="0 0 1127 698" fill="none" xmlns="http://www.w3.org/2000/svg">
<path fill-rule="evenodd" clip-rule="evenodd" d="M42.47 242.4H1035.69C1086.02 242.4 1126.81 201.605 1126.81 151.283C1126.81 100.961 1086.02 60.1667 1035.69 60.1667H42.47V63.1667H1035.69C1084.36 63.1667 1123.81 102.618 1123.81 151.283C1123.81 199.949 1084.36 239.4 1035.69 239.4H42.47V242.4Z" fill="url(#paint0_linear_29_65)"/>
<path fill-rule="evenodd" clip-rule="evenodd" d="M42.47 567.196H1020.2C1079.08 567.196 1126.81 519.464 1126.81 460.583C1126.81 401.703 1079.08 353.971 1020.2 353.971H42.47V356.971H1020.2C1077.42 356.971 1123.81 403.36 1123.81 460.583C1123.81 517.807 1077.42 564.196 1020.2 564.196H42.47V567.196Z" fill="url(#paint1_linear_29_65)"/>
<path fill-rule="evenodd" clip-rule="evenodd" d="M1031.03 238.681H59.5046C26.6411 238.681 0 265.322 0 298.185C0 331.049 26.6411 357.69 59.5046 357.69H1031.03V354.69H59.5046C28.298 354.69 3 329.392 3 298.185C3 266.979 28.298 241.681 59.5046 241.681H1031.03V238.681Z" fill="url(#paint2_linear_29_65)"/>
<path fill-rule="evenodd" clip-rule="evenodd" d="M1031.03 563.477H58.8846C26.3635 563.477 -0.00012207 589.84 -0.00012207 622.362C-0.00012207 654.883 26.3635 681.246 58.8846 681.246H328.013V678.246H58.8846C28.0204 678.246 2.99988 653.226 2.99988 622.362C2.99988 591.497 28.0204 566.477 58.8846 566.477H1031.03V563.477Z" fill="url(#paint3_linear_29_65)"/>
<ellipse cx="52.3083" cy="60.3792" rx="15.4021" ry="21.1303" fill="#38B9FC" fill-opacity="0.37"/>
<ellipse cx="52.3083" cy="356.148" rx="15.4021" ry="21.1303" fill="#38B9FC" fill-opacity="0.37"/>
<ellipse cx="52.3083" cy="676.343" rx="15.4021" ry="21.1303" fill="#38B9FC" fill-opacity="0.37"/>
<ellipse cx="329.861" cy="676.343" rx="15.4021" ry="21.1303" fill="#38B9FC" fill-opacity="0.37"/>
<ellipse cx="330.723" cy="60.3792" rx="15.4021" ry="21.1303" fill="#38B9FC" fill-opacity="0.37"/>
<ellipse cx="330.723" cy="356.148" rx="15.4021" ry="21.1303" fill="#38B9FC" fill-opacity="0.37"/>
<ellipse cx="607.882" cy="60.3792" rx="15.4021" ry="21.1303" fill="#38B9FC" fill-opacity="0.37"/>
<ellipse cx="607.882" cy="356.148" rx="15.4021" ry="21.1303" fill="#38B9FC" fill-opacity="0.37"/>
<ellipse cx="887.392" cy="356.148" rx="15.4021" ry="21.1303" fill="#38B9FC" fill-opacity="0.37"/>
<ellipse cx="887.035" cy="60.3792" rx="15.4021" ry="21.1303" fill="#38B9FC" fill-opacity="0.37"/>
<ellipse cx="52.3083" cy="60.3792" rx="10.0099" ry="13.7327" fill="#38B9FC"/>
<ellipse cx="52.3083" cy="356.148" rx="10.0099" ry="13.7327" fill="#38B9FC"/>
<ellipse cx="52.3083" cy="676.343" rx="10.0099" ry="13.7327" fill="#38B9FC"/>
<ellipse cx="329.861" cy="676.343" rx="10.0099" ry="13.7327" fill="#38B9FC"/>
<ellipse cx="330.723" cy="60.3792" rx="10.0099" ry="13.7327" fill="#38B9FC"/>
<ellipse cx="330.723" cy="356.148" rx="10.0099" ry="13.7327" fill="#38B9FC"/>
<ellipse cx="607.881" cy="60.3792" rx="10.0099" ry="13.7327" fill="#38B9FC"/>
<ellipse cx="607.881" cy="356.148" rx="10.0099" ry="13.7327" fill="#38B9FC"/>
<ellipse cx="887.392" cy="356.148" rx="10.0099" ry="13.7327" fill="#38B9FC"/>
<ellipse cx="887.035" cy="60.3792" rx="10.0099" ry="13.7327" fill="#38B9FC"/>
<path d="M183.063 51.6169L194.576 62.8644L183.063 74.1119" stroke="white" stroke-width="3"/>
<path d="M183.063 345.293L194.576 356.541L183.063 367.788" stroke="white" stroke-width="3"/>
<path d="M183.063 667.61L194.576 678.857L183.063 690.105" stroke="white" stroke-width="3"/>
<path d="M466.241 51.6169L477.755 62.8644L466.241 74.1119" stroke="white" stroke-width="3"/>
<path d="M466.241 345.293L477.755 356.541L466.241 367.788" stroke="white" stroke-width="3"/>
<path d="M738.255 345.293L749.768 356.541L738.255 367.788" stroke="white" stroke-width="3"/>
<path d="M1040.06 345.293L1051.58 356.541L1040.06 367.788" stroke="white" stroke-width="3"/>
<path d="M744.397 51.6169L755.911 62.8644L744.397 74.1119" stroke="white" stroke-width="3"/>
<path d="M1040.06 51.6169L1051.58 62.8644L1040.06 74.1119" stroke="white" stroke-width="3"/>
<path d="M42.3817 17.2588V12.8788C42.3817 11.5322 42.8617 10.4122 43.8217 9.51885C44.7951 8.61218 45.9884 8.15885 47.4017 8.15885C48.8151 8.15885 49.9951 8.61218 50.9417 9.51885C51.9017 10.4122 52.3817 11.5322 52.3817 12.8788V17.2588C52.3817 18.6188 51.9017 19.7455 50.9417 20.6388C49.9951 21.5455 48.8151 21.9988 47.4017 21.9988C45.9884 21.9988 44.7951 21.5455 43.8217 20.6388C42.8617 19.7455 42.3817 18.6188 42.3817 17.2588ZM47.4017 9.27885C46.2951 9.27885 45.3751 9.62551 44.6417 10.3188C43.9084 10.9988 43.5417 11.8455 43.5417 12.8588V17.2588C43.5417 18.2722 43.9084 19.1255 44.6417 19.8188C45.3751 20.5122 46.2951 20.8588 47.4017 20.8588C48.4817 20.8588 49.3884 20.5122 50.1217 19.8188C50.8684 19.1122 51.2417 18.2588 51.2417 17.2588V12.8588C51.2417 11.8455 50.8684 10.9988 50.1217 10.3188C49.3884 9.62551 48.4817 9.27885 47.4017 9.27885ZM58.2375 9.83885L55.2775 11.4788L54.7775 10.4588L58.6375 8.31885H59.3975V21.8188H58.2375V9.83885Z" fill="white"/>
<path d="M42.3817 313.028V308.648C42.3817 307.301 42.8617 306.181 43.8217 305.288C44.7951 304.381 45.9884 303.928 47.4017 303.928C48.8151 303.928 49.9951 304.381 50.9417 305.288C51.9017 306.181 52.3817 307.301 52.3817 308.648V313.028C52.3817 314.388 51.9017 315.514 50.9417 316.408C49.9951 317.314 48.8151 317.768 47.4017 317.768C45.9884 317.768 44.7951 317.314 43.8217 316.408C42.8617 315.514 42.3817 314.388 42.3817 313.028ZM47.4017 305.048C46.2951 305.048 45.3751 305.394 44.6417 306.088C43.9084 306.768 43.5417 307.614 43.5417 308.628V313.028C43.5417 314.041 43.9084 314.894 44.6417 315.588C45.3751 316.281 46.2951 316.628 47.4017 316.628C48.4817 316.628 49.3884 316.281 50.1217 315.588C50.8684 314.881 51.2417 314.028 51.2417 313.028V308.628C51.2417 307.614 50.8684 306.768 50.1217 306.088C49.3884 305.394 48.4817 305.048 47.4017 305.048ZM62.8175 310.328C63.7775 311.141 64.2575 312.168 64.2575 313.408C64.2575 314.648 63.7842 315.688 62.8375 316.528C61.8909 317.354 60.7175 317.768 59.3175 317.768C58.2909 317.768 57.3709 317.521 56.5575 317.028C55.7575 316.534 55.1575 315.868 54.7575 315.028L55.8775 314.668C56.1975 315.268 56.6575 315.748 57.2575 316.108C57.8709 316.454 58.5575 316.628 59.3175 316.628C60.3842 316.628 61.2709 316.321 61.9775 315.708C62.6975 315.094 63.0575 314.328 63.0575 313.408C63.0575 312.474 62.6909 311.701 61.9575 311.088C61.2242 310.474 60.3109 310.168 59.2175 310.168H55.7175L56.3375 304.088H63.2175V305.168H57.3175L56.9175 309.088H59.2575C60.6842 309.088 61.8709 309.501 62.8175 310.328Z" fill="white"/>
<path d="M42.3817 633.223V628.843C42.3817 627.496 42.8617 626.376 43.8217 625.483C44.7951 624.576 45.9884 624.123 47.4017 624.123C48.8151 624.123 49.9951 624.576 50.9417 625.483C51.9017 626.376 52.3817 627.496 52.3817 628.843V633.223C52.3817 634.583 51.9017 635.709 50.9417 636.603C49.9951 637.509 48.8151 637.963 47.4017 637.963C45.9884 637.963 44.7951 637.509 43.8217 636.603C42.8617 635.709 42.3817 634.583 42.3817 633.223ZM47.4017 625.243C46.2951 625.243 45.3751 625.589 44.6417 626.283C43.9084 626.963 43.5417 627.809 43.5417 628.823V633.223C43.5417 634.236 43.9084 635.089 44.6417 635.783C45.3751 636.476 46.2951 636.823 47.4017 636.823C48.4817 636.823 49.3884 636.476 50.1217 635.783C50.8684 635.076 51.2417 634.223 51.2417 633.223V628.823C51.2417 627.809 50.8684 626.963 50.1217 626.283C49.3884 625.589 48.4817 625.243 47.4017 625.243ZM54.8975 635.643L55.9575 635.083C56.2909 635.616 56.7509 636.043 57.3375 636.363C57.9375 636.669 58.5975 636.823 59.3175 636.823C60.4375 636.823 61.3642 636.483 62.0975 635.803C62.8575 635.096 63.2375 634.243 63.2375 633.243V631.043C62.8642 631.669 62.3509 632.169 61.6975 632.543C61.0575 632.903 60.3509 633.083 59.5775 633.083C58.2175 633.083 57.0842 632.656 56.1775 631.803C55.2575 630.936 54.7975 629.863 54.7975 628.583C54.7975 627.329 55.2575 626.276 56.1775 625.423C57.1109 624.556 58.2442 624.123 59.5775 624.123C60.9375 624.123 62.0775 624.543 62.9975 625.383C63.9175 626.209 64.3775 627.243 64.3775 628.483V633.223C64.3775 634.583 63.8909 635.709 62.9175 636.603C61.9442 637.509 60.7375 637.963 59.2975 637.963C58.3509 637.963 57.4909 637.756 56.7175 637.343C55.9442 636.929 55.3375 636.363 54.8975 635.643ZM57.0175 630.983C57.7109 631.636 58.5642 631.963 59.5775 631.963C60.5775 631.963 61.4309 631.643 62.1375 631.003C62.8309 630.349 63.1775 629.549 63.1775 628.603C63.1775 627.656 62.8309 626.863 62.1375 626.223C61.4442 625.569 60.5909 625.243 59.5775 625.243C58.5775 625.243 57.7242 625.563 57.0175 626.203C56.3375 626.843 55.9975 627.636 55.9975 628.583C55.9975 629.516 56.3375 630.316 57.0175 630.983Z" fill="white"/>
<path d="M323.114 625.803L320.154 627.443L319.654 626.423L323.514 624.283H324.274V637.783H323.114V625.803ZM328.098 633.223V628.843C328.098 627.496 328.578 626.376 329.538 625.483C330.512 624.576 331.705 624.123 333.118 624.123C334.532 624.123 335.712 624.576 336.658 625.483C337.618 626.376 338.098 627.496 338.098 628.843V633.223C338.098 634.583 337.618 635.709 336.658 636.603C335.712 637.509 334.532 637.963 333.118 637.963C331.705 637.963 330.512 637.509 329.538 636.603C328.578 635.709 328.098 634.583 328.098 633.223ZM333.118 625.243C332.012 625.243 331.092 625.589 330.358 626.283C329.625 626.963 329.258 627.809 329.258 628.823V633.223C329.258 634.236 329.625 635.089 330.358 635.783C331.092 636.476 332.012 636.823 333.118 636.823C334.198 636.823 335.105 636.476 335.838 635.783C336.585 635.076 336.958 634.223 336.958 633.223V628.823C336.958 627.809 336.585 626.963 335.838 626.283C335.105 625.589 334.198 625.243 333.118 625.243Z" fill="white"/>
<path d="M321.22 17.2588V12.8788C321.22 11.5322 321.7 10.4122 322.66 9.51885C323.633 8.61218 324.827 8.15885 326.24 8.15885C327.653 8.15885 328.833 8.61218 329.78 9.51885C330.74 10.4122 331.22 11.5322 331.22 12.8788V17.2588C331.22 18.6188 330.74 19.7455 329.78 20.6388C328.833 21.5455 327.653 21.9988 326.24 21.9988C324.827 21.9988 323.633 21.5455 322.66 20.6388C321.7 19.7455 321.22 18.6188 321.22 17.2588ZM326.24 9.27885C325.133 9.27885 324.213 9.62551 323.48 10.3188C322.747 10.9988 322.38 11.8455 322.38 12.8588V17.2588C322.38 18.2722 322.747 19.1255 323.48 19.8188C324.213 20.5122 325.133 20.8588 326.24 20.8588C327.32 20.8588 328.227 20.5122 328.96 19.8188C329.707 19.1122 330.08 18.2588 330.08 17.2588V12.8588C330.08 11.8455 329.707 10.9988 328.96 10.3188C328.227 9.62551 327.32 9.27885 326.24 9.27885ZM341.236 12.1588C341.236 11.3722 340.916 10.6988 340.276 10.1388C339.649 9.56551 338.882 9.27885 337.976 9.27885C337.216 9.27885 336.536 9.49885 335.936 9.93885C335.336 10.3788 334.889 10.9722 334.596 11.7188L333.516 11.2188C333.902 10.2588 334.489 9.51218 335.276 8.97885C336.076 8.43218 336.976 8.15885 337.976 8.15885C339.229 8.15885 340.282 8.54551 341.136 9.31885C342.002 10.1055 342.436 11.0455 342.436 12.1388C342.436 12.8588 342.216 13.5522 341.776 14.2188C341.349 14.8855 340.642 15.6855 339.656 16.6188L335.436 20.6988H342.656V21.8188H333.596V20.9788L338.816 15.8988C339.482 15.2322 339.889 14.8188 340.036 14.6588C340.276 14.4188 340.536 14.0588 340.816 13.5788C341.096 13.0722 341.236 12.5988 341.236 12.1588Z" fill="white"/>
<path d="M321.22 313.028V308.648C321.22 307.301 321.7 306.181 322.66 305.288C323.633 304.381 324.827 303.928 326.24 303.928C327.653 303.928 328.833 304.381 329.78 305.288C330.74 306.181 331.22 307.301 331.22 308.648V313.028C331.22 314.388 330.74 315.514 329.78 316.408C328.833 317.314 327.653 317.768 326.24 317.768C324.827 317.768 323.633 317.314 322.66 316.408C321.7 315.514 321.22 314.388 321.22 313.028ZM326.24 305.048C325.133 305.048 324.213 305.394 323.48 306.088C322.747 306.768 322.38 307.614 322.38 308.628V313.028C322.38 314.041 322.747 314.894 323.48 315.588C324.213 316.281 325.133 316.628 326.24 316.628C327.32 316.628 328.227 316.281 328.96 315.588C329.707 314.881 330.08 314.028 330.08 313.028V308.628C330.08 307.614 329.707 306.768 328.96 306.088C328.227 305.394 327.32 305.048 326.24 305.048ZM343.176 306.148L342.116 306.708C341.796 306.188 341.349 305.781 340.776 305.488C340.202 305.194 339.569 305.048 338.876 305.048C337.796 305.048 336.889 305.394 336.156 306.088C335.422 306.768 335.056 307.614 335.056 308.628V310.868C335.416 310.308 335.922 309.868 336.576 309.548C337.229 309.214 337.949 309.048 338.736 309.048C340.096 309.048 341.236 309.468 342.156 310.308C343.089 311.121 343.556 312.154 343.556 313.408C343.556 314.634 343.089 315.668 342.156 316.508C341.236 317.348 340.096 317.768 338.736 317.768C337.362 317.768 336.209 317.348 335.276 316.508C334.356 315.668 333.896 314.634 333.896 313.408V308.648C333.896 307.301 334.376 306.181 335.336 305.288C336.309 304.381 337.502 303.928 338.916 303.928C339.822 303.928 340.649 304.128 341.396 304.528C342.142 304.914 342.736 305.454 343.176 306.148ZM338.736 316.628C339.749 316.628 340.602 316.321 341.296 315.708C342.002 315.081 342.356 314.321 342.356 313.428C342.356 312.494 342.009 311.721 341.316 311.108C340.609 310.481 339.749 310.168 338.736 310.168C337.709 310.168 336.842 310.481 336.136 311.108C335.442 311.721 335.096 312.481 335.096 313.388C335.096 314.308 335.442 315.074 336.136 315.688C336.842 316.314 337.709 316.628 338.736 316.628Z" fill="white"/>
<path d="M598.378 17.2588V12.8788C598.378 11.5322 598.858 10.4122 599.818 9.51885C600.791 8.61218 601.985 8.15885 603.398 8.15885C604.811 8.15885 605.991 8.61218 606.938 9.51885C607.898 10.4122 608.378 11.5322 608.378 12.8788V17.2588C608.378 18.6188 607.898 19.7455 606.938 20.6388C605.991 21.5455 604.811 21.9988 603.398 21.9988C601.985 21.9988 600.791 21.5455 599.818 20.6388C598.858 19.7455 598.378 18.6188 598.378 17.2588ZM603.398 9.27885C602.291 9.27885 601.371 9.62551 600.638 10.3188C599.905 10.9988 599.538 11.8455 599.538 12.8588V17.2588C599.538 18.2722 599.905 19.1255 600.638 19.8188C601.371 20.5122 602.291 20.8588 603.398 20.8588C604.478 20.8588 605.385 20.5122 606.118 19.8188C606.865 19.1122 607.238 18.2588 607.238 17.2588V12.8588C607.238 11.8455 606.865 10.9988 606.118 10.3188C605.385 9.62551 604.478 9.27885 603.398 9.27885ZM618.474 11.7988C618.474 11.0922 618.161 10.4988 617.534 10.0188C616.921 9.52551 616.141 9.27885 615.194 9.27885C614.447 9.27885 613.787 9.44551 613.214 9.77885C612.641 10.0988 612.227 10.5255 611.974 11.0588L610.934 10.5588C611.281 9.82551 611.834 9.24551 612.594 8.81885C613.367 8.37885 614.234 8.15885 615.194 8.15885C616.461 8.15885 617.521 8.50551 618.374 9.19885C619.241 9.90551 619.674 10.7655 619.674 11.7788C619.674 12.4455 619.461 13.0588 619.034 13.6188C618.621 14.1655 618.067 14.5788 617.374 14.8588C618.174 15.1388 618.807 15.5788 619.274 16.1788C619.741 16.7788 619.974 17.4522 619.974 18.1988C619.974 19.2655 619.521 20.1722 618.614 20.9188C617.721 21.6388 616.587 21.9988 615.214 21.9988C614.174 21.9988 613.254 21.7788 612.454 21.3388C611.654 20.8988 611.081 20.2988 610.734 19.5388L611.854 19.0988C612.107 19.6322 612.534 20.0588 613.134 20.3788C613.734 20.6988 614.427 20.8588 615.214 20.8588C616.241 20.8588 617.087 20.5988 617.754 20.0788C618.434 19.5588 618.774 18.9122 618.774 18.1388C618.774 17.3788 618.441 16.7455 617.774 16.2388C617.107 15.7322 616.287 15.4788 615.314 15.4788H614.314V14.3788H615.054C616.027 14.3788 616.841 14.1322 617.494 13.6388C618.147 13.1455 618.474 12.5322 618.474 11.7988Z" fill="white"/>
<path d="M598.378 313.028V308.648C598.378 307.301 598.858 306.181 599.818 305.288C600.791 304.381 601.985 303.928 603.398 303.928C604.811 303.928 605.991 304.381 606.938 305.288C607.898 306.181 608.378 307.301 608.378 308.648V313.028C608.378 314.388 607.898 315.514 606.938 316.408C605.991 317.314 604.811 317.768 603.398 317.768C601.985 317.768 600.791 317.314 599.818 316.408C598.858 315.514 598.378 314.388 598.378 313.028ZM603.398 305.048C602.291 305.048 601.371 305.394 600.638 306.088C599.905 306.768 599.538 307.614 599.538 308.628V313.028C599.538 314.041 599.905 314.894 600.638 315.588C601.371 316.281 602.291 316.628 603.398 316.628C604.478 316.628 605.385 316.281 606.118 315.588C606.865 314.881 607.238 314.028 607.238 313.028V308.628C607.238 307.614 606.865 306.768 606.118 306.088C605.385 305.394 604.478 305.048 603.398 305.048ZM612.774 317.588L617.654 305.168H610.214V304.088H618.854V305.228L614.034 317.588H612.774Z" fill="white"/>
<path d="M877.889 313.028V308.648C877.889 307.301 878.369 306.181 879.329 305.288C880.302 304.381 881.495 303.928 882.909 303.928C884.322 303.928 885.502 304.381 886.449 305.288C887.409 306.181 887.889 307.301 887.889 308.648V313.028C887.889 314.388 887.409 315.514 886.449 316.408C885.502 317.314 884.322 317.768 882.909 317.768C881.495 317.768 880.302 317.314 879.329 316.408C878.369 315.514 877.889 314.388 877.889 313.028ZM882.909 305.048C881.802 305.048 880.882 305.394 880.149 306.088C879.415 306.768 879.049 307.614 879.049 308.628V313.028C879.049 314.041 879.415 314.894 880.149 315.588C880.882 316.281 881.802 316.628 882.909 316.628C883.989 316.628 884.895 316.281 885.629 315.588C886.375 314.881 886.749 314.028 886.749 313.028V308.628C886.749 307.614 886.375 306.768 885.629 306.088C884.895 305.394 883.989 305.048 882.909 305.048ZM895.144 317.768C893.771 317.768 892.631 317.401 891.724 316.668C890.818 315.921 890.364 315.014 890.364 313.948C890.364 313.201 890.591 312.528 891.044 311.928C891.511 311.314 892.151 310.848 892.964 310.528C892.284 310.234 891.744 309.814 891.344 309.268C890.958 308.721 890.764 308.108 890.764 307.428C890.764 306.428 891.178 305.594 892.004 304.928C892.858 304.261 893.904 303.928 895.144 303.928C896.371 303.928 897.411 304.261 898.264 304.928C899.104 305.594 899.524 306.428 899.524 307.428C899.524 308.108 899.324 308.721 898.924 309.268C898.524 309.814 897.984 310.234 897.304 310.528C898.118 310.834 898.758 311.294 899.224 311.908C899.704 312.508 899.944 313.188 899.944 313.948C899.944 315.041 899.484 315.954 898.564 316.688C897.671 317.408 896.531 317.768 895.144 317.768ZM891.544 313.848C891.544 314.634 891.884 315.294 892.564 315.828C893.258 316.361 894.118 316.628 895.144 316.628C896.171 316.628 897.024 316.368 897.704 315.848C898.398 315.314 898.744 314.654 898.744 313.868C898.744 313.081 898.398 312.428 897.704 311.908C897.038 311.374 896.184 311.108 895.144 311.108C894.118 311.108 893.258 311.374 892.564 311.908C891.884 312.428 891.544 313.074 891.544 313.848ZM891.964 307.508C891.964 308.228 892.264 308.828 892.864 309.308C893.491 309.774 894.251 310.008 895.144 310.008C896.038 310.008 896.798 309.774 897.424 309.308C898.038 308.828 898.344 308.228 898.344 307.508C898.344 306.801 898.038 306.221 897.424 305.768C896.811 305.288 896.051 305.048 895.144 305.048C894.238 305.048 893.478 305.288 892.864 305.768C892.264 306.234 891.964 306.814 891.964 307.508Z" fill="white"/>
<path d="M876.624 17.2588V12.8788C876.624 11.5322 877.104 10.4122 878.064 9.51885C879.038 8.61218 880.231 8.15885 881.644 8.15885C883.058 8.15885 884.238 8.61218 885.184 9.51885C886.144 10.4122 886.624 11.5322 886.624 12.8788V17.2588C886.624 18.6188 886.144 19.7455 885.184 20.6388C884.238 21.5455 883.058 21.9988 881.644 21.9988C880.231 21.9988 879.038 21.5455 878.064 20.6388C877.104 19.7455 876.624 18.6188 876.624 17.2588ZM881.644 9.27885C880.538 9.27885 879.618 9.62551 878.884 10.3188C878.151 10.9988 877.784 11.8455 877.784 12.8588V17.2588C877.784 18.2722 878.151 19.1255 878.884 19.8188C879.618 20.5122 880.538 20.8588 881.644 20.8588C882.724 20.8588 883.631 20.5122 884.364 19.8188C885.111 19.1122 885.484 18.2588 885.484 17.2588V12.8588C885.484 11.8455 885.111 10.9988 884.364 10.3188C883.631 9.62551 882.724 9.27885 881.644 9.27885ZM896.64 21.8188V18.8988H888.9V17.7788L896.74 8.31885H897.8V17.7588H899.9V18.8988H897.8V21.8188H896.64ZM896.64 10.1388L890.34 17.7588H896.64V10.1388Z" fill="white"/>
<defs>
<linearGradient id="paint0_linear_29_65" x1="444.607" y1="115.769" x2="325.189" y2="493.626" gradientUnits="userSpaceOnUse">
<stop stop-color="white"/>
<stop offset="1" stop-color="#38B9FC"/>
</linearGradient>
<linearGradient id="paint1_linear_29_65" x1="444.607" y1="419.03" x2="286.418" y2="846.811" gradientUnits="userSpaceOnUse">
<stop stop-color="white"/>
<stop offset="1" stop-color="#38B9FC"/>
</linearGradient>
<linearGradient id="paint2_linear_29_65" x1="648.661" y1="321.756" x2="703.81" y2="65.0189" gradientUnits="userSpaceOnUse">
<stop stop-color="white"/>
<stop offset="1" stop-color="#38B9FC"/>
</linearGradient>
<linearGradient id="paint3_linear_29_65" x1="648.661" y1="645.313" x2="703.81" y2="388.575" gradientUnits="userSpaceOnUse">
<stop stop-color="white"/>
<stop offset="1" stop-color="#38B9FC"/>
</linearGradient>
</defs>
</svg>
