<svg width="1247" height="562" viewBox="0 0 1247 562" fill="none" xmlns="http://www.w3.org/2000/svg">
<path fill-rule="evenodd" clip-rule="evenodd" d="M47 194.874H1173.5C1214.09 194.874 1247 161.966 1247 121.374C1247 80.7806 1214.09 47.8735 1173.5 47.8735H47V50.8735H1173.5C1212.44 50.8735 1244 82.4375 1244 121.374C1244 160.31 1212.44 191.874 1173.5 191.874H47V194.874Z" fill="url(#paint0_linear_32_64)"/>
<path fill-rule="evenodd" clip-rule="evenodd" d="M47 456.874H1161C1208.5 456.874 1247 418.37 1247 370.874C1247 323.377 1208.5 284.874 1161 284.874H47V287.874H1161C1206.84 287.874 1244 325.034 1244 370.874C1244 416.713 1206.84 453.874 1161 453.874H47V456.874Z" fill="url(#paint1_linear_32_64)"/>
<path fill-rule="evenodd" clip-rule="evenodd" d="M1141 191.874H48C21.4904 191.874 0 213.364 0 239.874C0 266.383 21.4904 287.874 48 287.874H1141V284.874H48C23.1472 284.874 3 264.726 3 239.874C3 215.021 23.1472 194.874 48 194.874H1141V191.874Z" fill="url(#paint2_linear_32_64)"/>
<path fill-rule="evenodd" clip-rule="evenodd" d="M1141 453.874H47.5C21.2665 453.874 0 475.14 0 501.374C0 527.607 21.2665 548.874 47.5 548.874H363V545.874H47.5C22.9233 545.874 3 525.95 3 501.374C3 476.797 22.9233 456.874 47.5 456.874H1141V453.874Z" fill="url(#paint3_linear_32_64)"/>
<circle cx="57.8877" cy="48.0449" r="17.0449" fill="#38B9FC" fill-opacity="0.37"/>
<circle cx="57.8877" cy="286.63" r="17.0449" fill="#38B9FC" fill-opacity="0.37"/>
<circle cx="57.8877" cy="544.918" r="17.0449" fill="#38B9FC" fill-opacity="0.37"/>
<circle cx="365.045" cy="544.918" r="17.0449" fill="#38B9FC" fill-opacity="0.37"/>
<circle cx="366" cy="48.0449" r="17.0449" fill="#38B9FC" fill-opacity="0.37"/>
<circle cx="366" cy="286.63" r="17.0449" fill="#38B9FC" fill-opacity="0.37"/>
<circle cx="672.721" cy="48.0449" r="17.0449" fill="#38B9FC" fill-opacity="0.37"/>
<circle cx="672.721" cy="286.63" r="17.0449" fill="#38B9FC" fill-opacity="0.37"/>
<circle cx="982.045" cy="286.63" r="17.0449" fill="#38B9FC" fill-opacity="0.37"/>
<circle cx="981.649" cy="48.0449" r="17.0449" fill="#38B9FC" fill-opacity="0.37"/>
<circle cx="57.8877" cy="48.0449" r="11.0776" fill="#38B9FC"/>
<circle cx="57.8877" cy="286.63" r="11.0776" fill="#38B9FC"/>
<circle cx="57.8877" cy="544.918" r="11.0776" fill="#38B9FC"/>
<circle cx="365.045" cy="544.918" r="11.0776" fill="#38B9FC"/>
<circle cx="366" cy="48.0449" r="11.0776" fill="#38B9FC"/>
<circle cx="366" cy="286.63" r="11.0776" fill="#38B9FC"/>
<circle cx="672.72" cy="48.0449" r="11.0776" fill="#38B9FC"/>
<circle cx="672.72" cy="286.63" r="11.0776" fill="#38B9FC"/>
<circle cx="982.045" cy="286.63" r="11.0776" fill="#38B9FC"/>
<circle cx="981.65" cy="48.0449" r="11.0776" fill="#38B9FC"/>
<path d="M202.589 40.9768L215.331 50.0497L202.589 59.1226" stroke="white" stroke-width="3"/>
<path d="M202.589 277.874L215.331 286.946L202.589 296.019" stroke="white" stroke-width="3"/>
<path d="M202.589 537.874L215.331 546.946L202.589 556.019" stroke="white" stroke-width="3"/>
<path d="M515.973 40.9768L528.714 50.0497L515.973 59.1226" stroke="white" stroke-width="3"/>
<path d="M515.973 277.874L528.714 286.946L515.973 296.019" stroke="white" stroke-width="3"/>
<path d="M817 277.874L829.741 286.946L817 296.019" stroke="white" stroke-width="3"/>
<path d="M1151 277.874L1163.74 286.946L1151 296.019" stroke="white" stroke-width="3"/>
<path d="M823.798 40.9768L836.539 50.0497L823.798 59.1226" stroke="white" stroke-width="3"/>
<path d="M1151 40.9768L1163.74 50.0497L1151 59.1226" stroke="white" stroke-width="3"/>
<path d="M46.7594 16.44V12.06C46.7594 10.7133 47.2394 9.59333 48.1994 8.7C49.1728 7.79333 50.3661 7.34 51.7794 7.34C53.1928 7.34 54.3728 7.79333 55.3194 8.7C56.2794 9.59333 56.7594 10.7133 56.7594 12.06V16.44C56.7594 17.8 56.2794 18.9267 55.3194 19.82C54.3728 20.7267 53.1928 21.18 51.7794 21.18C50.3661 21.18 49.1728 20.7267 48.1994 19.82C47.2394 18.9267 46.7594 17.8 46.7594 16.44ZM51.7794 8.46C50.6728 8.46 49.7528 8.80667 49.0194 9.5C48.2861 10.18 47.9194 11.0267 47.9194 12.04V16.44C47.9194 17.4533 48.2861 18.3067 49.0194 19C49.7528 19.6933 50.6728 20.04 51.7794 20.04C52.8594 20.04 53.7661 19.6933 54.4994 19C55.2461 18.2933 55.6194 17.44 55.6194 16.44V12.04C55.6194 11.0267 55.2461 10.18 54.4994 9.5C53.7661 8.80667 52.8594 8.46 51.7794 8.46ZM62.6152 9.02L59.6552 10.66L59.1552 9.64L63.0152 7.5H63.7752V21H62.6152V9.02Z" fill="white"/>
<path d="M46.7594 255.025V250.645C46.7594 249.298 47.2394 248.178 48.1994 247.285C49.1728 246.378 50.3661 245.925 51.7794 245.925C53.1928 245.925 54.3728 246.378 55.3194 247.285C56.2794 248.178 56.7594 249.298 56.7594 250.645V255.025C56.7594 256.385 56.2794 257.511 55.3194 258.405C54.3728 259.311 53.1928 259.765 51.7794 259.765C50.3661 259.765 49.1728 259.311 48.1994 258.405C47.2394 257.511 46.7594 256.385 46.7594 255.025ZM51.7794 247.045C50.6728 247.045 49.7528 247.391 49.0194 248.085C48.2861 248.765 47.9194 249.611 47.9194 250.625V255.025C47.9194 256.038 48.2861 256.891 49.0194 257.585C49.7528 258.278 50.6728 258.625 51.7794 258.625C52.8594 258.625 53.7661 258.278 54.4994 257.585C55.2461 256.878 55.6194 256.025 55.6194 255.025V250.625C55.6194 249.611 55.2461 248.765 54.4994 248.085C53.7661 247.391 52.8594 247.045 51.7794 247.045ZM67.1952 252.325C68.1552 253.138 68.6352 254.165 68.6352 255.405C68.6352 256.645 68.1619 257.685 67.2152 258.525C66.2685 259.351 65.0952 259.765 63.6952 259.765C62.6685 259.765 61.7485 259.518 60.9352 259.025C60.1352 258.531 59.5352 257.865 59.1352 257.025L60.2552 256.665C60.5752 257.265 61.0352 257.745 61.6352 258.105C62.2485 258.451 62.9352 258.625 63.6952 258.625C64.7619 258.625 65.6485 258.318 66.3552 257.705C67.0752 257.091 67.4352 256.325 67.4352 255.405C67.4352 254.471 67.0685 253.698 66.3352 253.085C65.6019 252.471 64.6885 252.165 63.5952 252.165H60.0952L60.7152 246.085H67.5952V247.165H61.6952L61.2952 251.085H63.6352C65.0619 251.085 66.2485 251.498 67.1952 252.325Z" fill="white"/>
<path d="M46.7594 513.314V508.934C46.7594 507.587 47.2394 506.467 48.1994 505.574C49.1728 504.667 50.3661 504.214 51.7794 504.214C53.1928 504.214 54.3728 504.667 55.3194 505.574C56.2794 506.467 56.7594 507.587 56.7594 508.934V513.314C56.7594 514.674 56.2794 515.8 55.3194 516.694C54.3728 517.6 53.1928 518.054 51.7794 518.054C50.3661 518.054 49.1728 517.6 48.1994 516.694C47.2394 515.8 46.7594 514.674 46.7594 513.314ZM51.7794 505.334C50.6728 505.334 49.7528 505.68 49.0194 506.374C48.2861 507.054 47.9194 507.9 47.9194 508.914V513.314C47.9194 514.327 48.2861 515.18 49.0194 515.874C49.7528 516.567 50.6728 516.914 51.7794 516.914C52.8594 516.914 53.7661 516.567 54.4994 515.874C55.2461 515.167 55.6194 514.314 55.6194 513.314V508.914C55.6194 507.9 55.2461 507.054 54.4994 506.374C53.7661 505.68 52.8594 505.334 51.7794 505.334ZM59.2752 515.734L60.3352 515.174C60.6685 515.707 61.1285 516.134 61.7152 516.454C62.3152 516.76 62.9752 516.914 63.6952 516.914C64.8152 516.914 65.7419 516.574 66.4752 515.894C67.2352 515.187 67.6152 514.334 67.6152 513.334V511.134C67.2419 511.76 66.7285 512.26 66.0752 512.634C65.4352 512.994 64.7285 513.174 63.9552 513.174C62.5952 513.174 61.4619 512.747 60.5552 511.894C59.6352 511.027 59.1752 509.954 59.1752 508.674C59.1752 507.42 59.6352 506.367 60.5552 505.514C61.4885 504.647 62.6219 504.214 63.9552 504.214C65.3152 504.214 66.4552 504.634 67.3752 505.474C68.2952 506.3 68.7552 507.334 68.7552 508.574V513.314C68.7552 514.674 68.2685 515.8 67.2952 516.694C66.3219 517.6 65.1152 518.054 63.6752 518.054C62.7285 518.054 61.8685 517.847 61.0952 517.434C60.3219 517.02 59.7152 516.454 59.2752 515.734ZM61.3952 511.074C62.0885 511.727 62.9419 512.054 63.9552 512.054C64.9552 512.054 65.8085 511.734 66.5152 511.094C67.2085 510.44 67.5552 509.64 67.5552 508.694C67.5552 507.747 67.2085 506.954 66.5152 506.314C65.8219 505.66 64.9685 505.334 63.9552 505.334C62.9552 505.334 62.1019 505.654 61.3952 506.294C60.7152 506.934 60.3752 507.727 60.3752 508.674C60.3752 509.607 60.7152 510.407 61.3952 511.074Z" fill="white"/>
<path d="M357.097 505.894L354.137 507.534L353.637 506.514L357.497 504.374H358.257V517.874H357.097V505.894ZM362.081 513.314V508.934C362.081 507.587 362.561 506.467 363.521 505.574C364.494 504.667 365.687 504.214 367.101 504.214C368.514 504.214 369.694 504.667 370.641 505.574C371.601 506.467 372.081 507.587 372.081 508.934V513.314C372.081 514.674 371.601 515.8 370.641 516.694C369.694 517.6 368.514 518.054 367.101 518.054C365.687 518.054 364.494 517.6 363.521 516.694C362.561 515.8 362.081 514.674 362.081 513.314ZM367.101 505.334C365.994 505.334 365.074 505.68 364.341 506.374C363.607 507.054 363.241 507.9 363.241 508.914V513.314C363.241 514.327 363.607 515.18 364.341 515.874C365.074 516.567 365.994 516.914 367.101 516.914C368.181 516.914 369.087 516.567 369.821 515.874C370.567 515.167 370.941 514.314 370.941 513.314V508.914C370.941 507.9 370.567 507.054 369.821 506.374C369.087 505.68 368.181 505.334 367.101 505.334Z" fill="white"/>
<path d="M355.34 16.44V12.06C355.34 10.7133 355.82 9.59333 356.78 8.7C357.753 7.79333 358.946 7.34 360.36 7.34C361.773 7.34 362.953 7.79333 363.9 8.7C364.86 9.59333 365.34 10.7133 365.34 12.06V16.44C365.34 17.8 364.86 18.9267 363.9 19.82C362.953 20.7267 361.773 21.18 360.36 21.18C358.946 21.18 357.753 20.7267 356.78 19.82C355.82 18.9267 355.34 17.8 355.34 16.44ZM360.36 8.46C359.253 8.46 358.333 8.80667 357.6 9.5C356.866 10.18 356.5 11.0267 356.5 12.04V16.44C356.5 17.4533 356.866 18.3067 357.6 19C358.333 19.6933 359.253 20.04 360.36 20.04C361.44 20.04 362.346 19.6933 363.08 19C363.826 18.2933 364.2 17.44 364.2 16.44V12.04C364.2 11.0267 363.826 10.18 363.08 9.5C362.346 8.80667 361.44 8.46 360.36 8.46ZM375.355 11.34C375.355 10.5533 375.035 9.88 374.395 9.32C373.769 8.74667 373.002 8.46 372.095 8.46C371.335 8.46 370.655 8.68 370.055 9.12C369.455 9.56 369.009 10.1533 368.715 10.9L367.635 10.4C368.022 9.44 368.609 8.69333 369.395 8.16C370.195 7.61333 371.095 7.34 372.095 7.34C373.349 7.34 374.402 7.72667 375.255 8.5C376.122 9.28667 376.555 10.2267 376.555 11.32C376.555 12.04 376.335 12.7333 375.895 13.4C375.469 14.0667 374.762 14.8667 373.775 15.8L369.555 19.88H376.775V21H367.715V20.16L372.935 15.08C373.602 14.4133 374.009 14 374.155 13.84C374.395 13.6 374.655 13.24 374.935 12.76C375.215 12.2533 375.355 11.78 375.355 11.34Z" fill="white"/>
<path d="M355.34 255.025V250.645C355.34 249.298 355.82 248.178 356.78 247.285C357.753 246.378 358.946 245.925 360.36 245.925C361.773 245.925 362.953 246.378 363.9 247.285C364.86 248.178 365.34 249.298 365.34 250.645V255.025C365.34 256.385 364.86 257.511 363.9 258.405C362.953 259.311 361.773 259.765 360.36 259.765C358.946 259.765 357.753 259.311 356.78 258.405C355.82 257.511 355.34 256.385 355.34 255.025ZM360.36 247.045C359.253 247.045 358.333 247.391 357.6 248.085C356.866 248.765 356.5 249.611 356.5 250.625V255.025C356.5 256.038 356.866 256.891 357.6 257.585C358.333 258.278 359.253 258.625 360.36 258.625C361.44 258.625 362.346 258.278 363.08 257.585C363.826 256.878 364.2 256.025 364.2 255.025V250.625C364.2 249.611 363.826 248.765 363.08 248.085C362.346 247.391 361.44 247.045 360.36 247.045ZM377.295 248.145L376.235 248.705C375.915 248.185 375.469 247.778 374.895 247.485C374.322 247.191 373.689 247.045 372.995 247.045C371.915 247.045 371.009 247.391 370.275 248.085C369.542 248.765 369.175 249.611 369.175 250.625V252.865C369.535 252.305 370.042 251.865 370.695 251.545C371.349 251.211 372.069 251.045 372.855 251.045C374.215 251.045 375.355 251.465 376.275 252.305C377.209 253.118 377.675 254.151 377.675 255.405C377.675 256.631 377.209 257.665 376.275 258.505C375.355 259.345 374.215 259.765 372.855 259.765C371.482 259.765 370.329 259.345 369.395 258.505C368.475 257.665 368.015 256.631 368.015 255.405V250.645C368.015 249.298 368.495 248.178 369.455 247.285C370.429 246.378 371.622 245.925 373.035 245.925C373.942 245.925 374.769 246.125 375.515 246.525C376.262 246.911 376.855 247.451 377.295 248.145ZM372.855 258.625C373.869 258.625 374.722 258.318 375.415 257.705C376.122 257.078 376.475 256.318 376.475 255.425C376.475 254.491 376.129 253.718 375.435 253.105C374.729 252.478 373.869 252.165 372.855 252.165C371.829 252.165 370.962 252.478 370.255 253.105C369.562 253.718 369.215 254.478 369.215 255.385C369.215 256.305 369.562 257.071 370.255 257.685C370.962 258.311 371.829 258.625 372.855 258.625Z" fill="white"/>
<path d="M662.061 16.44V12.06C662.061 10.7133 662.541 9.59333 663.501 8.7C664.474 7.79333 665.667 7.34 667.081 7.34C668.494 7.34 669.674 7.79333 670.621 8.7C671.581 9.59333 672.061 10.7133 672.061 12.06V16.44C672.061 17.8 671.581 18.9267 670.621 19.82C669.674 20.7267 668.494 21.18 667.081 21.18C665.667 21.18 664.474 20.7267 663.501 19.82C662.541 18.9267 662.061 17.8 662.061 16.44ZM667.081 8.46C665.974 8.46 665.054 8.80667 664.321 9.5C663.587 10.18 663.221 11.0267 663.221 12.04V16.44C663.221 17.4533 663.587 18.3067 664.321 19C665.054 19.6933 665.974 20.04 667.081 20.04C668.161 20.04 669.067 19.6933 669.801 19C670.547 18.2933 670.921 17.44 670.921 16.44V12.04C670.921 11.0267 670.547 10.18 669.801 9.5C669.067 8.80667 668.161 8.46 667.081 8.46ZM682.156 10.98C682.156 10.2733 681.843 9.68 681.216 9.2C680.603 8.70667 679.823 8.46 678.876 8.46C678.13 8.46 677.47 8.62667 676.896 8.96C676.323 9.28 675.91 9.70667 675.656 10.24L674.616 9.74C674.963 9.00667 675.516 8.42667 676.276 8C677.05 7.56 677.916 7.34 678.876 7.34C680.143 7.34 681.203 7.68667 682.056 8.38C682.923 9.08667 683.356 9.94667 683.356 10.96C683.356 11.6267 683.143 12.24 682.716 12.8C682.303 13.3467 681.75 13.76 681.056 14.04C681.856 14.32 682.49 14.76 682.956 15.36C683.423 15.96 683.656 16.6333 683.656 17.38C683.656 18.4467 683.203 19.3533 682.296 20.1C681.403 20.82 680.27 21.18 678.896 21.18C677.856 21.18 676.936 20.96 676.136 20.52C675.336 20.08 674.763 19.48 674.416 18.72L675.536 18.28C675.79 18.8133 676.216 19.24 676.816 19.56C677.416 19.88 678.11 20.04 678.896 20.04C679.923 20.04 680.77 19.78 681.436 19.26C682.116 18.74 682.456 18.0933 682.456 17.32C682.456 16.56 682.123 15.9267 681.456 15.42C680.79 14.9133 679.97 14.66 678.996 14.66H677.996V13.56H678.736C679.71 13.56 680.523 13.3133 681.176 12.82C681.83 12.3267 682.156 11.7133 682.156 10.98Z" fill="white"/>
<path d="M662.061 255.025V250.645C662.061 249.298 662.541 248.178 663.501 247.285C664.474 246.378 665.667 245.925 667.081 245.925C668.494 245.925 669.674 246.378 670.621 247.285C671.581 248.178 672.061 249.298 672.061 250.645V255.025C672.061 256.385 671.581 257.511 670.621 258.405C669.674 259.311 668.494 259.765 667.081 259.765C665.667 259.765 664.474 259.311 663.501 258.405C662.541 257.511 662.061 256.385 662.061 255.025ZM667.081 247.045C665.974 247.045 665.054 247.391 664.321 248.085C663.587 248.765 663.221 249.611 663.221 250.625V255.025C663.221 256.038 663.587 256.891 664.321 257.585C665.054 258.278 665.974 258.625 667.081 258.625C668.161 258.625 669.067 258.278 669.801 257.585C670.547 256.878 670.921 256.025 670.921 255.025V250.625C670.921 249.611 670.547 248.765 669.801 248.085C669.067 247.391 668.161 247.045 667.081 247.045ZM676.456 259.585L681.336 247.165H673.896V246.085H682.536V247.225L677.716 259.585H676.456Z" fill="white"/>
<path d="M971.385 255.025V250.645C971.385 249.298 971.865 248.178 972.825 247.285C973.798 246.378 974.992 245.925 976.405 245.925C977.818 245.925 978.998 246.378 979.945 247.285C980.905 248.178 981.385 249.298 981.385 250.645V255.025C981.385 256.385 980.905 257.511 979.945 258.405C978.998 259.311 977.818 259.765 976.405 259.765C974.992 259.765 973.798 259.311 972.825 258.405C971.865 257.511 971.385 256.385 971.385 255.025ZM976.405 247.045C975.298 247.045 974.378 247.391 973.645 248.085C972.912 248.765 972.545 249.611 972.545 250.625V255.025C972.545 256.038 972.912 256.891 973.645 257.585C974.378 258.278 975.298 258.625 976.405 258.625C977.485 258.625 978.392 258.278 979.125 257.585C979.872 256.878 980.245 256.025 980.245 255.025V250.625C980.245 249.611 979.872 248.765 979.125 248.085C978.392 247.391 977.485 247.045 976.405 247.045ZM988.641 259.765C987.267 259.765 986.127 259.398 985.221 258.665C984.314 257.918 983.861 257.011 983.861 255.945C983.861 255.198 984.087 254.525 984.541 253.925C985.007 253.311 985.647 252.845 986.461 252.525C985.781 252.231 985.241 251.811 984.841 251.265C984.454 250.718 984.261 250.105 984.261 249.425C984.261 248.425 984.674 247.591 985.501 246.925C986.354 246.258 987.401 245.925 988.641 245.925C989.867 245.925 990.907 246.258 991.761 246.925C992.601 247.591 993.021 248.425 993.021 249.425C993.021 250.105 992.821 250.718 992.421 251.265C992.021 251.811 991.481 252.231 990.801 252.525C991.614 252.831 992.254 253.291 992.721 253.905C993.201 254.505 993.441 255.185 993.441 255.945C993.441 257.038 992.981 257.951 992.061 258.685C991.167 259.405 990.027 259.765 988.641 259.765ZM985.041 255.845C985.041 256.631 985.381 257.291 986.061 257.825C986.754 258.358 987.614 258.625 988.641 258.625C989.667 258.625 990.521 258.365 991.201 257.845C991.894 257.311 992.241 256.651 992.241 255.865C992.241 255.078 991.894 254.425 991.201 253.905C990.534 253.371 989.681 253.105 988.641 253.105C987.614 253.105 986.754 253.371 986.061 253.905C985.381 254.425 985.041 255.071 985.041 255.845ZM985.461 249.505C985.461 250.225 985.761 250.825 986.361 251.305C986.987 251.771 987.747 252.005 988.641 252.005C989.534 252.005 990.294 251.771 990.921 251.305C991.534 250.825 991.841 250.225 991.841 249.505C991.841 248.798 991.534 248.218 990.921 247.765C990.307 247.285 989.547 247.045 988.641 247.045C987.734 247.045 986.974 247.285 986.361 247.765C985.761 248.231 985.461 248.811 985.461 249.505Z" fill="white"/>
<path d="M969.986 16.44V12.06C969.986 10.7133 970.466 9.59333 971.426 8.7C972.399 7.79333 973.592 7.34 975.006 7.34C976.419 7.34 977.599 7.79333 978.546 8.7C979.506 9.59333 979.986 10.7133 979.986 12.06V16.44C979.986 17.8 979.506 18.9267 978.546 19.82C977.599 20.7267 976.419 21.18 975.006 21.18C973.592 21.18 972.399 20.7267 971.426 19.82C970.466 18.9267 969.986 17.8 969.986 16.44ZM975.006 8.46C973.899 8.46 972.979 8.80667 972.246 9.5C971.512 10.18 971.146 11.0267 971.146 12.04V16.44C971.146 17.4533 971.512 18.3067 972.246 19C972.979 19.6933 973.899 20.04 975.006 20.04C976.086 20.04 976.992 19.6933 977.726 19C978.472 18.2933 978.846 17.44 978.846 16.44V12.04C978.846 11.0267 978.472 10.18 977.726 9.5C976.992 8.80667 976.086 8.46 975.006 8.46ZM990.001 21V18.08H982.261V16.96L990.101 7.5H991.161V16.94H993.261V18.08H991.161V21H990.001ZM990.001 9.32L983.701 16.94H990.001V9.32Z" fill="white"/>
<defs>
<linearGradient id="paint0_linear_32_64" x1="492.031" y1="92.726" x2="418.693" y2="411.078" gradientUnits="userSpaceOnUse">
<stop stop-color="white"/>
<stop offset="1" stop-color="#38B9FC"/>
</linearGradient>
<linearGradient id="paint1_linear_32_64" x1="492.031" y1="337.354" x2="393.461" y2="703.046" gradientUnits="userSpaceOnUse">
<stop stop-color="white"/>
<stop offset="1" stop-color="#38B9FC"/>
</linearGradient>
<linearGradient id="paint2_linear_32_64" x1="717.85" y1="258.887" x2="750.961" y2="47.416" gradientUnits="userSpaceOnUse">
<stop stop-color="white"/>
<stop offset="1" stop-color="#38B9FC"/>
</linearGradient>
<linearGradient id="paint3_linear_32_64" x1="717.85" y1="519.887" x2="750.961" y2="308.416" gradientUnits="userSpaceOnUse">
<stop stop-color="white"/>
<stop offset="1" stop-color="#38B9FC"/>
</linearGradient>
</defs>
</svg>
