<svg width="80" height="79" viewBox="0 0 80 79" fill="none" xmlns="http://www.w3.org/2000/svg">
<g filter="url(#filter0_d_30_935)">
<path d="M45.7531 18.0503C45.4959 18.0503 45.2866 18.2502 45.2866 18.4959C45.2866 18.7415 45.4959 18.9414 45.7531 18.9414C46.0103 18.9414 46.2195 18.7415 46.2195 18.4959C46.2195 18.2502 46.0103 18.0503 45.7531 18.0503Z" fill="#38B9FC"/>
<path d="M40.1684 19.8804C37.8883 19.8804 36.0332 21.6524 36.0332 23.8304C36.0332 26.0085 37.8883 27.7805 40.1684 27.7805C42.4486 27.7805 44.3036 26.0085 44.3036 23.8304C44.3036 21.6524 42.4486 19.8804 40.1684 19.8804Z" fill="#38B9FC"/>
<path d="M44.5077 14.6538H35.8285C32.9243 14.6538 30.5615 16.9108 30.5615 19.685V27.9756C30.5615 30.7498 32.9243 33.0068 35.8285 33.0068H44.5077C47.412 33.0068 49.7748 30.7498 49.7748 27.9756V19.685C49.7748 16.9108 47.412 14.6538 44.5077 14.6538ZM40.1681 28.8641C37.2623 28.8641 34.8983 26.606 34.8983 23.8303C34.8983 21.0546 37.2624 18.7965 40.1681 18.7965C43.0739 18.7965 45.438 21.0546 45.438 23.8303C45.438 26.6059 43.0739 28.8641 40.1681 28.8641ZM45.7531 20.0248C44.8703 20.0248 44.1521 19.3387 44.1521 18.4954C44.1521 17.6521 44.8703 16.966 45.7531 16.966C46.636 16.966 47.3542 17.652 47.3542 18.4953C47.3542 19.3386 46.636 20.0248 45.7531 20.0248Z" fill="#38B9FC"/>
</g>
<defs>
<filter id="filter0_d_30_935" x="0.561523" y="0.653809" width="79.2134" height="78.353" filterUnits="userSpaceOnUse" color-interpolation-filters="sRGB">
<feFlood flood-opacity="0" result="BackgroundImageFix"/>
<feColorMatrix in="SourceAlpha" type="matrix" values="0 0 0 0 0 0 0 0 0 0 0 0 0 0 0 0 0 0 127 0" result="hardAlpha"/>
<feOffset dy="16"/>
<feGaussianBlur stdDeviation="15"/>
<feComposite in2="hardAlpha" operator="out"/>
<feColorMatrix type="matrix" values="0 0 0 0 0 0 0 0 0 0.220306 0 0 0 0 0.379167 0 0 0 1 0"/>
<feBlend mode="normal" in2="BackgroundImageFix" result="effect1_dropShadow_30_935"/>
<feBlend mode="normal" in="SourceGraphic" in2="effect1_dropShadow_30_935" result="shape"/>
</filter>
</defs>
</svg>
