<svg width="79" height="79" viewBox="0 0 79 79" fill="none" xmlns="http://www.w3.org/2000/svg">
<g filter="url(#filter0_d_30_948)">
<path d="M49 32.63V32.6292H49.0046V25.8857C49.0046 22.5867 48.2944 20.0454 44.4377 20.0454C42.5836 20.0454 41.3394 21.0628 40.8315 22.0274H40.7779V20.3534H37.1211V32.6292H40.9288V26.5507C40.9288 24.9502 41.2322 23.4026 43.2142 23.4026C45.1671 23.4026 45.1962 25.2291 45.1962 26.6533V32.63H49Z" fill="#38B9FC"/>
<path d="M30.9209 20.354H34.7332V32.6298H30.9209V20.354Z" fill="#38B9FC"/>
<path d="M32.8257 14.2422C31.6068 14.2422 30.6177 15.2313 30.6177 16.4502C30.6177 17.6691 31.6068 18.6789 32.8257 18.6789C34.0446 18.6789 35.0337 17.6691 35.0337 16.4502C35.0329 15.2313 34.0438 14.2422 32.8257 14.2422V14.2422Z" fill="#38B9FC"/>
</g>
<defs>
<filter id="filter0_d_30_948" x="0.617676" y="0.242188" width="78.3867" height="78.3877" filterUnits="userSpaceOnUse" color-interpolation-filters="sRGB">
<feFlood flood-opacity="0" result="BackgroundImageFix"/>
<feColorMatrix in="SourceAlpha" type="matrix" values="0 0 0 0 0 0 0 0 0 0 0 0 0 0 0 0 0 0 127 0" result="hardAlpha"/>
<feOffset dy="16"/>
<feGaussianBlur stdDeviation="15"/>
<feComposite in2="hardAlpha" operator="out"/>
<feColorMatrix type="matrix" values="0 0 0 0 0 0 0 0 0 0.220306 0 0 0 0 0.379167 0 0 0 1 0"/>
<feBlend mode="normal" in2="BackgroundImageFix" result="effect1_dropShadow_30_948"/>
<feBlend mode="normal" in="SourceGraphic" in2="effect1_dropShadow_30_948" result="shape"/>
</filter>
</defs>
</svg>
