<svg width="73" height="72" viewBox="0 0 73 72" fill="none" xmlns="http://www.w3.org/2000/svg">
<g id="ds_&#208;&#178;&#208;&#190;&#208;&#187;&#208;&#189;&#208;&#176; 4">
<g id="Group">
<g id="Layer0_0_FILL">
<path id="Vector" d="M37.0282 53.1552C36.9049 53.0352 36.7557 52.9752 36.5805 52.9752H36.5756C36.548 52.9752 36.5229 52.9776 36.5002 52.9824C36.3607 52.9936 36.2374 53.0512 36.1303 53.1552C36.0086 53.2768 35.9478 53.4248 35.9478 53.5992C35.9478 53.772 36.0086 53.9192 36.1303 54.0408C36.2374 54.1464 36.3607 54.2064 36.5002 54.2208C36.5229 54.2224 36.548 54.2232 36.5756 54.2232H36.5805C36.7557 54.2232 36.9049 54.1624 37.0282 54.0408C37.1515 53.9192 37.2131 53.772 37.2131 53.5992C37.2131 53.4248 37.1515 53.2768 37.0282 53.1552ZM36.5002 53.3352C36.5229 53.3272 36.548 53.3232 36.5756 53.3232C36.6535 53.3232 36.7192 53.3496 36.7727 53.4024C36.8279 53.4568 36.8554 53.5224 36.8554 53.5992C36.8554 53.676 36.8279 53.7408 36.7727 53.7936C36.7192 53.8496 36.6535 53.8776 36.5756 53.8776C36.548 53.8776 36.5229 53.8752 36.5002 53.8704C36.4531 53.856 36.411 53.8304 36.3736 53.7936C36.3201 53.7408 36.2933 53.676 36.2933 53.5992C36.2933 53.5224 36.3201 53.4568 36.3736 53.4024C36.411 53.3672 36.4531 53.3448 36.5002 53.3352ZM31.2734 50.2032C31.03 50.2032 30.82 50.2872 30.6431 50.4552C30.502 50.5992 30.4201 50.7656 30.3974 50.9544C30.3909 50.9944 30.3876 51.0352 30.3876 51.0768C30.3876 51.3152 30.4728 51.52 30.6431 51.6912C30.82 51.864 31.03 51.9504 31.2734 51.9504C31.434 51.9504 31.58 51.9136 31.7114 51.84L32.5776 52.6248V54.8688L36.5002 58.908L36.5318 58.9344L40.4811 54.8688V52.6248L41.3522 51.84C41.482 51.9136 41.628 51.9504 41.7902 51.9504C42.0336 51.9504 42.2437 51.864 42.4205 51.6912C42.5908 51.52 42.676 51.3152 42.676 51.0768C42.676 51.0352 42.6719 50.9944 42.6638 50.9544C42.6411 50.7656 42.56 50.5992 42.4205 50.4552C42.2437 50.2872 42.0336 50.2032 41.7902 50.2032C41.5453 50.2032 41.3376 50.2872 41.1673 50.4552C40.9905 50.6296 40.9021 50.8368 40.9021 51.0768C40.9021 51.1856 40.9215 51.2888 40.9605 51.3864C40.9848 51.452 41.0189 51.5152 41.0627 51.576L40.1477 52.4208V54.7008L36.5586 58.44H36.5002L32.911 54.7008V52.4208L32.0009 51.576C32.0415 51.5152 32.0756 51.452 32.1031 51.3864C32.1405 51.2888 32.1591 51.1856 32.1591 51.0768C32.1591 50.8368 32.0715 50.6296 31.8963 50.4552C31.7227 50.2872 31.5151 50.2032 31.2734 50.2032ZM30.704 51.0768C30.704 51.0352 30.7105 50.9944 30.7234 50.9544C30.7397 50.8552 30.7883 50.7648 30.8694 50.6832C30.9798 50.576 31.112 50.5224 31.2661 50.5224C31.4186 50.5224 31.5492 50.576 31.6578 50.6832C31.7406 50.7648 31.7933 50.8552 31.816 50.9544C31.8241 50.9944 31.8282 51.0352 31.8282 51.0768C31.8282 51.2288 31.7714 51.3576 31.6578 51.4632C31.5492 51.572 31.4186 51.6264 31.2661 51.6264C31.112 51.6264 30.9798 51.572 30.8694 51.4632C30.7591 51.3576 30.704 51.2288 30.704 51.0768ZM41.2354 51.0768C41.2354 51.0352 41.2387 50.9944 41.2452 50.9544C41.2679 50.8552 41.3198 50.7648 41.4009 50.6832C41.5096 50.576 41.6402 50.5224 41.7927 50.5224C41.9468 50.5224 42.0806 50.576 42.1942 50.6832C42.272 50.7648 42.3207 50.8552 42.3402 50.9544C42.3499 50.9944 42.3548 51.0352 42.3548 51.0768C42.3548 51.2288 42.3012 51.3576 42.1942 51.4632C42.0806 51.572 41.9468 51.6264 41.7927 51.6264C41.6402 51.6264 41.5096 51.572 41.4009 51.4632C41.2906 51.3576 41.2354 51.2288 41.2354 51.0768ZM36.5002 24.7176V21.9288C34.4292 21.9426 32.6577 22.673 31.1858 24.12C29.7047 25.5856 28.9641 27.3528 28.9641 29.4216V32.196C28.5472 32.3544 28.1668 32.6008 27.8229 32.9352C27.1805 33.5704 26.8593 34.336 26.8593 35.232V44.2584C26.8593 45.1528 27.1805 45.916 27.8229 46.548C28.4653 47.1832 29.2407 47.5008 30.1492 47.5008H36.5002V44.1456H34.4635L35.6339 40.2432C35.3727 40.1296 35.1326 39.9656 34.9136 39.7512C34.4578 39.3 34.2299 38.756 34.2299 38.1192C34.2299 37.4792 34.4578 36.932 34.9136 36.4776C35.3565 36.0456 35.8854 35.8216 36.5002 35.8056V31.992H31.7941V29.4048C31.7941 28.1088 32.2581 27.004 33.186 26.0904C34.1042 25.1848 35.2089 24.7272 36.5002 24.7176ZM42.895 16.9512C42.895 17.2008 42.9842 17.4128 43.1626 17.5872C43.1675 17.592 43.1716 17.5952 43.1748 17.5968C43.3127 17.7344 43.4757 17.8168 43.6639 17.844V21.7008L36.5318 14.4984L29.3973 21.7008V17.844C29.5838 17.8168 29.7461 17.7344 29.8839 17.5968C29.8904 17.5952 29.8945 17.592 29.8961 17.5872C30.0778 17.4128 30.1686 17.2008 30.1686 16.9512C30.1686 16.7 30.0778 16.4848 29.8961 16.3056C29.7209 16.1344 29.506 16.0488 29.2513 16.0488C28.9966 16.0488 28.7792 16.1344 28.5991 16.3056C28.4256 16.4848 28.3388 16.7 28.3388 16.9512C28.3388 17.2008 28.4256 17.4128 28.5991 17.5872C28.604 17.592 28.6081 17.5952 28.6113 17.5968C28.7395 17.7184 28.8871 17.7976 29.0542 17.8344V22.5192L36.5318 15.0312L44.007 22.5192V17.8344C44.1757 17.7976 44.3233 17.7184 44.4499 17.5968C44.4547 17.5952 44.458 17.592 44.4596 17.5872C44.6364 17.4128 44.7248 17.2008 44.7248 16.9512C44.7248 16.7 44.6364 16.4848 44.4596 16.3056C44.2812 16.1344 44.0654 16.0488 43.8123 16.0488C43.5544 16.0488 43.3378 16.1344 43.1626 16.3056C42.9842 16.4848 42.895 16.7 42.895 16.9512ZM43.4692 16.6104C43.5617 16.5192 43.6761 16.4736 43.8123 16.4736C43.9454 16.4736 44.0581 16.5192 44.1506 16.6104C44.2463 16.7032 44.2941 16.8168 44.2941 16.9512C44.2941 17.084 44.2463 17.1968 44.1506 17.2896C44.0581 17.3808 43.9454 17.4264 43.8123 17.4264C43.7588 17.4264 43.7093 17.4216 43.6639 17.412C43.5893 17.3848 43.5244 17.344 43.4692 17.2896C43.3752 17.1968 43.3281 17.084 43.3281 16.9512C43.3281 16.8168 43.3752 16.7032 43.4692 16.6104ZM28.9082 16.6104C29.0039 16.5192 29.1183 16.4736 29.2513 16.4736C29.3875 16.4736 29.5019 16.5192 29.5944 16.6104C29.6868 16.7032 29.7331 16.8168 29.7331 16.9512C29.7331 17.084 29.6868 17.1968 29.5944 17.2896C29.5392 17.344 29.4735 17.3848 29.3973 17.412C29.3535 17.4216 29.3048 17.4264 29.2513 17.4264C29.1183 17.4264 29.0039 17.3808 28.9082 17.2896C28.8157 17.1968 28.7695 17.084 28.7695 16.9512C28.7695 16.8168 28.8157 16.7032 28.9082 16.6104ZM23.2774 47.9472C23.1006 48.1216 23.0122 48.3328 23.0122 48.5808C23.0122 48.8256 23.1006 49.0352 23.2774 49.2096C23.451 49.3824 23.6635 49.4688 23.915 49.4688C24.1664 49.4688 24.3797 49.3824 24.5549 49.2096C24.5809 49.184 24.6052 49.16 24.6279 49.1376L30.2514 54.6V58.3944C30.3584 58.524 30.4663 58.524 30.575 58.3944V54.4968L24.7739 48.864C24.8048 48.7744 24.8202 48.68 24.8202 48.5808C24.8202 48.3328 24.7318 48.1216 24.5549 47.9472C24.3797 47.7744 24.1664 47.688 23.915 47.688C23.6635 47.688 23.451 47.7744 23.2774 47.9472ZM23.3358 48.5808C23.3358 48.4224 23.3926 48.2872 23.5062 48.1752C23.6165 48.0632 23.7528 48.0072 23.915 48.0072C24.0756 48.0072 24.2127 48.0632 24.3262 48.1752C24.4365 48.2872 24.4917 48.4224 24.4917 48.5808C24.4917 48.7392 24.4365 48.8728 24.3262 48.9816C24.2127 49.0936 24.0756 49.1496 23.915 49.1496C23.7528 49.1496 23.6165 49.0936 23.5062 48.9816C23.3926 48.8728 23.3358 48.7392 23.3358 48.5808ZM50.0514 48.5808C50.0514 48.3328 49.963 48.1216 49.7862 47.9472C49.6094 47.7744 49.3968 47.688 49.1486 47.688C48.8972 47.688 48.6831 47.7744 48.5062 47.9472C48.331 48.1216 48.2434 48.3328 48.2434 48.5808C48.2434 48.68 48.2589 48.7744 48.2897 48.864L42.4837 54.4968V58.3944C42.5941 58.524 42.7036 58.524 42.8122 58.3944V54.6L48.4357 49.1376C48.4551 49.16 48.4787 49.184 48.5062 49.2096C48.6831 49.3824 48.8972 49.4688 49.1486 49.4688C49.3968 49.4688 49.6094 49.3824 49.7862 49.2096C49.963 49.0352 50.0514 48.8256 50.0514 48.5808ZM49.555 48.1752C49.6686 48.2872 49.7253 48.4224 49.7253 48.5808C49.7253 48.7392 49.6686 48.8728 49.555 48.9816C49.4447 49.0936 49.3092 49.1496 49.1486 49.1496C48.988 49.1496 48.851 49.0936 48.7374 48.9816C48.6238 48.8728 48.5671 48.7392 48.5671 48.5808C48.5671 48.4224 48.6238 48.2872 48.7374 48.1752C48.851 48.0632 48.988 48.0072 49.1486 48.0072C49.3092 48.0072 49.4447 48.0632 49.555 48.1752ZM54.5701 34.2864C54.6999 34.416 54.8491 34.4992 55.0178 34.536V38.8824C54.8491 38.9144 54.6999 38.9944 54.5701 39.1224C54.3884 39.3016 54.2976 39.5168 54.2976 39.768C54.2976 39.9664 54.3544 40.1408 54.4679 40.2912C54.4776 40.312 54.4898 40.3296 54.5044 40.344C54.5255 40.3664 54.5474 40.3888 54.5701 40.4112C54.7486 40.5872 54.9643 40.6752 55.2174 40.6752C55.4737 40.6752 55.6911 40.5872 55.8695 40.4112C56.048 40.232 56.1372 40.0176 56.1372 39.768C56.1372 39.5168 56.048 39.3016 55.8695 39.1224C55.7235 38.9784 55.554 38.8944 55.3609 38.8704V34.548C55.554 34.5176 55.7235 34.4304 55.8695 34.2864C56.048 34.1104 56.1372 33.896 56.1372 33.6432C56.1372 33.392 56.048 33.1784 55.8695 33.0024C55.6911 32.8248 55.4737 32.736 55.2174 32.736C54.9643 32.736 54.7486 32.8248 54.5701 33.0024C54.3884 33.1784 54.2976 33.392 54.2976 33.6432C54.2976 33.896 54.3884 34.1104 54.5701 34.2864ZM55.0178 34.1856C54.9432 34.1568 54.8751 34.1112 54.8134 34.0488C54.6983 33.9368 54.6407 33.8016 54.6407 33.6432C54.6407 33.4848 54.6983 33.348 54.8134 33.2328C54.927 33.124 55.0641 33.0696 55.2247 33.0696C55.3869 33.0696 55.5256 33.124 55.6408 33.2328C55.7543 33.348 55.8111 33.4848 55.8111 33.6432C55.8111 33.8016 55.7543 33.9368 55.6408 34.0488C55.558 34.1304 55.4648 34.184 55.3609 34.2096C55.3188 34.216 55.2733 34.2192 55.2247 34.2192C55.1501 34.2192 55.0811 34.208 55.0178 34.1856ZM55.2247 39.1896C55.2733 39.1896 55.3188 39.196 55.3609 39.2088C55.4648 39.2312 55.558 39.2808 55.6408 39.3576C55.7543 39.4712 55.8111 39.608 55.8111 39.768C55.8111 39.9264 55.7543 40.0616 55.6408 40.1736C55.5256 40.2872 55.3869 40.344 55.2247 40.344C55.0641 40.344 54.927 40.2872 54.8134 40.1736C54.6983 40.0616 54.6407 39.9264 54.6407 39.768C54.6407 39.608 54.6983 39.4712 54.8134 39.3576C54.927 39.2456 55.0641 39.1896 55.2247 39.1896ZM55.0981 19.3536C54.9165 19.1792 54.6983 19.092 54.4436 19.092C54.1905 19.092 53.9756 19.1792 53.7987 19.3536C53.6203 19.5296 53.5311 19.7432 53.5311 19.9944C53.5311 20.2472 53.6203 20.4592 53.7987 20.6304C53.9756 20.808 54.1905 20.8968 54.4436 20.8968C54.6983 20.8968 54.9165 20.808 55.0981 20.6304C55.2733 20.4592 55.3609 20.2472 55.3609 19.9944C55.3609 19.7432 55.2733 19.5296 55.0981 19.3536ZM54.4436 19.5168C54.5798 19.5168 54.6942 19.564 54.7867 19.6584C54.8808 19.7496 54.9278 19.8616 54.9278 19.9944C54.9278 20.1272 54.8808 20.24 54.7867 20.3328C54.6942 20.424 54.5798 20.4696 54.4436 20.4696C54.3089 20.4696 54.1946 20.424 54.1005 20.3328C54.008 20.24 53.9618 20.1272 53.9618 19.9944C53.9618 19.8616 54.008 19.7496 54.1005 19.6584C54.1946 19.564 54.3089 19.5168 54.4436 19.5168ZM57.6994 22.7064L57.495 22.464L49.6718 30.2016C49.6377 30.0672 49.568 29.9496 49.4625 29.8488C49.2938 29.6824 49.0902 29.5992 48.8518 29.5992C48.6101 29.5992 48.4049 29.6824 48.2361 29.8488C48.0707 30.0152 47.9879 30.216 47.9879 30.4512C47.9879 30.5424 48.0001 30.6296 48.0244 30.7128C48.065 30.8408 48.1356 30.9544 48.2361 31.0536C48.3692 31.1832 48.5225 31.2624 48.696 31.2912V44.4312C48.6928 44.7464 48.8072 44.8488 49.0391 44.7384L51.9713 41.8104L53.7306 43.5648L53.9837 43.2936L51.9737 41.2656V31.9608L58.2177 25.668L57.9914 25.4136L51.5941 31.86V41.4336L51.728 41.568L49.0683 44.2392V31.2816C49.2143 31.2432 49.3457 31.1672 49.4625 31.0536C49.5631 30.9544 49.6329 30.8408 49.6718 30.7128C49.6799 30.684 49.688 30.656 49.6961 30.6288L57.6994 22.7064ZM49.3044 30.4512C49.3044 30.504 49.2963 30.552 49.28 30.5952C49.2784 30.6112 49.2711 30.628 49.2581 30.6456C49.25 30.668 49.2371 30.6904 49.2192 30.7128C49.2079 30.7288 49.1933 30.7472 49.1754 30.768C49.0846 30.8544 48.9767 30.8976 48.8518 30.8976C48.7236 30.8976 48.6166 30.8544 48.5306 30.768C48.5095 30.7472 48.4916 30.7288 48.477 30.7128C48.4219 30.6376 48.3943 30.5504 48.3943 30.4512C48.3943 30.3248 48.4397 30.2184 48.5306 30.132C48.6166 30.044 48.7236 30 48.8518 30C48.9767 30 49.0846 30.044 49.1754 30.132C49.2614 30.2184 49.3044 30.3248 49.3044 30.4512ZM46.7007 21.084L46.3454 20.8536V23.9136L49.3603 26.9808C49.568 27.1536 49.7781 27.1536 49.9906 26.9808L53.1125 23.8248C53.2391 23.684 53.2529 23.5128 53.1539 23.3112L51.1732 21.2616C51.1894 21.2472 51.2024 21.2352 51.2121 21.2256C51.3581 21.0816 51.4311 20.9056 51.4311 20.6976C51.4311 20.6032 51.4157 20.5144 51.3849 20.4312C51.3784 20.412 51.3711 20.3936 51.363 20.376C51.3257 20.2992 51.2754 20.2296 51.2121 20.1672C51.0629 20.0216 50.8828 19.9488 50.6719 19.9488C50.4643 19.9488 50.2874 20.0216 50.1414 20.1672C50.0782 20.2296 50.0255 20.2992 49.9833 20.376C49.9379 20.4736 49.9151 20.5808 49.9151 20.6976C49.9151 20.9056 49.9906 21.0816 50.1414 21.2256C50.2161 21.2976 50.2972 21.3544 50.3848 21.396C50.474 21.428 50.5697 21.444 50.6719 21.444C50.7546 21.444 50.8317 21.4328 50.9031 21.4104L52.8449 23.4192C52.8984 23.5056 52.9025 23.584 52.857 23.6544L49.8154 26.652C49.7051 26.7448 49.6021 26.7448 49.5063 26.652L46.7007 23.7696V21.084ZM47.2774 19.1256C47.0243 19.1256 46.8094 19.2128 46.6326 19.3872C46.4541 19.5632 46.3649 19.776 46.3649 20.0256C46.3649 20.2768 46.4541 20.4896 46.6326 20.664C46.8094 20.8416 47.0243 20.9304 47.2774 20.9304C47.5321 20.9304 47.7495 20.8416 47.9295 20.664C48.1064 20.4896 48.1948 20.2768 48.1948 20.0256C48.1948 19.776 48.1064 19.5632 47.9295 19.3872C47.7495 19.2128 47.5321 19.1256 47.2774 19.1256ZM46.9343 19.692C47.03 19.5976 47.1444 19.5504 47.2774 19.5504C47.4137 19.5504 47.528 19.5976 47.6205 19.692C47.7146 19.7832 47.7616 19.8944 47.7616 20.0256C47.7616 20.16 47.7146 20.2736 47.6205 20.3664C47.528 20.4576 47.4137 20.5032 47.2774 20.5032C47.1444 20.5032 47.03 20.4576 46.9343 20.3664C46.8418 20.2736 46.7956 20.16 46.7956 20.0256C46.7956 19.8944 46.8418 19.7832 46.9343 19.692Z" fill="#F2F5F4"/>
<path id="Vector_2" d="M36.5758 53.3232C36.5482 53.3232 36.523 53.3272 36.5003 53.3352C36.4533 53.3448 36.4111 53.3672 36.3738 53.4024C36.3203 53.4568 36.2935 53.5224 36.2935 53.5992C36.2935 53.676 36.3203 53.7408 36.3738 53.7936C36.4111 53.8304 36.4533 53.856 36.5003 53.8704C36.523 53.8752 36.5482 53.8776 36.5758 53.8776C36.6536 53.8776 36.7193 53.8496 36.7729 53.7936C36.828 53.7408 36.8556 53.676 36.8556 53.5992C36.8556 53.5224 36.828 53.4568 36.7729 53.4024C36.7193 53.3496 36.6536 53.3232 36.5758 53.3232ZM30.7236 50.9544C30.7106 50.9944 30.7041 51.0352 30.7041 51.0768C30.7041 51.2288 30.7593 51.3576 30.8696 51.4632C30.9799 51.572 31.1121 51.6264 31.2662 51.6264C31.4187 51.6264 31.5493 51.572 31.658 51.4632C31.7715 51.3576 31.8283 51.2288 31.8283 51.0768C31.8283 51.0352 31.8243 50.9944 31.8162 50.9544C31.7934 50.8552 31.7407 50.7648 31.658 50.6832C31.5493 50.576 31.4187 50.5224 31.2662 50.5224C31.1121 50.5224 30.9799 50.576 30.8696 50.6832C30.7885 50.7648 30.7398 50.8552 30.7236 50.9544ZM36.5003 35.8056C35.8855 35.8216 35.3567 36.0456 34.9138 36.4776C34.4579 36.932 34.23 37.4792 34.23 38.1192C34.23 38.756 34.4579 39.3 34.9138 39.7512C35.1328 39.9656 35.3729 40.1296 35.6341 40.2432L34.4636 44.1456H36.5003V35.8056ZM36.5003 24.7176C35.209 24.7272 34.1043 25.1848 33.1861 26.0904C32.2582 27.004 31.7943 28.1088 31.7943 29.4048V31.992H36.5003V24.7176ZM29.2514 16.4736C29.1184 16.4736 29.004 16.5192 28.9083 16.6104C28.8159 16.7032 28.7696 16.8168 28.7696 16.9512C28.7696 17.084 28.8159 17.1968 28.9083 17.2896C29.004 17.3808 29.1184 17.4264 29.2514 17.4264C29.305 17.4264 29.3536 17.4216 29.3974 17.412C29.4737 17.3848 29.5394 17.344 29.5945 17.2896C29.687 17.1968 29.7332 17.084 29.7332 16.9512C29.7332 16.8168 29.687 16.7032 29.5945 16.6104C29.5021 16.5192 29.3877 16.4736 29.2514 16.4736ZM36.532 8.49839C36.5238 8.49039 36.5157 8.48239 36.5076 8.47439C32.6759 11.932 27.8441 14.4704 22.0123 16.0896C19.1539 16.936 16.1406 17.4832 12.9724 17.7312C12.7129 32.6128 15.2119 43.4576 20.4695 50.2656C24.9566 56.608 30.3002 61.2472 36.5003 64.1832V58.908L32.5778 54.8688V52.6248L31.7115 51.84C31.5801 51.9136 31.4341 51.9504 31.2735 51.9504C31.0302 51.9504 30.8201 51.864 30.6433 51.6912C30.473 51.52 30.3878 51.3152 30.3878 51.0768C30.3878 51.0352 30.391 50.9944 30.3975 50.9544C30.4202 50.7656 30.5022 50.5992 30.6433 50.4552C30.8201 50.2872 31.0302 50.2032 31.2735 50.2032C31.5152 50.2032 31.7229 50.2872 31.8965 50.4552C32.0717 50.6296 32.1593 50.8368 32.1593 51.0768C32.1593 51.1856 32.1406 51.2888 32.1033 51.3864C32.0757 51.452 32.0416 51.5152 32.0011 51.576L32.9112 52.4208V54.7008L36.5003 58.44V54.2208C36.3608 54.2064 36.2375 54.1464 36.1305 54.0408C36.0088 53.9192 35.948 53.772 35.948 53.5992C35.948 53.4248 36.0088 53.2768 36.1305 53.1552C36.2375 53.0512 36.3608 52.9936 36.5003 52.9824V47.5008H30.1493C29.2409 47.5008 28.4655 47.1832 27.8231 46.548C27.1807 45.916 26.8595 45.1528 26.8595 44.2584V35.232C26.8595 34.336 27.1807 33.5704 27.8231 32.9352C28.167 32.6008 28.5474 32.3544 28.9643 32.196V29.4216C28.9643 27.3528 29.7048 25.5856 31.1859 24.12C32.6579 22.673 34.4294 21.9426 36.5003 21.9288C36.5109 21.9288 36.5214 21.9288 36.532 21.9288V15.0312L29.0543 22.5192V17.8344C28.8872 17.7976 28.7396 17.7184 28.6115 17.5968C28.6082 17.5952 28.6042 17.592 28.5993 17.5872C28.4257 17.4128 28.3389 17.2008 28.3389 16.9512C28.3389 16.7 28.4257 16.4848 28.5993 16.3056C28.7794 16.1344 28.9967 16.0488 29.2514 16.0488C29.5061 16.0488 29.7211 16.1344 29.8963 16.3056C30.0779 16.4848 30.1688 16.7 30.1688 16.9512C30.1688 17.2008 30.0779 17.4128 29.8963 17.5872C29.8946 17.592 29.8906 17.5952 29.8841 17.5968C29.7462 17.7344 29.584 17.8168 29.3974 17.844V21.7008L36.532 14.4984V8.49839ZM15.362 22.7064L15.5639 22.464L23.3871 30.2016C23.4244 30.0672 23.4958 29.9496 23.6012 29.8488C23.7699 29.6824 23.9735 29.5992 24.212 29.5992C24.4505 29.5992 24.654 29.6824 24.8228 29.8488C24.9915 30.0152 25.0758 30.216 25.0758 30.4512C25.0758 30.5424 25.0637 30.6296 25.0393 30.7128C24.9955 30.8408 24.9233 30.9544 24.8228 31.0536C24.693 31.1832 24.5397 31.2624 24.3629 31.2912V44.4312C24.3677 44.7464 24.2534 44.8488 24.0198 44.7384L21.0925 41.8104L19.3307 43.5648L19.0777 43.2936L21.0852 41.2656V31.9608L14.8461 25.668L15.07 25.4136L21.4672 31.86V41.4336L21.3334 41.568L23.993 44.2392V31.2816C23.847 31.2432 23.7164 31.1672 23.6012 31.0536C23.5006 30.9544 23.4293 30.8408 23.3871 30.7128C23.379 30.684 23.3709 30.656 23.3628 30.6288L15.362 22.7064ZM25.7839 19.1256C26.0386 19.1256 26.2544 19.2128 26.4312 19.3872C26.6096 19.5632 26.6989 19.776 26.6989 20.0256C26.6989 20.2768 26.6096 20.4896 26.4312 20.664C26.2544 20.8416 26.0386 20.9304 25.7839 20.9304C25.5276 20.9304 25.3102 20.8416 25.1318 20.664C24.9566 20.4896 24.869 20.2768 24.869 20.0256C24.869 19.776 24.9566 19.5632 25.1318 19.3872C25.3102 19.2128 25.5276 19.1256 25.7839 19.1256ZM26.3631 21.084L26.7159 20.8536V23.9136L23.7034 26.9808C23.4925 27.1536 23.2825 27.1536 23.0732 26.9808L19.9464 23.8248C19.8231 23.684 19.8101 23.5128 19.9074 23.3112L21.8882 21.2616C21.8736 21.2472 21.8614 21.2352 21.8517 21.2256C21.7057 21.0816 21.6327 20.9056 21.6327 20.6976C21.6327 20.6032 21.6464 20.5144 21.674 20.4312C21.6805 20.412 21.6878 20.3936 21.6959 20.376C21.7332 20.2992 21.7851 20.2296 21.8517 20.1672C21.9993 20.0216 22.1777 19.9488 22.387 19.9488C22.5979 19.9488 22.7763 20.0216 22.9223 20.1672C22.9856 20.2296 23.0367 20.2992 23.0756 20.376C23.121 20.4736 23.1438 20.5808 23.1438 20.6976C23.1438 20.9056 23.0699 21.0816 22.9223 21.2256C22.8461 21.2976 22.7633 21.3544 22.6741 21.396C22.5881 21.428 22.4924 21.444 22.387 21.444C22.3059 21.444 22.2288 21.4328 22.1558 21.4104L20.2165 23.4192C20.1645 23.5056 20.1613 23.584 20.2067 23.6544L23.246 26.652C23.3546 26.7448 23.4577 26.7448 23.555 26.652L26.3631 23.7696V21.084ZM19.2626 19.3536C19.441 19.5296 19.5303 19.7432 19.5303 19.9944C19.5303 20.2472 19.441 20.4592 19.2626 20.6304C19.0874 20.808 18.8724 20.8968 18.6178 20.8968C18.3614 20.8968 18.1441 20.808 17.9656 20.6304C17.7888 20.4592 17.7004 20.2472 17.7004 19.9944C17.7004 19.7432 17.7888 19.5296 17.9656 19.3536C18.1441 19.1792 18.3614 19.092 18.6178 19.092C18.8724 19.092 19.0874 19.1792 19.2626 19.3536ZM17.8415 32.736C18.0946 32.736 18.312 32.8248 18.4937 33.0024C18.6721 33.1784 18.7613 33.392 18.7613 33.6432C18.7613 33.896 18.6721 34.1104 18.4937 34.2864C18.3623 34.416 18.213 34.4992 18.0459 34.536V38.8824C18.213 38.9144 18.3623 38.9944 18.4937 39.1224C18.6721 39.3016 18.7613 39.5168 18.7613 39.768C18.7613 39.9664 18.7062 40.1408 18.5959 40.2912C18.5829 40.312 18.5691 40.3296 18.5545 40.344C18.5366 40.3664 18.5164 40.3888 18.4937 40.4112C18.312 40.5872 18.0946 40.6752 17.8415 40.6752C17.5868 40.6752 17.3703 40.5872 17.1918 40.4112C17.0118 40.232 16.9217 40.0176 16.9217 39.768C16.9217 39.5168 17.0118 39.3016 17.1918 39.1224C17.3378 38.9784 17.5073 38.8944 17.7004 38.8704V34.548C17.5073 34.5176 17.3378 34.4304 17.1918 34.2864C17.0118 34.1104 16.9217 33.896 16.9217 33.6432C16.9217 33.392 17.0118 33.1784 17.1918 33.0024C17.3703 32.8248 17.5868 32.736 17.8415 32.736ZM23.0124 48.5808C23.0124 48.3328 23.1008 48.1216 23.2776 47.9472C23.4512 47.7744 23.6637 47.688 23.9151 47.688C24.1666 47.688 24.3799 47.7744 24.5551 47.9472C24.7319 48.1216 24.8203 48.3328 24.8203 48.5808C24.8203 48.68 24.8049 48.7744 24.7741 48.864L30.5752 54.4968V58.3944C30.4665 58.524 30.3586 58.524 30.2515 58.3944V54.6L24.6281 49.1376C24.6054 49.16 24.581 49.184 24.5551 49.2096C24.3799 49.3824 24.1666 49.4688 23.9151 49.4688C23.6637 49.4688 23.4512 49.3824 23.2776 49.2096C23.1008 49.0352 23.0124 48.8256 23.0124 48.5808ZM23.5063 48.1752C23.3928 48.2872 23.336 48.4224 23.336 48.5808C23.336 48.7392 23.3928 48.8728 23.5063 48.9816C23.6166 49.0936 23.7529 49.1496 23.9151 49.1496C24.0757 49.1496 24.2128 49.0936 24.3264 48.9816C24.4367 48.8728 24.4918 48.7392 24.4918 48.5808C24.4918 48.4224 24.4367 48.2872 24.3264 48.1752C24.2128 48.0632 24.0757 48.0072 23.9151 48.0072C23.7529 48.0072 23.6166 48.0632 23.5063 48.1752ZM18.4231 39.768C18.4231 39.608 18.3639 39.4712 18.2455 39.3576C18.1351 39.2456 17.9989 39.1896 17.8367 39.1896C17.7864 39.1896 17.7409 39.196 17.7004 39.2088C17.5949 39.2312 17.5025 39.2808 17.423 39.3576C17.3094 39.4712 17.2527 39.608 17.2527 39.768C17.2527 39.9264 17.3094 40.0616 17.423 40.1736C17.5382 40.2872 17.6761 40.344 17.8367 40.344C17.9989 40.344 18.1351 40.2872 18.2455 40.1736C18.3639 40.0616 18.4231 39.9264 18.4231 39.768ZM18.2455 33.2328C18.1351 33.124 17.9989 33.0696 17.8367 33.0696C17.6761 33.0696 17.5382 33.124 17.423 33.2328C17.3094 33.348 17.2527 33.4848 17.2527 33.6432C17.2527 33.8016 17.3094 33.9368 17.423 34.0488C17.5025 34.1304 17.5949 34.184 17.7004 34.2096C17.7409 34.216 17.7864 34.2192 17.8367 34.2192C17.9129 34.2192 17.9827 34.208 18.0459 34.1856C18.1205 34.1568 18.1871 34.1112 18.2455 34.0488C18.3639 33.9368 18.4231 33.8016 18.4231 33.6432C18.4231 33.4848 18.3639 33.348 18.2455 33.2328ZM19.102 19.9944C19.102 19.8616 19.0541 19.7496 18.9584 19.6584C18.8643 19.564 18.7508 19.5168 18.6178 19.5168C18.4815 19.5168 18.3671 19.564 18.2747 19.6584C18.1822 19.7496 18.136 19.8616 18.136 19.9944C18.136 20.1272 18.1822 20.24 18.2747 20.3328C18.3671 20.424 18.4815 20.4696 18.6178 20.4696C18.7508 20.4696 18.8643 20.424 18.9584 20.3328C19.0541 20.24 19.102 20.1272 19.102 19.9944ZM26.1246 19.692C26.0321 19.5976 25.9186 19.5504 25.7839 19.5504C25.6493 19.5504 25.5349 19.5976 25.4408 19.692C25.3484 19.7832 25.3021 19.8944 25.3021 20.0256C25.3021 20.16 25.3484 20.2736 25.4408 20.3664C25.5349 20.4576 25.6493 20.5032 25.7839 20.5032C25.9186 20.5032 26.0321 20.4576 26.1246 20.3664C26.2203 20.2736 26.2682 20.16 26.2682 20.0256C26.2682 19.8944 26.2203 19.7832 26.1246 19.692ZM24.5332 30.132C24.4472 30.044 24.3401 30 24.212 30C24.0838 30 23.976 30.044 23.8884 30.132C23.7991 30.2184 23.7545 30.3248 23.7545 30.4512C23.7545 30.504 23.7626 30.552 23.7789 30.5952C23.7837 30.6112 23.791 30.628 23.8008 30.6456C23.8089 30.668 23.8227 30.6904 23.8421 30.7128C23.8519 30.7288 23.8673 30.7472 23.8884 30.768C23.976 30.8544 24.0838 30.8976 24.212 30.8976C24.3401 30.8976 24.4472 30.8544 24.5332 30.768C24.551 30.7472 24.5673 30.7288 24.5819 30.7128C24.6403 30.6376 24.6695 30.5504 24.6695 30.4512C24.6695 30.3248 24.624 30.2184 24.5332 30.132ZM36.532 1.10159C36.5238 1.10959 36.5157 1.11679 36.5076 1.12319V6.40559C43.6649 12.284 52.0607 15.5152 61.6951 16.0992C61.9838 23.512 61.4615 30.4808 60.128 37.0056C57.6963 49.1048 49.8228 58.7664 36.5076 65.9904H36.5003V70.4496L36.5076 70.4568C47.0618 65.2632 55.0464 57.5416 60.4614 47.292C64.5558 38.0984 66.2016 26.592 65.3986 12.7728C53.6148 12.5856 43.9926 8.69519 36.532 1.10159Z" fill="#2F9DD6"/>
<path id="Vector_3" d="M41.245 50.9544C41.2385 50.9944 41.2353 51.0352 41.2353 51.0768C41.2353 51.2288 41.2904 51.3576 41.4007 51.4632C41.5094 51.572 41.64 51.6264 41.7925 51.6264C41.9466 51.6264 42.0804 51.572 42.194 51.4632C42.3011 51.3576 42.3546 51.2288 42.3546 51.0768C42.3546 51.0352 42.3497 50.9944 42.34 50.9544C42.3205 50.8552 42.2719 50.7648 42.194 50.6832C42.0804 50.576 41.9466 50.5224 41.7925 50.5224C41.64 50.5224 41.5094 50.576 41.4007 50.6832C41.3196 50.7648 41.2677 50.8552 41.245 50.9544ZM36.5754 35.8056H36.5V44.1456H38.8311L37.6485 40.1832C37.8562 40.0744 38.0508 39.9304 38.2325 39.7512C38.6932 39.3 38.9236 38.756 38.9236 38.1192C38.9236 37.4792 38.6932 36.932 38.2325 36.4776C37.7751 36.0296 37.2227 35.8056 36.5754 35.8056ZM36.5462 24.7176C36.5316 24.7176 36.5162 24.7176 36.5 24.7176V31.992H41.3034V29.4048C41.3034 28.1088 40.8394 27.004 39.9115 26.0904C38.9836 25.1752 37.8619 24.7176 36.5462 24.7176ZM43.8122 16.4736C43.6759 16.4736 43.5615 16.5192 43.4691 16.6104C43.375 16.7032 43.3279 16.8168 43.3279 16.9512C43.3279 17.084 43.375 17.1968 43.4691 17.2896C43.5242 17.344 43.5891 17.3848 43.6637 17.412C43.7092 17.4216 43.7586 17.4264 43.8122 17.4264C43.9452 17.4264 44.0579 17.3808 44.1504 17.2896C44.2461 17.1968 44.294 17.084 44.294 16.9512C44.294 16.8168 44.2461 16.7032 44.1504 16.6104C44.0579 16.5192 43.9452 16.4736 43.8122 16.4736ZM60.0449 17.7312C56.8767 17.4832 53.8635 16.936 51.0051 16.0896C45.1781 14.4704 40.3536 11.94 36.5316 8.49838V14.4984L43.6637 21.7008V17.844C43.4756 17.8168 43.3125 17.7344 43.1746 17.5968C43.1714 17.5952 43.1673 17.592 43.1625 17.5872C42.984 17.4128 42.8948 17.2008 42.8948 16.9512C42.8948 16.7 42.984 16.4848 43.1625 16.3056C43.3377 16.1344 43.5542 16.0488 43.8122 16.0488C44.0652 16.0488 44.281 16.1344 44.4594 16.3056C44.6363 16.4848 44.7247 16.7 44.7247 16.9512C44.7247 17.2008 44.6363 17.4128 44.4594 17.5872C44.4578 17.592 44.4546 17.5952 44.4497 17.5968C44.3232 17.7184 44.1755 17.7976 44.0068 17.8344V22.5192L36.5316 15.0312V21.9288C36.5414 21.9288 36.5527 21.9288 36.5657 21.9288C38.6632 21.9288 40.4534 22.6592 41.9361 24.12C43.4204 25.5856 44.1626 27.3528 44.1626 29.4216V32.1744C44.6071 32.328 45.0094 32.5816 45.3695 32.9352C46.0135 33.5704 46.3355 34.336 46.3355 35.232V44.2584C46.3355 45.1528 46.0135 45.916 45.3695 46.548C44.7303 47.1832 43.9557 47.5008 43.0457 47.5008H36.5V52.9824C36.5227 52.9776 36.5479 52.9752 36.5754 52.9752H36.5803C36.7555 52.9752 36.9047 53.0352 37.028 53.1552C37.1513 53.2768 37.213 53.4248 37.213 53.5992C37.213 53.772 37.1513 53.9192 37.028 54.0408C36.9047 54.1624 36.7555 54.2232 36.5803 54.2232H36.5754C36.5479 54.2232 36.5227 54.2224 36.5 54.2208V58.44H36.5584L40.1476 54.7008V52.4208L41.0625 51.576C41.0187 51.5152 40.9846 51.452 40.9603 51.3864C40.9214 51.2888 40.9019 51.1856 40.9019 51.0768C40.9019 50.8368 40.9903 50.6296 41.1671 50.4552C41.3375 50.2872 41.5451 50.2032 41.7901 50.2032C42.0334 50.2032 42.2435 50.2872 42.4203 50.4552C42.5598 50.5992 42.6409 50.7656 42.6636 50.9544C42.6717 50.9944 42.6758 51.0352 42.6758 51.0768C42.6758 51.3152 42.5906 51.52 42.4203 51.6912C42.2435 51.864 42.0334 51.9504 41.7901 51.9504C41.6278 51.9504 41.4818 51.9136 41.3521 51.84L40.4809 52.6248V54.8688L36.5316 58.9344L36.5 58.908V64.1832L36.5073 64.188C42.7123 61.2504 48.0591 56.6096 52.5478 50.2656C57.8055 43.4576 60.3045 32.6128 60.0449 17.7312ZM46.6324 19.3872C46.8092 19.2128 47.0242 19.1256 47.2772 19.1256C47.5319 19.1256 47.7493 19.2128 47.9294 19.3872C48.1062 19.5632 48.1946 19.776 48.1946 20.0256C48.1946 20.2768 48.1062 20.4896 47.9294 20.664C47.7493 20.8416 47.5319 20.9304 47.2772 20.9304C47.0242 20.9304 46.8092 20.8416 46.6324 20.664C46.454 20.4896 46.3647 20.2768 46.3647 20.0256C46.3647 19.776 46.454 19.5632 46.6324 19.3872ZM46.3453 20.8536L46.7005 21.084V23.7696L49.5062 26.652C49.6019 26.7448 49.7049 26.7448 49.8152 26.652L52.8569 23.6544C52.9023 23.584 52.8982 23.5056 52.8447 23.4192L50.9029 21.4104C50.8315 21.4328 50.7545 21.444 50.6717 21.444C50.5695 21.444 50.4738 21.428 50.3846 21.396C50.297 21.3544 50.2159 21.2976 50.1413 21.2256C49.9904 21.0816 49.915 20.9056 49.915 20.6976C49.915 20.5808 49.9377 20.4736 49.9831 20.376C50.0253 20.2992 50.078 20.2296 50.1413 20.1672C50.2873 20.0216 50.4641 19.9488 50.6717 19.9488C50.8826 19.9488 51.0627 20.0216 51.2119 20.1672C51.2752 20.2296 51.3255 20.2992 51.3628 20.376C51.3709 20.3936 51.3782 20.412 51.3847 20.4312C51.4155 20.5144 51.4309 20.6032 51.4309 20.6976C51.4309 20.9056 51.3579 21.0816 51.2119 21.2256C51.2022 21.2352 51.1892 21.2472 51.173 21.2616L53.1537 23.3112C53.2527 23.5128 53.2389 23.684 53.1124 23.8248L49.9904 26.9808C49.7779 27.1536 49.5678 27.1536 49.3602 26.9808L46.3453 23.9136V20.8536ZM57.4948 22.464L57.6992 22.7064L49.696 30.6288C49.6879 30.656 49.6797 30.684 49.6716 30.7128C49.6327 30.8408 49.5629 30.9544 49.4624 31.0536C49.3456 31.1672 49.2142 31.2432 49.0682 31.2816V44.2392L51.7278 41.568L51.594 41.4336V31.86L57.9912 25.4136L58.2175 25.668L51.9736 31.9608V41.2656L53.9835 43.2936L53.7304 43.5648L51.9711 41.8104L49.039 44.7384C48.807 44.8488 48.6926 44.7464 48.6959 44.4312V31.2912C48.5223 31.2624 48.369 31.1832 48.236 31.0536C48.1354 30.9544 48.0648 30.8408 48.0243 30.7128C47.9999 30.6296 47.9878 30.5424 47.9878 30.4512C47.9878 30.216 48.0705 30.0152 48.236 29.8488C48.4047 29.6824 48.6099 29.5992 48.8516 29.5992C49.0901 29.5992 49.2937 29.6824 49.4624 29.8488C49.5678 29.9496 49.6376 30.0672 49.6716 30.2016L57.4948 22.464ZM54.4434 19.092C54.6981 19.092 54.9163 19.1792 55.098 19.3536C55.2732 19.5296 55.3608 19.7432 55.3608 19.9944C55.3608 20.2472 55.2732 20.4592 55.098 20.6304C54.9163 20.808 54.6981 20.8968 54.4434 20.8968C54.1903 20.8968 53.9754 20.808 53.7986 20.6304C53.6201 20.4592 53.5309 20.2472 53.5309 19.9944C53.5309 19.7432 53.6201 19.5296 53.7986 19.3536C53.9754 19.1792 54.1903 19.092 54.4434 19.092ZM55.0177 34.536C54.849 34.4992 54.6997 34.416 54.5699 34.2864C54.3882 34.1104 54.2974 33.896 54.2974 33.6432C54.2974 33.392 54.3882 33.1784 54.5699 33.0024C54.7484 32.8248 54.9641 32.736 55.2172 32.736C55.4735 32.736 55.6909 32.8248 55.8693 33.0024C56.0478 33.1784 56.137 33.392 56.137 33.6432C56.137 33.896 56.0478 34.1104 55.8693 34.2864C55.7233 34.4304 55.5538 34.5176 55.3608 34.548V38.8704C55.5538 38.8944 55.7233 38.9784 55.8693 39.1224C56.0478 39.3016 56.137 39.5168 56.137 39.768C56.137 40.0176 56.0478 40.232 55.8693 40.4112C55.6909 40.5872 55.4735 40.6752 55.2172 40.6752C54.9641 40.6752 54.7484 40.5872 54.5699 40.4112C54.5472 40.3888 54.5253 40.3664 54.5042 40.344C54.4896 40.3296 54.4775 40.312 54.4677 40.2912C54.3542 40.1408 54.2974 39.9664 54.2974 39.768C54.2974 39.5168 54.3882 39.3016 54.5699 39.1224C54.6997 38.9944 54.849 38.9144 55.0177 38.8824V34.536ZM49.786 47.9472C49.9628 48.1216 50.0512 48.3328 50.0512 48.5808C50.0512 48.8256 49.9628 49.0352 49.786 49.2096C49.6092 49.3824 49.3967 49.4688 49.1485 49.4688C48.897 49.4688 48.6829 49.3824 48.5061 49.2096C48.4785 49.184 48.455 49.16 48.4355 49.1376L42.8121 54.6V58.3944C42.7034 58.524 42.5939 58.524 42.4836 58.3944V54.4968L48.2895 48.864C48.2587 48.7744 48.2433 48.68 48.2433 48.5808C48.2433 48.3328 48.3309 48.1216 48.5061 47.9472C48.6829 47.7744 48.897 47.688 49.1485 47.688C49.3967 47.688 49.6092 47.7744 49.786 47.9472ZM49.7252 48.5808C49.7252 48.4224 49.6684 48.2872 49.5548 48.1752C49.4445 48.0632 49.3091 48.0072 49.1485 48.0072C48.9879 48.0072 48.8508 48.0632 48.7372 48.1752C48.6237 48.2872 48.5669 48.4224 48.5669 48.5808C48.5669 48.7392 48.6237 48.8728 48.7372 48.9816C48.8508 49.0936 48.9879 49.1496 49.1485 49.1496C49.3091 49.1496 49.4445 49.0936 49.5548 48.9816C49.6684 48.8728 49.7252 48.7392 49.7252 48.5808ZM55.3608 39.2088C55.3186 39.196 55.2732 39.1896 55.2245 39.1896C55.0639 39.1896 54.9268 39.2456 54.8133 39.3576C54.6981 39.4712 54.6405 39.608 54.6405 39.768C54.6405 39.9264 54.6981 40.0616 54.8133 40.1736C54.9268 40.2872 55.0639 40.344 55.2245 40.344C55.3867 40.344 55.5254 40.2872 55.6406 40.1736C55.7542 40.0616 55.8109 39.9264 55.8109 39.768C55.8109 39.608 55.7542 39.4712 55.6406 39.3576C55.5579 39.2808 55.4646 39.2312 55.3608 39.2088ZM54.8133 34.0488C54.8749 34.1112 54.943 34.1568 55.0177 34.1856C55.0809 34.208 55.1499 34.2192 55.2245 34.2192C55.2732 34.2192 55.3186 34.216 55.3608 34.2096C55.4646 34.184 55.5579 34.1304 55.6406 34.0488C55.7542 33.9368 55.8109 33.8016 55.8109 33.6432C55.8109 33.4848 55.7542 33.348 55.6406 33.2328C55.5254 33.124 55.3867 33.0696 55.2245 33.0696C55.0639 33.0696 54.9268 33.124 54.8133 33.2328C54.6981 33.348 54.6405 33.4848 54.6405 33.6432C54.6405 33.8016 54.6981 33.9368 54.8133 34.0488ZM54.7865 19.6584C54.694 19.564 54.5797 19.5168 54.4434 19.5168C54.3088 19.5168 54.1944 19.564 54.1003 19.6584C54.0078 19.7496 53.9616 19.8616 53.9616 19.9944C53.9616 20.1272 54.0078 20.24 54.1003 20.3328C54.1944 20.424 54.3088 20.4696 54.4434 20.4696C54.5797 20.4696 54.694 20.424 54.7865 20.3328C54.8806 20.24 54.9276 20.1272 54.9276 19.9944C54.9276 19.8616 54.8806 19.7496 54.7865 19.6584ZM49.2799 30.5952C49.2961 30.552 49.3042 30.504 49.3042 30.4512C49.3042 30.3248 49.2612 30.2184 49.1752 30.132C49.0844 30.044 48.9765 30 48.8516 30C48.7234 30 48.6164 30.044 48.5304 30.132C48.4396 30.2184 48.3941 30.3248 48.3941 30.4512C48.3941 30.5504 48.4217 30.6376 48.4769 30.7128C48.4915 30.7288 48.5093 30.7472 48.5304 30.768C48.6164 30.8544 48.7234 30.8976 48.8516 30.8976C48.9765 30.8976 49.0844 30.8544 49.1752 30.768C49.1931 30.7472 49.2077 30.7288 49.219 30.7128C49.2369 30.6904 49.2499 30.668 49.258 30.6456C49.2709 30.628 49.2782 30.6112 49.2799 30.5952ZM47.2772 19.5504C47.1442 19.5504 47.0298 19.5976 46.9341 19.692C46.8417 19.7832 46.7954 19.8944 46.7954 20.0256C46.7954 20.16 46.8417 20.2736 46.9341 20.3664C47.0298 20.4576 47.1442 20.5032 47.2772 20.5032C47.4135 20.5032 47.5279 20.4576 47.6203 20.3664C47.7144 20.2736 47.7615 20.16 47.7615 20.0256C47.7615 19.8944 47.7144 19.7832 47.6203 19.692C47.5279 19.5976 47.4135 19.5504 47.2772 19.5504Z" fill="#2887B8"/>
<path id="Vector_4" d="M36.5316 21.9288C36.5211 21.9288 36.5105 21.9288 36.5 21.9288V24.7176C36.5162 24.7176 36.5316 24.7176 36.5462 24.7176C37.8619 24.7176 38.9836 25.1752 39.9115 26.0904C40.8394 27.004 41.3034 28.1088 41.3034 29.4048V31.992H36.5V35.8056H36.5754C37.2227 35.8056 37.7751 36.0296 38.2325 36.4776C38.6932 36.932 38.9236 37.4792 38.9236 38.1192C38.9236 38.756 38.6932 39.3 38.2325 39.7512C38.0508 39.9304 37.8562 40.0744 37.6485 40.1832L38.8311 44.1456H36.5V47.5008H43.0457C43.9557 47.5008 44.7303 47.1832 45.3695 46.548C46.0135 45.916 46.3355 45.1528 46.3355 44.2584V35.232C46.3355 34.336 46.0135 33.5704 45.3695 32.9352C45.0094 32.5816 44.6071 32.328 44.1626 32.1744V29.4216C44.1626 27.3528 43.4204 25.5856 41.9361 24.12C40.4534 22.6592 38.6632 21.9288 36.5657 21.9288C36.5527 21.9288 36.5414 21.9288 36.5316 21.9288ZM51.0051 16.0896C53.8635 16.936 56.8767 17.4832 60.0449 17.7312C60.3045 32.6128 57.8055 43.4576 52.5478 50.2656C48.0591 56.6096 42.7123 61.2504 36.5073 64.188H36.5V65.988C36.5049 65.988 36.5073 65.9888 36.5073 65.9904C49.8225 58.7664 57.696 49.1048 60.1277 37.0056C61.4611 30.4808 61.9835 23.512 61.6947 16.0992C52.0604 15.5152 43.6645 12.284 36.5073 6.40558V8.47438C36.5154 8.48238 36.5235 8.49038 36.5316 8.49838C40.3536 11.94 45.1781 14.4704 51.0051 16.0896Z" fill="#D8D8D8"/>
<path id="Vector_5" d="M36.5074 6.4056V1.1232C29.0225 8.7024 19.3913 12.5856 7.614 12.7728C6.81424 26.592 8.46161 38.0984 12.5561 47.292C17.9711 57.5416 25.9524 65.2608 36.5001 70.4496V65.9904V65.988C23.1914 58.7656 15.3196 49.1048 12.8846 37.0056C11.5544 30.4808 11.0328 23.512 11.32 16.0992C20.956 15.5184 29.3518 12.2872 36.5074 6.4056Z" fill="#38B9FC"/>
<path id="Vector_6" d="M36.5075 8.47438V6.40558C29.3519 12.2872 20.9561 15.5184 11.3201 16.0992C11.033 23.512 11.5545 30.4808 12.8847 37.0056C15.3197 49.1048 23.1915 58.7656 36.5002 65.988V64.188V64.1832C30.3001 61.2472 24.9565 56.608 20.4694 50.2656C15.2118 43.4576 12.7128 32.6128 12.9723 17.7312C16.1405 17.4832 19.1538 16.936 22.0122 16.0896C27.8441 14.4704 32.6759 11.932 36.5075 8.47438Z" fill="#FBFFFD"/>
<path id="Vector_7" d="M18.4933 33.0024C18.3116 32.8248 18.0942 32.736 17.8411 32.736C17.5864 32.736 17.3699 32.8248 17.1914 33.0024C17.0114 33.1784 16.9213 33.392 16.9213 33.6432C16.9213 33.896 17.0114 34.1104 17.1914 34.2864C17.3374 34.4304 17.507 34.5176 17.7 34.548V38.8704C17.507 38.8944 17.3374 38.9784 17.1914 39.1224C17.0114 39.3016 16.9213 39.5168 16.9213 39.768C16.9213 40.0176 17.0114 40.232 17.1914 40.4112C17.3699 40.5872 17.5864 40.6752 17.8411 40.6752C18.0942 40.6752 18.3116 40.5872 18.4933 40.4112C18.516 40.3888 18.5363 40.3664 18.5541 40.344C18.5687 40.3296 18.5825 40.312 18.5955 40.2912C18.7058 40.1408 18.7609 39.9664 18.7609 39.768C18.7609 39.5168 18.6717 39.3016 18.4933 39.1224C18.3619 38.9944 18.2126 38.9144 18.0455 38.8824V34.536C18.2126 34.4992 18.3619 34.416 18.4933 34.2864C18.6717 34.1104 18.7609 33.896 18.7609 33.6432C18.7609 33.392 18.6717 33.1784 18.4933 33.0024ZM17.8363 33.0696C17.9985 33.0696 18.1348 33.124 18.2451 33.2328C18.3635 33.348 18.4227 33.4848 18.4227 33.6432C18.4227 33.8016 18.3635 33.9368 18.2451 34.0488C18.1867 34.1112 18.1202 34.1568 18.0455 34.1856C17.9823 34.208 17.9125 34.2192 17.8363 34.2192C17.786 34.2192 17.7406 34.216 17.7 34.2096C17.5946 34.184 17.5021 34.1304 17.4226 34.0488C17.309 33.9368 17.2523 33.8016 17.2523 33.6432C17.2523 33.4848 17.309 33.348 17.4226 33.2328C17.5378 33.124 17.6757 33.0696 17.8363 33.0696ZM18.2451 39.3576C18.3635 39.4712 18.4227 39.608 18.4227 39.768C18.4227 39.9264 18.3635 40.0616 18.2451 40.1736C18.1348 40.2872 17.9985 40.344 17.8363 40.344C17.6757 40.344 17.5378 40.2872 17.4226 40.1736C17.309 40.0616 17.2523 39.9264 17.2523 39.768C17.2523 39.608 17.309 39.4712 17.4226 39.3576C17.5021 39.2808 17.5946 39.2312 17.7 39.2088C17.7406 39.196 17.786 39.1896 17.8363 39.1896C17.9985 39.1896 18.1348 39.2456 18.2451 39.3576ZM19.5299 19.9944C19.5299 19.7432 19.4406 19.5296 19.2622 19.3536C19.087 19.1792 18.8721 19.092 18.6174 19.092C18.3611 19.092 18.1437 19.1792 17.9652 19.3536C17.7884 19.5296 17.7 19.7432 17.7 19.9944C17.7 20.2472 17.7884 20.4592 17.9652 20.6304C18.1437 20.808 18.3611 20.8968 18.6174 20.8968C18.8721 20.8968 19.087 20.808 19.2622 20.6304C19.4406 20.4592 19.5299 20.2472 19.5299 19.9944ZM18.958 19.6584C19.0537 19.7496 19.1016 19.8616 19.1016 19.9944C19.1016 20.1272 19.0537 20.24 18.958 20.3328C18.8639 20.424 18.7504 20.4696 18.6174 20.4696C18.4811 20.4696 18.3667 20.424 18.2743 20.3328C18.1818 20.24 18.1356 20.1272 18.1356 19.9944C18.1356 19.8616 18.1818 19.7496 18.2743 19.6584C18.3667 19.564 18.4811 19.5168 18.6174 19.5168C18.7504 19.5168 18.8639 19.564 18.958 19.6584ZM26.7155 20.8536L26.3627 21.084V23.7696L23.5546 26.652C23.4573 26.7448 23.3543 26.7448 23.2456 26.652L20.2063 23.6544C20.1609 23.584 20.1642 23.5056 20.2161 23.4192L22.1554 21.4104C22.2284 21.4328 22.3055 21.444 22.3866 21.444C22.492 21.444 22.5878 21.428 22.6737 21.396C22.763 21.3544 22.8457 21.2976 22.9219 21.2256C23.0696 21.0816 23.1434 20.9056 23.1434 20.6976C23.1434 20.5808 23.1207 20.4736 23.0752 20.376C23.0363 20.2992 22.9852 20.2296 22.9219 20.1672C22.7759 20.0216 22.5975 19.9488 22.3866 19.9488C22.1773 19.9488 21.9989 20.0216 21.8513 20.1672C21.7848 20.2296 21.7328 20.2992 21.6955 20.376C21.6874 20.3936 21.6801 20.412 21.6736 20.4312C21.6461 20.5144 21.6323 20.6032 21.6323 20.6976C21.6323 20.9056 21.7053 21.0816 21.8513 21.2256C21.861 21.2352 21.8732 21.2472 21.8878 21.2616L19.907 23.3112C19.8097 23.5128 19.8227 23.684 19.946 23.8248L23.0728 26.9808C23.2821 27.1536 23.4921 27.1536 23.703 26.9808L26.7155 23.9136V20.8536ZM26.4308 19.3872C26.254 19.2128 26.0382 19.1256 25.7835 19.1256C25.5272 19.1256 25.3098 19.2128 25.1314 19.3872C24.9562 19.5632 24.8686 19.776 24.8686 20.0256C24.8686 20.2768 24.9562 20.4896 25.1314 20.664C25.3098 20.8416 25.5272 20.9304 25.7835 20.9304C26.0382 20.9304 26.254 20.8416 26.4308 20.664C26.6092 20.4896 26.6985 20.2768 26.6985 20.0256C26.6985 19.776 26.6092 19.5632 26.4308 19.3872ZM25.7835 19.5504C25.9182 19.5504 26.0317 19.5976 26.1242 19.692C26.2199 19.7832 26.2678 19.8944 26.2678 20.0256C26.2678 20.16 26.2199 20.2736 26.1242 20.3664C26.0317 20.4576 25.9182 20.5032 25.7835 20.5032C25.6489 20.5032 25.5345 20.4576 25.4404 20.3664C25.348 20.2736 25.3017 20.16 25.3017 20.0256C25.3017 19.8944 25.348 19.7832 25.4404 19.692C25.5345 19.5976 25.6489 19.5504 25.7835 19.5504ZM15.5635 22.464L15.3616 22.7064L23.3624 30.6288C23.3705 30.656 23.3786 30.684 23.3867 30.7128C23.4289 30.8408 23.5003 30.9544 23.6008 31.0536C23.716 31.1672 23.8466 31.2432 23.9926 31.2816V44.2392L21.333 41.568L21.4668 41.4336V31.86L15.0696 25.4136L14.8457 25.668L21.0848 31.9608V41.2656L19.0773 43.2936L19.3303 43.5648L21.0921 41.8104L24.0194 44.7384C24.253 44.8488 24.3673 44.7464 24.3625 44.4312V31.2912C24.5393 31.2624 24.6926 31.1832 24.8224 31.0536C24.9229 30.9544 24.9951 30.8408 25.0389 30.7128C25.0633 30.6296 25.0754 30.5424 25.0754 30.4512C25.0754 30.216 24.9911 30.0152 24.8224 29.8488C24.6537 29.6824 24.4501 29.5992 24.2116 29.5992C23.9731 29.5992 23.7695 29.6824 23.6008 29.8488C23.4954 29.9496 23.424 30.0672 23.3867 30.2016L15.5635 22.464ZM24.2116 30C24.3398 30 24.4468 30.044 24.5328 30.132C24.6236 30.2184 24.6691 30.3248 24.6691 30.4512C24.6691 30.5504 24.6399 30.6376 24.5815 30.7128C24.5669 30.7288 24.5506 30.7472 24.5328 30.768C24.4468 30.8544 24.3398 30.8976 24.2116 30.8976C24.0834 30.8976 23.9756 30.8544 23.888 30.768C23.8669 30.7472 23.8515 30.7288 23.8417 30.7128C23.8223 30.6904 23.8085 30.668 23.8004 30.6456C23.7906 30.628 23.7833 30.6112 23.7785 30.5952C23.7622 30.552 23.7541 30.504 23.7541 30.4512C23.7541 30.3248 23.7987 30.2184 23.888 30.132C23.9756 30.044 24.0834 30 24.2116 30Z" fill="#FDFFFF"/>
</g>
</g>
</g>
</svg>
