<svg width="181" height="180" viewBox="0 0 181 180" fill="none" xmlns="http://www.w3.org/2000/svg">
<path fill-rule="evenodd" clip-rule="evenodd" d="M118.343 70.0229C122.873 70.4348 124.933 66.1098 128.846 72.7002C129.67 74.3478 129.464 75.5835 130.494 77.2311L130.288 78.0549C129.258 76.4073 127.816 75.3776 125.757 75.3776C123.491 75.3776 121.844 74.1419 120.402 72.2883C119.784 71.4645 118.96 70.6407 118.343 70.0229ZM86.4203 50.2517C86.4203 50.6636 82.7132 52.3112 80.6537 50.0458C79.418 48.6041 78.5943 44.6911 83.3311 35.2174C85.8025 30.2746 88.4799 27.3913 90.3334 25.9497C91.5691 25.1259 91.981 25.1259 91.3632 26.7735C89.7156 29.4508 86.8322 33.5698 84.9787 39.1304C82.3014 47.9863 86.4203 49.8398 86.4203 50.2517ZM90.3334 180C115.253 180 137.702 169.908 153.972 153.638C170.242 137.368 180.333 114.92 180.333 90C180.333 65.2861 170.242 42.6316 153.972 26.3616C137.702 10.0915 115.253 0 90.3334 0C65.4135 0 42.965 10.0915 26.6949 26.3616C10.4249 42.6316 0.333374 65.0801 0.333374 90C0.333374 114.714 10.4249 137.368 26.6949 153.638C43.1709 169.908 65.6194 180 90.3334 180ZM145.322 144.989C140.585 149.725 135.23 153.844 129.464 157.346C86.6263 175.675 60.6767 131.808 80.0359 106.682C73.8574 102.563 66.0313 85.881 75.711 78.4668C71.592 83.8215 75.0931 101.945 86.0084 107.094C89.9215 108.947 93.6286 109.153 97.3357 109.565C108.045 110.183 114.018 113.684 122.667 120.275C125.757 122.54 129.052 125.629 132.553 123.158C135.23 121.51 140.791 118.009 140.173 113.478C144.704 111.419 147.587 109.977 149.647 105.446C150.471 103.593 150.883 101.327 151.5 99.8856C152.942 96.5904 153.766 97.4142 154.59 94.119C155.825 88.5584 152.118 86.4989 149.647 82.7918C146.558 77.849 142.233 71.6705 140.585 66.3158C138.526 59.9314 131.111 53.7529 122.462 49.8398C116.695 47.1625 111.752 44.897 105.78 42.4256C102.69 41.1899 99.1892 39.7483 98.1595 38.7185C95.6881 36.659 96.7178 30.0687 96.7178 26.7735C96.7178 23.0664 96.1 19.5652 91.3632 22.0366C83.949 25.1259 74.8872 39.1305 74.8872 39.5424C50.1732 47.7803 23.8116 58.0778 12.8963 83.6156C14.338 64.6682 22.7819 47.5744 35.3448 34.8055C49.3494 20.8009 68.9146 11.9451 90.3334 11.9451C111.752 11.9451 131.317 20.595 145.322 34.8055C159.327 48.8101 168.182 68.3753 168.182 89.7941C168.182 111.625 159.532 130.984 145.322 144.989Z" fill="#DAB57E"/>
</svg>
