<svg width="363" height="458" viewBox="0 0 363 458" fill="none" xmlns="http://www.w3.org/2000/svg">
<path d="M144.649 398.18C143.38 396.945 141.844 396.328 140.041 396.328H139.991C139.707 396.328 139.449 396.353 139.215 396.402C137.779 396.517 136.511 397.11 135.409 398.18C134.157 399.431 133.531 400.954 133.531 402.749C133.531 404.527 134.157 406.042 135.409 407.293C136.511 408.38 137.779 408.997 139.215 409.145C139.449 409.162 139.707 409.17 139.991 409.17H140.041C141.844 409.17 143.38 408.544 144.649 407.293C145.917 406.042 146.552 404.527 146.552 402.749C146.552 400.954 145.917 399.431 144.649 398.18ZM139.215 400.032C139.449 399.95 139.707 399.909 139.991 399.909C140.792 399.909 141.469 400.181 142.019 400.724C142.587 401.284 142.871 401.959 142.871 402.749C142.871 403.539 142.587 404.206 142.019 404.749C141.469 405.326 140.792 405.614 139.991 405.614C139.707 405.614 139.449 405.589 139.215 405.54C138.731 405.392 138.297 405.128 137.913 404.749C137.362 404.206 137.087 403.539 137.087 402.749C137.087 401.959 137.362 401.284 137.913 400.724C138.297 400.362 138.731 400.131 139.215 400.032ZM85.4301 367.803C82.9261 367.803 80.7644 368.668 78.9449 370.397C77.4926 371.878 76.6495 373.591 76.4158 375.533C76.3491 375.945 76.3157 376.365 76.3157 376.793C76.3157 379.246 77.1921 381.354 78.9449 383.115C80.7644 384.893 82.9261 385.782 85.4301 385.782C87.0827 385.782 88.585 385.404 89.9372 384.646L98.8513 392.722V415.813L139.215 457.378L139.54 457.649L180.18 415.813V392.722L189.144 384.646C190.479 385.404 191.982 385.782 193.651 385.782C196.155 385.782 198.317 384.893 200.136 383.115C201.889 381.354 202.765 379.246 202.765 376.793C202.765 376.365 202.724 375.945 202.64 375.533C202.406 373.591 201.572 371.878 200.136 370.397C198.317 368.668 196.155 367.803 193.651 367.803C191.13 367.803 188.994 368.668 187.241 370.397C185.421 372.191 184.511 374.323 184.511 376.793C184.511 377.912 184.712 378.974 185.112 379.979C185.363 380.654 185.713 381.304 186.164 381.93L176.749 390.623V414.085L139.816 452.562H139.215L102.282 414.085V390.623L92.9169 381.93C93.3342 381.304 93.6848 380.654 93.9686 379.979C94.3525 378.974 94.5445 377.912 94.5445 376.793C94.5445 374.323 93.6431 372.191 91.8402 370.397C90.0541 368.668 87.9173 367.803 85.4301 367.803ZM79.5708 376.793C79.5708 376.365 79.6376 375.945 79.7711 375.533C79.9381 374.513 80.4389 373.582 81.2735 372.743C82.4086 371.64 83.7691 371.088 85.355 371.088C86.9241 371.088 88.2679 371.64 89.3863 372.743C90.2377 373.582 90.7802 374.513 91.0139 375.533C91.0974 375.945 91.1391 376.365 91.1391 376.793C91.1391 378.357 90.5548 379.682 89.3863 380.769C88.2679 381.889 86.9241 382.448 85.355 382.448C83.7691 382.448 82.4086 381.889 81.2735 380.769C80.1384 379.682 79.5708 378.357 79.5708 376.793ZM187.942 376.793C187.942 376.365 187.975 375.945 188.042 375.533C188.276 374.513 188.81 373.582 189.645 372.743C190.763 371.64 192.107 371.088 193.676 371.088C195.262 371.088 196.639 371.64 197.807 372.743C198.609 373.582 199.11 374.513 199.31 375.533C199.41 375.945 199.46 376.365 199.46 376.793C199.46 378.357 198.909 379.682 197.807 380.769C196.639 381.889 195.262 382.448 193.676 382.448C192.107 382.448 190.763 381.889 189.645 380.769C188.509 379.682 187.942 378.357 187.942 376.793ZM139.215 105.551V76.8537C117.904 76.9954 99.6755 84.5114 84.5286 99.4016C69.2879 114.483 61.6676 132.668 61.6676 153.956V182.505C57.3775 184.135 53.463 186.671 49.924 190.112C43.3136 196.648 40.0084 204.526 40.0084 213.747V306.63C40.0084 315.834 43.3136 323.687 49.924 330.191C56.5345 336.727 64.5137 339.995 73.8618 339.995H139.215V305.469H118.257L130.301 265.313C127.613 264.144 125.143 262.456 122.889 260.25C118.198 255.607 115.853 250.009 115.853 243.456C115.853 236.871 118.198 231.24 122.889 226.564C127.446 222.119 132.888 219.814 139.215 219.649V180.406H90.7885V153.783C90.7885 140.447 95.5628 129.079 105.111 119.677C114.559 110.359 125.927 105.65 139.215 105.551ZM205.019 25.6331C205.019 28.2016 205.937 30.3831 207.773 32.1777C207.823 32.2271 207.865 32.26 207.898 32.2765C209.317 33.6924 210.995 34.5403 212.931 34.8202V74.5075L139.54 0.39328L66.1246 74.5075V34.8202C68.0443 34.5403 69.7136 33.6924 71.1325 32.2765C71.1993 32.26 71.241 32.2271 71.2577 32.1777C73.1273 30.3831 74.0621 28.2016 74.0621 25.6331C74.0621 23.0482 73.1273 20.8338 71.2577 18.9898C69.4549 17.2281 67.243 16.3472 64.6222 16.3472C62.0014 16.3472 59.7646 17.2281 57.9117 18.9898C56.1255 20.8338 55.2324 23.0482 55.2324 25.6331C55.2324 28.2016 56.1255 30.3831 57.9117 32.1777C57.9617 32.2271 58.0035 32.26 58.0369 32.2765C59.3556 33.5278 60.8747 34.3428 62.594 34.7214V82.929L139.54 5.87591L216.462 82.929V34.7214C218.198 34.3428 219.717 33.5278 221.019 32.2765C221.069 32.26 221.103 32.2271 221.119 32.1777C222.939 30.3831 223.849 28.2016 223.849 25.6331C223.849 23.0482 222.939 20.8338 221.119 18.9898C219.283 17.2281 217.063 16.3472 214.459 16.3472C211.805 16.3472 209.576 17.2281 207.773 18.9898C205.937 20.8338 205.019 23.0482 205.019 25.6331ZM210.928 22.1262C211.88 21.1877 213.057 20.7185 214.459 20.7185C215.828 20.7185 216.988 21.1877 217.939 22.1262C218.924 23.0811 219.417 24.2501 219.417 25.6331C219.417 26.9997 218.924 28.1604 217.939 29.1153C216.988 30.0538 215.828 30.523 214.459 30.523C213.908 30.523 213.399 30.4736 212.931 30.3749C212.163 30.095 211.496 29.6751 210.928 29.1153C209.96 28.1604 209.476 26.9997 209.476 25.6331C209.476 24.2501 209.96 23.0811 210.928 22.1262ZM61.0917 22.1262C62.0765 21.1877 63.2534 20.7185 64.6222 20.7185C66.0244 20.7185 67.2013 21.1877 68.1528 22.1262C69.1043 23.0811 69.5801 24.2501 69.5801 25.6331C69.5801 26.9997 69.1043 28.1604 68.1528 29.1153C67.5852 29.6751 66.9092 30.095 66.1246 30.3749C65.6739 30.4736 65.1731 30.523 64.6222 30.523C63.2534 30.523 62.0765 30.0538 61.0917 29.1153C60.1402 28.1604 59.6644 26.9997 59.6644 25.6331C59.6644 24.2501 60.1402 23.0811 61.0917 22.1262ZM3.1502 344.589C1.33066 346.383 0.420898 348.557 0.420898 351.109C0.420898 353.628 1.33066 355.784 3.1502 357.579C4.93635 359.357 7.12314 360.246 9.71056 360.246C12.298 360.246 14.4931 359.357 16.2959 357.579C16.563 357.316 16.8134 357.069 17.0471 356.838L74.9135 413.047V452.093C76.0152 453.426 77.1253 453.426 78.2437 452.093V411.985L18.5495 354.023C18.8667 353.101 19.0253 352.129 19.0253 351.109C19.0253 348.557 18.1155 346.383 16.2959 344.589C14.4931 342.811 12.298 341.921 9.71056 341.921C7.12314 341.921 4.93635 342.811 3.1502 344.589ZM3.75115 351.109C3.75115 349.479 4.33541 348.087 5.50392 346.935C6.63904 345.782 8.04125 345.206 9.71056 345.206C11.3632 345.206 12.7737 345.782 13.9422 346.935C15.0774 348.087 15.6449 349.479 15.6449 351.109C15.6449 352.738 15.0774 354.113 13.9422 355.233C12.7737 356.385 11.3632 356.962 9.71056 356.962C8.04125 356.962 6.63904 356.385 5.50392 355.233C4.33541 354.113 3.75115 352.738 3.75115 351.109ZM278.66 351.109C278.66 348.557 277.75 346.383 275.931 344.589C274.111 342.811 271.924 341.921 269.37 341.921C266.783 341.921 264.58 342.811 262.76 344.589C260.957 346.383 260.056 348.557 260.056 351.109C260.056 352.129 260.214 353.101 260.531 354.023L200.787 411.985V452.093C201.922 453.426 203.049 453.426 204.168 452.093V413.047L262.034 356.838C262.234 357.069 262.476 357.316 262.76 357.579C264.58 359.357 266.783 360.246 269.37 360.246C271.924 360.246 274.111 359.357 275.931 357.579C277.75 355.784 278.66 353.628 278.66 351.109ZM273.552 346.935C274.721 348.087 275.305 349.479 275.305 351.109C275.305 352.738 274.721 354.113 273.552 355.233C272.417 356.385 271.023 356.962 269.37 356.962C267.718 356.962 266.307 356.385 265.139 355.233C263.97 354.113 263.386 352.738 263.386 351.109C263.386 349.479 263.97 348.087 265.139 346.935C266.307 345.782 267.718 345.206 269.37 345.206C271.023 345.206 272.417 345.782 273.552 346.935ZM325.159 204.016C326.494 205.35 328.03 206.206 329.766 206.585V251.31C328.03 251.639 326.494 252.462 325.159 253.78C323.289 255.624 322.354 257.838 322.354 260.423C322.354 262.465 322.938 264.259 324.107 265.807C324.207 266.021 324.332 266.202 324.482 266.35C324.699 266.581 324.925 266.811 325.159 267.042C326.995 268.853 329.215 269.758 331.819 269.758C334.456 269.758 336.693 268.853 338.53 267.042C340.366 265.198 341.284 262.991 341.284 260.423C341.284 257.838 340.366 255.624 338.53 253.78C337.027 252.298 335.283 251.433 333.296 251.186V206.708C335.283 206.395 337.027 205.498 338.53 204.016C340.366 202.205 341.284 199.999 341.284 197.397C341.284 194.813 340.366 192.615 338.53 190.803C336.693 188.976 334.456 188.062 331.819 188.062C329.215 188.062 326.995 188.976 325.159 190.803C323.289 192.615 322.354 194.813 322.354 197.397C322.354 199.999 323.289 202.205 325.159 204.016ZM329.766 202.979C328.998 202.682 328.297 202.213 327.662 201.571C326.477 200.419 325.885 199.027 325.885 197.397C325.885 195.767 326.477 194.36 327.662 193.174C328.831 192.055 330.242 191.495 331.894 191.495C333.563 191.495 334.991 192.055 336.176 193.174C337.344 194.36 337.929 195.767 337.929 197.397C337.929 199.027 337.344 200.419 336.176 201.571C335.325 202.411 334.365 202.962 333.296 203.226C332.862 203.292 332.395 203.325 331.894 203.325C331.126 203.325 330.417 203.209 329.766 202.979ZM331.894 254.471C332.395 254.471 332.862 254.537 333.296 254.669C334.365 254.899 335.325 255.41 336.176 256.2C337.344 257.369 337.929 258.776 337.929 260.423C337.929 262.053 337.344 263.444 336.176 264.597C334.991 265.766 333.563 266.35 331.894 266.35C330.242 266.35 328.831 265.766 327.662 264.597C326.477 263.444 325.885 262.053 325.885 260.423C325.885 258.776 326.477 257.369 327.662 256.2C328.831 255.047 330.242 254.471 331.894 254.471ZM330.592 50.3543C328.722 48.5597 326.477 47.6624 323.856 47.6624C321.252 47.6624 319.04 48.5597 317.221 50.3543C315.385 52.1654 314.467 54.3634 314.467 56.9483C314.467 59.5497 315.385 61.7312 317.221 63.4929C319.04 65.3204 321.252 66.2342 323.856 66.2342C326.477 66.2342 328.722 65.3204 330.592 63.4929C332.395 61.7312 333.296 59.5497 333.296 56.9483C333.296 54.3634 332.395 52.1654 330.592 50.3543ZM323.856 52.0337C325.259 52.0337 326.436 52.5194 327.387 53.4908C328.355 54.4293 328.839 55.5818 328.839 56.9483C328.839 58.3148 328.355 59.4756 327.387 60.4305C326.436 61.369 325.259 61.8382 323.856 61.8382C322.471 61.8382 321.294 61.369 320.326 60.4305C319.374 59.4756 318.899 58.3148 318.899 56.9483C318.899 55.5818 319.374 54.4293 320.326 53.4908C321.294 52.5194 322.471 52.0337 323.856 52.0337ZM357.359 84.8554L355.256 82.361L274.754 161.983C274.403 160.6 273.686 159.389 272.601 158.352C270.864 156.64 268.769 155.784 266.316 155.784C263.828 155.784 261.717 156.64 259.981 158.352C258.278 160.064 257.427 162.131 257.427 164.551C257.427 165.49 257.552 166.387 257.802 167.243C258.219 168.56 258.946 169.729 259.981 170.75C261.349 172.083 262.927 172.898 264.713 173.195V308.408C264.68 311.652 265.857 312.705 268.244 311.569L298.416 281.44L316.52 299.493L319.124 296.702L298.441 275.834V180.085L362.693 115.331L360.364 112.713L294.535 179.048V277.562L295.912 278.945L268.544 306.433V173.096C270.047 172.701 271.399 171.919 272.601 170.75C273.635 169.729 274.353 168.56 274.754 167.243C274.837 166.947 274.921 166.658 275.004 166.379L357.359 84.8554ZM270.973 164.551C270.973 165.094 270.889 165.588 270.723 166.033C270.706 166.197 270.631 166.37 270.497 166.551C270.414 166.782 270.28 167.012 270.097 167.243C269.98 167.408 269.829 167.597 269.646 167.811C268.711 168.7 267.601 169.145 266.316 169.145C264.997 169.145 263.895 168.7 263.01 167.811C262.793 167.597 262.61 167.408 262.46 167.243C261.892 166.469 261.608 165.572 261.608 164.551C261.608 163.25 262.076 162.155 263.01 161.266C263.895 160.361 264.997 159.908 266.316 159.908C267.601 159.908 268.711 160.361 269.646 161.266C270.531 162.155 270.973 163.25 270.973 164.551ZM244.181 68.1605L240.525 65.7897V97.2777L271.549 128.84C273.686 130.618 275.847 130.618 278.034 128.84L310.16 96.364C311.462 94.9151 311.604 93.1534 310.585 91.0789L290.203 69.9881C290.37 69.8399 290.504 69.7164 290.604 69.6176C292.106 68.1358 292.858 66.3248 292.858 64.1844C292.858 63.213 292.699 62.2992 292.382 61.4431C292.315 61.2455 292.24 61.0562 292.156 60.8751C291.772 60.0848 291.255 59.3686 290.604 58.7265C289.068 57.2282 287.215 56.4791 285.045 56.4791C282.908 56.4791 281.089 57.2282 279.587 58.7265C278.936 59.3686 278.393 60.0848 277.959 60.8751C277.492 61.8794 277.258 62.9825 277.258 64.1844C277.258 66.3248 278.034 68.1358 279.587 69.6176C280.354 70.3585 281.189 70.943 282.091 71.3711C283.009 71.7004 283.993 71.865 285.045 71.865C285.896 71.865 286.689 71.7498 287.424 71.5193L307.405 92.1902C307.956 93.0793 307.998 93.8861 307.531 94.6105L276.231 125.456C275.096 126.411 274.036 126.411 273.051 125.456L244.181 95.7959V68.1605ZM250.115 48.0082C247.511 48.0082 245.299 48.9055 243.48 50.7001C241.643 52.5112 240.725 54.7009 240.725 57.2694C240.725 59.8543 241.643 62.044 243.48 63.8386C245.299 65.6662 247.511 66.5799 250.115 66.5799C252.736 66.5799 254.973 65.6662 256.826 63.8386C258.645 62.044 259.555 59.8543 259.555 57.2694C259.555 54.7009 258.645 52.5112 256.826 50.7001C254.973 48.9055 252.736 48.0082 250.115 48.0082ZM246.584 53.8366C247.569 52.8652 248.746 52.3795 250.115 52.3795C251.517 52.3795 252.694 52.8652 253.646 53.8366C254.614 54.775 255.098 55.9193 255.098 57.2694C255.098 58.6524 254.614 59.8213 253.646 60.7763C252.694 61.7147 251.517 62.184 250.115 62.184C248.746 62.184 247.569 61.7147 246.584 60.7763C245.633 59.8213 245.157 58.6524 245.157 57.2694C245.157 55.9193 245.633 54.775 246.584 53.8366Z" fill="#F2F5F4" fill-opacity="0.2"/>
</svg>
